<?xml version="1.0" encoding="UTF-8"?>
<svg id="katman_1" data-name="katman 1" xmlns="http://www.w3.org/2000/svg" xmlns:xlink="http://www.w3.org/1999/xlink" version="1.1" viewBox="0 0 1350 1350">
  <defs>
    <style>
      .cls-1 {
        clip-path: url(#clippath);
      }

      .cls-2, .cls-3 {
        fill: #2d2d25;
      }

      .cls-3 {
        stroke-width: 0px;
      }
    </style>
    <clipPath id="clippath">
      <path class="cls-3" d="M153.06,771.06c19.48,2.83,23.78-26.76,4.3-29.59-.89-.13-1.74-.19-2.57-.19-17.25,0-20.32,27.07-1.73,29.78M89.96,754.87c10.39,1.51,12.7-14.34,2.3-15.85-.47-.07-.93-.1-1.37-.1-9.21,0-10.86,14.51-.94,15.95M101.64,701.72c15.24,2.22,18.62-21.03,3.38-23.25-.69-.1-1.36-.15-2-.15-13.51,0-15.93,21.28-1.38,23.39M56.52,678.08c10.39,1.51,12.7-14.34,2.3-15.85-.47-.07-.93-.1-1.36-.1-9.21,0-10.86,14.51-.94,15.95M94.26,641.13c10.39,1.51,12.7-14.34,2.3-15.85-.47-.07-.93-.1-1.37-.1-9.21,0-10.86,14.51-.94,15.95M145.62,644.1c19.48,2.83,23.78-26.75,4.3-29.59-.89-.13-1.74-.19-2.57-.19-17.25,0-20.32,27.07-1.73,29.78M285.73,788.84l21.16,3.34c-6.22,6.17-7.98,16.22-10.16,31.14l-66.69-22.53c14.74-1.7,29.01-5.33,42.49-10.66,1.67,1.53,3.82,2.27,5.96,2.27,2.76,0,5.52-1.22,7.24-3.55M290.05,782c21.53-11.52,40.35-27.56,55.11-47.03l4.97-.4c4.69,5.63,9,11.58,12.89,17.8,1.76,19.33,1.54,29.82-13.89,31.38-3.17.32-6.67.39-10.43.46-9.62.42-15.8,1.04-22.21,1.04-6.96,0-14.2-.73-26.43-3.24M311.99,701.23c9.6,6.02,18.63,13.08,26.9,21.17-1.2,2.52-1.09,5.65.2,8.04-14.62,19.29-33.45,35.07-54.97,46.13-3.49-2.79-8.8-2.42-11.9.7-25.24-8.27-47.25-22.22-65.35-40.95.35-.57.65-1.17.89-1.8,34.15-.11,66.27-12.04,91.76-32.36,1.68.98,3.59,1.45,5.5,1.45,2.52,0,5.03-.82,6.97-2.38M178.43,696.16c3.61-3.36,5.59-8.69,4.9-13.73,37.28-10.36,76.56-6.72,110.78,9.11-.17,1.67.05,3.3.58,4.79-24.11,19.17-54.43,30.43-86.68,30.6-1.28-4.03-4.76-7.18-9.22-7.83-2.06-.3-4.07-.03-5.88.7-5.49-7.44-10.34-15.36-14.48-23.65M355.4,729.08c.87-2.58.45-5.51-.96-7.7,10.41-16.96,17.96-36.03,21.86-56.62,3.05,4.73,22.13,33.93,21.02,34.59-2.29,1.36-11.63.22-18.41,3.06-12.38,5.19-4.42,13.01-1.5,18.48,5.19,9.73-13.98,6.67-6.6,16.48l-4.51,6.19c-3.38-5.02-7.02-9.85-10.91-14.48M333.9,671.96c11.95-2.04,23.76-5.39,35.22-10.08-3.64,20.21-10.94,38.91-21.11,55.49-1.11-.13-2.2-.06-3.23.2-8.85-8.74-18.55-16.37-28.87-22.83l-.87-6.85c2.97-3.15,5.8-6.43,8.5-9.83.62.13,1.23.19,1.84.19,3.87,0,7.37-2.56,8.52-6.29M204.52,640.89c32.68,24.42,72.8,35.84,112.58,33.09-2.38,2.98-4.87,5.85-7.47,8.61-.92-.42-1.92-.71-2.97-.87-3.52-.51-6.89.7-9.26,2.99-36.03-16.72-77.5-20.51-116.89-9.35-.38-.53-.79-1.04-1.24-1.52,4.35-11.22,9.9-21.76,16.47-31.51.89.23,1.8.34,2.7.34,2.18,0,4.32-.64,6.07-1.78M349.94,626.06c1.11-.15,2.17-.46,3.16-.91,6.71,8.64,12.57,17.97,17.44,27.88-12.11,5.37-24.68,9.15-37.41,11.37,7.28-11.71,12.99-24.57,16.81-38.34M358.59,619.88c2.66-5.3.57-11.98-4.4-14.92l1.04-25.77c10.81,17.98,17.12,40.11,16.99,60.91-4.07-7.08-8.62-13.84-13.63-20.22M209.07,634.82c.86-2.87.46-6.07-.94-8.57,19.46-22.22,44.73-38.77,72.93-47.66,4.24,5.13,12.29,5.8,17.32,1.49,14.91,7.5,28.47,17.26,40.26,28.82-3.17,5.29-1.32,12.45,3.85,15.6-3.63,12.92-9.02,24.99-15.86,35.99-4.29-.61-8.3,1.94-9.68,5.88-3.83.27-7.66.41-11.48.41-34.25,0-68.22-10.9-96.41-31.97M302.33,573.59l.03-.13c14.48-2.46,29.51-2.96,44.77-1.26,1.04,10.45.91,20.78-.41,31.31-.76.11-1.5.3-2.21.56-12.33-12.22-26.54-22.53-42.19-30.48M344.47,564.3c-14.6-1.32-28.98-.72-42.87,1.6-1.64-3.7-5.09-6.5-9.39-7.13-4.89-.71-9.53,1.59-12.03,5.5-35.49-12.02-75.42-11.75-110.54.71,45.56-54.08,128.86-54.52,174.83-.68M159.03,566.17c-14.7-3.66-19.27,19.44-4.24,21.63,7.78,1.13,14.23-6.33,12.25-13.76,35.22-13.88,75.01-14.76,111.07-2.45-29.46,9.43-55.62,26.76-75.73,49.73-10.01-3.76-18.94,8.22-12.88,16.73-6.61,9.8-12.23,20.36-16.71,31.55-9.26-3.18-19.43,2.91-20.86,12.7-1.63,11.22,9.18,20.49,19.86,17.56,4.42,8.8,9.58,17.15,15.4,24.98-4.98,8.92,4.2,19.7,13.77,16.28,18.37,19.13,41.2,33.93,66.89,42.7-16.52,6.29-34.23,9.92-52.53,10.43-2.73-8.6-15.98-7.89-17.33,1.41-1.24,8.55,9.54,13.42,15.27,7.45l89.66,30.29.9-6.2h-.01c3.01-20.78,4.51-31.13,19.83-34.28,27.56-.16,51.29,1.82,47.32-37.39h0c-.48-4.42-1.01-4.71,1.91-7.94,8.24-9.13,5.65-12.57,4.01-14.75-.56-.74,0-.01.67.72.53.57,1.14,1.13,1.38,1.01,9.48-5.05,8.46-11.07,5.18-17.21-4.52-8.47-5.79-6.47-2.28-7.94,7.68-3.22,32.12,2.11,19.54-19.03l-22.05-35.45.39-.18c-.32-.71-.64-1.41-.97-2.11,1.4-11.66,1.31-12.78.41-23.89-2.59-28.42-13.86-53.56-32.82-73.73-24.36-25.92-56.65-38.42-88.74-38.41-37.43,0-74.59,17.01-98.56,49.56"/>
    </clipPath>
  </defs>
  <path class="cls-3" d="M461.18,602.21c0-2.02,1.64-3.66,3.66-3.66h40.78c17.41,0,29.76,2.38,37.04,7.15,7.29,4.77,11.89,12.68,13.81,23.73,1.92,11.05,2.89,29.55,2.89,55.5s-.97,44.45-2.89,55.5c-1.93,11.05-6.53,18.96-13.81,23.73-7.28,4.77-19.63,7.16-37.04,7.16h-40.78c-2.02,0-3.66-1.64-3.66-3.67v-165.45ZM504.88,745.46c8.87,0,14.9-1,18.09-3.02,3.17-2.01,5.27-6.82,6.28-14.44,1-7.61,1.5-21.97,1.5-43.07s-.5-35.24-1.5-42.94c-1-7.7-3.1-12.56-6.28-14.57-3.19-2.01-9.21-3.01-18.09-3.01h-11.4c-2.02,0-3.67,1.64-3.67,3.66v113.72c0,2.02,1.64,3.66,3.67,3.66h11.4Z"/>
  <path class="cls-3" d="M633.21,695.29v-18.69c0-1.91,1.55-3.46,3.46-3.46h39.28c1.91,0,3.46,1.55,3.46,3.46v89.02c0,1.59-1.02,2.99-2.56,3.37-4.87,1.2-10.68,2.19-17.41,2.97-7.95.92-15.53,1.38-22.73,1.38-15.57,0-27.16-2.39-34.78-7.15-7.62-4.77-12.85-13.27-15.7-25.49-2.85-12.22-4.27-30.8-4.27-55.75s1.5-43.53,4.52-55.75c3.01-12.22,8.45-20.72,16.32-25.49,7.87-4.77,19.84-7.16,35.91-7.16,6.36,0,13.31.46,20.85,1.38,6.37.78,11.96,1.77,16.77,2.97,1.54.38,2.56,1.79,2.56,3.37v17.42c0,2.11-1.8,3.71-3.88,3.41-4.22-.61-8.66-1.17-13.32-1.68-6.11-.67-10.76-1-13.94-1-12.05,0-20.38,1.05-24.99,3.14-4.61,2.09-7.78,7.28-9.54,15.57-1.76,8.29-2.64,22.9-2.64,43.82,0,19.42.59,33.32,1.76,41.69,1.17,8.38,3.52,14.06,7.03,17.08,3.52,3.01,9.38,4.52,17.58,4.52,3.65,0,7.58-.27,11.78-.82,1.72-.22,3.04-1.73,3.04-3.47v-41.72c0-1.91-1.55-3.46-3.46-3.46h-11.66c-1.91,0-3.46-1.55-3.46-3.46"/>
  <path class="cls-3" d="M730.14,767.85v-139.2c0-1.92-1.56-3.48-3.48-3.48h-27.7c-1.92,0-3.48-1.56-3.48-3.48v-19.66c0-1.92,1.56-3.48,3.48-3.48h90.73c1.92,0,3.48,1.56,3.48,3.48v19.66c0,1.92-1.56,3.48-3.48,3.48h-27.44c-1.92,0-3.48,1.56-3.48,3.48v139.2c0,1.92-1.56,3.48-3.48,3.48h-21.67c-1.92,0-3.48-1.56-3.48-3.48"/>
  <path class="cls-3" d="M811.26,767.89v-165.9c0-1.9,1.54-3.44,3.44-3.44h21.74c1.9,0,3.44,1.54,3.44,3.44v139.28c0,1.9,1.54,3.44,3.44,3.44h40.83c1.9,0,3.44,1.54,3.44,3.44v19.74c0,1.9-1.54,3.44-3.44,3.44h-69.46c-1.9,0-3.44-1.54-3.44-3.44"/>
  <path class="cls-3" d="M906.18,767.94v-166.01c0-1.87,1.52-3.39,3.39-3.39h71.58c1.87,0,3.39,1.52,3.39,3.39v19.1c0,1.87-1.52,3.39-3.39,3.39h-42.95c-1.87,0-3.39,1.52-3.39,3.39v43.96c0,1.87,1.52,3.39,3.39,3.39h37.43c1.87,0,3.39,1.52,3.39,3.39v19.1c0,1.87-1.52,3.39-3.39,3.39h-37.43c-1.87,0-3.39,1.52-3.39,3.39v63.55c0,1.87-1.52,3.39-3.39,3.39h-21.86c-1.87,0-3.39-1.52-3.39-3.39"/>
  <path class="cls-3" d="M1070.7,767.9l-6.84-32.32c-.42-2-2.19-3.43-4.23-3.43h-37.17c-2.05,0-3.82,1.44-4.24,3.46l-6.62,32.27c-.41,2.01-2.18,3.46-4.24,3.46h-19.96c-2.77,0-4.82-2.57-4.22-5.27l36.74-164.13c.44-1.97,2.2-3.38,4.22-3.38h34.51c2.02,0,3.78,1.4,4.22,3.38l36.74,164.13c.6,2.7-1.45,5.27-4.22,5.27h-20.48c-2.04,0-3.81-1.43-4.23-3.43M1041.8,626.93h-1.51l-15.03,74.43c-.54,2.68,1.51,5.18,4.24,5.18h22.85c2.73,0,4.77-2.49,4.24-5.17l-14.8-74.44Z"/>
  <path class="cls-3" d="M1182.31,772.2c-5.45.75-10.59,1.13-15.45,1.13-15.57,0-26.96-2.47-34.16-7.41-7.2-4.93-11.97-13.39-14.31-25.36-2.35-11.97-3.52-30.51-3.52-55.63s1.21-43.2,3.64-55.25c2.43-12.06,7.24-20.6,14.44-25.62,7.2-5.02,18.5-7.54,33.91-7.54,5.19,0,10.46.38,15.82,1.13,3.86.54,7.06,1.19,9.62,1.95,1.59.47,2.69,1.88,2.69,3.54v17.05c0,2.22-2.02,3.89-4.22,3.6-7.07-.94-13.2-1.41-18.38-1.41-9.54,0-16.2,1.25-19.96,3.76-3.77,2.51-6.2,7.79-7.28,15.82-1.1,8.04-1.64,22.35-1.64,42.94s.54,34.91,1.64,42.95c1.09,8.04,3.52,13.31,7.28,15.82,3.76,2.51,10.42,3.77,19.96,3.77,6.75,0,13.06-.43,18.94-1.3,2.22-.33,4.16,1.32,4.16,3.56v16.86c0,1.62-.98,3.09-2.54,3.52-2.94.82-6.48,1.52-10.64,2.09"/>
  <path class="cls-3" d="M1217.84,767.84v-165.8c0-1.93,1.56-3.49,3.49-3.49h75.39c1.93,0,3.49,1.56,3.49,3.49v18.88c0,1.93-1.56,3.49-3.49,3.49h-46.76c-1.93,0-3.49,1.56-3.49,3.49v39.73c0,1.93,1.56,3.49,3.49,3.49h39.48c1.93,0,3.49,1.56,3.49,3.49v18.88c0,1.93-1.56,3.49-3.49,3.49h-39.48c-1.93,0-3.49,1.56-3.49,3.49v41.49c0,1.93,1.56,3.49,3.49,3.49h46.76c1.93,0,3.49,1.56,3.49,3.49v18.88c0,1.93-1.56,3.49-3.49,3.49h-75.39c-1.93,0-3.49-1.56-3.49-3.49"/>
  <g>
    <path class="cls-2" d="M153.06,771.06c19.48,2.83,23.78-26.76,4.3-29.59-.89-.13-1.74-.19-2.57-.19-17.25,0-20.32,27.07-1.73,29.78M89.96,754.87c10.39,1.51,12.7-14.34,2.3-15.85-.47-.07-.93-.1-1.37-.1-9.21,0-10.86,14.51-.94,15.95M101.64,701.72c15.24,2.22,18.62-21.03,3.38-23.25-.69-.1-1.36-.15-2-.15-13.51,0-15.93,21.28-1.38,23.39M56.52,678.08c10.39,1.51,12.7-14.34,2.3-15.85-.47-.07-.93-.1-1.36-.1-9.21,0-10.86,14.51-.94,15.95M94.26,641.13c10.39,1.51,12.7-14.34,2.3-15.85-.47-.07-.93-.1-1.37-.1-9.21,0-10.86,14.51-.94,15.95M145.62,644.1c19.48,2.83,23.78-26.75,4.3-29.59-.89-.13-1.74-.19-2.57-.19-17.25,0-20.32,27.07-1.73,29.78M285.73,788.84l21.16,3.34c-6.22,6.17-7.98,16.22-10.16,31.14l-66.69-22.53c14.74-1.7,29.01-5.33,42.49-10.66,1.67,1.53,3.82,2.27,5.96,2.27,2.76,0,5.52-1.22,7.24-3.55M290.05,782c21.53-11.52,40.35-27.56,55.11-47.03l4.97-.4c4.69,5.63,9,11.58,12.89,17.8,1.76,19.33,1.54,29.82-13.89,31.38-3.17.32-6.67.39-10.43.46-9.62.42-15.8,1.04-22.21,1.04-6.96,0-14.2-.73-26.43-3.24M311.99,701.23c9.6,6.02,18.63,13.08,26.9,21.17-1.2,2.52-1.09,5.65.2,8.04-14.62,19.29-33.45,35.07-54.97,46.13-3.49-2.79-8.8-2.42-11.9.7-25.24-8.27-47.25-22.22-65.35-40.95.35-.57.65-1.17.89-1.8,34.15-.11,66.27-12.04,91.76-32.36,1.68.98,3.59,1.45,5.5,1.45,2.52,0,5.03-.82,6.97-2.38M178.43,696.16c3.61-3.36,5.59-8.69,4.9-13.73,37.28-10.36,76.56-6.72,110.78,9.11-.17,1.67.05,3.3.58,4.79-24.11,19.17-54.43,30.43-86.68,30.6-1.28-4.03-4.76-7.18-9.22-7.83-2.06-.3-4.07-.03-5.88.7-5.49-7.44-10.34-15.36-14.48-23.65M355.4,729.08c.87-2.58.45-5.51-.96-7.7,10.41-16.96,17.96-36.03,21.86-56.62,3.05,4.73,22.13,33.93,21.02,34.59-2.29,1.36-11.63.22-18.41,3.06-12.38,5.19-4.42,13.01-1.5,18.48,5.19,9.73-13.98,6.67-6.6,16.48l-4.51,6.19c-3.38-5.02-7.02-9.85-10.91-14.48M333.9,671.96c11.95-2.04,23.76-5.39,35.22-10.08-3.64,20.21-10.94,38.91-21.11,55.49-1.11-.13-2.2-.06-3.23.2-8.85-8.74-18.55-16.37-28.87-22.83l-.87-6.85c2.97-3.15,5.8-6.43,8.5-9.83.62.13,1.23.19,1.84.19,3.87,0,7.37-2.56,8.52-6.29M204.52,640.89c32.68,24.42,72.8,35.84,112.58,33.09-2.38,2.98-4.87,5.85-7.47,8.61-.92-.42-1.92-.71-2.97-.87-3.52-.51-6.89.7-9.26,2.99-36.03-16.72-77.5-20.51-116.89-9.35-.38-.53-.79-1.04-1.24-1.52,4.35-11.22,9.9-21.76,16.47-31.51.89.23,1.8.34,2.7.34,2.18,0,4.32-.64,6.07-1.78M349.94,626.06c1.11-.15,2.17-.46,3.16-.91,6.71,8.64,12.57,17.97,17.44,27.88-12.11,5.37-24.68,9.15-37.41,11.37,7.28-11.71,12.99-24.57,16.81-38.34M358.59,619.88c2.66-5.3.57-11.98-4.4-14.92l1.04-25.77c10.81,17.98,17.12,40.11,16.99,60.91-4.07-7.08-8.62-13.84-13.63-20.22M209.07,634.82c.86-2.87.46-6.07-.94-8.57,19.46-22.22,44.73-38.77,72.93-47.66,4.24,5.13,12.29,5.8,17.32,1.49,14.91,7.5,28.47,17.26,40.26,28.82-3.17,5.29-1.32,12.45,3.85,15.6-3.63,12.92-9.02,24.99-15.86,35.99-4.29-.61-8.3,1.94-9.68,5.88-3.83.27-7.66.41-11.48.41-34.25,0-68.22-10.9-96.41-31.97M302.33,573.59l.03-.13c14.48-2.46,29.51-2.96,44.77-1.26,1.04,10.45.91,20.78-.41,31.31-.76.11-1.5.3-2.21.56-12.33-12.22-26.54-22.53-42.19-30.48M344.47,564.3c-14.6-1.32-28.98-.72-42.87,1.6-1.64-3.7-5.09-6.5-9.39-7.13-4.89-.71-9.53,1.59-12.03,5.5-35.49-12.02-75.42-11.75-110.54.71,45.56-54.08,128.86-54.52,174.83-.68M159.03,566.17c-14.7-3.66-19.27,19.44-4.24,21.63,7.78,1.13,14.23-6.33,12.25-13.76,35.22-13.88,75.01-14.76,111.07-2.45-29.46,9.43-55.62,26.76-75.73,49.73-10.01-3.76-18.94,8.22-12.88,16.73-6.61,9.8-12.23,20.36-16.71,31.55-9.26-3.18-19.43,2.91-20.86,12.7-1.63,11.22,9.18,20.49,19.86,17.56,4.42,8.8,9.58,17.15,15.4,24.98-4.98,8.92,4.2,19.7,13.77,16.28,18.37,19.13,41.2,33.93,66.89,42.7-16.52,6.29-34.23,9.92-52.53,10.43-2.73-8.6-15.98-7.89-17.33,1.41-1.24,8.55,9.54,13.42,15.27,7.45l89.66,30.29.9-6.2h-.01c3.01-20.78,4.51-31.13,19.83-34.28,27.56-.16,51.29,1.82,47.32-37.39h0c-.48-4.42-1.01-4.71,1.91-7.94,8.24-9.13,5.65-12.57,4.01-14.75-.56-.74,0-.01.67.72.53.57,1.14,1.13,1.38,1.01,9.48-5.05,8.46-11.07,5.18-17.21-4.52-8.47-5.79-6.47-2.28-7.94,7.68-3.22,32.12,2.11,19.54-19.03l-22.05-35.45.39-.18c-.32-.71-.64-1.41-.97-2.11,1.4-11.66,1.31-12.78.41-23.89-2.59-28.42-13.86-53.56-32.82-73.73-24.36-25.92-56.65-38.42-88.74-38.41-37.43,0-74.59,17.01-98.56,49.56"/>
    <g class="cls-1">
      <rect class="cls-3" x="46.6" y="510.46" width="367.34" height="322.94"/>
    </g>
  </g>
</svg>