<svg width="30" height="26" viewBox="0 0 30 26" fill="none" xmlns="http://www.w3.org/2000/svg">
<path d="M8.72368 20.8858C10.3693 21.1178 10.7326 18.6902 9.087 18.4573C9.01173 18.4465 8.94019 18.4419 8.8705 18.4419C7.4126 18.4419 7.15335 20.6637 8.72368 20.8858ZM3.39292 19.5578C4.27101 19.6815 4.46521 18.3806 3.58712 18.2569C3.54717 18.2515 3.50907 18.2487 3.4719 18.2487C2.69417 18.2487 2.55479 19.4386 3.39292 19.5578ZM4.37972 15.1956C5.66758 15.377 5.95284 13.4694 4.66498 13.288C4.60645 13.2799 4.54976 13.2762 4.49587 13.2762C3.35483 13.2762 3.15041 15.0222 4.37972 15.1956ZM0.569116 13.2555C1.4472 13.3792 1.64233 12.0783 0.764246 11.9546C0.724291 11.9492 0.686194 11.9465 0.649027 11.9465C-0.129634 11.9456 -0.269013 13.1363 0.569116 13.2555ZM3.75717 10.2222C4.63525 10.3458 4.83038 9.04493 3.9523 8.92125C3.91234 8.91583 3.87424 8.91313 3.83708 8.91313C3.05842 8.91313 2.91904 10.1039 3.75717 10.2222ZM8.09462 10.4659C9.74022 10.6979 10.1035 8.27035 8.45794 8.03743C8.38267 8.0266 8.31112 8.02208 8.24143 8.02208C6.78446 8.02208 6.52522 10.2447 8.09462 10.4659ZM19.9306 22.3456L21.7175 22.6191C21.1925 23.1256 21.0429 23.9498 20.8589 25.1749L15.2252 23.326C16.4703 23.1869 17.6755 22.889 18.8147 22.4503C18.9559 22.5758 19.1371 22.6362 19.3183 22.6362C19.5534 22.6362 19.7857 22.536 19.9306 22.3456ZM20.2958 21.784C22.1152 20.8388 23.7041 19.5217 24.9511 17.9237L25.371 17.8903C25.7678 18.3526 26.1311 18.841 26.4591 19.351C26.6078 20.9381 26.5892 21.7985 25.2865 21.9258C25.0189 21.9519 24.7225 21.9574 24.4056 21.9628C23.5926 21.9971 23.0713 22.0485 22.5296 22.0485C21.9405 22.0494 21.3291 21.9899 20.2958 21.784ZM22.1486 15.1549C22.9589 15.6487 23.7217 16.2283 24.4205 16.8928C24.3192 17.0995 24.3285 17.3559 24.4372 17.5527C23.2023 19.1362 21.6115 20.4317 19.7941 21.3381C19.4986 21.1096 19.0507 21.1394 18.7887 21.3958C16.6571 20.7178 14.7978 19.5722 13.2684 18.0348C13.2972 17.9887 13.3232 17.9391 13.3436 17.8867C16.2288 17.8777 18.9411 16.8991 21.0949 15.2317C21.2362 15.312 21.3978 15.3508 21.5595 15.3508C21.7732 15.3508 21.9851 15.2831 22.1486 15.1549ZM10.8664 14.7387C11.1712 14.4634 11.3384 14.0256 11.2808 13.6121C14.4298 12.7617 17.7489 13.0605 20.6387 14.3605C20.6247 14.4977 20.6433 14.6313 20.6879 14.7541C18.6511 16.3267 16.0903 17.2521 13.3659 17.2656C13.2581 16.9352 12.9645 16.6761 12.5873 16.6237C12.4135 16.5994 12.2435 16.6219 12.0911 16.6806C11.6265 16.0685 11.2167 15.4194 10.8664 14.7387ZM25.8161 17.4408C25.8895 17.2295 25.8542 16.9885 25.7353 16.8088C26.6152 15.4167 27.2527 13.8522 27.5825 12.1622C27.8399 12.5504 29.452 14.9473 29.3582 15.0015C29.1649 15.1134 28.3751 15.0195 27.8037 15.2524C26.7574 15.6785 27.4311 16.3204 27.6773 16.7691C28.1149 17.5672 26.4963 17.3171 27.1198 18.1215L26.7388 18.6288C26.4526 18.2172 26.1451 17.8208 25.8161 17.4408ZM23.9996 12.7526C25.0087 12.5847 26.0066 12.3103 26.9748 11.9257C26.6673 13.5841 26.0503 15.1188 25.1917 16.4802C25.0979 16.4694 25.0059 16.4757 24.9185 16.4965C24.1705 15.7787 23.351 15.1531 22.4794 14.6223L22.406 14.0599C22.6569 13.8017 22.8966 13.5326 23.1243 13.2528C23.1763 13.2636 23.2283 13.2681 23.2794 13.2681C23.6065 13.269 23.9029 13.0587 23.9996 12.7526ZM13.0704 10.2023C15.8311 12.2065 19.2207 13.1435 22.5807 12.9178C22.38 13.1625 22.1691 13.3981 21.9498 13.6247C21.8717 13.5904 21.7881 13.566 21.6989 13.5534C21.4015 13.5119 21.1172 13.6103 20.9165 13.799C17.8725 12.4267 14.3694 12.1153 11.042 13.0316C11.0095 12.9883 10.9751 12.9458 10.9379 12.907C11.3059 11.9862 11.7742 11.1213 12.3289 10.3206C12.4042 10.3395 12.4804 10.3485 12.5566 10.3485C12.7415 10.3485 12.9227 10.2962 13.0704 10.2023ZM25.3552 8.98535C25.4491 8.97271 25.5383 8.94743 25.6229 8.91042C26.1897 9.6191 26.684 10.3856 27.0956 11.199C26.0726 11.6395 25.0114 11.9501 23.9354 12.1315C24.5496 11.171 25.0319 10.1156 25.3552 8.98535ZM26.0856 8.47799C26.3105 8.04285 26.1339 7.49486 25.7139 7.25382L25.8013 5.13861C26.7147 6.61465 27.2471 8.43104 27.2369 10.1373C26.8931 9.5568 26.5084 9.0025 26.0856 8.47799ZM13.4542 9.70486C13.5267 9.46923 13.4932 9.20653 13.3752 9.0016C15.0189 7.17799 17.1533 5.82021 19.5357 5.09076C19.8935 5.51146 20.5736 5.56653 20.9992 5.21354C22.2583 5.82924 23.404 6.63 24.4 7.57882C24.1324 8.01305 24.2885 8.60076 24.7253 8.85896C24.4186 9.91882 23.9633 10.9101 23.3854 11.8119C23.023 11.7623 22.6838 11.9708 22.5677 12.2949C22.2443 12.3175 21.921 12.3283 21.5976 12.3283C18.705 12.3283 15.8357 11.4337 13.4542 9.70486ZM21.3328 4.6791L21.3356 4.66826C22.5584 4.46694 23.8286 4.42542 25.1174 4.56535C25.2047 5.42299 25.1936 6.27069 25.083 7.13465C25.0189 7.14368 24.9566 7.15903 24.8962 7.18069C23.8555 6.17771 22.655 5.33181 21.3328 4.6791ZM24.8934 3.91625C23.6604 3.80792 22.445 3.85667 21.2724 4.04715C21.133 3.74382 20.8422 3.51361 20.4789 3.46215C20.0654 3.40347 19.6742 3.59215 19.4623 3.91354C16.4648 2.92771 13.0918 2.94938 10.1249 3.97132C13.9727 -0.465832 21.0085 -0.502847 24.8934 3.91625ZM9.22823 4.06972C7.98684 3.7691 7.60029 5.66583 8.8705 5.84458C9.52743 5.93757 10.0729 5.32458 9.90561 4.71521C12.8809 3.5759 16.2418 3.50368 19.2886 4.51389C16.8002 5.28757 14.5906 6.70944 12.892 8.59535C12.0465 8.2866 11.292 9.26972 11.8039 9.96757C11.2455 10.7719 10.7707 11.6386 10.3925 12.5567C9.61013 12.2958 8.75063 12.7951 8.63077 13.5985C8.49325 14.5194 9.40664 15.2804 10.308 15.0403C10.6815 15.7625 11.1173 16.4477 11.6088 17.0905C11.1888 17.8226 11.9638 18.7074 12.7722 18.4266C14.3239 19.9965 16.252 21.2108 18.4226 21.9312C17.0269 22.4476 15.5309 22.7455 13.9857 22.787C13.7552 22.081 12.6356 22.1397 12.5213 22.9026C12.4163 23.604 13.3269 24.004 13.811 23.5147L21.3848 26L21.461 25.4917C21.7156 23.7864 21.8411 22.9369 23.1354 22.6787C25.464 22.666 27.4682 22.8276 27.1328 19.6092C27.0919 19.2463 27.0473 19.2228 27.2945 18.9574C27.9904 18.2081 27.7721 17.9256 27.6327 17.7468C27.5853 17.6863 27.6318 17.7459 27.6894 17.8055C27.734 17.8524 27.786 17.8985 27.8055 17.8885C28.6056 17.4733 28.5201 16.9794 28.2432 16.4757C27.8613 15.7806 27.7535 15.9449 28.0508 15.8239C28.7003 15.5594 30.7641 15.9972 29.7011 14.2621L27.838 11.3524L27.8715 11.338C27.8445 11.2802 27.8176 11.2224 27.7897 11.1647C27.9077 10.2077 27.9003 10.1156 27.8241 9.20382C27.6048 6.87104 26.6533 4.8082 25.0523 3.1525C22.9951 1.02556 20.267 -0.000902183 17.5556 5.9497e-07C14.3917 0.00270893 11.252 1.3975 9.22823 4.06972Z" fill="white"/>
</svg>
