<?xml version="1.0" encoding="UTF-8"?>
<svg id="katman_1" data-name="katman 1" xmlns="http://www.w3.org/2000/svg" version="1.1" viewBox="0 0 1350 1350">
  <defs>
    <style>
      .cls-1 {
        fill: #c2c2c1;
      }

      .cls-1, .cls-2 {
        stroke-width: 0px;
      }

      .cls-2 {
        fill: #2d2d25;
      }
    </style>
  </defs>
  <path class="cls-2" d="M188.51,637.68c-11.9,7.06-24.5,12.95-35.34,21.76-32.92,26.76-48.86,60.76-44.42,103.51.21,2.04.6,4.05.9,6.08.38,1.5.75,3.01,1.13,4.51,2.08,8.32,4.54,16.5,9.17,23.85.7,2.1-1.07,2.65-2.25,3.57-18.72,14.51-35.96,30.45-48.8,50.62-2.98,4.68-2.99,4.71-6.02-.11-13.2-20.96-18.18-44.04-17.08-68.5,1.46-32.51,13.29-61.26,32.72-87.06,20.64-27.41,47.79-45.67,80.07-56.72,10.34-3.54,20.25-7.93,27.99-16.09,9.43-9.94,11.15-24.16,3.71-35.63-4.46-6.88-9.98-13.08-14.38-19.99-13.33-20.92-16.18-43.12-6.72-66.35,11.07-27.17,44.1-40.72,70.37-28.47,18.12,8.45,27.72,23.26,28.07,43.37.07,4.25,1.52,7.09,3.9,10.27,12.9,17.21,25.6,34.56,38.31,51.91,6.99,9.55,13.85,19.2,20.77,28.8.28.39.57.78.84,1.18.52.78,1.47,1.7.73,2.53-.9,1-1.76-.21-2.47-.7-8.07-5.53-16.18-11-24.13-16.69-20.72-14.83-40.84-30.5-61.98-44.75-2.49-1.68-2.61-4.16-3.37-6.51.11-4.69-2.94-8.03-5.01-11.79,8.44-1.65,16.02-5.18,22.93-10.26,1.47-1.08,2.27-2.24,2.16-4.21-.95-16.78-7.9-29.88-23.78-36.73-15.83-6.82-30.91-4.77-44.52,6.01-4,3.17-7.14,7.15-9.23,11.88-10.52,19.63-8.91,39.01,1.53,58.02,4.78,8.71,12.02,15.72,17.51,23.98,11.14,16.76,9.63,35.84-4.23,50.46-2.8,2.95-6.02,5.51-9.05,8.25Z"/>
  <path class="cls-2" d="M235.68,544.3c.03.48.2,1,.06,1.42-3.95,12.57.27,23.27,7.7,33.17,8.41,11.2,17.3,22.05,23.85,34.53,18.96,36.13,19.73,73.06,4.54,110.5-8.47,20.88-22.94,37.59-38.77,53.23-6.01,5.95-12.02,11.91-17.2,18.63-6.57,8.51-9.93,18.13-9.92,28.92.01,14.98.04,29.97-.1,44.95-.02,2.52.66,3.28,3.16,3.29,20.43.1,40.86.22,61.28.54,24.78.39,49.56.7,74.27,2.84,1.43.12,2.86.35,4.55.56-12.75,6.07-237.03,7.03-283.99.57,3.48-1.31,6.6-1.37,9.64-1.56,32.59-2.02,65.23-2.38,97.86-2.61,5.2-.04,10.4-.13,15.59-.15,1.66,0,2.75-.33,2.71-2.39-.25-13.4.62-26.83-.56-40.21-1.12-12.77-9.68-20.61-22.47-20.96-14.16-.39-26.62,5.15-38.92,11.19-8.89,4.36-17.22,9.62-24.88,15.91-.82.67-1.58,1.58-3.14.97,6.12-7.42,12.31-14.61,19.24-21.17,14.17-13.42,30.15-24.5,45.93-35.85,16.07-11.56,32.32-22.9,46.44-36.94,18.38-18.27,32.89-39.02,39.77-64.26,10.28-37.72,4.67-72.66-19.52-104.09-8.98-11.66-18.68-22.83-25.34-36.13-1.44-2.88-2.79-5.79-4.19-8.69.59-.22,1-.75,1.8,0,8.66,7.97,19.56,11.05,30.59,13.81Z"/>
  <path class="cls-2" d="M474.11,601.55c0-18.11.06-36.23-.06-54.34-.02-2.69.66-3.47,3.41-3.45,17.76.13,35.52-.01,53.28.09,15.62.09,27.92,9.35,31.11,23.61,2.21,9.87-.56,18.65-7.28,26.11-1.54,1.71-2.04,2.31.38,3.74,12.81,7.56,19.41,23.59,15.64,37.35-4.04,14.73-17.13,24.81-32.63,24.88-20.3.09-40.59-.02-60.89.08-2.41.01-3.01-.65-3-3.01.09-18.35.05-36.71.05-55.06ZM504.8,625.5c0,5.31.12,10.63-.05,15.94-.08,2.43.43,3.39,3.11,3.29,5.91-.21,11.84-.17,17.75-.03,3.79.09,6.43-1.6,8.48-4.57,5.25-7.59,5.3-21.65.11-29.26-2.2-3.24-5.08-4.92-9.13-4.79-5.43.17-10.88.22-16.3-.03-3.06-.14-4.27.52-4.06,3.88.32,5.17.08,10.38.09,15.57ZM504.8,574.76c0,4.71.07,9.42-.04,14.13-.04,1.84.43,2.57,2.41,2.49,3.62-.15,7.25-.16,10.87-.01,4.01.16,6.85-1.64,8.41-5.11,3.32-7.41,3.42-15,.14-22.44-1.46-3.31-4.13-5.22-8.03-5.09-3.74.12-7.49.08-11.24,0-1.67-.04-2.65.13-2.57,2.27.17,4.58.05,9.18.05,13.77Z"/>
  <path class="cls-2" d="M711.61,601.23c.71,32.64-26.05,60.42-58.92,61.15-32.49.72-59.78-26.27-60.53-59.87-.74-33.23,25.9-60.83,59.26-61.38,32.66-.54,59.46,26.22,60.2,60.1ZM677.79,600.23c.14-3.71-.44-9-1.65-14.18-2.14-9.17-5.49-17.78-12.92-24.11-7.07-6.02-15.24-6.02-22.42-.18-4.32,3.51-7.34,8.01-9.46,13.07-6.81,16.25-7.14,32.79-1.69,49.47,1.93,5.91,4.85,11.3,9.31,15.72,8,7.95,17.91,7.92,25.95-.02,2.6-2.57,4.63-5.55,6.3-8.79,4.73-9.21,6.55-19.08,6.59-30.98Z"/>
  <path class="cls-2" d="M853.82,602.17c-.7,33.86-27.95,60.95-60.58,60.21-33.02-.74-59.64-28.57-58.87-61.53.78-33.59,27.7-60.29,60.19-59.72,33.23.59,59.94,28.09,59.25,61.04ZM768.22,602.79c-.1,4.33.44,9.61,1.66,14.8,2.03,8.56,5.22,16.59,11.71,22.84,7.59,7.32,17.2,7.33,24.92.16,2.86-2.66,5.2-5.76,6.83-9.28,9.14-19.79,9.13-39.62-.09-59.37-1.9-4.08-4.71-7.57-8.27-10.4-6.87-5.46-14.69-5.5-21.59-.11-3.59,2.8-6.26,6.36-8.36,10.34-4.95,9.39-6.88,19.48-6.81,31.01Z"/>
  <path class="cls-2" d="M709.89,788.71c.13,33.28-26.73,60.69-59.57,60.78-32.73.09-59.68-27.27-59.73-60.63-.04-33.46,26.6-60.59,59.58-60.64,32.96-.05,59.58,26.92,59.72,60.49ZM624.25,789.43c.13,2,.17,4.79.52,7.54,1.42,11.32,4.46,22.04,12.84,30.38,7.62,7.58,17.32,7.59,25.16.25,2.57-2.41,4.6-5.26,6.3-8.34,4.22-7.64,6.26-15.92,6.88-24.52.97-13.63-.8-26.8-8.26-38.59-9.86-15.58-24.98-15.51-34.89.05-6.29,9.89-8.25,20.96-8.54,33.24Z"/>
  <path class="cls-2" d="M1176.39,601.69c0-33.38,26.79-60.55,59.72-60.57,32.89-.02,59.69,27.16,59.71,60.57.02,33.27-26.98,60.71-59.71,60.71-32.74,0-59.72-27.43-59.72-60.71ZM1262,600.85c.07-4.64-.44-10.3-1.83-15.81-2.21-8.76-5.51-17.03-12.66-23.06-7.45-6.28-15.97-6.05-23.25.45-4.04,3.61-6.9,8.06-8.93,13.02-6.19,15.07-6.74,30.46-2.32,46.06,2.24,7.9,5.77,15.12,12.33,20.4,6.87,5.52,15.05,5.38,21.89-.17,3.33-2.71,5.87-6.07,7.87-9.83,5-9.37,6.89-19.47,6.91-31.05Z"/>
  <path class="cls-2" d="M570.78,789c0,18.12-.07,36.25.07,54.37.02,2.77-.74,3.41-3.42,3.35-7.97-.19-15.96-.17-23.93,0-2.48.05-3.23-.56-3.2-3.13.13-14.5,0-29,.12-43.49.02-2.61-.5-3.53-3.33-3.47-9.67.19-19.34.2-29.01,0-2.86-.06-3.34.87-3.32,3.46.12,14.38-.03,28.76.14,43.13.03,2.96-.88,3.57-3.63,3.51-8.1-.18-16.2-.13-24.3-.02-2.02.03-2.63-.5-2.63-2.58.06-36.85.06-73.7,0-110.55,0-2.01.51-2.72,2.62-2.69,8.22.11,16.44.14,24.66-.01,2.53-.05,3.27.66,3.24,3.22-.12,14.74,0,29.48-.12,44.22-.02,2.46.5,3.28,3.12,3.24,9.79-.17,19.58-.16,29.37,0,2.56.04,3.19-.7,3.17-3.21-.12-14.62.01-29.24-.12-43.86-.03-2.78.59-3.71,3.54-3.63,7.85.22,15.72.19,23.57.01,2.7-.06,3.47.67,3.45,3.42-.13,18.24-.07,36.49-.07,54.73Z"/>
  <path class="cls-2" d="M877.79,788.83c0-18.23.01-36.47-.02-54.7,0-1.98-.07-3.35,2.76-3.29,15.22.32,30.44-.34,45.66.4,26.42,1.29,48.12,21.72,51.22,48.02,2.44,20.67-2.63,38.79-18.2,53.21-9.67,8.95-21.42,13.56-34.48,13.97-14.85.47-29.72.09-44.57.27-2.82.03-2.36-1.55-2.36-3.18,0-18.23,0-36.47,0-54.7ZM908.37,788.54c0,11.71,0,23.42,0,35.13,0,8.09.03,7.65,7.91,8.19,10.89.75,17.48-4.56,21.98-13.7,4.47-9.08,6.02-18.8,6.06-28.76.05-11.58-1.63-22.87-7.76-33.01-4.22-6.98-10.07-10.65-18.71-10.57-2.03-.08-4.06-.08-6.15-.02-2.84-.06-3.45.45-3.41,3.27.18,13.16.08,26.32.08,39.47Z"/>
  <path class="cls-2" d="M914.71,607.97c-3.11,2.33-4.35,5.21-4.26,9.25.27,13.04.04,26.1.16,39.14.02,2.4-.39,3.33-3.08,3.27-8.34-.19-16.68-.14-25.02-.02-2.08.03-2.59-.6-2.58-2.63.06-36.73.07-73.46-.01-110.19,0-2.42.68-3.06,3.04-3.02,8.22.13,16.44.14,24.66,0,2.41-.04,3.01.71,2.99,3.06-.11,14.24-.05,28.48-.05,42.96,1.44-.38,1.98-1.49,2.7-2.31,12.01-13.73,24.03-27.45,35.96-41.25,1.46-1.69,2.88-2.54,5.2-2.46,5.03.19,10.06.06,15.17.06-.05,1.65-1.21,2.29-1.95,3.15-9.98,11.5-19.95,23-30.04,34.4-1.55,1.75-1.67,2.91-.45,4.93,14,23.1,27.89,46.26,41.81,69.41.67,1.11,1.31,2.24,2.24,3.85h-19.06c-3.87,0-7.75-.23-11.6.07-3.29.25-5.1-.9-6.79-3.78-8.77-14.98-17.8-29.82-26.76-44.69-.67-1.11-1.09-2.44-2.27-3.19Z"/>
  <path class="cls-2" d="M1263.42,728.26c10.1.16,22.69,3.15,33.58,11.55q4.54,3.51.75,7.64c-2.12,2.31-4.32,4.57-6.34,6.96-1.21,1.43-2.05,1.36-3.34.06-10.87-10.94-24.2-11.87-38.35-9.23-1.28.24-2.54.79-3.72,1.38-5.69,2.82-6.78,8.37-2.61,13.14,2.43,2.78,5.57,4.6,8.79,6.27,9.94,5.16,20.59,8.86,30.32,14.49,4.3,2.49,8.36,5.31,11.99,8.69,13.7,12.75,13.09,33.98-1.43,47.13-11.32,10.25-25.09,13.63-39.89,13.03-17.12-.7-31.54-7.25-42.3-21.04-1.51-1.94-1.37-2.83.65-4.04,2.79-1.67,5.5-3.51,8.09-5.47,1.5-1.13,2.26-.88,3.43.5,11.47,13.41,26.37,16.09,42.72,12.86,8.91-1.77,10.86-9.66,4.5-16.25-3.67-3.8-8.36-6.09-13.02-8.38-10.37-5.09-21.24-9.18-30.89-15.72-12.87-8.72-18.27-19.87-15.27-33.16,2.67-11.84,10.71-19.38,21.26-24.56,8.73-4.29,18.05-5.96,31.08-5.84Z"/>
  <path class="cls-2" d="M1095.2,846.65c-10.55,0-20.67-.04-30.8.03-1.94.01-2-1.31-2.41-2.54-2.72-8.24-5.55-16.44-8.12-24.73-.72-2.31-1.82-2.91-4.1-2.88-9.55.12-19.11.16-28.66-.02-2.6-.05-3.5.92-4.23,3.22-2.59,8.15-5.49,16.21-8.1,24.36-.62,1.94-1.38,2.73-3.49,2.62-3.74-.19-7.5-.22-11.24,0-2.83.17-3.5-.34-2.43-3.27,3.89-10.63,7.49-21.37,11.23-32.06,8.95-25.59,17.95-51.15,26.79-76.77.98-2.85,2.26-3.93,5.33-3.77,5.43.28,10.89.24,16.32.01,2.64-.11,3.7.83,4.55,3.26,11.03,31.75,22.16,63.46,33.27,95.18,1.98,5.66,3.96,11.33,6.08,17.37ZM1035.73,764.99c-.25,0-.5.01-.74.02-3.97,12.1-7.93,24.21-11.94,36.45h24.8c-4.1-12.34-8.11-24.41-12.11-36.47Z"/>
  <path class="cls-2" d="M394.24,623.19c.12-28.33-33.31-46.91-60.09-31.83-2.96,1.67-4.18.99-5.57-1.4-.36-.62-.8-1.21-1.22-1.8-4.47-6.36-4.53-6.48,2.73-9.72,21.05-9.37,41.13-7.77,59.17,6.85,18.5,14.99,23.67,43.48,12.58,64.74-11.36,21.77-36.38,32.94-59.78,26.57-1.91-.52-2.73-.4-3.45,1.59-.89,2.49-2.17,4.86-3.47,7.17-2.33,4.14-4.38,8.13-1.94,13.12,1.13,2.32.1,4.97-.94,7.35-6.21,14.28-12.39,28.58-18.59,42.87-.34.77-.67,1.55-1.09,2.29-3.16,5.59-8.96,7.98-14.02,5.8-5.61-2.42-8.57-9.19-6.28-15.19,2.02-5.29,4.49-10.42,6.74-15.62,4.07-9.42,8.2-18.81,12.16-28.28,1.6-3.82,3.68-7.03,7.74-8.59,1.65-.63,2.73-1.97,3.56-3.48.64-1.16,1.25-2.35,1.75-3.57,1.36-3.36,3.74-6.76,3.68-10.11-.06-3.46-4.69-4.59-7.08-7.01-15.81-15.96-19.85-34.74-13.82-56.06.67-2.36,1.55-2.95,3.71-1.42,2.86,2.02,6.69,3.21,8.61,5.84,1.98,2.7-.77,6.31-1.19,9.56-1.86,14.37,5.51,29.59,18.36,37.2,13.19,7.81,29.67,6.94,41.92-2.29,10.82-8.15,15.87-19.13,15.8-34.59Z"/>
  <path class="cls-2" d="M1158.35,780.29c1.57-.94,1.8-2.48,2.4-3.71,6.89-14.2,13.76-28.4,20.49-42.67,1.08-2.3,2.35-3.17,4.9-3.05,4.7.22,9.42.06,14.17.06.45,1.55-.64,2.57-1.19,3.67-10.48,21.03-21,42.03-31.55,63.02-1.1,2.2-1.7,4.37-1.68,6.89.11,12.93-.02,25.85.11,38.78.03,2.56-.39,3.53-3.27,3.45-8.21-.23-16.44-.17-24.65-.02-2.29.04-2.78-.64-2.77-2.83.11-12.44.03-24.89.08-37.33,0-1.98-.39-3.76-1.19-5.57-9.65-21.94-19.23-43.9-28.83-65.86-.53-1.2-.99-2.43-1.48-3.63.83-1,1.86-.56,2.75-.56,9.55-.04,19.1.05,28.65-.08,2.16-.03,3.15.7,3.94,2.67,5.95,14.74,12.01,29.43,18.04,44.14.35.84.71,1.68,1.1,2.61Z"/>
  <path class="cls-2" d="M1092.74,609.14c0-15.7-.07-31.41.07-47.11.02-2.71-.64-3.4-3.35-3.35-9.42.19-18.85,0-28.28.13-2.26.03-2.92-.58-2.79-2.81.19-3.25.15-6.52.01-9.78-.08-1.95.67-2.43,2.51-2.43,31.42.05,62.84.05,94.27,0,2.03,0,2.79.56,2.68,2.66-.16,3.25-.17,6.53,0,9.78.12,2.16-.72,2.8-2.7,2.54-.71-.09-1.45-.02-2.17-.01-9.77.09-19.53.18-29.3.26-.9,9.85-.31,19.73-.36,29.59-.11,22.35-.09,44.69.03,67.04.02,2.97-.4,4.15-3.81,4.02-7.96-.31-15.95-.2-23.92-.04-2.42.05-2.97-.69-2.95-3.01.1-15.82.05-31.65.05-47.47Z"/>
  <path class="cls-2" d="M729.91,788.93c0-18.24.07-36.48-.07-54.71-.02-2.77.73-3.43,3.41-3.36,7.97.18,15.95.2,23.92,0,2.8-.07,3.35.78,3.35,3.44-.1,31.16,0,62.32-.15,93.48-.02,3.44,1.01,4.1,4.2,4.07,14.62-.16,29.24,0,43.86-.13,2.61-.02,3.7.5,3.45,3.35-.32,3.7,1.23,8.72-.66,10.83-2.16,2.42-7.26.73-11.07.74-22.11.07-44.23-.02-66.34.1-2.99.02-4.04-.44-4-3.81.21-17.99.1-35.99.1-53.99Z"/>
  <path class="cls-2" d="M825.67,788.64c0-18.13.06-36.26-.07-54.39-.02-2.71.63-3.47,3.38-3.4,8.1.2,16.2.12,24.3.03,2-.02,2.99.19,2.99,2.66-.09,36.86-.08,73.72-.01,110.59,0,2.1-.63,2.59-2.63,2.56-8.34-.11-16.69-.13-25.03.01-2.35.04-3-.57-2.98-2.96.1-18.37.06-36.74.06-55.11Z"/>
  <path class="cls-2" d="M381.46,692.09c.72,2.12.24,4.04-.06,5.89-6.88,42.42-26.31,78.09-58.97,105.95-27.2,23.2-59.07,36.17-94.84,39.27-2.46.21-3.36-.19-3.35-2.93.05-9.51-.04-9.26,9.59-10.38,23.08-2.67,44.26-10.82,63.79-23.24,30.48-19.39,51.16-46.62,63.76-80.23,3.23-8.63,5.18-17.6,6.53-26.69.34-2.32,1.22-3.58,3.61-4.21,3.36-.88,6.59-2.24,9.95-3.43Z"/>
  <path class="cls-2" d="M45.84,675.94c3.25-63.36,32.73-110.74,87.4-142.72,2.91-1.7,6.14-2.83,9.17-4.34,2.18-1.09,2.44-.24,2.71,1.83.9,7-.9,11.15-7.94,15.11-38.13,21.49-63.14,53.61-74.15,96.16-4.21,16.27-5.33,32.89-3.65,49.64.25,2.51-.23,4.06-2.75,5.01-2.47.94-4.82,2.24-7.15,3.52-2.05,1.13-2.76.53-2.83-1.68-.24-7.48-1.16-14.95-.81-22.55Z"/>
  <path class="cls-1" d="M188.51,637.68c3.03-2.74,6.25-5.29,9.05-8.25,13.85-14.62,15.37-33.7,4.23-50.46-5.49-8.25-12.73-15.26-17.51-23.98-10.43-19.01-12.05-38.39-1.53-58.02,1.23,1.79,2.22.45,3.27-.25,3.32-2.19,5.5-5.7,9.01-7.69,1.87-1.06,3.64-2.4,5.99-2.09h0c-6.89,8.41-9.61,18.22-9.35,28.88.21,8.42,3.01,16.26,6.32,23.91,5.08,11.77,12.49,22.24,18.56,33.45,4.47,8.25,8.38,16.67,8.51,26.5.18,13.8-6.22,23.48-17.71,30.07-5.9,3.39-11.92,6.81-18.84,7.91Z"/>
  <path class="cls-1" d="M119.95,797.39c-4.63-7.34-7.08-15.52-9.17-23.85-.38-1.5-.75-3.01-1.13-4.51,5.44-1.66,10.25-4.68,15.2-7.33,17.01-9.11,33.63-18.92,50.27-28.68,9.36-5.49,18.74-10.95,28.12-16.41.39-.23.86-.32,1.5-.23-14.07,17.09-31.12,31.16-47,46.46,22.27-9.86,40.23-25.3,56.58-42.97-.59,3.32-2.4,5.99-4.31,8.44-11.09,14.19-24.62,25.7-39.5,35.74-11.09,7.49-22.07,15.14-33.12,22.68-4.48,3.06-9.01,6.03-13.52,9.02-1.19.79-2.33,1.75-3.92,1.63Z"/>
  <path class="cls-2" d="M1019.76,618.32c-9.15-.02-16.43-7.38-16.42-16.61,0-9.19,7.39-16.7,16.43-16.73,9.16-.02,16.79,7.73,16.67,16.92-.13,9.18-7.49,16.44-16.68,16.42Z"/>
  <path class="cls-1" d="M235.68,544.3c-11.03-2.76-21.93-5.83-30.59-13.81-.8-.74-1.21-.21-1.8,0-2.68-4.33-2.67-9.25-3.19-14.26,8.43,13.13,20.46,16.87,35.08,14.04,2.07,3.76,5.12,7.11,5.01,11.79-1.95-.16-2.96,1.58-4.52,2.22Z"/>
  <path class="cls-2" d="M213,496.14c8.22-5.78,19.65-3.32,23.9,4.77,1.71,3.26,2.01,6.5-.42,9.48-2.2,2.71-5.05,4.15-8.63,2.98-3.7-1.21-6.51-4.06-6.07-7.66.86-6.97-3.69-8.14-8.78-9.57Z"/>
  <path class="cls-2" d="M358.85,592.88c11.1,1.73,20.19,7.13,25.92,17.47.75,1.35,2.46,3.32,0,4.65-2.18,1.18-3.18-.65-4.17-2.24-5.26-8.43-12.78-13.61-22.55-15.44-1.65-.31-2.69-.81-2.53-2.73.18-2.06,1.66-1.65,3.34-1.72Z"/>
</svg>