<?xml version="1.0" encoding="UTF-8"?>
<svg id="katman_1" data-name="katman 1" xmlns="http://www.w3.org/2000/svg" version="1.1" viewBox="0 0 1350 1350">
  <defs>
    <style>
      .cls-1 {
        fill: #2d2d25;
        stroke-width: 0px;
      }
    </style>
  </defs>
  <g>
    <path class="cls-1" d="M305.79,772.63l-60.56-57.76-17.02,17.85,17.31,16.51c-19.68,21.53-48.02,32.52-78.6,30.06-25.17-2.03-47.38-12.8-63.36-30.16l-31.48,18.17c22.13,26.79,54.64,44.57,91.97,47.58,41.8,3.37,80.61-12.51,107.41-40.92l17.3,16.51,17.02-17.85Z"/>
    <g>
      <rect class="cls-1" x="898.56" y="647.97" width="32.66" height="84.37"/>
      <path class="cls-1" d="M963.67,695.08v-118.08h32.66v116.19c0,9.63,5.02,14.86,14.03,14.86,3.56,0,7.33-1.05,9.21-2.09l1.47,25.33c-5.65,1.88-11.3,2.72-16.96,2.72-25.33,0-40.41-13.82-40.41-38.94Z"/>
      <rect class="cls-1" x="1039.24" y="647.97" width="32.66" height="84.37"/>
      <path class="cls-1" d="M1294.65,667.86v64.48h-32.66v-59.46c0-18.21-8.17-26.59-21.35-26.59-14.66,0-24.91,9.42-24.91,29.52v56.53h-32.66v-59.46c0-18.21-7.75-26.59-21.35-26.59-14.45,0-24.7,9.42-24.7,29.52v56.53h-32.66v-113.22h31.19v13.57c8.37-9.63,20.94-14.65,35.38-14.65,15.7,0,29.1,6.07,37.06,18.42,9-11.51,23.66-18.42,40.62-18.42,26.8,0,46.06,15.49,46.06,49.83Z"/>
      <path class="cls-1" d="M787.96,667.81v64.27h-30.57v-14.03c-6.07,10.26-17.8,15.7-34.33,15.7-26.38,0-42.08-14.66-42.08-34.12s14.03-33.71,48.36-33.71h25.96c0-14.03-8.37-22.19-25.96-22.19-11.93,0-24.29,3.98-32.45,10.47l-11.72-22.82c12.35-8.79,30.57-13.61,48.57-13.61,34.33,0,54.22,15.91,54.22,50.04ZM755.3,696.49v-11.51h-22.4c-15.28,0-20.1,5.65-20.1,13.19,0,8.16,6.91,13.61,18.42,13.61,10.89,0,20.31-5.02,24.08-15.28Z"/>
      <path class="cls-1" d="M869.62,703.87c-3.77,2.72-8.43,4.19-13.24,4.19-8.79,0-13.66-5.23-13.66-14.86v-44.77h27.33v-28.85h-27.33v-23.54h-32.65v97.57c0,26.8,15.12,40.41,41.92,40.41,9.84,0,19.6-2.3,26.3-7.12l-8.66-23.03Z"/>
      <path class="cls-1" d="M654.79,703.87c-3.77,2.72-8.45,4.19-13.26,4.19-8.79,0-13.68-5.23-13.68-14.86v-44.77h27.33v-28.85h-27.33v-23.54h-32.65v97.57c0,26.8,15.14,40.41,41.94,40.41,9.84,0,19.61-2.3,26.31-7.12l-8.65-23.03Z"/>
    </g>
  </g>
  <g>
    <polygon class="cls-1" points="176.05 534.66 55.35 603.7 55.35 711.04 74.57 721.85 93.31 711.31 93.31 625.05 176.54 577.36 251.07 620.61 287.65 599.26 176.05 534.66"/>
    <path class="cls-1" d="M402.61,694.03l20.73,21.77c-10.68,12.14-26.59,18.42-48.15,18.42-40.41,0-66.57-24.91-66.57-58.83s26.8-58.41,62.81-58.41c32.66,0,60.09,20.73,60.29,57.78l-81.02,15.49c4.4,9.21,13.19,13.61,25.75,13.61,11.1,0,18.42-3.14,26.17-9.84ZM347.55,669.95l46.06-9c-2.72-9.42-10.89-15.7-21.98-15.7-13.61,0-22.82,8.58-24.08,24.7Z"/>
    <path class="cls-1" d="M572.81,618.87l-46.9,113.47h-41.03l-46.69-113.47h40.82l27.22,69.3,28.68-69.3h37.89Z"/>
    <path class="cls-1" d="M894.58,607.73c0-10.26,8.16-18.21,20.31-18.21s20.31,7.54,20.31,17.59c0,10.89-8.16,18.84-20.31,18.84s-20.31-7.96-20.31-18.21Z"/>
    <path class="cls-1" d="M1035.26,607.73c0-10.26,8.16-18.21,20.31-18.21s20.31,7.54,20.31,17.59c0,10.89-8.16,18.84-20.31,18.84s-20.31-7.96-20.31-18.21Z"/>
  </g>
</svg>