<?xml version="1.0" encoding="UTF-8"?>
<svg id="katman_1" data-name="katman 1" xmlns="http://www.w3.org/2000/svg" version="1.1" viewBox="0 0 1350 1350">
  <defs>
    <style>
      .cls-1 {
        fill: #fefffd;
      }

      .cls-1, .cls-2, .cls-3, .cls-4, .cls-5, .cls-6 {
        stroke-width: 0px;
      }

      .cls-2 {
        fill: #777a6f;
      }

      .cls-3 {
        fill: #caccc4;
      }

      .cls-4 {
        fill: #53544e;
      }

      .cls-5 {
        fill: #2d2d25;
      }

      .cls-6 {
        fill: #3f3f36;
      }
    </style>
  </defs>
  <path class="cls-2" d="M1139.23,769.18c0,15.56-.07,31.13.03,46.69.05,7.78.44,15.55.63,23.33.06,2.38.09,4.77-.36,7.13-1.53,8.12-5.83,11.97-14.1,12.46-6.15.36-12.31.15-18.45-.11-16.92-.72-33.83-1.54-50.74-2.38-8.14-.4-16.27-.92-24.41-1.37-12.27-.68-24.53-1.44-36.81-2.01-9.78-.45-19.56-.65-29.34-.99-16.94-.6-33.88-.8-50.82-.54-3.51.05-7.03.53-10.52.36-19.06-.92-38.14-.41-57.2-.47-37.17-.11-74.33-.11-111.5-.1-91.79.03-183.57.09-275.36.14-18.55.01-37.11-.14-55.66.12-15.43.22-30.85.88-46.27,1.47-9.52.36-19.04.92-28.55,1.43-14.15.76-28.3,1.47-42.45,2.34-9.39.58-18.79.94-28.17,1.5-9.14.55-18.3.54-27.43,1.18-2.66.18-5.27-.27-7.86-.71-6.45-1.1-9.8-5.05-10.78-11.76-.74-5.03-.12-10.02-.02-15.02.44-21.71.97-43.41.69-65.13-.18-13.8-.47-27.6-.67-41.4-.04-3.01-.06-6.03.11-9.03.5-8.54,4.86-13.45,13.24-14.82,2.71-.44,5.46-.72,8.23-.82,13.79-.49,27.59-.88,41.36-1.77,6.23-.4,12.57.04,18.68-1.78.82-.25,1.75-.22,2.62-.19,15.43.45,30.77-1.27,46.14-2.1,4.51-.24,9.02-.41,13.53-.7,8.26-.54,16.55-.71,24.82-1.1,15.42-.73,30.84-1.16,46.27-1.65,6.64-.21,13.29-.38,19.94-.6,22.83-.75,45.67-1.16,68.51-1.69,13.81-.32,27.62-.28,41.42-.67,34.14-.95,68.29-.73,102.44-.79,40.42-.07,80.85.09,121.27.53,14.93.17,29.88.1,44.81.69,12.3.48,24.6.39,36.9.72,18.44.49,36.88.95,55.32,1.49,15.43.45,30.85.9,46.27,1.53,15.04.61,30.07,1.4,45.1,2.21,12.65.68,25.3,1.42,37.94,2.25,13.39.88,26.79,1.64,40.2,2.3,10.4.51,20.79,1.09,31.2,1.42,2.37.07,4.76.36,7.09.8,8.71,1.66,12.95,6.54,13.23,15.66.2,6.52.15,13.06-.18,19.57-.55,10.79-.3,21.58-.33,32.37ZM664.98,775.19c0-14.55-.02-29.11.02-43.66,0-2.03-.16-4.02-.66-5.96-1.38-5.39-6.18-9.62-11.51-9.9-4.13-.22-8.28-.05-12.42-.09-1.37-.01-2.15.46-2.09,1.95.03.88,0,1.76,0,2.63,0,10.79.01,21.58-.01,32.37,0,3.06-.06,3.13-3.1,3.17-7.65.1-15.31.15-22.96.18-5.38.02-4.92.5-4.93-4.77-.02-7.4.09-14.81-.05-22.21-.13-7.09-4.97-12.57-11.61-13.03-4.12-.28-8.28,0-12.42-.02-1.65,0-2.22.85-2.17,2.35.02.75,0,1.51,0,2.26,0,28.48,0,56.96-.02,85.44,0,2.03.16,4.03.62,5.97,1.39,5.82,4.81,9.92,10.73,11.43,4.3,1.1,8.74.47,13.12.46,1.41,0,1.95-.88,1.89-2.24-.04-.88,0-1.76,0-2.63,0-11.92-.01-23.84.01-35.76,0-3.35.06-3.39,3.32-3.41,8.28-.05,16.57-.08,24.85-.07,2.64,0,2.71.06,2.73,2.78.04,6.27.04,12.55,0,18.82-.02,3.14.05,6.27.54,9.38,1.03,6.51,6.34,12,12.71,12.61,3.86.37,7.77.08,11.66.12,1.29.01,1.79-.65,1.76-1.86-.02-.88,0-1.76,0-2.63,0-14.55,0-29.11,0-43.66ZM849.33,777.26c4.46-1.75,7.54-4.28,10.01-7.52,3.74-4.9,5.66-10.49,6.46-16.61,2.3-17.71-8.5-31.38-23.51-35.42-4.94-1.33-9.92-1.18-14.91-1.6-10.75-.92-21.27.47-31.72,2.71-3.87.83-3.85.95-3.85,5.03,0,27.23,0,54.46,0,81.68,0,1.25-.02,2.51.09,3.76.75,8.54,5.64,13.77,14.07,15.17,2.5.42,5.01.31,7.51.31,5.15.01,4.71.77,4.72-4.48.02-10.67,0-21.33.03-32,0-1.2-.39-2.5.51-3.69,1.34.13,2.71.21,4.06.41,4.08.61,7.32,2.51,9.28,6.27.69,1.33,1.39,2.67,1.95,4.06,2.54,6.27,5.04,12.56,7.56,18.85,1.52,3.81,3.62,7.24,7.29,9.3,7.44,4.17,15.17,3.51,22.93.99,1.26-.41,1.34-1.19.7-2.32-1.17-2.07-2.27-4.19-3.29-6.34-3.83-8.04-6.93-16.4-10.43-24.58-2.17-5.07-4.35-10.14-9.47-14ZM374.42,781.33c3.81-1.86,6.78-3.92,9.07-6.82,7.05-8.95,9.14-19.18,7.01-30.14-2.59-13.35-13.29-21.06-26.22-22.74-5.4-.7-10.76-.05-16.13.07-9.33.2-18.41,2.04-27.33,4.66-3.72,1.09-3.7,1.18-3.7,5.24,0,27.34,0,54.68,0,82.03,0,1.13-.03,2.26.07,3.38.56,6.44,3.9,13.28,13.35,14.24,3.03.31,5.99-.3,9-.31,3.88-.02,3.94.5,3.94-3.87-.01-10.79,0-21.57,0-32.36,0-1,0-2.01.05-3.01.03-.7.4-1.25,1.15-1.19,4.8.33,9.58.64,12.41,5.54,1.45,2.51,2.58,5.15,3.68,7.81,2.21,5.32,4.33,10.69,6.6,15.98,2.05,4.77,5.52,8.21,10.66,9.24,6.13,1.22,12.25.63,18.11-1.64,2.18-.84,2.32-1.29,1.19-3.35-2.77-5.06-5.17-10.3-7.43-15.61-2.55-6-5.17-11.96-7.79-17.93-1.6-3.62-3.84-6.75-7.68-9.22ZM884.34,754.47c0,9.28.04,18.57-.01,27.85-.03,4.79.49,9.52,1.66,14.15,2.79,11.08,8.24,20.46,17.98,26.86,10.67,7.02,22.44,8.3,34.67,5.72,12.99-2.73,21.9-10.57,27.1-22.71,3.11-7.26,4.27-14.93,4.33-22.75.12-13.42,0-26.85.06-40.28.01-2.9-.21-5.77-.61-8.62-1.17-8.17-5.72-13.81-15.36-13.78-2.38,0-4.77-.11-7.15-.17q-3.2-.08-3.23,3.17c0,.63,0,1.25,0,1.88,0,18.7.05,37.39-.03,56.09-.02,5.01-.3,10.03-2,14.84-1.12,3.18-2.87,5.9-5.86,7.56-8.69,4.82-20.73-.08-23.61-9.53-1.22-4-1.57-8.1-1.56-12.26.02-13.43-.01-26.85.02-40.28,0-3.02-.17-6.02-.67-8.99-1.42-8.48-6.01-14.68-16.54-14.5-1.88.03-3.76-.06-5.65-.08-3.49-.04-3.52-.03-3.53,3.44-.02,10.79,0,21.58,0,32.37ZM480.48,800.91c-1.08.27-1.69.39-2.28.57-10.48,3.17-21.26,3.44-32.07,3.03-5.69-.22-9.9-2.43-10.98-9.64-.37-2.51-.29-5-.44-7.5-.11-1.85.76-2.44,2.46-2.37,1.25.05,2.51,0,3.76-.05,6.02-.22,12.04-.38,18.05-.69,8.51-.44,13.13-5.96,12.68-13.24-.15-2.5-.11-5.02,0-7.53.09-1.95-.61-2.69-2.6-2.55-3.75.26-7.51.36-11.27.53-6.77.3-13.55-.06-20.31.63-2.36.24-2.81-.19-2.73-2.77.14-4.51.43-9.02.71-13.52.16-2.58.26-2.65,2.9-2.81,1.38-.08,2.76-.06,4.14-.11,7.9-.25,15.81-.43,23.7-.78,7.23-.33,11.86-4.26,13.76-11.21.95-3.47.49-6.98.68-10.48.09-1.78-.55-2.5-2.38-2.38-3.63.24-7.26.4-10.9.5-12.79.36-25.59.63-38.38,1.04-10.63.34-16.52,5.39-18.5,15.71-1.54,8.04-1.79,16.2-2.04,24.33-.27,8.9-.11,17.82-.12,26.73,0,6.05.67,12.03,2.32,17.85,3.14,11.1,9.66,19.17,21.07,22.6,3.74,1.12,7.58,1.74,11.48,1.84,6.91.17,13.8-.26,20.68-.78,2.76-.21,5.43-.94,7.99-2,5.11-2.12,8.13-5.92,8.52-11.4.31-4.36.06-8.75.06-13.51ZM563.5,748.48c0-5.52.11-10.14-.04-14.75-.09-2.67-1.25-5.1-2.66-7.36-2.85-4.57-7.05-7.42-12-9.22-8.86-3.22-17.96-3.31-27.05-1.48-19.6,3.95-32.72,21.63-29.99,40.97,1.2,8.48,5.1,14.76,12.62,18.86,5.36,2.92,11.17,4.39,17.06,5.66,4.29.92,8.59,1.8,12.64,3.56,2.46,1.07,4.59,2.49,5.46,5.31,1.68,5.42-.9,10.59-6.4,12.16-4.99,1.43-10.11,1.53-15.27.93-7.87-.93-15.18-3.21-21.41-8.33-.61-.5-1.07-1.49-2.39-1.01-.11,4.8-.32,9.69.25,14.53.38,3.25,1.67,6.26,3.7,8.93,3.44,4.52,8.13,7.06,13.48,8.36,10.99,2.67,21.92,2.23,32.59-1.59,8.37-3,14.73-8.45,18.65-16.54,2.11-4.35,3.21-8.99,3.54-13.76.99-14.33-3.81-24.81-18.33-30.64-4.21-1.69-8.58-2.73-12.99-3.72-4.4-.99-8.83-1.95-12.87-4.05-3.81-1.98-4.9-4.55-3.99-8.73,1.05-4.82,4.76-6.54,8.96-7.44,6.85-1.47,13.69-1.17,20.5.52,5.82,1.44,10.97,4.12,15.96,8.86ZM755.23,715.72c-7.1,0-14.64-.14-22.17.04-8.65.2-14.21,4.4-16.2,11.97-.7,2.67-.96,5.42-.96,8.19,0,23.85.02,47.7-.02,71.55,0,2.03.21,4.01.6,5.98,1.04,5.32,5.11,9.35,10.52,9.83,4.61.41,9.28.22,13.92.29,1.2.02,1.89-.47,1.88-1.76-.01-.88.02-1.76.02-2.64,0-10.92-.01-21.84.01-32.76,0-2.9.06-2.96,2.89-2.96,6.15,0,12.31-.14,18.45.15,5.13.24,9.7-3.51,11.05-8.45,1.12-4.08.56-8.23.65-12.36.02-1.07-.6-1.61-1.61-1.69-.87-.06-1.76-.05-2.63-.06-8.79-.06-17.58-.09-26.36-.18-3.05-.03-3.08-.09-3.1-3.2-.03-5.02-.05-10.04.01-15.06.03-2.45.14-2.43,2.61-2.4,7.66.1,15.31.27,22.97.22,8.01-.05,13.44-5.48,13.65-13.46.07-2.63.06-5.27,0-7.91-.05-2.6-.09-2.66-2.79-2.74-7.65-.22-15.3-.4-23.39-.61ZM241.2,784.21c0,11.92,0,23.84,0,35.76,0,1.76.12,3.49.46,5.23,1.27,6.63,5.23,10.05,11.91,10.23,3.78.1,7.51-.42,11.27-.64,3.26-.19,3.29-.19,3.3-3.4.02-11.29,0-22.59.02-33.88,0-3.17.06-3.21,3.07-3.38,5.76-.32,11.52-.63,17.29-.87,5.94-.25,10.32-3.53,11.95-9.1,1.22-4.18.67-8.47.74-12.72.01-.89-.47-1.39-1.38-1.4-.63,0-1.25.02-1.88.06-9.14.48-18.28,1-27.42,1.44-2.93.14-2.99.05-3.01-2.79-.05-4.89-.04-9.79,0-14.68.02-2.87.06-2.86,2.88-3.03,7.76-.46,15.53-.88,23.28-1.4,7.06-.48,12.64-6.19,13-13.27.14-2.88.07-5.77.04-8.66-.03-2.93-.07-3.01-2.88-2.9-3.38.13-6.76.43-10.13.61-11.02.57-22.04,1.07-33.06,1.71-2.99.17-5.96.73-8.78,1.89-4.73,1.93-7.83,5.32-9.3,10.17-.92,3.01-1.33,6.11-1.33,9.27.01,11.92,0,23.84,0,35.76ZM1081.61,793.61c0-12.67-.01-25.33.01-38,0-3.07.07-3.15,3.16-3.04,3.38.12,6.75.53,10.13.6,8.16.17,14.66-6.18,14.76-14.31.03-2.26.03-4.52,0-6.77-.04-2.69-.06-2.83-2.92-3.03-8-.54-16.02-.95-24.02-1.44-6.13-.37-12.25-.85-18.39-1.17-7.64-.4-15.28-.86-22.92-.97-6.59-.1-11.73,4.32-13.14,10.74-.85,3.85-.33,7.75-.44,11.62-.04,1.3.72,1.68,1.9,1.74,4.13.2,8.26.49,12.39.67,3.51.15,7.02.13,10.51.6,2.54.34,2.55.32,2.62,2.99.02.75,0,1.5,0,2.26,0,20.07,0,40.13,0,60.2,0,1.75,0,3.52.17,5.26.61,6.17,4.99,11.13,11.03,12.22,4.32.79,8.73.89,13.12.97,1.47.03,2.05-.6,2-2.01-.03-.88,0-1.76,0-2.63,0-12.17,0-24.33,0-36.5ZM1015.55,782.55c0-14.54,0-29.08,0-43.62,0-1.13.04-2.26-.07-3.38-.59-6.01-5.29-11.72-10.47-12.3-4.47-.5-9-.49-13.5-.8-1.89-.13-2.47.72-2.31,2.43.05.5,0,1,0,1.5,0,28.83.01,57.66-.02,86.5,0,2.41.29,4.76.86,7.07,1.46,5.98,5.9,10.42,11.1,10.87,4.11.36,8.27.11,12.38.68,1.44.2,2.09-.48,2.03-1.92-.04-.88,0-1.75,0-2.63,0-14.79,0-29.58,0-44.38Z"/>
  <path class="cls-6" d="M793.96,668.9c-.87.1-1.74.32-2.6.28-21.21-.86-42.41.18-63.61.26-51.71.18-103.41.27-155.12.39-1,0-2-.1-3-.15-.73-1.31-1.43-2.64-2.21-3.92-13.46-22.34-25.74-45.28-34.76-69.83-9.58-26.09-14.95-52.92-14.41-80.83.1-4.89.75-9.73.78-14.62,1.66-7.2,3.01-14.46,5.27-21.52,5.42-16.96,13.5-32.36,26.14-45.13,13.48-13.61,29.81-21.78,48.51-25.49,18.02-3.58,35.96-2.51,53.83,1.03,6.79,1.34,13.64,1.97,20.51,2.58,5.38.53,10.67-1.01,16.05-.67,9.68-1.36,19.34-2.87,29.04-4.06,19.25-2.36,38.32-1.76,56.9,4.4,22.9,7.61,40.34,22.31,53.93,41.94,1.56,2.25,2.75,4.75,4.7,6.73,1.11,2.27,2.42,4.4,4.16,6.25,2.52,11.01,4.56,22.1,5.53,33.36,1.77,20.61.49,41.09-2.51,61.52-.5,3.43-1.9,6.72-1.67,10.26-3.84,9.65-6.93,19.55-10.1,29.42-1.11,3.45-1.97,7.04-3.59,10.24-3.72,7.36-7.85,14.51-11.79,21.76-3.1,5.7-6.15,11.43-9.23,17.14-3.71,6.13-7.43,12.26-10.74,18.63ZM570.54,540.17c2.52.04,4.2-.07,5.91-.75,6.56-2.61,11.26-7.3,15.04-13.06,5.08-7.76,8.08-16.33,9.54-25.44.43-2.7.93-5.5.65-8.17-.41-3.83-1.41-7.62-3.09-11.14-3.52-7.36-8.88-12.66-17.04-14.62-4.38-1.06-8.75-1.31-13.31-.72-8.71,1.12-15.28,5.27-19.69,12.75-2.97,5.03-4.08,10.62-4.82,16.41-1.01,7.92-.95,15.73,1.05,23.43,3.58,13.75,13.81,20.94,25.77,21.32Z"/>
  <path class="cls-2" d="M519.03,500.5c-.03,4.88-.68,9.73-.78,14.62-.55,27.91,4.83,54.74,14.41,80.83,9.01,24.55,21.3,47.48,34.76,69.83.77,1.28,1.47,2.61,2.21,3.92-4.55,1.1-9.23.93-13.84,1.29-10.75.83-21.53,1.23-32.3,1.81-18.17.98-36.36,1.22-54.54,1.69-25.86.66-51.71.36-77.56.38-.12,0-.25-.04-.37-.06-.53-3.09-1.97-5.87-3.04-8.76-3.98-10.76-7.5-21.61-6.83-33.32.04-.74-.06-1.49-.09-2.24.26-2.73.4-5.46.73-8.19,1.32-10.83,4.12-21.29,7.35-31.65,4.71-15.14,10.39-29.98,14.74-45.24,1.84-6.46,3.68-12.94,4.34-19.67,3.51-6.02,5.25-12.67,6.86-19.35,2.48-10.25,3.31-20.72,3.77-31.22.12-2.75.38-5.54.07-8.25-.59-5.12,1.5-8.91,5.2-12.08,2.76-2.36,5.26-4.99,7.8-7.58,3.18-3.24,7.29-5.26,10.97-7.84.71-.5,1.55-.82,2.02-1.61,3.12-.53,5.6-2.4,8.22-3.97,8.33,2.12,16.1,5.39,22.87,10.83,8.42,6.77,14.07,15.51,18.26,25.3,3.21,7.5,6.56,14.91,11.98,21.13,3.55,4.07,7.49,7.71,12.83,9.39ZM438.69,472.44c-5.87-.03-8.14,2.19-8.54,7.97-.34,4.87.16,9.71.09,14.57-.04,3.14,2.3,6.05,5.19,6.56,2.2.39,4.47.4,6.71-.16,3.43-.85,5.74-2.86,7.05-6.15,1.96-4.94,2.17-9.92.49-14.94-1.81-5.39-5.27-7.81-10.99-7.85Z"/>
  <path class="cls-5" d="M91.25,945.28c-.12-1.33.55-1.99.96-2.73,11.25-20.15,21.9-40.64,34.28-60.15.6-.95,1.14-1.95,1.63-2.96,3.86-7.84,3.09-13.87-2.64-20.46-.99-1.14-2.06-2.2-3.14-3.24-15.94-15.32-30.61-31.85-45.78-47.91-.42-.44-.95-.83-.96-1.65,2.93-1.17,6.11-1.01,9.17-1.39,15.81-1.95,31.65-3.66,47.46-5.57,15.19-1.83,30.37-3.81,45.55-5.7,3.11-.39,6.24-.76,9.38-.34,4.28.57,6.8,2.77,7.96,6.89.73,2.58.77,5.2.71,7.84-.24,10.79-.09,21.58.48,32.37.34,6.41-.54,12.78-.7,19.18-.08,3.27-.09,6.52.91,9.69,1.89,5.96,6.23,8.76,12.51,8.39,17.29-1.02,34.55-2.38,51.87-2.96,9.41-.31,18.81-.77,28.21-1.35,9.35-.57,15.49,2.35,17.6,14.66,1.39,8.17,2.3,16.38,1.99,24.7-.08,2.25.08,4.51.21,6.76.18,3.08-.72,4.68-3.73,5.66-2.25.74-4.59,1.39-6.94,1.64-10.1,1.07-20.22,1.99-30.34,2.93-12.24,1.13-24.49,2.2-36.73,3.31-12.62,1.14-25.24,2.31-37.86,3.45-12.74,1.16-25.49,2.32-38.23,3.46-12.62,1.13-25.24,2.24-37.87,3.37-6.62.6-13.24,1.24-19.86,1.85-1.99.18-3.98.56-6.1.26Z"/>
  <path class="cls-5" d="M1276.31,806.08c-4.91,5.39-9.46,10.39-14.02,15.37-10.85,11.84-21.57,23.81-33.2,34.9-1.82,1.74-3.45,3.64-4.81,5.77-2.82,4.42-3.24,9.11-1.7,14.06.83,2.66,2.13,5.08,3.57,7.44,11.96,19.45,22.66,39.62,33.85,59.5.35.63.92,1.22.65,2.14-3.25.37-6.45-.42-9.67-.68-13.25-1.07-26.49-2.31-39.73-3.46-9.75-.85-19.5-1.65-29.24-2.5-13.12-1.15-26.24-2.3-39.35-3.5-11.74-1.07-23.48-2.13-35.21-3.3-13.1-1.31-26.2-2.68-39.28-4.15-3.23-.36-6.51-.25-9.69-1.11-2.06-.55-4.15-.97-6.07-1.93-2.69-1.36-4.56-3.41-5.63-6.27-1.53-4.08-2.02-8.28-1.65-12.56.5-5.87,1.2-11.72,1.78-17.57.19-1.87.28-3.75.39-5.63.33-5.23,3.13-8.05,8.26-9.01,5.82-1.09,11.51.23,17.25.45,13.92.53,27.82,1.32,41.72,2.14,7.89.47,15.76,1.15,23.64,1.84,3.39.3,6.75.46,10.1-.34,3.9-.94,6.36-3.29,7.46-7.14.59-2.08.87-4.19.74-6.32-.78-13.04.13-26.08-.21-39.12-.12-4.51-.41-9.02-.63-13.53-.17-3.53.11-6.99,1.03-10.43,1.44-5.36,5.6-7.08,10.39-7.81,4.12-.62,8.26-.33,12.38.26,18.61,2.7,37.27,5.08,55.95,7.28,12.83,1.51,25.64,3.11,38.46,4.68.61.07,1.21.27,2.47.56Z"/>
  <path class="cls-2" d="M1033.42,533.76c9.01,4.68,17.84,9.67,26.03,15.7,10.87,8.01,20.58,17.19,28.16,28.44,15.4,22.87,18.41,47.41,9.66,73.46-2.44,7.26-5.72,14.16-9.18,20.97-2.25,4.43-5.49,7.79-10.75,8.46-2.67.34-5.21-.39-7.74-1.09,1.06-.79,1.47-2.01,2.02-3.13,1.93-3.94,3.9-7.85,5.63-11.89,6-13.95,9.89-28.28,9.14-43.66-.36-7.4-2.35-14.33-5.58-20.85-3.2-6.46-7.95-11.83-13.32-16.63-.49-.44-.92-1.33-1.83-.68-.36.71.14,1.22.37,1.76,4.08,9.76,6.49,19.95,7.43,30.44.6,6.74.29,13.56-.8,20.22-1.74,10.61-4.55,20.97-8.26,31.1-1.58,4.32-3.72,8.49-4.42,13.12-10.02.12-20.01-.82-30.01-1.14-5.63-.18-11.24-.67-16.87-.92-19.13-.85-38.27-1.65-57.4-2.48-.37-.02-.74-.11-1.11-.16.36-.93.72-1.86,1.08-2.79,3.84-9.8,8.06-19.45,11.04-29.58,3.08-10.45,4.9-20.97,2.93-31.87-.42-2.33-.71-4.71-.81-7.08-.24-5.77-.84-11.51-1.74-17.18-2.39-15.08-5.53-30.03-8.53-44.99-1.01-5.02-2.48-9.97-2.68-15.14,7.13-.92,14.25-1.84,21.38-2.75,6.37.23,12.71.91,19.1,1,4.46.07,8.89.34,12.86,3.04,2.47,1.68,5.51,2.29,8.46,2.92,5.25,1.12,10.58,1.84,15.74,3.39Z"/>
  <path class="cls-2" d="M839.41,571.7c-.23-3.54,1.17-6.83,1.67-10.26,3-20.43,4.28-40.91,2.51-61.52-.97-11.26-3.01-22.35-5.53-33.36.64-.39,1.33-.7,1.9-1.17,5.69-4.7,11.22-9.61,17.07-14.1,9.74-7.49,20.56-11.86,33.15-9.74,6.39,1.08,12.28,3.38,16.89,8.22.06,1.61,1.06,2.75,1.9,4,4.11,6.17,7.37,12.78,9.6,19.85,2.78,8.8,4.78,17.82,6.52,26.88,1.17,6.1,2.05,12.26,3.01,18.41.8,5.16,2.12,10.33,2.15,15.5.05,8.33,2.32,16.27,3.42,24.4,1.05,7.77,2.35,15.58,2.57,23.34.44,15.34.83,30.71-1.93,45.99-2.23,12.34-5.41,24.32-10.03,35.97-1.23,3.11-3.43,5.86-3.66,9.36-11.38.34-22.73-.77-34.1-1.01-5.2-.11-10.48-.05-15.69-.74,4.82-2.66,9.6-5.37,14.08-8.6,6.92-4.98,12.78-10.94,16.51-18.67,4.04-8.37,4.99-17.23,3.42-26.38-2.22-12.98-6.33-25.24-14.12-36.04-4.79-6.64-11.1-11.16-19.11-13.1-5.68-1.38-11.43-1.17-17.18-.49-5.11.6-10,2.24-15.02,3.26Z"/>
  <path class="cls-3" d="M381.04,630.48c.03.75.14,1.5.09,2.24-.67,11.71,2.86,22.56,6.83,33.32,1.07,2.9,2.51,5.68,3.04,8.76-10.63.57-21.27,1.15-31.91,1.71-12.89.68-25.78,1.37-38.67,1.99-6.63.32-13.26.51-19.89.76.84-1.98,2.91-2.21,4.5-3.04,4.13-2.16,6.67-5.24,7.76-9.93.96-4.16.14-8.01-1.11-11.73-4.23-12.56-8.09-25.18-9.83-38.4-.91-6.93-1.68-13.86-1.95-20.82-.2-5.23.02-10.47.48-15.73.5-5.71.82-11.44,1.73-17.11.4-2.47,1.08-4.95.69-7.43-.66-4.22,1.02-7.26,4.26-9.69.7-.52,1.47-.98,2.07-1.59,1.58-1.59,3.95-2.26,5.03-4.41.95-.74,2.14-.65,3.22-.91,5.57-1.31,10.68-3.53,14.96-7.43,2.27,1.78,4.71,3.17,7.57,3.85,3.18.76,6.4.79,9.63.82,0,.89.19,1.68.66,2.49,4.42,7.59,7.91,15.6,10.8,23.9,4.37,12.52,7.12,25.48,10.36,38.3,2.29,9.09,4.77,18.11,7.89,26.95.4,1.13.39,2.56,1.8,3.13Z"/>
  <path class="cls-4" d="M839.41,571.7c5.02-1.02,9.9-2.66,15.02-3.26,5.75-.67,11.5-.88,17.18.49,8.01,1.94,14.32,6.46,19.11,13.1,7.78,10.8,11.9,23.05,14.12,36.04,1.56,9.14.62,18.01-3.42,26.38-3.74,7.73-9.59,13.69-16.51,18.67-4.48,3.23-9.26,5.94-14.08,8.6-9.6-.3-19.19-.57-28.79-.9-2.74-.09-5.48-.36-8.21-.54-5.31-.95-10.33-2.87-15.09-5.3-6.33-3.23-12.94-6.39-14.02-14.7,3.08-5.72,6.13-11.44,9.23-17.14,3.94-7.25,8.07-14.4,11.79-21.76,1.62-3.2,2.48-6.8,3.59-10.24,3.18-9.87,6.27-19.77,10.1-29.42Z"/>
  <path class="cls-6" d="M314.15,539.38c-1.07,2.15-3.45,2.82-5.03,4.41-.61.61-1.38,1.07-2.07,1.59-3.24,2.43-4.92,5.47-4.26,9.69.39,2.48-.29,4.96-.69,7.43-.91,5.67-1.24,11.4-1.73,17.11-.46,5.26-.68,10.5-.48,15.73.27,6.96,1.04,13.9,1.95,20.82,1.74,13.22,5.6,25.83,9.83,38.4,1.25,3.72,2.07,7.56,1.11,11.73-1.08,4.69-3.63,7.77-7.76,9.93-1.59.83-3.66,1.06-4.5,3.04-3.38.23-6.69.89-10.02,1.46-8.9,1.51-16.35-1.01-21.84-8.46-2.47-3.36-4.37-7.01-5.95-10.85-7.19-17.49-11.04-35.64-10.23-54.61.52-12.29,3.24-24.06,9.51-34.83,4.43-7.61,10.29-13.88,17.63-18.74,7.66-5.07,15.96-8.9,24.6-11.96,3.19-1.13,6.51-1.84,9.93-1.88ZM287.79,584.34c0-.5-.07-1.01.01-1.5.57-3.42-3.51-7.22-5.86-7.87-3.66-1.02-8.79.37-10.49,3.22-3.04,5.1-3.4,10.62-.02,15.85,2.65,4.1,8.37,4.71,11.93,1.4,3.21-2.98,4.45-6.8,4.43-11.1Z"/>
  <path class="cls-3" d="M687.77,344.22c1.9.61,3.79,1.27,5.71,1.83,3.78,1.1,6.92-.07,9.51-2.88.84-.92,1.6-1.94,2.27-2.99,8.71-13.5,21.33-17.87,36.73-15.8,10.61,1.43,20.75,4.78,30.95,7.81,12.49,3.71,24.95,7.54,37.42,11.32.71.22,1.49.26,2.23,1.06-.08.97-.77,1.86-1.3,2.79-10.3,18.12-24.8,31.05-45.29,36.5-9.67,2.57-19.46,3.59-29.44,2.09-13.33-2-23.54-8.8-30.93-19.96-1.11-1.67-2.1-3.42-3.08-5.17-3.22-5.75-8-8.84-14.69-8.75-.14-1.46-.1-2.93-.54-4.38-.35-1.14-.6-2.43.45-3.47Z"/>
  <path class="cls-4" d="M907.07,449.76c-4.61-4.84-10.5-7.14-16.89-8.22-12.59-2.13-23.4,2.25-33.15,9.74-5.85,4.49-11.38,9.4-17.07,14.1-.57.47-1.26.79-1.9,1.17-1.74-1.85-3.05-3.98-4.16-6.25,8.04-9.48,17.93-16.47,28.79-22.43,11-6.03,22.37-11.08,34.13-15.35.93-.34,1.79-.88,2.68-1.32,1.42-.05,2.62-.77,3.92-1.23,4.15-1.48,5.41-1.11,7.95,2.41,2.28,3.14,4.55,6.28,6.71,9.5,6.05,9.01,13.29,17.3,16.81,27.83,1,3.89,2.68,7.53,4.4,11.12,7.31,15.21,11.25,31.42,14.5,47.86.5,2.52.39,5.27,2.08,7.48.2,5.17,1.68,10.12,2.68,15.14,3,14.97,6.14,29.91,8.53,44.99.9,5.68,1.49,11.42,1.74,17.18.1,2.37.39,4.75.81,7.08,1.97,10.91.15,21.43-2.93,31.87-2.98,10.12-7.21,19.78-11.04,29.58-.36.93-.72,1.86-1.08,2.79-4.56.09-9.13.53-13.63-.59,4.95-11.77,9.09-23.8,11.76-36.31,1.64-7.7,2.55-15.5,3.2-23.32.44-5.36-.88-10.67-1.29-16.01-.52-6.73-1.56-13.39-2.62-20.02-2.12-13.29-4.59-26.52-7.16-39.73-3.8-19.58-9.67-38.5-16.89-57.04-3.24-8.32-7.77-15.98-11.97-23.81-2-3.72-5.14-6.33-8.91-8.21Z"/>
  <path class="cls-3" d="M934.91,459.7c-3.53-10.53-10.76-18.82-16.81-27.83-2.16-3.22-4.43-6.36-6.71-9.5-2.55-3.52-3.8-3.88-7.95-2.41-1.29.46-2.5,1.18-3.92,1.23-.4-6.77-.26-13.54-.15-20.31.07-4.01.11-8.02-.49-12.01-.19-1.25-.25-2.64-1-3.59-1.68-2.1-1.02-4.13-.31-6.47,4.37,3.45,6.75,7.9,7.9,13.03.71,3.18,1.1,6.42,1.75,9.62.88,4.3,1.14,4.52,5.45,5.29,8.14,1.47,16.31,2.7,24.36,4.63,11.37,2.73,21.84,7.28,30.73,15.08,10.62,9.32,16.72,21.12,19.07,34.92,1.73,10.13,1.1,20.23-.83,30.28-.12.63-.32,1.21-.86,1.65-1.35-.37-2.37-1.34-3.49-2.11-14.51-9.87-29.01-19.76-43.52-29.64-1.02-.7-1.94-1.6-3.2-1.89Z"/>
  <path class="cls-3" d="M434.86,406.76c.56,4.22-.7,8.11-2.02,12.02-1.76,5.22-3.34,10.5-5,15.75-.45,1.43-.89,2.88-1.43,4.28-2.68,6.91-6.52,12.93-12.84,17.17-7.94,5.33-16.03,10.27-25.63,12.11-9.19,1.76-18.19.88-27.17-1.42-1.72-.44-2.18-1.28-2.1-2.89.11-2.4.75-4.69,1.27-7.01.79-3.56,1.91-7.02,3.45-10.31,6.24-13.33,15.05-24.81,25.66-34.94,3.13-2.99,6.75-5.13,10.89-6.47,6.42-2.09,12.54-5.06,19.31-6.07,3.38-.5,6.76-.19,10.13-.45.88.03,1.75.03,2.63.09,2.6.17,2.62.2,2.71,2.89.06,1.75.09,3.5.13,5.25Z"/>
  <path class="cls-3" d="M907.07,449.76c3.77,1.87,6.91,4.49,8.91,8.21,4.2,7.83,8.73,15.5,11.97,23.81,7.22,18.54,13.09,37.46,16.89,57.04,2.57,13.22,5.04,26.45,7.16,39.73,1.06,6.63,2.1,13.29,2.62,20.02.41,5.34,1.73,10.65,1.29,16.01-.64,7.82-1.56,15.62-3.2,23.32-2.67,12.51-6.81,24.54-11.76,36.31-6.79,0-13.59.27-20.35-.75.24-3.5,2.43-6.25,3.66-9.36,4.62-11.65,7.8-23.63,10.03-35.97,2.76-15.28,2.37-30.66,1.93-45.99-.22-7.77-1.53-15.57-2.57-23.34-1.1-8.13-3.37-16.07-3.42-24.4-.03-5.17-1.35-10.34-2.15-15.5-.96-6.14-1.84-12.3-3.01-18.41-1.74-9.06-3.74-18.07-6.52-26.88-2.23-7.07-5.49-13.67-9.6-19.85-.83-1.25-1.84-2.39-1.9-4Z"/>
  <path class="cls-6" d="M381.04,630.48c-1.41-.57-1.4-2.01-1.8-3.13-3.12-8.84-5.59-17.87-7.89-26.95-3.24-12.82-5.98-25.77-10.36-38.3-2.9-8.3-6.38-16.31-10.8-23.9-.47-.81-.67-1.6-.66-2.49,3.02-2.33,6.04-4.66,9.06-7,10.27-1.55,20.5-3.39,30.9-3.95,6.27-.34,12.51-.19,18.7.97-.66,6.73-2.5,13.21-4.34,19.67-4.34,15.26-10.02,30.1-14.74,45.24-3.23,10.36-6.03,20.82-7.35,31.65-.33,2.73-.47,5.46-.73,8.19Z"/>
  <path class="cls-5" d="M639.12,930.04c6.93,2.73,9.89,8.28,12.8,13.88,1.9,3.67,3.4,7.54,5.56,11.08,1.38,2.25,3.07,3.99,5.87,4.15,1.69.09,2.47.92,2.54,2.6.07,1.65-.29,3.11-1.98,3.65-1.42.45-2.94.62-4.43.78-1.12.12-2.26,0-3.39.03-6.21.12-10.18-2.72-11.89-8.77-.88-3.13-2-6.2-3.04-9.29-1-2.98-2.18-5.88-3.87-8.54-3.28-5.19-11.31-7.8-16.97-5.59-.92.36-1,.98-.98,1.76.15,7.15.32,14.29.42,21.44.02,1.57.6,2.3,2.22,2.18,1.12-.08,2.26-.04,3.39,0,2.43.08,2.88.53,2.9,2.81.02,2.23-.45,2.76-2.97,2.77-7.78.05-15.56.04-23.34,0-2.13,0-2.67-.72-2.69-3.02-.02-1.67.68-2.51,2.44-2.6,1.57-.08,3.56.76,4.6-.63,1.03-1.38.57-3.38.6-5.12.34-16.93.3-33.87.12-50.81-.01-1.13-.06-2.26-.15-3.38-.32-3.97-.06-3.68-3.87-3.67-2.76,0-3.4-.7-3.35-3.16.03-1.53.74-2.33,2.25-2.42.5-.03,1-.08,1.5-.07,9.91.07,19.83-.22,29.74.27,3.4.17,6.74.7,10.01,1.58,6.46,1.73,11.45,5.17,13,12.12,1.71,7.65.19,14.45-5.8,19.88-3.02,2.75-6.72,4.33-11.28,6.08ZM624.49,926.53c3.41.05,6.75-.4,9.98-1.48,5.78-1.95,8.71-5.88,8.81-11.69.12-6.81-2.75-11.64-8.4-13.71-3.93-1.44-8.05-1.77-12.21-1.24-2.77.35-2.92.35-3,3.11-.2,6.63-.34,13.27-.34,19.9,0,5.93-.96,5.02,5.16,5.12Z"/>
  <path class="cls-5" d="M715.89,927.56c9.41-10.02,18.85-20.01,27.28-30.73-.46-1.27-1.34-.98-2.01-.93-1.55.12-2.27-.58-2.56-2.04-.5-2.5.19-3.52,2.79-3.59,3.01-.09,6.03,0,9.04-.03,2.89-.02,5.77-.14,8.66-.1,1.86.03,2.44.81,2.48,2.91.03,1.59-.46,2.95-2.27,2.68-2.84-.43-4.33,1.3-5.99,3.06-6.98,7.38-14.01,14.71-21.15,22.19,4.55,7.06,9.01,14.02,13.5,20.97,2.93,4.53,5.77,9.12,9.22,13.29,1.46,1.76,3,3.5,5.41,3.79,1.78.21,2.31,1.12,2.35,2.73.04,1.77-.26,3.32-2.22,3.85-1.94.53-3.95.58-5.97.66-6.18.23-10.28-2.3-13.15-7.98-5.02-9.95-10.62-19.62-15.88-29.23-1.45-.32-1.76.7-2.29,1.31-1.57,1.79-2.9,3.84-4.65,5.42-2.98,2.7-3.79,5.92-3.47,9.77.32,3.74.39,7.52.41,11.28,0,1.9.59,2.86,2.6,2.59.37-.05.75-.02,1.13,0,2.41.12,2.86.55,2.9,2.83.04,2.1-.56,2.75-2.99,2.76-7.16.04-14.31.04-21.47,0-2.08-.01-2.63-.77-2.64-3.07,0-1.71.77-2.57,2.51-2.51.13,0,.25,0,.38,0,4.6-.3,4.67-.29,4.76-4.71.36-17.44.32-34.88.12-52.32-.01-1.25-.11-2.51-.21-3.76-.23-2.77-.25-2.77-3.12-2.83-.38,0-.75,0-1.13,0-2.75-.06-3.52-.93-3.22-3.58.13-1.14.66-1.87,1.86-1.98.5-.05,1-.1,1.5-.1,6.9,0,13.81-.03,20.71,0,2.4.01,3.07.79,3.02,3.14-.04,1.85-.65,2.38-2.89,2.51-.25.01-.5.02-.75,0-2.52-.17-2.99-.23-3.04,2.84-.1,6.27-.28,12.54-.39,18.81-.05,3.23,0,6.46,0,9.69.28.15.56.29.84.44Z"/>
  <path class="cls-5" d="M506.92,921.85c0-7.53.03-15.06-.01-22.59-.02-3.22-.08-3.41-3.17-3.43-2.28-.01-2.34-1.45-2.49-2.92-.17-1.62.55-2.72,2.3-2.75,3.26-.06,6.53-.05,9.79-.06,3.39,0,6.78-.06,10.17.03,1.87.05,2.36.81,2.39,2.99.03,1.64-.53,2.68-2.35,2.65-.38,0-.75-.01-1.13.01-2.54.16-2.59.16-2.66,2.83-.12,4.77-.25,9.53-.25,14.3,0,9.28-.31,18.57.23,27.85.18,3.02.71,5.98,1.67,8.85.6,1.81,1.55,3.41,2.95,4.74,5.03,4.78,16.52,5.07,21.7.5,2.28-2.01,3.18-4.74,3.84-7.58.93-3.94.99-7.96.99-11.98,0-11.92-.07-23.84-.16-35.76-.03-4.04.11-3.76-3.64-3.76-2.84,0-3.55-.89-3.27-3.56.13-1.18.69-1.84,1.85-1.98.62-.07,1.25-.11,1.88-.11,5.77,0,11.55-.03,17.32,0,2.79.02,3.18.42,3.21,2.87.03,2.26-.38,2.64-2.93,2.8-3.33.21-3.29.21-3.39,3.62-.42,13.29.28,26.6-.45,39.89-.22,3.91-.96,7.69-2.12,11.43-1.88,6.03-5.77,10.29-11.58,12.55-9.54,3.71-19.33,3.92-29.17,1.22-5.32-1.46-8.48-5.13-9.86-10.38-1.02-3.9-1.46-7.89-1.47-11.92-.02-6.78,0-13.55,0-20.33-.06,0-.13,0-.19,0Z"/>
  <path class="cls-5" d="M476.39,1009.9h398c-2.32-.65-4.65.72-7.12.82-10.91.45-21.81,1.16-32.72,1.59-21.07.83-42.14,1.69-63.22,2.26-54.47,1.48-108.96,1.47-163.44.49-17.57-.32-35.14-.78-52.7-1.4-20.57-.73-41.14-1.43-61.7-2.58-6.37-.36-12.75-.39-17.1-1.18Z"/>
  <path class="cls-5" d="M818.86,965.07c-7.91,0-15.81.02-23.72-.01-2.46,0-3-.65-2.98-3.11.01-1.9.52-2.35,2.88-2.54.62-.05,1.26-.05,1.88-.02,1.3.05,1.74-.63,1.76-1.85.03-2.51.17-5.01.2-7.52.21-16.93.46-33.86-.16-50.79-.02-.5-.07-1.01-.05-1.5.08-1.44-.56-2.08-2-1.96-.5.04-1,.02-1.51,0-2.47-.1-3.04-.69-3.02-3.09.02-1.89.56-2.46,2.88-2.55,2.76-.1,5.52-.04,8.28-.04,11.8,0,23.59,0,35.39,0,1.25,0,2.51,0,3.76.09,3.9.29,4.76,1.28,4.49,5.24-.07.99-.22,2-.52,2.95-.91,2.96-1.21,3.08-4.2,2.15-9.34-2.91-18.98-3.27-28.66-3.34-1.46-.01-2.03.58-2.03,1.98-.04,6.9-.08,13.8-.19,20.69-.03,1.8.95,2.01,2.38,2,6.9-.03,13.8-.01,20.7-.01,1,0,2.01-.02,3.01,0,2.73.06,3.01.32,3.26,2.91.35,3.52-.18,4.12-3.85,4.13-7.53.02-15.06,0-22.59.02-2.85,0-2.9.05-2.89,2.86.02,7.53.05,15.05.13,22.58.04,3.48.1,3.51,3.61,3.52,10.17.02,20.33-.05,30.14-3.32,1.4-.47,2.14.09,2.5,1.41.19.72.48,1.43.6,2.16.82,4.7-.65,6.7-5.4,6.82-6.9.17-13.8.09-20.7.12-1.13,0-2.26,0-3.39,0Z"/>
  <path class="cls-5" d="M897.25,896.37c4.46,12.17,9.59,24.16,15.46,36.11,3.41-4.64,13.33-30.72,13.95-36.28-.61-.63-1.39-.36-2.11-.42-2.29-.18-2.76-.66-2.82-2.9-.05-1.98.48-2.69,2.68-2.72,6.02-.1,12.05-.01,18.08-.07,1.97-.02,2.23,1.2,2.28,2.7.05,1.47-.07,3.12-1.98,2.91-2.78-.32-3.69,1.42-4.65,3.38-6.5,13.29-13,26.57-19.53,39.85-.62,1.27-.96,2.54-.91,3.97.18,4.64.35,9.28.39,13.92.02,1.87.56,2.82,2.58,2.61,1.12-.11,2.26-.05,3.39-.01,2.38.08,2.87.58,2.91,2.83.04,2.1-.57,2.74-3.01,2.75-8.29.04-16.57.04-24.86,0-1.93,0-2.45-.7-2.55-2.8-.08-1.62.43-2.71,2.25-2.76,1-.03,2.01-.02,3.01-.03,3.18-.05,3.27-.05,3.42-3.36.19-4.14.17-8.28.31-12.42.04-1.3-.3-2.45-.88-3.59-6.89-13.66-13.67-27.36-20.89-40.85-1.11-2.08-2.06-3.95-5-3.46-1.56.26-1.62-1.28-1.75-2.36-.15-1.27-.18-2.61,1.45-3.02.72-.18,1.49-.21,2.24-.22,6.15-.02,12.3-.03,18.45,0,2.47.01,3.18.73,3.2,2.98.02,1.88-.66,2.46-3.14,2.68-.6.05-1.24-.11-1.98.59Z"/>
  <path class="cls-2" d="M687.77,344.22c-1.05,1.03-.8,2.32-.45,3.47.45,1.45.41,2.92.54,4.38,0,8.91,1.13,17.74,1.74,26.61.69,10.01,1.11,20-.18,30-.11.86-.06,1.75-.09,2.62-5.37-.34-10.67,1.2-16.05.67.57-20.09-3.34-39.38-10.41-58.09-1.06-2.8-2.73-5.36-4-8.08-2.93-6.25-1.58-10.41,4.46-13.83,1.3-.74,2.69-1.36,4.1-1.85,3.95-1.37,7.39-.42,10.37,2.44,1.83,1.75,3.23,3.83,4.71,5.85,1.55,2.12,3.09,4.25,5.25,5.82Z"/>
  <path class="cls-5" d="M445.95,897.52c-.7,3.61-.61,7.25-.61,10.87-.02,15.67-.29,31.34.26,47.01,0,.25,0,.5.02.75q.22,3.2,3.47,3.24c.75,0,1.51-.02,2.26,0,2.33.09,2.87.62,2.88,2.86.01,2-.55,2.68-2.66,2.72-3.89.08-7.78.02-11.66.02-4.39,0-8.78.03-13.17-.02-2.04-.02-2.53-.61-2.63-2.71-.1-2.09.39-2.65,2.5-2.86.12-.01.25.01.38-.01,1.79-.3,4.16.95,5.27-.73.85-1.28.54-3.38.57-5.12.34-17.3.5-34.6-.01-51.9-.15-4.91.4-4.4-4.64-4.2-5.89.24-11.78.48-17.67.56-3.45.05-4.46-1.23-4.15-4.63.01-.12.05-.25.06-.37.65-5.21.85-5.3,5.95-4.4,6.56,1.16,13.21,1.43,19.86,1.48,11.79.09,23.58.12,35.37-.01,5.89-.07,6.98,1.66,5.51,7.4-.12.48-.34.94-.5,1.41-.57,1.67-1.31,2.3-3.33,1.57-7.16-2.57-14.66-3.19-22.21-3.18-.36,0-.72.16-1.13.25Z"/>
  <path class="cls-6" d="M1059.98,679.51c.7-4.63,2.84-8.79,4.42-13.12,3.71-10.13,6.52-20.49,8.26-31.1,1.09-6.66,1.4-13.48.8-20.22-.93-10.49-3.34-20.69-7.43-30.44-.23-.55-.73-1.05-.37-1.76.91-.64,1.34.25,1.83.68,5.37,4.8,10.12,10.17,13.32,16.63,3.23,6.53,5.22,13.45,5.58,20.85.75,15.38-3.14,29.71-9.14,43.66-1.74,4.04-3.7,7.95-5.63,11.89-.55,1.12-.96,2.33-2.02,3.13-3.21.12-6.41.16-9.61-.19Z"/>
  <path class="cls-3" d="M1033.42,533.76c-5.16-1.55-10.49-2.28-15.74-3.39-2.95-.63-5.99-1.23-8.46-2.92-3.97-2.7-8.4-2.97-12.86-3.04-6.38-.09-12.73-.78-19.1-1-.9-2.06-1.95-4.07-2.67-6.19-.98-2.89-.04-4.27,3.01-4.6,1.23-.13,2.5.01,3.76.08,1.87.1,3.76.47,5.6-.15,1.18-.4,1.83.09,2.48,1.03,2.09,3.02,5.23,4.26,8.69,4.62,3.73.39,7.5.36,11.28,1.16.5-1.59-.67-2.25-1.2-3.08-4.37-6.84-4.16-12.29.9-18.67.85-1.08,1.81-2.09,2.79-3.05.88-.87,1.64-1.9,2.85-2.44.95.7.35,1.62.3,2.39-.26,4.02-.12,8.03.44,12.02,1.03,7.32,4.82,12.47,11.84,15.17,3.43,1.32,7.02,1.85,10.57,2.62,1.35.29,2.69.58,4.02.95.71.2,1.56.46,1.7,1.28.16.92-.72,1.24-1.37,1.55-1.82.85-3.7,1.56-5.49,2.45-1.43.71-3.09,1.26-3.35,3.22Z"/>
  <path class="cls-2" d="M358.58,528.71c-3.02,2.33-6.04,4.66-9.06,7-3.23-.03-6.45-.06-9.63-.82-2.85-.68-5.3-2.07-7.57-3.85.73-5.23.5-10.5.75-15.75.38-7.94,2.48-15.29,7.4-21.67.91-1.18,1.87-2.37,2.99-3.35,2.51-2.23,5.38-2.47,8.4-1.13,2.58,1.14,3.81,3.27,3.33,6.05-.28,1.59-.7,3.2-1.34,4.68-4.01,9.24-2.46,17.83,2.84,26.03.61.94,1.26,1.87,1.89,2.8Z"/>
  <path class="cls-2" d="M434.86,406.76c-.04-1.75-.07-3.5-.13-5.25-.09-2.7-.12-2.73-2.71-2.89-.87-.06-1.75-.06-2.63-.09-.02-2.38-.1-4.76-.04-7.13.09-3.61,1.76-5.6,5.18-6.35,3.73-.82,6.15.26,7.76,3.56.49,1.01.9,2.07,1.19,3.16,3.74,13.9,6.78,27.97,9.61,42.08-2.62,1.57-5.1,3.43-8.22,3.97-.88-5.65-1.74-11.31-2.66-16.96-.46-2.84-1.22-5.61-2.43-8.22-1.1-2.38-2.38-4.68-4.93-5.87Z"/>
  <path class="cls-3" d="M804.7,650.27c1.08,8.32,7.7,11.47,14.02,14.7,4.76,2.43,9.78,4.35,15.09,5.3-8.72.59-17.38-.83-26.1-.67-4.59.08-9.21.34-13.76-.7,3.31-6.37,7.03-12.5,10.74-18.63Z"/>
  <path class="cls-1" d="M664.98,775.19c0,14.55,0,29.11,0,43.66,0,.88-.03,1.76,0,2.63.03,1.22-.47,1.87-1.76,1.86-3.89-.03-7.81.25-11.66-.12-6.37-.61-11.68-6.11-12.71-12.61-.49-3.11-.56-6.24-.54-9.38.04-6.27.04-12.55,0-18.82-.02-2.72-.09-2.78-2.73-2.78-8.28,0-16.57.03-24.85.07-3.26.02-3.31.06-3.32,3.41-.03,11.92-.01,23.84-.01,35.76,0,.88-.04,1.76,0,2.63.07,1.36-.47,2.23-1.89,2.24-4.38.01-8.82.64-13.12-.46-5.92-1.51-9.34-5.61-10.73-11.43-.46-1.94-.62-3.94-.62-5.97.03-28.48.02-56.96.02-85.44,0-.75.02-1.51,0-2.26-.04-1.5.52-2.36,2.17-2.35,4.14.02,8.3-.26,12.42.02,6.64.46,11.47,5.94,11.61,13.03.14,7.4.03,14.8.05,22.21.01,5.27-.45,4.79,4.93,4.77,7.65-.02,15.31-.08,22.96-.18,3.05-.04,3.1-.11,3.1-3.17.02-10.79,0-21.58.01-32.37,0-.88.04-1.76,0-2.63-.06-1.49.72-1.96,2.09-1.95,4.14.04,8.29-.12,12.42.09,5.33.28,10.13,4.52,11.51,9.9.5,1.94.67,3.94.66,5.96-.03,14.55-.02,29.11-.02,43.66Z"/>
  <path class="cls-1" d="M849.33,777.26c5.12,3.86,7.3,8.93,9.47,14,3.5,8.18,6.6,16.54,10.43,24.58,1.02,2.15,2.12,4.27,3.29,6.34.64,1.13.57,1.91-.7,2.32-7.76,2.52-15.49,3.18-22.93-.99-3.67-2.06-5.77-5.49-7.29-9.3-2.51-6.28-5.01-12.57-7.56-18.85-.56-1.39-1.26-2.73-1.95-4.06-1.96-3.76-5.2-5.66-9.28-6.27-1.35-.2-2.72-.28-4.06-.41-.9,1.19-.51,2.49-.51,3.69-.03,10.67,0,21.33-.03,32,0,5.24.44,4.49-4.72,4.48-2.5,0-5.01.1-7.51-.31-8.42-1.41-13.32-6.64-14.07-15.17-.11-1.25-.09-2.51-.09-3.76,0-27.23,0-54.46,0-81.68,0-4.07-.01-4.2,3.85-5.03,10.45-2.25,20.97-3.64,31.72-2.71,4.98.43,9.97.28,14.91,1.6,15.01,4.04,25.81,17.72,23.51,35.42-.79,6.12-2.72,11.71-6.46,16.61-2.47,3.24-5.55,5.77-10.01,7.52ZM825.42,739.04c-1.62.07-3.25.11-4.86.23-1.59.12-2.4.85-2.38,2.64.09,6.37.08,12.75,0,19.12-.02,1.61.69,2.2,2.14,2.41,3.48.5,7,.66,10.46.23,2.82-.34,5.17-1.86,6.7-4.35,3.17-5.15,3.08-10.41.27-15.65-1.11-2.08-3.01-3.27-5.28-3.9-2.32-.64-4.68-.71-7.07-.74Z"/>
  <path class="cls-1" d="M374.42,781.33c3.84,2.48,6.09,5.61,7.68,9.22,2.63,5.96,5.25,11.93,7.79,17.93,2.26,5.31,4.66,10.54,7.43,15.61,1.13,2.06.99,2.5-1.19,3.35-5.87,2.27-11.98,2.86-18.11,1.64-5.14-1.03-8.62-4.47-10.66-9.24-2.27-5.3-4.4-10.66-6.6-15.98-1.1-2.66-2.23-5.3-3.68-7.81-2.83-4.9-7.61-5.2-12.41-5.54-.75-.05-1.11.49-1.15,1.19-.05,1-.05,2-.05,3.01,0,10.79,0,21.57,0,32.36,0,4.37-.06,3.85-3.94,3.87-3.01.01-5.97.62-9,.31-9.44-.96-12.79-7.8-13.35-14.24-.1-1.12-.07-2.26-.07-3.38,0-27.34,0-54.68,0-82.03,0-4.06-.02-4.15,3.7-5.24,8.92-2.62,18-4.45,27.33-4.66,5.37-.12,10.73-.77,16.13-.07,12.93,1.68,23.63,9.39,26.22,22.74,2.13,10.96.04,21.19-7.01,30.14-2.29,2.9-5.26,4.96-9.07,6.82ZM343.48,757.33c0,3.13.06,6.27-.02,9.4-.04,1.68.4,2.6,2.29,2.53,2.88-.11,5.78.04,8.65-.15,3.44-.23,6.14-1.86,8.14-4.74,2.22-3.2,2.49-6.75,2.2-10.44-.48-6.13-4.2-9.58-10.38-9.45-2.75.06-5.5.45-8.25.62-2.09.12-2.74,1.21-2.66,3.2.12,3,.03,6.02.03,9.03Z"/>
  <path class="cls-1" d="M884.34,754.47c0-10.79-.01-21.58,0-32.37,0-3.47.04-3.48,3.53-3.44,1.88.02,3.77.11,5.65.08,10.53-.18,15.12,6.02,16.54,14.5.5,2.97.68,5.97.67,8.99-.04,13.43,0,26.85-.02,40.28,0,4.16.34,8.25,1.56,12.26,2.88,9.45,14.92,14.36,23.61,9.53,2.99-1.66,4.74-4.38,5.86-7.56,1.7-4.81,1.97-9.83,2-14.84.08-18.69.03-37.39.03-56.09,0-.63,0-1.25,0-1.88q.03-3.25,3.23-3.17c2.38.06,4.77.17,7.15.17,9.64-.04,14.19,5.61,15.36,13.78.41,2.84.63,5.72.61,8.62-.06,13.43.06,26.85-.06,40.28-.07,7.82-1.23,15.49-4.33,22.75-5.2,12.14-14.11,19.98-27.1,22.71-12.24,2.57-24,1.3-34.67-5.72-9.73-6.4-15.19-15.78-17.98-26.86-1.17-4.64-1.68-9.36-1.66-14.15.05-9.28.01-18.57.01-27.85Z"/>
  <path class="cls-1" d="M480.48,800.91c0,4.76.25,9.16-.06,13.51-.39,5.48-3.42,9.29-8.52,11.4-2.57,1.06-5.24,1.79-7.99,2-6.88.52-13.77.95-20.68.78-3.91-.1-7.74-.71-11.48-1.84-11.41-3.43-17.92-11.5-21.07-22.6-1.65-5.82-2.33-11.8-2.32-17.85.01-8.91-.15-17.83.12-26.73.25-8.14.5-16.3,2.04-24.33,1.98-10.32,7.87-15.37,18.5-15.71,12.79-.41,25.59-.68,38.38-1.04,3.63-.1,7.27-.26,10.9-.5,1.83-.12,2.47.6,2.38,2.38-.18,3.49.27,7.01-.68,10.48-1.9,6.95-6.54,10.88-13.76,11.21-7.9.36-15.8.53-23.7.78-1.38.04-2.76.02-4.14.11-2.64.16-2.74.23-2.9,2.81-.28,4.51-.57,9.01-.71,13.52-.08,2.58.36,3.01,2.73,2.77,6.76-.68,13.54-.33,20.31-.63,3.76-.17,7.52-.26,11.27-.53,1.99-.14,2.69.6,2.6,2.55-.11,2.51-.16,5.03,0,7.53.45,7.28-4.18,12.8-12.68,13.24-6.01.31-12.03.48-18.05.69-1.25.05-2.51.1-3.76.05-1.7-.07-2.56.52-2.46,2.37.14,2.5.06,4.98.44,7.5,1.08,7.22,5.29,9.43,10.98,9.64,10.8.41,21.58.14,32.07-3.03.59-.18,1.19-.3,2.28-.57Z"/>
  <path class="cls-1" d="M563.5,748.48c-4.99-4.74-10.14-7.42-15.96-8.86-6.8-1.68-13.65-1.98-20.5-.52-4.19.9-7.9,2.61-8.96,7.44-.91,4.18.18,6.74,3.99,8.73,4.04,2.1,8.47,3.06,12.87,4.05,4.41.99,8.78,2.03,12.99,3.72,14.52,5.83,19.32,16.31,18.33,30.64-.33,4.77-1.43,9.41-3.54,13.76-3.93,8.1-10.28,13.54-18.65,16.54-10.66,3.82-21.59,4.26-32.59,1.59-5.35-1.3-10.04-3.84-13.48-8.36-2.03-2.67-3.32-5.68-3.7-8.93-.57-4.84-.36-9.72-.25-14.53,1.32-.47,1.78.51,2.39,1.01,6.23,5.12,13.54,7.41,21.41,8.33,5.16.61,10.28.5,15.27-.93,5.51-1.57,8.08-6.74,6.4-12.16-.87-2.82-3-4.25-5.46-5.31-4.04-1.75-8.35-2.64-12.64-3.56-5.89-1.26-11.71-2.73-17.06-5.66-7.52-4.1-11.42-10.38-12.62-18.86-2.73-19.34,10.39-37.02,29.99-40.97,9.09-1.83,18.19-1.75,27.05,1.48,4.95,1.8,9.16,4.66,12,9.22,1.41,2.26,2.56,4.69,2.66,7.36.16,4.61.04,9.23.04,14.75Z"/>
  <path class="cls-1" d="M755.23,715.72c8.09.21,15.74.38,23.39.61,2.69.08,2.74.13,2.79,2.74.05,2.63.07,5.27,0,7.91-.22,7.98-5.64,13.41-13.65,13.46-7.66.05-15.31-.12-22.97-.22-2.47-.03-2.58-.05-2.61,2.4-.06,5.02-.04,10.04-.01,15.06.02,3.11.05,3.17,3.1,3.2,8.79.09,17.58.12,26.36.18.88,0,1.76,0,2.63.06,1.01.07,1.64.62,1.61,1.69-.09,4.12.47,8.27-.65,12.36-1.35,4.94-5.92,8.69-11.05,8.45-6.14-.29-12.3-.15-18.45-.15-2.83,0-2.89.06-2.89,2.96-.03,10.92-.01,21.84-.01,32.76,0,.88-.03,1.76-.02,2.64.02,1.29-.67,1.78-1.88,1.76-4.64-.08-9.31.12-13.92-.29-5.41-.48-9.48-4.51-10.52-9.83-.39-1.96-.6-3.95-.6-5.98.03-23.85.03-47.7.02-71.55,0-2.77.26-5.52.96-8.19,1.99-7.57,7.55-11.77,16.2-11.97,7.53-.17,15.07-.04,22.17-.04Z"/>
  <path class="cls-1" d="M241.2,784.21c0-11.92,0-23.84,0-35.76,0-3.16.41-6.25,1.33-9.27,1.48-4.86,4.58-8.24,9.3-10.17,2.83-1.16,5.79-1.72,8.78-1.89,11.02-.64,22.04-1.14,33.06-1.71,3.38-.18,6.75-.48,10.13-.61,2.81-.11,2.85-.03,2.88,2.9.03,2.89.1,5.78-.04,8.66-.35,7.08-5.94,12.79-13,13.27-7.76.53-15.52.95-23.28,1.4-2.82.17-2.86.16-2.88,3.03-.03,4.89-.04,9.79,0,14.68.03,2.85.09,2.93,3.01,2.79,9.14-.44,18.28-.95,27.42-1.44.63-.03,1.25-.06,1.88-.06.91,0,1.4.5,1.38,1.4-.07,4.25.48,8.54-.74,12.72-1.63,5.57-6.01,8.85-11.95,9.1-5.76.25-11.53.55-17.29.87-3.01.17-3.06.21-3.07,3.38-.02,11.29,0,22.59-.02,33.88,0,3.21-.04,3.2-3.3,3.4-3.75.22-7.49.74-11.27.64-6.69-.18-10.64-3.59-11.91-10.23-.33-1.74-.46-3.47-.46-5.23.01-11.92,0-23.84,0-35.76Z"/>
  <path class="cls-1" d="M1081.61,793.61c0,12.17,0,24.33,0,36.5,0,.88-.04,1.76,0,2.63.05,1.41-.53,2.03-2,2.01-4.39-.08-8.8-.18-13.12-.97-6.04-1.1-10.42-6.05-11.03-12.22-.17-1.74-.17-3.51-.17-5.26-.01-20.07,0-40.13,0-60.2,0-.75.02-1.51,0-2.26-.08-2.67-.08-2.65-2.62-2.99-3.49-.47-7-.45-10.51-.6-4.13-.18-8.26-.48-12.39-.67-1.19-.06-1.94-.44-1.9-1.74.11-3.88-.41-7.78.44-11.62,1.41-6.42,6.55-10.84,13.14-10.74,7.64.11,15.28.57,22.92.97,6.13.32,12.26.8,18.39,1.17,8.01.49,16.02.89,24.02,1.44,2.86.19,2.88.33,2.92,3.03.03,2.26.03,4.52,0,6.77-.1,8.12-6.6,14.48-14.76,14.31-3.38-.07-6.75-.47-10.13-.6-3.09-.11-3.15-.03-3.16,3.04-.02,12.67-.01,25.33-.01,38Z"/>
  <path class="cls-1" d="M1015.55,782.55c0,14.79,0,29.58,0,44.38,0,.88-.04,1.76,0,2.63.06,1.44-.59,2.12-2.03,1.92-4.11-.57-8.27-.32-12.38-.68-5.19-.45-9.63-4.89-11.1-10.87-.57-2.31-.86-4.66-.86-7.07.03-28.83.02-57.66.02-86.5,0-.5.04-1.01,0-1.5-.16-1.71.42-2.55,2.31-2.43,4.5.31,9.03.3,13.5.8,5.19.58,9.88,6.29,10.47,12.3.11,1.12.07,2.25.07,3.38,0,14.54,0,29.08,0,43.62Z"/>
  <path class="cls-2" d="M570.54,540.17c-11.96-.38-22.19-7.57-25.77-21.32-2-7.7-2.06-15.51-1.05-23.43.74-5.79,1.85-11.38,4.82-16.41,4.41-7.47,10.98-11.62,19.69-12.75,4.56-.59,8.92-.34,13.31.72,8.16,1.97,13.52,7.26,17.04,14.62,1.68,3.52,2.68,7.31,3.09,11.14.29,2.67-.22,5.47-.65,8.17-1.46,9.11-4.46,17.68-9.54,25.44-3.77,5.77-8.48,10.46-15.04,13.06-1.71.68-3.39.79-5.91.75Z"/>
  <path class="cls-3" d="M438.69,472.44c5.72.03,9.18,2.46,10.99,7.85,1.69,5.02,1.47,10-.49,14.94-1.31,3.3-3.62,5.3-7.05,6.15-2.24.56-4.51.55-6.71.16-2.89-.51-5.23-3.42-5.19-6.56.07-4.86-.43-9.7-.09-14.57.4-5.78,2.67-8.01,8.54-7.97Z"/>
  <path class="cls-3" d="M287.79,584.34c.02,4.3-1.23,8.11-4.43,11.1-3.56,3.31-9.28,2.7-11.93-1.4-3.38-5.23-3.02-10.75.02-15.85,1.7-2.85,6.82-4.24,10.49-3.22,2.35.66,6.43,4.45,5.86,7.87-.08.49-.01,1-.01,1.5Z"/>
  <path class="cls-2" d="M825.42,739.04c2.38.03,4.75.1,7.07.74,2.27.63,4.17,1.82,5.28,3.9,2.8,5.24,2.89,10.5-.27,15.65-1.53,2.49-3.89,4.01-6.7,4.35-3.47.42-6.98.27-10.46-.23-1.45-.21-2.16-.8-2.14-2.41.07-6.37.08-12.75,0-19.12-.02-1.79.79-2.52,2.38-2.64,1.62-.13,3.24-.16,4.86-.23Z"/>
  <path class="cls-2" d="M343.47,757.33c0-3.01.09-6.02-.03-9.03-.08-1.99.57-3.08,2.66-3.2,2.75-.16,5.5-.56,8.25-.62,6.18-.12,9.91,3.32,10.38,9.45.29,3.69.02,7.24-2.2,10.44-2,2.88-4.71,4.51-8.14,4.74-2.87.2-5.77.04-8.65.15-1.89.07-2.33-.85-2.29-2.53.08-3.13.02-6.27.02-9.4Z"/>
</svg>