<?xml version="1.0" encoding="UTF-8"?>
<svg id="katman_1" data-name="katman 1" xmlns="http://www.w3.org/2000/svg" version="1.1" viewBox="0 0 1350 1350">
  <defs>
    <style>
      .cls-1 {
        fill: #2d2d25;
        stroke-width: 0px;
      }
    </style>
  </defs>
  <g>
    <g>
      <path class="cls-1" d="M23.42,728.62h8.05l28.29,42.82,28.42-42.82h7.92v69.94h-8.56v-54.63l-27.77,41.39-27.77-41.39v54.63h-8.56v-69.94Z"/>
      <path class="cls-1" d="M220.52,728.23h8.82v70.59h-8.82v-70.59Z"/>
      <path class="cls-1" d="M353.78,728.62h40.1c13.75,0,21.93,7.27,21.93,19.46,0,9.86-6.36,17.91-16.61,19.72l17.52,30.75h-9.6l-17.52-30.62h-27.12v30.62h-8.69v-69.94ZM393.36,759.77c8.82,0,13.37-4.02,13.37-11.42s-4.54-11.68-12.98-11.68h-31.27v23.1h30.88Z"/>
      <path class="cls-1" d="M554.39,728.62h7.27l34.65,69.94h-9.47l-9.47-18.82h-38.67l-9.21,18.82h-9.34l34.26-69.94ZM573.46,771.57l-15.44-31.01-15.31,31.01h30.75Z"/>
      <path class="cls-1" d="M710.36,728.62h8.05l28.29,42.82,28.42-42.82h7.92v69.94h-8.56v-54.63l-27.77,41.39-27.77-41.39v54.63h-8.56v-69.94Z"/>
      <path class="cls-1" d="M931.08,728.62h7.27l34.65,69.94h-9.47l-9.47-18.82h-38.67l-9.21,18.82h-9.34l34.26-69.94ZM950.15,771.57l-15.44-31.01-15.31,31.01h30.75Z"/>
      <path class="cls-1" d="M1087.05,728.62h40.1c13.75,0,21.93,7.27,21.93,19.46,0,9.86-6.36,17.91-16.61,19.72l17.52,30.75h-9.6l-17.52-30.62h-27.12v30.62h-8.69v-69.94ZM1126.62,759.77c8.82,0,13.37-4.02,13.37-11.42s-4.54-11.68-12.98-11.68h-31.27v23.1h30.88Z"/>
      <path class="cls-1" d="M1268.71,728.62h55.02v8.05h-46.32v20.5h28.03v8.05h-28.03v25.3h49.18v8.05h-57.87v-69.94Z"/>
    </g>
    <g>
      <path class="cls-1" d="M487.85,893.77h4.47v14.01h20.91v-14.01h4.41v35.44h-4.41v-17.36h-20.91v17.36h-4.47v-35.44Z"/>
      <path class="cls-1" d="M558.4,911.59c0-10.78,7.76-18.61,18.34-18.61s18.41,7.82,18.41,18.61-7.82,18.54-18.41,18.54-18.34-7.76-18.34-18.54ZM590.55,911.59c0-8.42-5.85-14.47-13.81-14.47s-13.81,6.05-13.81,14.47,5.92,14.4,13.81,14.4,13.81-6.05,13.81-14.4Z"/>
      <path class="cls-1" d="M641.96,897.85h-14.93v-4.08h34.26v4.08h-14.93v31.36h-4.41v-31.36Z"/>
      <path class="cls-1" d="M696.07,893.77h27.88v4.08h-23.47v10.39h14.2v4.08h-14.2v12.82h24.92v4.08h-29.33v-35.44Z"/>
      <path class="cls-1" d="M764.84,893.77h4.41v31.36h23.14v4.08h-27.55v-35.44Z"/>
      <path class="cls-1" d="M829.79,920.07c5.06,3.95,10.65,5.98,15.85,5.98,6.77,0,11.05-3.22,11.05-7.43,0-3.22-2.76-5.85-8.28-6.31-6.05-.46-10.85-.53-14.6-2.24-3.29-1.58-5.06-4.14-5.06-7.3,0-5.46,5.33-9.8,13.74-9.8,5.98,0,11.84,2.04,16.96,5.79l-2.56,3.68c-4.41-3.55-9.27-5.33-14.33-5.33-5.59,0-9.21,2.5-9.21,5.46,0,1.32.59,2.3,1.71,3.16,3.02,2.3,8.09,1.78,14.6,2.5,7.43.85,11.7,5.13,11.7,10.52,0,6.11-5.65,11.38-15.65,11.38-6.97,0-12.95-1.97-18.48-6.25l2.56-3.81Z"/>
    </g>
  </g>
  <g>
    <path class="cls-1" d="M673.52,514.43s-53.59-65.71-128.65-20.72c0,0,128.65,45.74,128.65,144.7,0-98.96,128.65-144.7,128.65-144.7-75.06-44.99-128.65,20.72-128.65,20.72Z"/>
    <polygon class="cls-1" points="639.6 476.39 673.52 419.87 707.43 476.39 673.52 498.79 639.6 476.39"/>
  </g>
</svg>