<?xml version="1.0" encoding="UTF-8"?>
<svg id="katman_1" data-name="katman 1" xmlns="http://www.w3.org/2000/svg" version="1.1" viewBox="0 0 1350 1350">
  <defs>
    <style>
      .cls-1 {
        fill: #2d2d25;
        stroke-width: 0px;
      }
    </style>
  </defs>
  <path class="cls-1" d="M190.84,895.25c-3.42,2.74-13.22,10.71-17.55,10.71-1.82,0-2.85-.68-2.85-2.51,0-5.12,8.09-14.13,11.74-17.43,1.82-1.6,4.9-4.22,4.67-6.95-.45-5.93-1.71-6.27-2.62-6.27-2.85,0-14.01,10.83-16.41,12.99l-11.28,10.14c-5.35,4.79-11.62,8.09-13.67,8.09-.8,0-.91-1.14-.91-1.71,0-4.79,2.74-7.29,6.27-9.8,4.44-3.19,5.13-4.22,8.66-8.2,1.26-1.02,4.33-4.22,4.56-6.04.46-3.42-5.36-2.39-6.95-2.39-1.94,0-3.42.23-5.02,1.25-7.29,4.79-15.84,16.18-15.84,27.24,0,4.9,3.08,11.28,8.66,11.28,6.27,0,13.9-10.26,18.35-14.13l.23.23c-1.14,2.97-2.39,6.15-2.39,9.57,0,3.99,2.51,7.52,6.72,7.52,8.43,0,20.51-13.11,26.32-18.69l-.68-4.9Z"/>
  <path class="cls-1" d="M358.72,772.87c-5.13.93-8.62,2.68-8.62,4.69,0,3.04,7.83,5.46,17.44,5.46,8.26,0,15.19-1.78,16.97-4.18-2.52,1.77-7.82,3-13.91,3-8.56,0-15.56-2.44-15.56-5.5,0-1.32,1.39-2.54,3.68-3.47Z"/>
  <path class="cls-1" d="M106.98,871.32c12.65-14.47,17.55-19.03,19.03-19.03.8,0,.68,1.14-.23,2.16-5.47,6.15-15.27,18.57-15.27,27.12,0,1.72.57,3.42,2.62,3.42,2.16,0,7.97-4.56,9.91-5.92,1.6-1.14,6.38-4.56,6.38-6.61,0-1.26-1.14-1.48-2.05-1.6,3.64-6.49,12.99-19.83,12.99-27.12,0-3.31-1.82-7.41-5.7-7.41-6.04,0-22.79,16.98-26.89,21.88l-33.16,39.43c-4.79.91-9.91,1.02-14.7,2.16-1.71.46-2.51,1.83-3.53,3.19-1.71,2.28-7.07,8.66-7.07,11.28,0,2.05,1.94,2.39,3.53,2.39,3.08,0,6.27-1.82,9-2.73l2.51-1.14c10.26-.34,20.4,1.02,30.43,3.19,22.33,4.67,21.88,4.45,29.17-2.85l6.04-6.04c-17.09-4.1-26.89-6.04-45.81-9.68l22.79-26.1Z"/>
  <path class="cls-1" d="M343.51,765.03c-15.23,2.75-25.49,7.93-25.49,13.9,0,8.86,23.07,16.09,51.6,16.09,24.33,0,44.83-5.25,50.25-12.36-7.62,5.21-23.16,8.83-41.17,8.83-25.41,0-46.02-7.2-46.02-16.1,0-4,4.1-7.61,10.83-10.36Z"/>
  <path class="cls-1" d="M75.75,625.59h18.48c32.17,0,54.1-1.45,65.86-4.25,16.08-3.91,28.64-11.45,37.86-22.65,2.05-2.51,3.84-5.2,5.43-8.02-.02,1.07-.05,2.14-.05,3.22,0,44.94,15.92,83.24,47.73,114.9,22.74,22.65,49.2,37.14,79.3,43.59.02.14.06.27.09.41-29.66,3.35-54.66,11.7-69.86,22.97,24.73-9.65,59.82-15.69,98.74-15.69,2.86,0,5.74.06,8.59.06-.18,1.04-.38,2.04-.62,2.97-.21.99-.39,1.91-.5,2.8-12.14,1.01-21.65,4.02-24.53,7.79,4.58-3.14,13.6-5.4,24.23-5.75-1.14,10.46,3.71,10.46,3.71,10.46,0,0,.77-4.16,1.89-10.46,15.45.45,27.51,5,27.51,10.54,0,2.61-2.71,5.03-7.15,6.84,10.04-1.81,16.78-5.24,16.78-9.1,0-5.91-15.26-10.66-33.96-10.66-.91,0-1.79.02-2.7.06.25-1.69.58-3.46.96-5.28,33.18,1.26,62.81,6.92,84.53,15.41-13.66-10.07-35.26-17.87-61.03-21.8,33.33-5.42,62.42-20.51,87.25-45.36,19.08-19.16,32.37-40.8,39.97-64.91v101.71h25.86v-233.66h45.7c17.76,0,30.45,1.49,38.12,4.56,7.59,3.05,13.77,8.18,18.51,15.26,4.68,7.09,7.02,14.97,7.02,23.65s-2.31,17.02-6.97,24.24c-4.6,7.21-11.08,12.45-19.39,15.74-8.31,3.29-21.06,4.93-38.36,4.93l-37.38-.24,103.68,145.51h28.87l-89.14-120.28c21.7-.11,34.74-2.86,47.11-8.39,12.29-5.44,21.74-13.51,28.37-24.21,6.66-10.7,10-23.09,10-37.22,0-16.9-4.88-31.16-14.49-42.75-9.62-11.6-22.1-19.13-37.48-22.65-10.22-2.38-29.71-3.54-58.45-3.54h-51.59v54.53c-7.61-24.25-20.94-45.88-40.07-64.84-31.83-31.51-71.37-47.29-118.59-47.29-29.16,0-56.2,7.24-81.26,21.75-25.01,14.46-44.77,34.5-59.29,60.09-6.02,10.64-10.77,21.66-14.29,33.04-1.77-11.76-6.17-21.87-13.19-30.35-9.39-11.33-21.52-18.8-36.28-22.48-10.31-2.56-30.25-3.85-59.86-3.85h-51.58v258.94h25.91v-120.35ZM246.26,542.91c12.25-21.61,29.38-38.74,51.23-51.46,21.85-12.72,45.02-19.11,69.45-19.11s48.32,6.4,70.54,19.11c22.14,12.72,39.36,29.69,51.54,50.87,12.23,21.18,18.34,44.89,18.34,71.06s-6.12,50.31-18.34,71.87c-12.18,21.52-29.17,38.51-50.97,50.92-15.13,8.65-31.19,14.2-48.13,16.83-4.84-.58-9.79-1.06-14.86-1.36,2.9-15.92,5.96-33.82,6.12-37.6,17.38-10.43,33.12-20.85,33.12-20.85l-38.49-29.08c3.68,1,7.06,1.51,9.94,1.34,22.5-1.27,26.25-10.68,36.14-8.17,6.95,9.67,39.17,11.12,43.87-2.51-13.86,1.76-30.17-14.03-47.22-29.82-16.8-15.56-34.32-31.12-50.94-29.89-33.44,2.49-32.99-11.87-21.52-36.67,7.26-15.86,1.41-26.8-7.26-32.34,6.29-1.65,8.47-6.45,11.3-11.83-8.1,5.58-21.05,7.18-25.48,7.59-.47,0-.95.04-1.39.11h-.1c-12.38,1.79-16.74,24.02-16.74,24.02l-32.73,45.91s28.26-33.24,39.15-40.64c5.73,0,13.47-.06,16.15-5.97,0,0,8.66-1.5-6.68,40.63-10.35,28.27,11.6,54.98,33.98,69.16l10.68,8.73,9.53,47.49-15.29,9.8s-11.02,2.86-14.23,6.14c-3.26,3.22-1.02,18.91-1.02,18.91,1.96-6.11,0-11.77,21.7-24.07,2.82-1.63,5.7-3.28,8.59-4.99-1.32,6.87-4.06,22.02-6.56,34.4-3.38-.14-6.85-.26-10.36-.26-7.23,0-14.3.33-21.17.89-1.32-.26-2.62-.55-3.92-.84.37-3.28.52-7.39.32-12.07,1.36-11.09,5.91-25.76,20.09-30.59-12.71,2.71-18.39,13.05-20.82,22.54-3.09-24.2-15.79-56.35-52.74-63.47,41.98,17.8,39.83,53.08,39.83,53.08,0,0-22.36-37.12-20.2-33,9.58,18.22,10.89,30.3,10.89,30.3l-14.21-1.5s26.03,7,32.49,33.62c-22.87-6.05-43.32-17.94-61.32-35.77-27.16-27.08-40.74-60.18-40.74-99.41,0-26.5,6.18-50.51,18.45-72.04ZM380.57,708.63c-1.54-9.43-5.51-28.14-7.67-39.99l30.71,25.17-23.04,14.83ZM75.75,512.32h45.73c17.53,0,30.14,1.55,37.82,4.61,7.64,3.05,13.86,8.16,18.56,15.37,4.71,7.19,7.01,15.09,7.01,23.79s-2.3,17.01-7.01,24.16c-4.69,7.2-11.13,12.41-19.32,15.63-8.24,3.21-21.23,4.83-38.98,4.83l-43.8-.51v-87.89Z"/>
  <path class="cls-1" d="M477.63,838.27c-23.02,0-47.63,6.04-52.99,12.42-2.28,2.85-5.81,10.14-5.81,13.79,0,2.16,2.39,2.73,4.1,2.73,3.31,0,7.41-.8,10.6-1.14l8.89-.91c.57,0,2.16-.34,2.16-1.26,0-1.71-2.28-1.25-9.46-1.94v-.22c7.75-3.08,16.19-4.56,24.5-5.93l-16.86,24.39c-10.6.34-16.52,5.82-17.55,11.74-.45,2.27,3.65,3.76,5.47,4.22l-10.6,17.44c-1.14,1.82-1.93,3.41-1.93,5.58,0,1.48,1.25,2.4,2.62,2.4,3.08,0,9.8-4.22,8.43-8.2l9.8-14.25,42.16,15.61c3.08,1.14,11.17,5.13,14.13,5.13,3.88,0,3.42-8.55,1.26-12.54-.57-.91-.11-3.88-19.71-10.14l-30.77-9.8v-.23c41.03-7.64,46.72-7.52,56.06-15.04,4.56-3.65,8.21-12.42,8.21-18.23,0-14.58-22.22-15.61-32.71-15.61ZM482.08,870.18l-28.37,7.41,8.43-12.88c2.05-3.19,4.1-5.81,3.99-9.8l21.08-1.48c2.51-.23,14.81-.11,14.81,3.42,0,5.58-15.27,12.07-19.94,13.33Z"/>
  <path class="cls-1" d="M372.89,798.64c-13.17,3.33-36.51-.89-40.55-2.65l-.55.54c-6.25,7.76,33.56,9.5,26.72,9.5s-24.06,2.28-25.83,9.8c-1.78,7.55,25.99,5.96,28.44,8.44,2.45,2.43-28.78,3.14-28.78,5.28s26.82,0,26.82,2.95-28.51,3.45-31.74,6.69c-3.28,3.21,20,4.02,23.15,7.2,3.18,3.11-6.93,3.38-8.73,5.23-1.87,1.82,17.48-3.88,17.48-5.75,0-1.96-22.94-6.16-16.44-6.16s30.88-6.3,32.11-9.14c1.25-2.78-8.85-2.02-7.39-3.51,1.5-1.49,6.68-1.92,6.68-5.12,0-5.26-28.79-3.32-31.4-8.58-2.62-5.23,42.94-2.8,45.63-5.41,2.61-2.65-15.61-1.59-17.75-3.67-2.08-2.16,35.91-1.88,39.15-5.11,3.28-3.23-23.83-3.83-37-.55Z"/>
  <path class="cls-1" d="M350.47,915.54l-.23-.23,16.87-25.07c1.59-2.4,4.67-7.06,4.67-10.03,0-1.59-1.15-6.04-3.08-5.7-2.16.34-9.46,8.21-21.2,19.03-4.78,4.45-10.25,9.35-16.3,10.03.12-2.39.8-4.67,2.17-6.61,3.75-2.96,16.63-14.82,16.63-19.14,0-1.6-3.19-5.24-4.9-5.24-2.82.1-18.32,11.39-21.6,23.45-3.93,3.22-10.36,9.48-14.86,9.48-1.71,0-3.54-1.37-3.54-3.19,0-4.56,5.58-10.14,8.89-12.99,2.62-2.16,4.78-3.87,4.78-7.41-.22-2.05-1.03-3.87-2.73-6.04-1.14-1.37-7.41,0-18.12,1.48.46-1.03.8-2.05.8-3.19,0-1.03-.91-1.94-2.04-1.94-2.74,0-14.36,8.2-14.36,16.41,0,2.39.68,3.3,3.08,3.53-2.16,3.08-4.56,5.93-7.52,8.31l.02.18c-3.82,2.72-8.04,5.29-10.5,5.29-1.82,0-2.85-.68-2.85-2.51,0-5.12,8.09-14.13,11.74-17.43,1.82-1.6,4.9-4.22,4.67-6.95-.46-5.93-1.71-6.27-2.62-6.27-2.85,0-14.01,10.83-16.41,12.99l-11.28,10.14c-5.36,4.79-11.63,8.09-13.68,8.09-.8,0-.91-1.14-.91-1.71,0-4.79,2.74-7.29,6.27-9.8,4.44-3.19,5.13-4.22,8.66-8.2,1.25-1.02,4.33-4.22,4.56-6.04.46-3.42-5.35-2.39-6.95-2.39-1.94,0-3.42.23-5.01,1.25-5.65,3.71-12.03,11.38-14.63,19.79-3.56,3.09-9.18,8.13-13.06,8.13-3.42,0-4.21-2.51-4.1-5.35l.11-4.79,7.86-7.86c4.9,1.03,10.6-8.2,10.14-10.6-.12-.57-.23-1.82-1.48-1.82-2.4,0-4.79,2.28-6.5,3.87l-10.14,9.23.34-10.37c.12-1.83.46-5.93-2.28-5.93-3.42,0-20.05,14.47-20.05,16.75,0,.8.45,1.37,1.25,1.49.8.11,2.51-1.03,10.94-5.36l.11,13.67-6.03,5.35c-2.85.8-4.11,1.6-6.05,3.87-1.02,1.25-3.99,5.13-3.99,6.73,0,1.03.8,1.6,1.83,1.6,2.28,0,5.93-3.42,7.52-4.9l6.61-6.38c0,4.33-1.37,13.67,5.24,13.67s14.68-8.8,20.55-14.6c-.02.34-.05.69-.05,1.03,0,4.9,3.08,11.28,8.66,11.28,6.27,0,13.9-10.26,18.35-14.13l.23.23c-1.14,2.97-2.4,6.15-2.4,9.57,0,3.99,2.51,7.52,6.72,7.52,8.43,0,20.51-13.11,26.32-18.69l-.16-1.15c2.32-2.15,4.53-4.47,6.54-7.62l11.85-2.62.23.23c-4.56,5.47-10.49,11.5-10.49,19.26,0,4.33,2.97,8.77,7.75,8.77,5.6,0,16.09-9.38,21.66-15.12.75,7.75,5.83,12.17,8.88,12.38,1.37.12,9.69-6.04,19.03-13.9l.22.23-15.27,25.76c-.91,1.48-3.08,5.01-3.08,6.83,0,1.94,1.03,7.52,3.42,7.52,1.82,0,5.01-4.45,6.15-5.7l34.3-37.72-.91-4.22-25.3,22.45Z"/>
  <path class="cls-1" d="M1241.54,658.48c-8.01,10.26-12.05,21.91-12.05,34.96,0,13.98,4.73,26.43,14.26,37.52,9.53,11.03,22.68,16.51,39.49,16.51,7.63,0,14.44-1.09,20.43-3.43,6.01-2.3,11.43-5.7,16.26-10.13,4.82-4.41,9.06-10.24,12.72-17.48l-11.16-5.89c-4.1,6.74-7.87,11.66-11.31,14.7-3.5,3.01-7.73,5.42-12.73,7.2-4.96,1.83-10.04,2.78-15.3,2.78-10.92,0-20.09-3.84-27.48-11.53-7.43-7.66-11.23-17.5-11.49-29.46h92.93c-.14-14.15-3.92-25.87-11.42-35.32-10.52-13.39-24.55-19.99-42.18-19.99s-30.75,6.48-40.96,19.54ZM1256.55,661.36c7.29-6.46,16.03-9.77,26.11-9.77,6.18,0,12.03,1.32,17.59,3.91,5.6,2.59,10.08,6.05,13.5,10.28,3.35,4.27,5.96,9.9,7.75,16.97h-77.04c2.78-9.47,6.82-16.6,12.1-21.39Z"/>
  <path class="cls-1" d="M831.46,706.96c0-13.59.65-22.97,1.95-28.07,1.99-7.85,6.2-14.46,12.54-19.79,6.38-5.3,13.56-7.95,21.58-7.95,7.07,0,12.77,1.71,17.11,5.14,4.38,3.47,7.3,8.63,8.82,15.48,1.01,3.94,1.49,11.92,1.49,23.78v49.28h13.32v-53.15c0-14.06-1.41-24.37-4.26-31.01-2.88-6.65-7.29-11.96-13.25-15.9-5.98-3.87-12.84-5.82-20.54-5.82s-14.62,1.75-21.06,5.26c-6.48,3.51-12.33,8.83-17.69,15.86v-18.53h-13.28v103.67h13.28v-38.24Z"/>
  <path class="cls-1" d="M1207.67,709.92c0-17.91.82-29.82,2.44-35.72,2.16-7.64,5.31-13.3,9.46-16.93,4.09-3.61,8.35-5.5,12.81-5.5,1.92,0,4.21.66,7,1.84l6.89-11.15c-4.12-2.36-8.07-3.52-11.73-3.52-4.87,0-9.53,1.47-14.04,4.37-4.51,2.97-8.77,7.41-12.83,13.35v-15.13h-13.57v103.3h13.57v-34.9Z"/>
  <path class="cls-1" d="M419.88,658.82c13.46,34.57,63.03-2.68,63.03-2.68l-20.81,8.6c-20.73,8.61-42.22-5.92-42.22-5.92Z"/>
  <path class="cls-1" d="M318.32,500.56c2.94-1.93,5.93-3.74,9.05-5.31,2.25-1.09,4.7-1.78,7.46-2.72,0,2.43,0,4.36.04,6.32,1.21-1.86,2.35-1.09,3.57.21.37-1.99.52-3.66,1.01-5.18.26-.67,1.35-1.54,1.93-1.48,3.26.36,6.64.56,9.7,1.61,5.27,1.86,10.28,4.42,15.49,6.48,3.85,1.49,7.83,2.73,11.82,4.1-5.09-2.75-10.41-5.02-14.99-8.19-6.24-4.37-12.92-7.19-20.43-8.26-1.33-.16-2.59-1.42-3.57-2.51-.61-.66-1.51-1.09-2.23-1.09-.52,0-.94.23-1.1.76-.92,3.03-3.68,3.36-5.88,4.62-3.57,1.88-7.53,3.35-10.46,5.97-6.51,5.85-12.23,12.62-20.38,16.47,1.82-.57,3.59-1.22,5.11-2.24,4.68-3.1,9.21-6.46,13.85-9.56Z"/>
  <path class="cls-1" d="M393.75,529.93c4.8.33,9.37,3.14,14.37.95,1.58-.66,3.24-.62,4.76,1.3,2.23,2.94,5.14,5.32,7.91,7.76,5.35,4.86,5.46,5.21,1.61,11.41-.53.79-1.09,1.55-1.67,2.28-2.2,2.88-4.4,5.75-6.55,8.6.11.19.19.28.32.4.87-.4,1.73-.85,2.89-1.39-.24,1.13-.36,1.89-.67,3.62,2.1-1.82,3.51-3.06,4.97-4.34,3.27-2.95,6.33-6.14,9.8-8.82,1.13-.85,3.64-1.05,4.93-.42,6.2,3.26,12.14,6.91,18.25,10.31.66.42,1.68.14,2.49.42,1.11.44,2.12,1.09,3.19,1.64.08.99.16,2.02.25,3.25.72-.26,1.26-.45,1.78-.67.61,3.04,1.15,5.96,1.66,8.85.24-.05.46-.08.67-.13.13-1,.26-2.03.45-3.63,1.01,2.99,1.8,5.4,2.6,7.77.25-.07.47-.17.69-.24.03-.66.03-1.23.08-1.85,1.94,7.05,8.31,10.64,12.1,16.16.39.55,1.02.89,1.81,1.52-.02-.83.07-1.18-.09-1.52-4.12-11.21-8.03-22.55-12.68-33.61-2.72-6.66-7.05-12.03-14.9-14.06-3.9-.95-7.29-4.05-10.81-6.12,3.12-7.35,9.29-9.23,14.79-12.02-3.05.18-6.18,1.41-8.93.89-3.82-.72-6.59.24-9.22,2.59-2.55,2.3-5.37,2.43-7.98.37-1.94-1.56-3.89-3.43-4.9-5.64-1.21-2.59-2.8-4.03-5.25-4.03-.38,0-.78.03-1.21.1-4.15.68-8.19,1.6-12.29,2.43-6.79,1.37-13.58,2.69-20.42,4.02.05.21.05.44.05.68,1.76.4,3.44,1.05,5.15,1.16Z"/>
  <path class="cls-1" d="M1104.99,848.42c0-5.68-5.34-10.5-10.9-10.5-.13,0-.25,0-.38,0-14.81.57-34.41,14.13-31.68,32.59-12.07,6.38-23.36,11.62-25.07,29.63-1.03,10.26,7.64,17.89,17.89,17.89,8.77,0,17.1-5.81,24.27-10.14,1.93,1.93,7.07,8.32,9.91,8.32,3.99,0,10.6-10.71,10.6-13.9,0-.91-.91-2.05-1.82-2.05s-2.06.91-3.31.91c-1.37,0-2.96-1.03-3.53-3.08,4.67-4.22,12.76-9.46,12.76-16.41,0-2.85-1.25-6.04-2.17-8.78l-18.23,14.48c-2.85-4.33-4.78-9-5.58-14.13l16.97-9.91c5.35-3.2,10.25-8.09,10.25-14.93ZM1053.83,900.95h-.49c-1.72,0-4.96-.1-4.86-2.05.23-5.47,10.83-15.72,16.06-17.89l6.39,14.48c-5.24,2.85-10.94,5.47-17.09,5.47ZM1076.28,863.11c2.16-7.97,4.44-17.2,16.75-19.48.91-.12,1.93.34,1.93,1.37,0,6.84-13.45,14.93-18.68,18.11Z"/>
  <path class="cls-1" d="M1179.15,724.38c3.33-7.17,4.98-17.92,4.98-32.14v-50.72h-13.57v48.27c0,12.91-.69,21.31-1.96,25.37-2,5.79-5.59,10.5-10.74,14.04-5.15,3.58-11.46,5.37-18.83,5.37s-13.85-1.79-19.16-5.5c-5.35-3.68-8.99-8.62-10.9-15-1.28-4.46-1.88-12.52-1.88-24.26v-48.27h-13.32v49.79c0,14.65,1.67,25.65,5.01,32.99,3.31,7.27,8.31,12.98,15.02,17.05,6.78,4.13,15.2,6.12,25.23,6.12s18.44-1.99,25.13-6.12c6.65-4.07,11.64-9.75,14.99-16.96Z"/>
  <path class="cls-1" d="M1013.23,660.5c-5.18-7.18-11.22-12.55-18.07-16.19-6.87-3.61-14.55-5.37-23.04-5.37-14.7,0-27.2,5.26-37.65,15.82-10.45,10.56-15.65,23.27-15.65,38.2s5.15,28.03,15.54,38.61c10.3,10.63,22.78,15.9,37.4,15.9,8.21,0,15.79-1.68,22.76-5.09,6.86-3.44,13.16-8.54,18.72-15.3v17.74h13.1v-103.3h-13.1v18.97ZM1008.87,714.88c-3.59,6.24-8.6,11.19-15.07,14.86-6.52,3.7-13.4,5.5-20.66,5.5s-13.99-1.84-20.26-5.59c-6.31-3.64-11.28-8.82-15-15.48-3.73-6.62-5.63-13.54-5.63-20.8s1.9-14.32,5.58-20.89c3.71-6.57,8.67-11.65,14.89-15.31,6.25-3.66,13.13-5.46,20.48-5.46,11.53,0,21.2,4.01,29.06,12.04,7.85,8.07,11.83,17.98,11.83,30,0,7.78-1.77,14.86-5.22,21.12Z"/>
  <polygon class="cls-1" points="1052.29 744.83 1065.59 744.83 1065.59 653.03 1086.65 653.03 1086.65 641.53 1065.59 641.53 1065.59 603.23 1052.29 603.23 1052.29 641.53 1034.21 641.53 1034.21 653.03 1052.29 653.03 1052.29 744.83"/>
  <path class="cls-1" d="M1217.8,891.49c0-5.58-5.36-11.62-16.87-14.36-31.79-7.41-30.31-8.21-30.31-9.8.12-2.62,12.77-13.22,42.16-14.24l.23.23c-6.16,4.21-8.31,7.74-8.31,7.97,0,1.14.68,1.71,1.82,1.71.91,0,2.05-.68,2.85-1.14,4.45-3.19,5.36-3.76,10.26-5.58,6.72-2.62,9.57-4.56,9.57-12.99,0-2.28-.34-3.19-2.97-3.76-4.78-1.02-9.57-1.59-14.36-1.59-24.96,0-45.59,10.83-49.11,16.64-1.83,3.07-3.65,11.39-3.65,15.16,0,6.83,5.92,8.66,11.62,9.57,5.47.91,37.04,5.47,37.04,11.28,0,1.82-11.17,13.56-51.85,12.08v-.23c.69-.68,1.26-1.25,1.94-1.7.8-.46,1.94-1.03,1.94-2.17,0-.68-.34-.8-.91-.8-1.71,0-8.43,2.17-9.79,3.31-1.83,1.71-5.82,7.74-5.82,10.13,0,6.61,13.9,6.61,18.35,6.61,16.4,0,56.18-3.65,56.18-26.33Z"/>
  <path class="cls-1" d="M1318.52,906.07c-1.82,0-3.53-.8-3.53-2.74,0-5.35,9.91-13.33,9.91-16.98,0-2.51-1.15-3.76-3.31-4.67,1.02-.34,3.99-1.48,3.99-2.85s-2.16-5.59-7.41-5.47c-11.42.29-35.05,11.21-41,23.35-10.26,8.77-12.85,10.33-22.01,9.69,12.76-11.28,18.46-19.14,18.46-25.41,0-2.96-1.7-5.36-4.78-5.36-6.16,0-17.67,7.52-22.57,11.06l-.22-.23c2.28-5.12,5.81-9.34,9.68-13.44,1.83-1.94,7.75-7.41,7.75-9.92,0-2.16-3.64-2.73-5.24-2.73-4.33,0-6.38,3.3-9.12,6.27l-30.2,32.48.46,5.35,18.01-17.2.23.22c-7.41,12.54-13.11,21.88-18.35,29.29-4.67,6.61-7.18,12.31-7.06,18,0,2.05.68,5.13,3.31,5.13,2.16,0,4.22-3.08,5.12-4.79l10.72-20.97c1.48.35,2.96.68,4.56.68,1.82,0,3.53-.34,5.24-.68,2.74,1.38,5.01,2.28,8.09,2.28,10.31,0,19.17-5.76,26.74-12.45,1.09,5.63,6.9,11.99,9.84,11.99,2.62,0,9.92-5.92,12.07-7.63l10.48-8.44.23.23c-1.48,3.07-4.22,9.12-4.22,12.77,0,3.3,1.71,6.04,5.47,6.04,5.58,0,20.86-12.2,25.76-17.78l-.92-4.22c-4.9,3.3-11.39,9.12-16.18,9.12ZM1248.67,904.36c-3.08-1.03-6.27-1.37-9.57-1.14,3.08-4.1,6.27-7.97,10.49-11.05,1.48-1.03,6.95-4.56,8.77-4.56.91,0,1.25.8,1.25,1.6,0,2.05-1.59,3.98-2.85,5.58l-8.09,9.57ZM1286.38,907.67c-.13.02-.26.04-.37.04-1.41,0-1.8-1.8-1.91-2.32,0-5.58,3.3-12.54,30.43-20.85l.22.23c-22.56,22.79-26.09,22.45-28.37,22.91Z"/>
  <path class="cls-1" d="M751.28,746.7v-233.68h57.77v-25.31h-160.43c11.02,4.55,20.47,11.47,28.12,20.71,1.3,1.49,2.46,3.03,3.57,4.6h44.57v233.68h26.4Z"/>
  <path class="cls-1" d="M710.42,868.58l-7.07-.56c1.14-1.6,4.44-5.36,4.44-7.41,0-1.82-2.16-2.16-3.64-2.16-6.61,0-9.12,5.35-12.54,10.03-12.19.45-13.11,2.28-19.26,12.31l-1.25,2.05c6.04-.91,3.88-.45,10.83-.45-4.22,7.18-10.49,12.99-17.32,18.23l.12.41c-3.04,2.39-6.28,4.49-8.89,4.49-1.71,0-3.53-1.37-3.53-3.19,0-4.56,5.58-10.14,8.89-12.99,2.62-2.16,4.79-3.87,4.79-7.41-.23-2.05-1.03-3.87-2.73-6.04-1.14-1.37-7.41,0-18.12,1.48.45-1.03.8-2.05.8-3.19,0-1.03-.91-1.94-2.05-1.94-2.74,0-14.36,8.2-14.36,16.41,0,2.39.68,3.3,3.08,3.53-.7,1-1.45,1.96-2.21,2.91-3.13,2.6-6.16,6-10.66,5.18,2.16-4.44,4.44-8.43,4.44-13.45,0-3.42-.68-5.81-4.1-6.72,1.25-.68,2.62-1.36,2.62-3.07,0-3.08-3.76-4.22-6.27-4.11-6.95.34-15.16,3.42-21.31,8.44-5.43,4.17-9.27,8.94-10.16,15.53l-.1-.37-6.84,5.24c-5.58,4.21-10.03,7.63-17.32,6.38,7.29-4.44,14.82-11.39,14.82-20.74,0-5.01-1.71-8.89-2.17-13.22-.34-3.19-1.03-4.22-4.45-4.22-4.1,0-6.27,3.65-6.49,7.41l-24.73,22.68c-.64.64-1.72,1.61-2.31,2.65-4.35,2.89-9.03,5.21-13.3,5.21-3.65,0-7.41-1.48-7.06-5.81l.23-2.51c21.88-7.17,27.46-15.61,27.46-21.19,0-4.56-4.56-5.47-8.2-5.47-14.81-.11-31.34,15.16-30.88,30.09.23,7.52,4.1,14.93,12.42,14.93s16.98-5.62,23.87-11.79c2.63,7.35,10.43,11.24,17.6,11.56,8.65.43,20.28-8.89,27.39-15.78.89,9.45,6.06,14.87,11.69,14.87,7.18,0,12.76-3.65,17.55-8.54,4.63,0,8.22-.88,11.39-2.76v.02s.04-.04.06-.05c2.44-1.46,4.65-3.5,6.85-6.25,2.41-2.2,4.69-4.57,6.77-7.83l11.85-2.62.23.23c-4.56,5.47-10.49,11.5-10.49,19.26,0,4.33,2.96,8.77,7.75,8.77,6.16,0,18.24-11.35,23.17-16.71l.19.18c-1.48,3.31-2.96,7.64-2.96,11.4,0,4.56,2.73,7.64,7.17,7.64,9.69,0,21.99-12.19,28.72-18.35l-.57-5.02c-11.85,8.44-15.95,11.85-19.6,11.85-2.62,0-3.42-1.49-3.42-3.99,0-6.84,6.5-16.19,10.37-21.19,12.54.8,13.44-3.42,18.81-14.25ZM531.3,879.52c.8-.22,1.37.46,1.37,1.26.11,1.94-6.72,9.8-16.75,13.22,3.08-7.52,9.68-12.99,15.38-14.48ZM554.99,905.62c-2.04-2.8-4.42-6.08-8.23-6.63l-.14-.59,15.89-14.9c.68,3.88,1.14,6.95,1.48,9.35-.34,6.61-2.16,8.55-9,12.77ZM606.95,903.91c-2.62,2.39-5.02,4.56-8.77,4.56-2.85,0-5.01-1.02-5.01-4.33,0-3.53,2.16-7.98,4.67-10.48,3.42-3.31,8.77-6.04,12.65-8.32.45.23-4.9,7.41-4.9,13.33,0,1.94.57,3.42,1.37,5.24Z"/>
  <path class="cls-1" d="M832.34,878.95l12.31-15.16c8.54-10.48,9.34-12.65,9.34-16.29,0-1.26-.45-2.63-1.94-2.63-2.39,0-7.18,6.38-8.55,8.21l-20.63,25.87-17.55,2.05,12.88-13.67c4.56-4.9,11.39-11.74,11.39-18.8,0-5.58-2.85-11.17-12.31-11.17s-24.16,2.74-33.61,5.81c-6.5,2.05-25.53,8.32-29.63,12.99-2.05,2.74-3.87,9.23-3.87,12.54,0,2.05.8,5.24,3.42,5.24,1.59,0,3.18-.91,4.56-1.59,7.86-3.99,7.06-4.11,15.61-7.07,1.37-.46,2.85-1.14,2.85-2.74,0-1.03-.8-1.37-1.6-1.71,18.68-7.75,33.04-11.97,39.09-11.97,1.36,0,3.99.45,3.99,2.51,0,2.27-3.3,6.26-4.78,7.86-10.03,11.4-18.23,20.28-22.57,24.5-17.32,3.3-17.44,4.1-18.69,4.1-.91,0-1.82-.79-2.62-.79-3.07,0-6.38,6.04-6.38,8.66,0,3.87,3.64,5.36,11.62,4.67-1.6,3.08-9.69,10.94-9.69,14.13,0,2.62,3.08,4.9,5.59,4.9,2.73,0,5.24-4.57,6.61-6.5l11.85-13.9,20.97-2.74c-4.22,7.98-6.04,13.22-6.61,16.64-.57,3.42.11,5.01,2.04,5.7,1.51.52,3.76-.67,6.08-1.86,2.24-1.15,4.55-2.29,6.34-1.91-.46-2.16-1.25-4.78-1.25-6.83,0-3.42,4.22-8.77,5.93-11.74,4.68-.34,8.2,0,11.62.8,3.64-5.93,8.32-11.05,13.67-15.27-4.67-2.85-10.25-2.73-15.49-2.85Z"/>
  <path class="cls-1" d="M1000.96,845.45c-3.65,0-14.47,10.6-24.5,23.02-5.95,7.33-10.37,17.07-11.91,26.83-6.06,4.84-15.25,12.6-23.07,12.6-3.65,0-7.41-1.48-7.07-5.81l.23-2.51c21.88-7.17,27.46-15.61,27.46-21.19,0-4.56-4.56-5.47-8.21-5.47-12.55-.09-26.3,10.87-29.93,23.31-11.79,8.39-15.88,11.8-19.52,11.8-2.62,0-3.42-1.49-3.42-3.99,0-6.84,6.49-16.19,10.37-21.19,12.54.8,13.45-3.42,18.8-14.25l-7.06-.56c1.14-1.6,4.45-5.36,4.45-7.41,0-1.82-2.17-2.16-3.65-2.16-6.61,0-9.11,5.35-12.54,10.03-12.19.45-13.1,2.28-19.26,12.31l-1.26,2.05c6.05-.91,3.88-.45,10.83-.45-2.78,4.74-6.48,8.88-10.63,12.66l-.19-.81c-3.53,2.62-6.73,6.96-11.74,6.04,2.16-4.44,4.45-8.43,4.45-13.45,0-3.42-.69-5.81-4.1-6.72,1.26-.68,2.62-1.36,2.62-3.07,0-3.08-3.76-4.22-6.27-4.11-6.95.34-15.15,3.42-21.31,8.44-6.38,4.9-10.6,10.6-10.36,19.14.45,10.37,5.92,16.3,11.85,16.3,7.18,0,12.76-3.65,17.55-8.54,7.05,0,11.72-2,16.11-6.55l1.78-1.43.22.22c-1.49,3.31-2.97,7.64-2.97,11.4,0,4.56,2.74,7.64,7.18,7.64,8.97,0,20.18-10.45,27.13-16.89,0,.12-.02.24-.02.36.23,7.52,4.1,14.93,12.42,14.93,10.16,0,21.33-8.69,28.53-16.33,0,.27-.04.55-.04.83,0,6.73,1.82,14.81,10.13,14.81,9.81,0,20.51-11.51,26.79-18l-1.6-3.42c-4.56,4.1-13.33,11.39-19.6,11.39-3.07,0-4.67-2.28-5.7-4.9-.57-2.74-.23-5.92.8-7.86,24.72-23.93,27.69-33.96,28.49-44.78.11-1.48-.35-4.22-2.28-4.22ZM950.72,879.52c.8-.22,1.37.46,1.37,1.26.11,1.94-6.72,9.8-16.75,13.22,3.08-7.52,9.69-12.99,15.38-14.48ZM866.4,903.91c-2.62,2.39-5.01,4.56-8.77,4.56-2.85,0-5.02-1.02-5.02-4.33,0-3.53,2.17-7.98,4.67-10.48,3.42-3.31,8.78-6.04,12.65-8.32.45.23-4.9,7.41-4.9,13.33,0,1.94.57,3.42,1.37,5.24ZM977.26,883.97l-.23-.22c5.36-11.74,11.85-21.99,17.43-24.73-2.05,6.49-9.12,17.43-17.21,24.95Z"/>
</svg>