<svg xmlns="http://www.w3.org/2000/svg" width="315" height="120" viewBox="0 0 210 63" fill="none">
  <defs>
    <linearGradient id="mainGradient" x1="0%" y1="0%" x2="100%" y2="0%">
      <stop offset="0%" stop-color="#a754cf"/>
      <stop offset="50%" stop-color="#547ccf"/>
      <stop offset="100%" stop-color="#54b9cf"/>
    </linearGradient>
  </defs>

  <path d="M3.68523 23.2448H0L10.896 5.33514L21.7292 23.2448H17.9983V23.0732C18.158 23.0732 18.2892 23.0389 18.3805 22.976C18.4718 22.9131 18.5174 22.8273 18.5174 22.7187C18.5174 22.6443 18.506 22.5814 18.4889 22.5185C18.4718 22.4613 18.4433 22.4099 18.4204 22.3813L14.7523 16.3371H9.45267C9.20167 16.3371 9.03623 16.3371 8.95636 16.3542C8.8765 16.3657 8.81945 16.3943 8.78522 16.4343L8.43153 16.7259L8.31173 16.6287L9.852 13.964H13.2862L10.8903 10.007L3.24597 22.3699C3.21745 22.4156 3.18892 22.4728 3.17181 22.5357C3.15469 22.5929 3.14899 22.6615 3.14899 22.7244C3.14899 22.833 3.19463 22.9131 3.2859 22.9817C3.37718 23.0446 3.50838 23.0789 3.67382 23.0789V23.2505L3.68523 23.2448Z" fill="url(#mainGradient)"/>
  <path d="M26.4583 20.8659H37.2345C37.3372 20.8659 37.4341 20.8488 37.514 20.8202C37.5939 20.7859 37.6852 20.7287 37.7821 20.6486L38.2556 20.2484L38.3811 20.3399L36.8351 23.2447H21.7291L32.4825 8.29719H23.5033C23.3949 8.29719 23.3036 8.32006 23.2181 8.35437C23.1325 8.3944 23.0412 8.45158 22.9442 8.53164L22.4821 8.92047L22.3509 8.82327L23.8912 5.93555H37.2345L26.4583 20.8717V20.8659Z" fill="url(#mainGradient)"/>
  <path d="M52.9453 18.6015V6.82187C52.9339 6.7361 52.9225 6.65604 52.894 6.59886C52.8712 6.54168 52.8255 6.47306 52.7571 6.41016L52.4661 6.10709V5.93555H55.946V6.10709L55.6551 6.41016C55.5923 6.46734 55.5467 6.53024 55.5181 6.59314C55.4953 6.66176 55.4782 6.7361 55.4668 6.8276V19.3849C55.4668 20.7687 54.8621 21.8037 53.6584 22.5014C52.449 23.199 50.6406 23.5478 48.2275 23.5478C45.8145 23.5478 44.0118 23.199 42.7967 22.5014C41.5816 21.8037 40.9826 20.763 40.9826 19.3849V6.8276C40.9826 6.74182 40.9712 6.66177 40.9484 6.60458C40.9255 6.5474 40.8742 6.47878 40.8114 6.41588L40.5205 6.11281V5.94126H44.0004V6.11281L43.7094 6.41588C43.641 6.47306 43.5953 6.53596 43.5725 6.60458C43.544 6.6732 43.5269 6.74754 43.5269 6.8276V18.6072C43.5269 19.5793 43.8635 20.2598 44.5366 20.6486C45.2098 21.0318 46.4306 21.2262 48.2047 21.2262C49.9789 21.2262 51.251 21.0375 51.9299 20.6544C52.603 20.2712 52.9453 19.5908 52.9453 18.6129" fill="url(#mainGradient)"/>
  <path d="M69.3174 5.92987C70.4868 5.92987 71.4794 6.26725 72.3009 6.94201C73.1224 7.61676 73.6415 8.52025 73.8469 9.64674L69.4999 12.8604C71.5992 13.1864 73.2593 14.187 74.4915 15.8682C75.7237 17.5494 76.3398 19.6651 76.3398 22.2155V23.2391H73.3278V23.0675L73.6529 22.7645C73.71 22.7073 73.7499 22.6386 73.7784 22.57C73.807 22.4957 73.8241 22.4099 73.8241 22.3127V21.7638C73.8241 19.7281 73.2023 18.0412 71.9472 16.7088C70.6922 15.3764 69.112 14.7131 67.2009 14.7131C66.9556 14.7131 66.6989 14.7246 66.4251 14.7417C66.1513 14.7589 65.8489 14.7932 65.5352 14.8332L70.1445 11.2136C70.4811 10.9391 70.7207 10.6989 70.8462 10.4988C70.9774 10.2986 71.0402 10.0813 71.0402 9.83545C71.0402 9.3494 70.8348 8.96627 70.4184 8.68608C70.0076 8.40588 69.4258 8.26864 68.6899 8.26864H62.6372V22.3184C62.6372 22.4156 62.6486 22.5014 62.6828 22.5757C62.7113 22.6444 62.757 22.713 62.8254 22.7702L63.1164 23.0732V23.2448H59.6422V23.0732L59.9331 22.7702C59.9902 22.713 60.0301 22.6444 60.0587 22.5757C60.0872 22.5014 60.1043 22.4156 60.1043 22.3184V6.82192C60.1043 6.73614 60.0929 6.65609 60.0701 6.59891C60.0472 6.54172 60.0016 6.4731 59.9389 6.4102L59.6479 6.10714V5.93559H69.3231L69.3174 5.92987Z" fill="url(#mainGradient)"/>
  <path d="M80.0483 23.2448H76.3688L87.2704 5.33514L98.0979 23.2448H94.3671V23.0732C94.5325 23.0732 94.658 23.0389 94.7493 22.976C94.8406 22.9131 94.8862 22.8273 94.8862 22.7187C94.8862 22.6443 94.8748 22.5814 94.8577 22.5185C94.8406 22.4613 94.812 22.4099 94.7892 22.3813L91.1154 16.3371H85.8157C85.5647 16.3371 85.3993 16.3371 85.3194 16.3542C85.2396 16.3657 85.1825 16.3943 85.1483 16.4343L84.7946 16.7259L84.6748 16.6287L86.2208 13.964H89.6607L87.2647 10.007L79.6205 22.3699C79.5862 22.4156 79.5634 22.4728 79.5463 22.5357C79.5292 22.5929 79.5235 22.6615 79.5235 22.7244C79.5235 22.833 79.5691 22.9131 79.6604 22.9817C79.7517 23.0446 79.8772 23.0789 80.0426 23.0789V23.2505L80.0483 23.2448Z" fill="url(#mainGradient)"/>
  <path d="M113.928 8.26859H108.571V20.8659H113.842C114.966 20.8659 115.85 20.7802 116.489 20.6029C117.123 20.4256 117.705 20.134 118.235 19.7166C118.988 19.1333 119.553 18.4071 119.929 17.5493C120.306 16.6916 120.494 15.6966 120.494 14.5758C120.494 13.5523 120.306 12.5973 119.929 11.7053C119.553 10.8189 119.022 10.0698 118.332 9.46943C117.859 9.052 117.271 8.74893 116.558 8.55451C115.851 8.36008 114.972 8.26288 113.928 8.26288M105.565 23.2447V23.0732L105.884 22.7701C105.941 22.7129 105.987 22.6443 106.01 22.5757C106.038 22.5014 106.056 22.4156 106.056 22.3184V6.82187C106.056 6.7361 106.044 6.65604 106.021 6.59886C105.993 6.54168 105.953 6.47306 105.884 6.41016L105.565 6.10709V5.93555H113.928C115.291 5.93555 116.455 6.0785 117.425 6.35869C118.395 6.63889 119.245 7.07919 119.969 7.67961C120.996 8.53163 121.783 9.57236 122.325 10.8018C122.862 12.0312 123.13 13.375 123.13 14.8446C123.13 16.2056 122.879 17.4464 122.382 18.5615C121.886 19.6765 121.15 20.6258 120.175 21.4263C119.365 22.0839 118.509 22.5528 117.602 22.833C116.695 23.1132 115.445 23.2504 113.848 23.2504H105.571L105.565 23.2447Z" fill="url(#mainGradient)"/>
  <path d="M128.253 14.9361L129.297 12.5573H141.197L139.605 15.5537H139.462L139.485 15.3078V15.2563C139.485 15.1591 139.445 15.0791 139.371 15.0219C139.297 14.959 139.189 14.9304 139.063 14.9304H128.258L128.253 14.9361ZM134.186 8.26861C133.159 8.26861 132.303 8.36011 131.618 8.54881C130.94 8.73752 130.363 9.02343 129.89 9.41227C129.143 10.047 128.584 10.8018 128.201 11.671C127.819 12.5459 127.631 13.5123 127.631 14.5759C127.631 15.7081 127.819 16.6973 128.19 17.5551C128.561 18.4128 129.12 19.1333 129.867 19.7166C130.392 20.134 130.98 20.4256 131.624 20.6029C132.269 20.7745 133.153 20.866 134.283 20.866H141.767C141.875 20.866 141.967 20.8488 142.047 20.8202C142.127 20.7859 142.218 20.7287 142.315 20.6487L142.788 20.2484H142.994L141.362 23.2448H134.277C132.64 23.2448 131.373 23.1018 130.466 22.8273C129.559 22.5471 128.715 22.0725 127.922 21.4206C126.952 20.6201 126.216 19.6651 125.714 18.5501C125.212 17.435 124.967 16.1884 124.967 14.8218C124.967 13.7582 125.109 12.7575 125.4 11.8254C125.686 10.8933 126.113 10.0356 126.684 9.25788C127.078 8.71465 127.534 8.22859 128.047 7.79401C128.555 7.36514 129.114 6.99345 129.725 6.68466C130.261 6.4159 130.837 6.2272 131.453 6.11283C132.069 5.99847 132.982 5.94128 134.186 5.94128H142.765L141.145 8.90334H141.026L141.048 8.68605V8.63458C141.048 8.53165 141.008 8.44588 140.929 8.37726C140.849 8.31436 140.746 8.28005 140.626 8.28005H134.186V8.26861Z" fill="url(#mainGradient)"/>
  <path d="M145.646 22.3184V6.82187C145.646 6.7361 145.635 6.65604 145.612 6.59886C145.589 6.54168 145.544 6.47306 145.481 6.41016L145.19 6.10709V5.93555H148.664V6.10709L148.373 6.41016C148.31 6.46734 148.259 6.53024 148.236 6.59886C148.208 6.66748 148.191 6.74182 148.191 6.82187V20.8659H154.5C154.591 20.8659 154.671 20.8545 154.745 20.8259C154.825 20.7973 154.916 20.7401 155.019 20.6486L155.481 20.2484L155.641 20.3399L154.072 23.2447H145.19V23.0732L145.481 22.7701C145.532 22.7129 145.578 22.6443 145.606 22.5757C145.635 22.5014 145.646 22.4156 145.646 22.3184Z" fill="url(#mainGradient)"/>
  <path d="M169.281 18.6015V6.82187C169.275 6.7361 169.258 6.65604 169.235 6.59886C169.207 6.54168 169.167 6.47306 169.099 6.41016L168.808 6.10709V5.93555H172.282V6.10709L171.991 6.41016C171.922 6.46734 171.882 6.53024 171.854 6.59314C171.831 6.66176 171.808 6.7361 171.803 6.8276V19.3849C171.803 20.7687 171.198 21.8037 169.994 22.5014C168.79 23.199 166.976 23.5478 164.563 23.5478C162.15 23.5478 160.347 23.199 159.138 22.5014C157.929 21.8037 157.324 20.763 157.324 19.3849V6.8276C157.324 6.74182 157.313 6.66177 157.29 6.60458C157.267 6.5474 157.221 6.47878 157.153 6.41588L156.862 6.11281V5.94126H160.336V6.11281L160.045 6.41588C159.982 6.47306 159.937 6.53596 159.908 6.60458C159.88 6.6732 159.868 6.74754 159.868 6.8276V18.6072C159.868 19.5793 160.205 20.2598 160.878 20.6486C161.551 21.0318 162.772 21.2262 164.546 21.2262C166.32 21.2262 167.592 21.0375 168.271 20.6544C168.944 20.2712 169.281 19.5908 169.281 18.6129" fill="url(#mainGradient)"/>
  <path d="M182.271 12.117L185.625 7.42806C185.756 7.2508 185.842 7.10783 185.888 7.01062C185.933 6.90769 185.95 6.80477 185.95 6.70184C185.95 6.63322 185.939 6.57032 185.905 6.49598C185.876 6.42164 185.842 6.36446 185.808 6.32443L185.579 6.10714V5.93559H189.664L183.611 13.9412L190.879 23.2448H186.646V23.0732L186.88 22.8388C186.92 22.7988 186.954 22.7416 186.983 22.6672C187.011 22.5929 187.023 22.53 187.023 22.4728C187.023 22.3642 187 22.2555 186.949 22.1469C186.897 22.0382 186.812 21.901 186.692 21.7409L182.111 15.6738L177.764 21.7409C177.644 21.9296 177.553 22.0725 177.507 22.1812C177.456 22.2841 177.433 22.3813 177.433 22.4728C177.433 22.5472 177.445 22.6101 177.479 22.673C177.507 22.7301 177.542 22.7873 177.593 22.8331L177.838 23.0675V23.2391H173.731L180.753 13.9355L174.484 5.92987H178.711V6.10142L178.483 6.31872C178.42 6.38162 178.374 6.44451 178.346 6.5017C178.323 6.55888 178.312 6.61607 178.312 6.66753C178.312 6.77618 178.34 6.89626 178.397 7.0335C178.454 7.17074 178.54 7.30226 178.643 7.42234L182.276 12.1113L182.271 12.117Z" fill="url(#mainGradient)"/>
  <path d="M194.695 14.9361L195.739 12.5573H207.639L206.047 15.5537H205.899L205.928 15.3078V15.2563C205.928 15.1591 205.888 15.0791 205.814 15.0219C205.739 14.959 205.631 14.9304 205.506 14.9304H194.701L194.695 14.9361ZM200.628 8.26861C199.595 8.26861 198.74 8.36011 198.061 8.54881C197.382 8.73752 196.806 9.02343 196.338 9.41227C195.591 10.047 195.032 10.8018 194.65 11.671C194.267 12.5459 194.073 13.5123 194.073 14.5759C194.073 15.7081 194.262 16.6973 194.632 17.5551C195.009 18.4128 195.568 19.1333 196.31 19.7166C196.834 20.134 197.422 20.4256 198.067 20.6029C198.711 20.7745 199.595 20.866 200.725 20.866H208.21C208.312 20.866 208.409 20.8488 208.489 20.8202C208.575 20.7859 208.66 20.7287 208.757 20.6487L209.231 20.2484H209.436L207.81 23.2448H200.725C199.088 23.2448 197.816 23.1018 196.914 22.8273C196.013 22.5471 195.163 22.0725 194.37 21.4206C193.4 20.6201 192.664 19.6651 192.168 18.5501C191.666 17.435 191.421 16.1884 191.421 14.8218C191.421 13.7582 191.563 12.7575 191.854 11.8254C192.145 10.8933 192.567 10.0356 193.138 9.25788C193.537 8.71465 193.988 8.22859 194.495 7.79401C195.009 7.36514 195.568 6.99345 196.173 6.68466C196.703 6.4159 197.279 6.2272 197.895 6.11283C198.512 5.99847 199.424 5.94128 200.634 5.94128H209.214L207.599 8.90334H207.474L207.496 8.68605V8.63458C207.496 8.53165 207.457 8.44588 207.377 8.37726C207.297 8.31436 207.194 8.28005 207.074 8.28005H200.634L200.628 8.26861Z" fill="url(#mainGradient)"/>
  <path d="M206.687 2.24727H206.944C207.24 2.24727 207.485 2.14435 207.485 1.89846C207.485 1.68688 207.326 1.53822 206.983 1.53822C206.841 1.53822 206.738 1.55537 206.681 1.56681V2.24156L206.687 2.24727ZM206.67 3.58536H206.128V1.23515C206.345 1.1894 206.641 1.16081 207.029 1.16081C207.474 1.16081 207.674 1.23515 207.845 1.33236C207.97 1.43529 208.073 1.61827 208.073 1.85272C208.073 2.11004 207.873 2.31018 207.582 2.40167V2.43026C207.811 2.51604 207.942 2.68759 208.016 3.00209C208.084 3.36234 208.13 3.5053 208.187 3.59107H207.6C207.531 3.5053 207.485 3.288 207.417 3.01924C207.377 2.76192 207.229 2.64756 206.932 2.64756H206.67V3.59679V3.58536ZM205.226 2.35021C205.226 3.40237 205.997 4.23151 207.058 4.23151C208.119 4.23151 208.849 3.40237 208.849 2.36736C208.849 1.33236 208.09 0.474617 207.046 0.474617C206.002 0.474617 205.226 1.32092 205.226 2.35021ZM209.448 2.35021C209.448 3.68256 208.404 4.73472 207.046 4.73472C205.688 4.73472 204.622 3.68256 204.622 2.35021C204.622 1.01785 205.7 0 207.046 0C208.393 0 209.448 1.04644 209.448 2.35021Z" fill="url(#mainGradient)"/>
  <path fill-rule="evenodd" clip-rule="evenodd" d="M129.32 49.3944L130.905 54.2835H136.028L131.887 57.2971L133.473 62.1862L129.325 59.1669L125.184 62.1862L126.764 57.2971L122.622 54.2835H127.745L129.325 49.3944H129.32ZM104.721 49.3944L106.307 54.2835H111.43L107.288 57.2971L108.868 62.1862L104.721 59.1669L100.579 62.1862L102.16 57.2971L98.0179 54.2835H103.141L104.721 49.3944ZM80.1223 49.3944L81.7082 54.2835H86.831L82.6837 57.2971L84.2639 62.1862L80.1166 59.1669L75.975 62.1862L77.5552 57.2971L73.4079 54.2835H78.5364L80.1166 49.3944H80.1223ZM153.924 49.3944L155.51 54.2835H160.633L156.485 57.2971L158.071 62.1862L153.924 59.1669L149.777 62.1862L151.357 57.2971L147.215 54.2835H152.338L153.924 49.3944ZM55.5237 49.3944L57.1096 54.2835H62.2324L58.0908 57.2971L59.671 62.1862L55.5237 59.1669L51.3821 62.1862L52.9623 57.2971L48.8207 54.2835H53.9492L55.5294 49.3944H55.5237Z" fill="url(#mainGradient)"/>
  <path fill-rule="evenodd" clip-rule="evenodd" d="M1.20361 30.5298C1.20361 30.1124 47.5485 29.775 104.721 29.775C161.893 29.775 208.238 30.1124 208.238 30.5298C208.238 30.9473 161.893 31.2847 104.721 31.2847C47.5485 31.2847 1.20361 30.9473 1.20361 30.5298Z" fill="url(#mainGradient)"/>
  <path d="M71.9531 46.581V36.2195C71.9531 36.1623 71.9474 36.1109 71.9303 36.0708C71.9132 36.0308 71.8846 35.9908 71.839 35.945L71.6279 35.7392V35.6248H73.9669V35.7392L73.7558 35.945C73.7101 35.9851 73.6816 36.0251 73.6645 36.0708C73.6474 36.1166 73.636 36.1681 73.636 36.2195V46.581C73.636 46.6439 73.6474 46.7011 73.6645 46.7526C73.6816 46.7983 73.7158 46.8441 73.7558 46.8841L73.9669 47.0899V47.2043H71.6279V47.0899L71.839 46.8841C71.8789 46.8441 71.9075 46.804 71.9246 46.7526C71.9417 46.7011 71.9531 46.6439 71.9531 46.581ZM80.0481 46.581V41.5489H74.5887C74.5259 41.5489 74.4689 41.5604 74.4175 41.5775C74.3662 41.5947 74.3091 41.6347 74.2407 41.6976L73.9212 41.9664L73.8242 41.9149L74.8568 39.9593H80.0481V36.2195C80.0481 36.1681 80.0366 36.1166 80.0195 36.0708C80.0024 36.0251 79.9682 35.9851 79.9283 35.945L79.7172 35.7392V35.6248H82.0675V35.7392L81.8507 35.945C81.8108 35.9793 81.788 36.0137 81.7709 36.0594C81.7595 36.1052 81.7481 36.1566 81.7481 36.2252V46.5867C81.7481 46.6611 81.7538 46.724 81.7709 46.7697C81.788 46.8155 81.8108 46.8555 81.845 46.8898L82.0618 47.0957V47.21H79.7115V47.0957L79.9226 46.8898C79.9682 46.8498 79.9967 46.8098 80.0138 46.7583C80.0309 46.7068 80.0423 46.6496 80.0423 46.5867L80.0481 46.581Z" fill="url(#mainGradient)"/>
  <path d="M90.3564 35.4189C91.2293 35.4189 92.0393 35.5448 92.7924 35.7906C93.5397 36.0365 94.1843 36.3911 94.7205 36.8542C95.4222 37.4489 95.947 38.1351 96.3007 38.9014C96.6544 39.6676 96.8313 40.5025 96.8313 41.406C96.8313 42.3095 96.6544 43.1329 96.295 43.9049C95.9356 44.6711 95.4108 45.3516 94.7205 45.9463C94.1786 46.4209 93.534 46.7812 92.7809 47.027C92.0279 47.2786 91.2236 47.4044 90.3564 47.4044C89.4893 47.4044 88.6907 47.2786 87.9377 47.027C87.1846 46.7754 86.54 46.4152 85.9981 45.9463C85.3021 45.3573 84.7716 44.6825 84.4179 43.9163C84.0642 43.1501 83.8873 42.3152 83.8873 41.406C83.8873 40.4968 84.0642 39.6791 84.4236 38.9071C84.783 38.1351 85.3078 37.4547 85.9981 36.8542C86.5343 36.3911 87.1789 36.0365 87.9263 35.7906C88.6736 35.5448 89.4836 35.4189 90.3507 35.4189H90.3564ZM90.3564 36.9743C88.9759 36.9743 87.8464 37.386 86.9793 38.2152C86.1065 39.0443 85.6729 40.1079 85.6729 41.406C85.6729 42.704 86.1065 43.7733 86.9793 44.6025C87.8521 45.4316 88.9759 45.8434 90.3564 45.8434C91.737 45.8434 92.8665 45.4316 93.7393 44.6025C94.6122 43.7733 95.0514 42.7097 95.0514 41.406C95.0514 40.1022 94.6122 39.0443 93.7393 38.2152C92.8665 37.386 91.737 36.9743 90.3564 36.9743Z" fill="url(#mainGradient)"/>
  <path d="M102.878 37.1859H98.2462C98.1949 37.1859 98.1378 37.1973 98.0922 37.2202C98.0466 37.2431 97.9781 37.2888 97.8983 37.3575L97.5788 37.6033L97.4818 37.5576L98.5144 35.6248H110.118L109.028 37.6033H108.948V37.4261C108.948 37.3574 108.925 37.3003 108.874 37.2545C108.823 37.2088 108.76 37.1916 108.68 37.1916H104.578V46.581C104.578 46.6554 104.584 46.7183 104.601 46.7583C104.613 46.804 104.641 46.8441 104.681 46.8784L104.892 47.0842V47.1986H102.553V47.0842L102.764 46.8784C102.81 46.8383 102.839 46.7983 102.856 46.7468C102.873 46.6954 102.884 46.6382 102.884 46.5753V37.1859H102.878Z" fill="url(#mainGradient)"/>
  <path d="M116.975 37.1859C116.284 37.1859 115.714 37.2488 115.263 37.3746C114.807 37.5004 114.425 37.6948 114.111 37.9521C113.614 38.3753 113.238 38.8785 112.981 39.4618C112.725 40.045 112.599 40.6912 112.599 41.406C112.599 42.1608 112.725 42.8241 112.976 43.3959C113.227 43.9678 113.597 44.4481 114.099 44.8426C114.453 45.1171 114.841 45.3173 115.275 45.4316C115.708 45.546 116.296 45.6089 117.049 45.6089H122.052C122.12 45.6089 122.183 45.5975 122.24 45.5746C122.291 45.5517 122.354 45.5174 122.417 45.4602L122.736 45.1915H122.873L121.784 47.1928H117.049C115.953 47.1928 115.103 47.1014 114.504 46.9127C113.9 46.724 113.335 46.4095 112.804 45.9691C112.154 45.4373 111.663 44.7969 111.333 44.0535C111.002 43.3101 110.831 42.4753 110.831 41.5546C110.831 40.8456 110.928 40.1765 111.122 39.5533C111.315 38.93 111.601 38.3581 111.977 37.8378C112.24 37.4718 112.548 37.1459 112.884 36.86C113.227 36.574 113.597 36.3281 114.008 36.1166C114.367 35.9393 114.75 35.8078 115.16 35.7335C115.571 35.6591 116.182 35.6191 116.986 35.6191H122.719L121.641 37.5976H121.561L121.578 37.4489V37.4146C121.578 37.346 121.55 37.2888 121.498 37.2431C121.447 37.1973 121.379 37.1802 121.293 37.1802H116.986L116.975 37.1859ZM113.01 41.6404L113.706 40.0507H121.658L120.591 42.0521H120.494L120.511 41.8863V41.852C120.511 41.7891 120.489 41.7319 120.437 41.6919C120.386 41.6518 120.317 41.629 120.232 41.629H113.01V41.6404Z" fill="url(#mainGradient)"/>
  <path d="M124.636 46.581V36.2195C124.636 36.1623 124.63 36.1109 124.613 36.0708C124.596 36.0308 124.567 35.9908 124.522 35.945L124.328 35.7392V35.6248H126.65V35.7392L126.456 35.945C126.41 35.9851 126.381 36.0251 126.364 36.0708C126.347 36.1166 126.336 36.1681 126.336 36.2195V45.6089H130.552C130.609 45.6089 130.666 45.5975 130.717 45.5803C130.768 45.5632 130.831 45.5231 130.9 45.4602L131.208 45.1915L131.316 45.2544L130.266 47.1929H124.328V47.0785L124.522 46.8726C124.562 46.8326 124.59 46.7926 124.607 46.7411C124.624 46.6897 124.636 46.6325 124.636 46.5696V46.581Z" fill="url(#mainGradient)"/>
  <path d="M136.239 39.6219L139.799 40.5425C141.185 40.9028 142.241 41.4746 142.965 42.2694C143.69 43.0643 144.055 44.0364 144.055 45.1915V47.1929H131.778L132.48 45.6032H142.309C142.309 45.5632 142.321 45.5231 142.321 45.4717C142.321 45.4202 142.321 45.3516 142.321 45.2544C142.321 44.4538 142.081 43.7962 141.596 43.2816C141.111 42.7612 140.375 42.3724 139.383 42.1036L134.608 40.8913C133.769 40.674 133.142 40.3424 132.731 39.8964C132.32 39.4503 132.115 38.8728 132.115 38.1752C132.115 37.3746 132.389 36.7513 132.942 36.2996C133.495 35.8478 134.266 35.6248 135.258 35.6248H143.148L142.058 37.6033H141.961L141.978 37.4547V37.4203C141.978 37.3517 141.955 37.2945 141.904 37.2488C141.853 37.2031 141.784 37.1859 141.699 37.1859H135.264C134.79 37.1859 134.437 37.2602 134.209 37.4203C133.98 37.5747 133.866 37.8149 133.866 38.1409C133.866 38.7298 134.625 39.2159 136.148 39.599C136.194 39.6104 136.222 39.6162 136.245 39.6219H136.239Z" fill="url(#mainGradient)"/>
</svg>