<?xml version="1.0" encoding="UTF-8"?>
<svg id="katman_1" data-name="katman 1" xmlns="http://www.w3.org/2000/svg" xmlns:xlink="http://www.w3.org/1999/xlink" version="1.1" viewBox="0 0 1350 1350">
  <defs>
    <style>
      .cls-1 {
        fill: url(#Adsız_degrade_8);
      }

      .cls-1, .cls-2, .cls-3, .cls-4, .cls-5, .cls-6, .cls-7, .cls-8, .cls-9, .cls-10, .cls-11, .cls-12, .cls-13, .cls-14, .cls-15, .cls-16, .cls-17, .cls-18, .cls-19, .cls-20, .cls-21, .cls-22, .cls-23, .cls-24, .cls-25 {
        stroke-width: 0px;
      }

      .cls-2 {
        fill: url(#Adsız_degrade_8-21);
      }

      .cls-3 {
        fill: url(#Adsız_degrade_8-22);
      }

      .cls-4 {
        fill: url(#Adsız_degrade_8-20);
      }

      .cls-5 {
        fill: url(#Adsız_degrade_8-18);
      }

      .cls-6 {
        fill: url(#Adsız_degrade_8-17);
      }

      .cls-7 {
        fill: url(#Adsız_degrade_8-15);
      }

      .cls-8 {
        fill: url(#Adsız_degrade_8-16);
      }

      .cls-9 {
        fill: url(#Adsız_degrade_8-13);
      }

      .cls-10 {
        fill: url(#Adsız_degrade_8-14);
      }

      .cls-11 {
        fill: url(#Adsız_degrade_8-19);
      }

      .cls-12 {
        fill: url(#Adsız_degrade_8-12);
      }

      .cls-13 {
        fill: url(#Adsız_degrade_8-10);
      }

      .cls-14 {
        fill: url(#Adsız_degrade_8-11);
      }

      .cls-15 {
        fill: url(#Adsız_degrade_8-23);
      }

      .cls-16 {
        fill: url(#Adsız_degrade_8-25);
      }

      .cls-17 {
        fill: url(#Adsız_degrade_8-24);
      }

      .cls-18 {
        fill: url(#Adsız_degrade_8-6);
      }

      .cls-19 {
        fill: url(#Adsız_degrade_8-7);
      }

      .cls-20 {
        fill: url(#Adsız_degrade_8-2);
      }

      .cls-21 {
        fill: url(#Adsız_degrade_8-9);
      }

      .cls-22 {
        fill: url(#Adsız_degrade_8-3);
      }

      .cls-23 {
        fill: url(#Adsız_degrade_8-8);
      }

      .cls-24 {
        fill: url(#Adsız_degrade_8-5);
      }

      .cls-25 {
        fill: url(#Adsız_degrade_8-4);
      }
    </style>
    <linearGradient id="Adsız_degrade_8" data-name="Adsız degrade 8" x1="1165.5" y1="1674.4" x2="-325.2" y2="183.8" gradientUnits="userSpaceOnUse">
      <stop offset="0" stop-color="#a754cf"/>
      <stop offset=".5" stop-color="#547ccf"/>
      <stop offset="1" stop-color="#54b9cf"/>
    </linearGradient>
    <linearGradient id="Adsız_degrade_8-2" data-name="Adsız degrade 8" x1="1139.7" y1="1700.2" x2="-350.9" y2="209.6" xlink:href="#Adsız_degrade_8"/>
    <linearGradient id="Adsız_degrade_8-3" data-name="Adsız degrade 8" x1="1374.1" y1="1465.8" x2="-116.5" y2="-24.8" xlink:href="#Adsız_degrade_8"/>
    <linearGradient id="Adsız_degrade_8-4" data-name="Adsız degrade 8" x1="1445.1" y1="1394.8" x2="-45.6" y2="-95.8" xlink:href="#Adsız_degrade_8"/>
    <linearGradient id="Adsız_degrade_8-5" data-name="Adsız degrade 8" x1="1516.2" y1="1323.8" x2="25.5" y2="-166.9" xlink:href="#Adsız_degrade_8"/>
    <linearGradient id="Adsız_degrade_8-6" data-name="Adsız degrade 8" x1="1350.7" y1="1489.2" x2="-139.9" y2="-1.4" xlink:href="#Adsız_degrade_8"/>
    <linearGradient id="Adsız_degrade_8-7" data-name="Adsız degrade 8" x1="1737.2" y1="1102.7" x2="246.5" y2="-387.9" xlink:href="#Adsız_degrade_8"/>
    <linearGradient id="Adsız_degrade_8-8" data-name="Adsız degrade 8" x1="1286.8" y1="1553.1" x2="-203.9" y2="62.5" xlink:href="#Adsız_degrade_8"/>
    <linearGradient id="Adsız_degrade_8-9" data-name="Adsız degrade 8" x1="1481.6" y1="1358.3" x2="-9" y2="-132.4" xlink:href="#Adsız_degrade_8"/>
    <linearGradient id="Adsız_degrade_8-10" data-name="Adsız degrade 8" x1="1581.7" y1="1258.2" x2="91.1" y2="-232.5" xlink:href="#Adsız_degrade_8"/>
    <linearGradient id="Adsız_degrade_8-11" data-name="Adsız degrade 8" x1="1654.8" y1="1185.2" x2="164.1" y2="-305.5" xlink:href="#Adsız_degrade_8"/>
    <linearGradient id="Adsız_degrade_8-12" data-name="Adsız degrade 8" x1="1536.9" y1="1303" x2="46.3" y2="-187.7" xlink:href="#Adsız_degrade_8"/>
    <linearGradient id="Adsız_degrade_8-13" data-name="Adsız degrade 8" x1="1256.2" y1="1583.7" x2="-234.4" y2="93.1" xlink:href="#Adsız_degrade_8"/>
    <linearGradient id="Adsız_degrade_8-14" data-name="Adsız degrade 8" x1="1609.7" y1="1230.2" x2="119.1" y2="-260.5" xlink:href="#Adsız_degrade_8"/>
    <linearGradient id="Adsız_degrade_8-15" data-name="Adsız degrade 8" x1="1681.8" y1="1158.2" x2="191.1" y2="-332.5" xlink:href="#Adsız_degrade_8"/>
    <linearGradient id="Adsız_degrade_8-16" data-name="Adsız degrade 8" x1="1398.2" y1="1441.7" x2="-92.5" y2="-48.9" xlink:href="#Adsız_degrade_8"/>
    <linearGradient id="Adsız_degrade_8-17" data-name="Adsız degrade 8" x1="1446" y1="1393.9" x2="-44.6" y2="-96.8" xlink:href="#Adsız_degrade_8"/>
    <linearGradient id="Adsız_degrade_8-18" data-name="Adsız degrade 8" x1="1187.8" y1="1652.1" x2="-302.8" y2="161.4" xlink:href="#Adsız_degrade_8"/>
    <linearGradient id="Adsız_degrade_8-19" data-name="Adsız degrade 8" x1="1160.6" y1="1679.3" x2="-330" y2="188.7" xlink:href="#Adsız_degrade_8"/>
    <linearGradient id="Adsız_degrade_8-20" data-name="Adsız degrade 8" x1="1236.2" y1="1603.7" x2="-254.4" y2="113.1" xlink:href="#Adsız_degrade_8"/>
    <linearGradient id="Adsız_degrade_8-21" data-name="Adsız degrade 8" x1="1124.2" y1="1715.7" x2="-366.4" y2="225.1" xlink:href="#Adsız_degrade_8"/>
    <linearGradient id="Adsız_degrade_8-22" data-name="Adsız degrade 8" x1="1629" y1="1210.9" x2="138.4" y2="-279.7" xlink:href="#Adsız_degrade_8"/>
    <linearGradient id="Adsız_degrade_8-23" data-name="Adsız degrade 8" x1="1264.4" y1="1575.5" x2="-226.3" y2="84.9" xlink:href="#Adsız_degrade_8"/>
    <linearGradient id="Adsız_degrade_8-24" data-name="Adsız degrade 8" x1="1282.4" y1="1557.5" x2="-208.3" y2="66.9" xlink:href="#Adsız_degrade_8"/>
    <linearGradient id="Adsız_degrade_8-25" data-name="Adsız degrade 8" x1="1303.9" y1="1536" x2="-186.7" y2="45.3" xlink:href="#Adsız_degrade_8"/>
  </defs>
  <path class="cls-1" d="M68.9,851.6c12.8-20.2,30.1-36.1,48.8-50.6,1.2-.9,3-1.5,2.2-3.6-1.8-2.8-3.2-5.8-4.5-8.9-2-4.8-3.4-9.9-4.7-15-.4-1.5-.8-3-1.1-4.5-.3-2-.7-4-.9-6.1-4.4-42.8,11.5-76.8,44.4-103.5,10.8-8.8,23.4-14.7,35.3-21.8h0s0,0,0,0c3-2.7,6.2-5.3,9-8.2,13.9-14.6,15.4-33.7,4.2-50.5-5.5-8.2-12.7-15.3-17.5-24-10.4-19-12.1-38.4-1.5-58,0,0,0,0,0,0,0,0,0,0,0,0,2.1-4.7,5.2-8.7,9.2-11.9,13.6-10.8,28.7-12.8,44.5-6,15.9,6.8,22.8,20,23.8,36.7.1,2-.7,3.1-2.2,4.2-6.9,5.1-14.5,8.6-22.9,10.3,2.1,3.8,5.1,7.1,5,11.8.8,2.4.9,4.8,3.4,6.5,21.1,14.2,41.3,29.9,62,44.8,8,5.7,16.1,11.2,24.1,16.7.7.5,1.6,1.7,2.5.7.7-.8-.2-1.8-.7-2.5-.3-.4-.6-.8-.8-1.2-6.9-9.6-13.8-19.2-20.8-28.8-12.7-17.3-25.4-34.7-38.3-51.9-2.4-3.2-3.8-6-3.9-10.3-.3-20.1-10-34.9-28.1-43.4-26.3-12.2-59.3,1.3-70.4,28.5-9.5,23.2-6.6,45.4,6.7,66.3,4.4,6.9,9.9,13.1,14.4,20,7.4,11.5,5.7,25.7-3.7,35.6-7.7,8.2-17.7,12.6-28,16.1-32.3,11-59.4,29.3-80.1,56.7-19.4,25.8-31.3,54.5-32.7,87.1-1.1,24.5,3.9,47.5,17.1,68.5,3,4.8,3,4.8,6,.1Z"/>
  <path class="cls-20" d="M270.3,873.5c-20.4-.3-40.8-.4-61.3-.5-2.5,0-3.2-.8-3.2-3.3.1-15,.1-30,.1-45,0-10.8,3.3-20.4,9.9-28.9,5.2-6.7,11.2-12.7,17.2-18.6,15.8-15.6,30.3-32.3,38.8-53.2,15.2-37.4,14.4-74.4-4.5-110.5-6.5-12.5-15.4-23.3-23.8-34.5-7.4-9.9-11.7-20.6-7.7-33.2.1-.4,0-.9,0-1.4h0c-11-2.7-21.9-5.8-30.6-13.8-.8-.8-1.2-.2-1.8,0,1.4,2.9,2.8,5.8,4.2,8.7,6.7,13.3,16.4,24.5,25.3,36.1,24.2,31.4,29.8,66.4,19.5,104.1-6.9,25.2-21.4,46-39.8,64.3-14.1,14-30.4,25.4-46.4,36.9-15.8,11.3-31.8,22.4-45.9,35.8-6.9,6.6-13.1,13.8-19.2,21.2,1.6.6,2.3-.3,3.1-1,7.7-6.3,16-11.5,24.9-15.9,12.3-6,24.8-11.6,38.9-11.2,12.8.4,21.4,8.2,22.5,21,1.2,13.4.3,26.8.6,40.2,0,2.1-1,2.4-2.7,2.4-5.2,0-10.4.1-15.6.2-32.6.2-65.3.6-97.9,2.6-3,.2-6.2.2-9.6,1.6,47,6.5,271.2,5.5,284-.6-1.7-.2-3.1-.4-4.5-.6-24.7-2.1-49.5-2.5-74.3-2.8Z"/>
  <path class="cls-22" d="M554.9,597.3c-2.4-1.4-1.9-2-.4-3.7,6.7-7.5,9.5-16.2,7.3-26.1-3.2-14.3-15.5-23.5-31.1-23.6-17.8-.1-35.5,0-53.3,0-2.8,0-3.4.8-3.4,3.5.1,18.1,0,36.2,0,54.3h0c0,18.3,0,36.7,0,55.1,0,2.4.6,3,3,3,20.3-.1,40.6,0,60.9,0,15.5,0,28.6-10.2,32.6-24.9,3.8-13.8-2.8-29.8-15.6-37.3ZM507.3,558.7c3.8,0,7.5.1,11.2,0,3.9-.1,6.6,1.8,8,5.1,3.3,7.4,3.2,15-.1,22.4-1.6,3.5-4.4,5.3-8.4,5.1-3.6-.1-7.2-.1-10.9,0-2,0-2.5-.6-2.4-2.5.1-4.7,0-9.4,0-14.1h0c0-4.6.1-9.2,0-13.8,0-2.1.9-2.3,2.6-2.3ZM534.1,640.1c-2,3-4.7,4.7-8.5,4.6-5.9-.1-11.8-.2-17.8,0-2.7.1-3.2-.9-3.1-3.3.2-5.3,0-10.6,0-15.9h0c0-5.2.2-10.4,0-15.6-.2-3.4,1-4,4.1-3.9,5.4.2,10.9.2,16.3,0,4-.1,6.9,1.5,9.1,4.8,5.2,7.6,5.1,21.7-.1,29.3Z"/>
  <path class="cls-25" d="M651.4,541.1c-33.4.5-60,28.2-59.3,61.4.8,33.6,28,60.6,60.5,59.9,32.9-.7,59.6-28.5,58.9-61.2h0c-.7-33.9-27.5-60.6-60.2-60.1ZM677.8,600.2c0,11.9-1.9,21.8-6.6,31-1.7,3.2-3.7,6.2-6.3,8.8-8,7.9-18,8-26,0-4.5-4.4-7.4-9.8-9.3-15.7-5.5-16.7-5.1-33.2,1.7-49.5,2.1-5.1,5.1-9.6,9.5-13.1,7.2-5.8,15.3-5.8,22.4.2,7.4,6.3,10.8,14.9,12.9,24.1,1.2,5.2,1.8,10.5,1.7,14.2h0Z"/>
  <path class="cls-24" d="M793.2,662.4c32.6.7,59.9-26.4,60.6-60.2h0c.7-32.9-26-60.4-59.2-61-32.5-.6-59.4,26.1-60.2,59.7-.8,33,25.8,60.8,58.9,61.5ZM768.2,602.8c0-11.5,1.9-21.6,6.8-31,2.1-4,4.8-7.5,8.4-10.3,6.9-5.4,14.7-5.4,21.6.1,3.6,2.8,6.4,6.3,8.3,10.4,9.2,19.8,9.2,39.6,0,59.4-1.6,3.5-4,6.6-6.8,9.3-7.7,7.2-17.3,7.2-24.9-.2-6.5-6.2-9.7-14.3-11.7-22.8-1.2-5.2-1.8-10.5-1.7-14.8h0Z"/>
  <path class="cls-18" d="M650.2,728.2c-33,0-59.6,27.2-59.6,60.6,0,33.4,27,60.7,59.7,60.6,32.8,0,59.7-27.5,59.6-60.8h0c-.1-33.6-26.8-60.5-59.7-60.5ZM676,794.7c-.6,8.6-2.7,16.9-6.9,24.5-1.7,3.1-3.7,5.9-6.3,8.3-7.8,7.3-17.5,7.3-25.2-.2-8.4-8.3-11.4-19.1-12.8-30.4-.4-2.8-.4-5.5-.5-7.5h0c.3-12.3,2.2-23.3,8.5-33.2,9.9-15.6,25-15.6,34.9,0,7.5,11.8,9.2,25,8.3,38.6Z"/>
  <path class="cls-19" d="M1236.1,662.4c32.7,0,59.7-27.4,59.7-60.7,0-33.4-26.8-60.6-59.7-60.6-32.9,0-59.7,27.2-59.7,60.6s27,60.7,59.7,60.7ZM1215.3,575.5c2-5,4.9-9.4,8.9-13,7.3-6.5,15.8-6.7,23.2-.5,7.2,6,10.5,14.3,12.7,23.1,1.4,5.5,1.9,11.2,1.8,15.8h0c0,11.6-1.9,21.7-6.9,31.1-2,3.8-4.5,7.1-7.9,9.8-6.8,5.5-15,5.7-21.9.2-6.6-5.3-10.1-12.5-12.3-20.4-4.4-15.6-3.9-31,2.3-46.1Z"/>
  <path class="cls-23" d="M570.8,789h0c0-18.2,0-36.5,0-54.7,0-2.8-.8-3.5-3.5-3.4-7.9.2-15.7.2-23.6,0-2.9,0-3.6.8-3.5,3.6.1,14.6,0,29.2.1,43.9,0,2.5-.6,3.2-3.2,3.2-9.8-.2-19.6-.2-29.4,0-2.6,0-3.1-.8-3.1-3.2.1-14.7,0-29.5.1-44.2,0-2.6-.7-3.3-3.2-3.2-8.2.2-16.4.1-24.7,0-2.1,0-2.6.7-2.6,2.7,0,36.8,0,73.7,0,110.5,0,2.1.6,2.6,2.6,2.6,8.1-.1,16.2-.2,24.3,0,2.8,0,3.7-.5,3.6-3.5-.2-14.4,0-28.8-.1-43.1,0-2.6.5-3.5,3.3-3.5,9.7.2,19.3.2,29,0,2.8,0,3.4.9,3.3,3.5-.1,14.5,0,29-.1,43.5,0,2.6.7,3.2,3.2,3.1,8-.2,16-.2,23.9,0,2.7,0,3.4-.6,3.4-3.3-.1-18.1,0-36.2,0-54.4Z"/>
  <path class="cls-21" d="M926.2,731.2c-15.2-.7-30.4,0-45.7-.4-2.8,0-2.8,1.3-2.8,3.3,0,18.2,0,36.5,0,54.7h0v54.7c0,1.6-.5,3.2,2.4,3.2,14.9-.2,29.7.2,44.6-.3,13.1-.4,24.8-5,34.5-14,15.6-14.4,20.6-32.5,18.2-53.2-3.1-26.3-24.8-46.7-51.2-48ZM938.3,818.2c-4.5,9.1-11.1,14.5-22,13.7-7.9-.5-7.9,0-7.9-8.2v-35.1h0c0-13.2,0-26.3,0-39.5,0-2.8.6-3.3,3.4-3.3,2.1,0,4.1,0,6.2,0,8.6,0,14.5,3.6,18.7,10.6,6.1,10.1,7.8,21.4,7.8,33,0,10-1.6,19.7-6.1,28.8Z"/>
  <path class="cls-13" d="M937.1,586.3c-1.2-2-1.1-3.2.5-4.9,10.1-11.4,20.1-22.9,30-34.4.7-.9,1.9-1.5,2-3.2-5.1,0-10.1.1-15.2,0-2.3,0-3.7.8-5.2,2.5-11.9,13.8-24,27.5-36,41.2-.7.8-1.3,1.9-2.7,2.3,0-14.5,0-28.7,0-43,0-2.3-.6-3.1-3-3.1-8.2.1-16.4.1-24.7,0-2.4,0-3,.6-3,3,0,36.7,0,73.5,0,110.2,0,2,.5,2.7,2.6,2.6,8.3-.1,16.7-.2,25,0,2.7,0,3.1-.9,3.1-3.3-.1-13,.1-26.1-.2-39.1,0-4,1.2-6.9,4.3-9.2h0c1.2.8,1.6,2.1,2.3,3.2,9,14.9,18,29.7,26.8,44.7,1.7,2.9,3.5,4,6.8,3.8,3.8-.3,7.7,0,11.6,0h19.1c-.9-1.6-1.6-2.7-2.2-3.8-13.9-23.1-27.8-46.3-41.8-69.4Z"/>
  <path class="cls-14" d="M1294.5,789.2c-3.6-3.4-7.7-6.2-12-8.7-9.7-5.6-20.4-9.3-30.3-14.5-3.2-1.7-6.4-3.5-8.8-6.3-4.2-4.8-3.1-10.3,2.6-13.1,1.2-.6,2.4-1.1,3.7-1.4,14.2-2.6,27.5-1.7,38.3,9.2,1.3,1.3,2.1,1.4,3.3,0,2-2.4,4.2-4.7,6.3-7,2.5-2.8,2.3-5.3-.8-7.6-10.9-8.4-23.5-11.4-33.6-11.5h0c-13-.1-22.3,1.6-31.1,5.9-10.6,5.2-18.6,12.7-21.3,24.6-3,13.3,2.4,24.4,15.3,33.2,9.7,6.5,20.5,10.6,30.9,15.7,4.7,2.3,9.3,4.6,13,8.4,6.4,6.6,4.4,14.5-4.5,16.2-16.3,3.2-31.2.5-42.7-12.9-1.2-1.4-1.9-1.6-3.4-.5-2.6,2-5.3,3.8-8.1,5.5-2,1.2-2.2,2.1-.7,4,10.8,13.8,25.2,20.3,42.3,21,14.8.6,28.6-2.8,39.9-13,14.5-13.2,15.1-34.4,1.4-47.1Z"/>
  <path class="cls-12" d="M1055.8,734.1c-.9-2.4-1.9-3.4-4.6-3.3-5.4.2-10.9.3-16.3,0-3.1-.2-4.3.9-5.3,3.8-8.8,25.6-17.8,51.2-26.8,76.8-3.7,10.7-7.3,21.4-11.2,32.1-1.1,2.9-.4,3.4,2.4,3.3,3.7-.2,7.5-.2,11.2,0,2.1.1,2.9-.7,3.5-2.6,2.6-8.1,5.5-16.2,8.1-24.4.7-2.3,1.6-3.3,4.2-3.2,9.5.2,19.1.1,28.7,0,2.3,0,3.4.6,4.1,2.9,2.6,8.3,5.4,16.5,8.1,24.7.4,1.2.5,2.5,2.4,2.5,10.1,0,20.2,0,30.8,0-2.1-6-4.1-11.7-6.1-17.4-11.1-31.7-22.2-63.4-33.3-95.2ZM1023,801.5c4-12.2,8-24.4,11.9-36.5.2,0,.5,0,.7,0h0c4,12.1,8,24.1,12.1,36.5h-24.8Z"/>
  <path class="cls-9" d="M389.3,585.3c-18-14.6-38.1-16.2-59.2-6.8-7.3,3.2-7.2,3.4-2.7,9.7.4.6.9,1.2,1.2,1.8,1.4,2.4,2.6,3.1,5.6,1.4,26.8-15.1,60.2,3.5,60.1,31.8h0c0,15.4-5,26.4-15.8,34.6-12.2,9.2-28.7,10.1-41.9,2.3-12.8-7.6-20.2-22.8-18.4-37.2.4-3.2,3.2-6.9,1.2-9.6-1.9-2.6-5.8-3.8-8.6-5.8-2.2-1.5-3-.9-3.7,1.4-6,21.3-2,40.1,13.8,56.1,2.4,2.4,7,3.5,7.1,7,0,3.3-2.3,6.8-3.7,10.1-.5,1.2-1.1,2.4-1.8,3.6-.8,1.5-1.9,2.8-3.6,3.5-4.1,1.6-6.1,4.8-7.7,8.6-4,9.5-8.1,18.9-12.2,28.3-2.2,5.2-4.7,10.3-6.7,15.6-2.3,6,.7,12.8,6.3,15.2,5.1,2.2,10.9-.2,14-5.8.4-.7.8-1.5,1.1-2.3,6.2-14.3,12.4-28.6,18.6-42.9,1-2.4,2.1-5,.9-7.3-2.4-5-.4-9,1.9-13.1,1.3-2.3,2.6-4.7,3.5-7.2.7-2,1.5-2.1,3.5-1.6,23.4,6.4,48.4-4.8,59.8-26.6,11.1-21.3,5.9-49.8-12.6-64.7Z"/>
  <path class="cls-10" d="M1186.1,730.9c-2.6-.1-3.8.8-4.9,3-6.7,14.3-13.6,28.5-20.5,42.7-.6,1.2-.8,2.8-2.4,3.7h0c-.4-1-.8-1.8-1.1-2.6-6-14.7-12.1-29.4-18-44.1-.8-2-1.8-2.7-3.9-2.7-9.6.1-19.1,0-28.7,0-.9,0-1.9-.4-2.8.6.5,1.2.9,2.4,1.5,3.6,9.6,22,19.2,43.9,28.8,65.9.8,1.8,1.2,3.6,1.2,5.6,0,12.4,0,24.9,0,37.3,0,2.2.5,2.9,2.8,2.8,8.2-.1,16.4-.2,24.7,0,2.9,0,3.3-.9,3.3-3.5-.1-12.9,0-25.9-.1-38.8,0-2.5.6-4.7,1.7-6.9,10.6-21,21.1-42,31.6-63,.5-1.1,1.6-2.1,1.2-3.7-4.8,0-9.5.2-14.2,0Z"/>
  <path class="cls-7" d="M1119.5,659.7c3.4.1,3.8-1.1,3.8-4-.1-22.3-.1-44.7,0-67,0-9.9-.5-19.7.4-29.6,9.8,0,19.5-.2,29.3-.3.7,0,1.5,0,2.2,0,2,.3,2.8-.4,2.7-2.5-.2-3.2-.2-6.5,0-9.8.1-2.1-.7-2.7-2.7-2.7-31.4,0-62.8,0-94.3,0-1.8,0-2.6.5-2.5,2.4.1,3.3.2,6.5,0,9.8-.1,2.2.5,2.8,2.8,2.8,9.4-.1,18.9,0,28.3-.1,2.7,0,3.4.6,3.3,3.3-.1,15.7,0,31.4,0,47.1h0c0,15.8,0,31.7,0,47.5,0,2.3.5,3.1,2.9,3,8-.2,16-.3,23.9,0Z"/>
  <path class="cls-8" d="M811.9,835.1c.2-2.8-.8-3.4-3.5-3.3-14.6.1-29.2,0-43.9.1-3.2,0-4.2-.6-4.2-4.1.2-31.2,0-62.3.2-93.5,0-2.7-.5-3.5-3.3-3.4-8,.2-16,.2-23.9,0-2.7,0-3.4.6-3.4,3.4.1,18.2,0,36.5,0,54.7h0c0,18,.1,36,0,54,0,3.4,1,3.8,4,3.8,22.1-.1,44.2,0,66.3,0,3.8,0,8.9,1.7,11.1-.7,1.9-2.1.3-7.1.7-10.8Z"/>
  <path class="cls-6" d="M853.3,730.9c-8.1,0-16.2.2-24.3,0-2.8,0-3.4.7-3.4,3.4.1,18.1,0,36.3,0,54.4h0c0,18.4,0,36.7,0,55.1,0,2.4.6,3,3,3,8.3-.1,16.7-.1,25,0,2,0,2.6-.5,2.6-2.6,0-36.9,0-73.7,0-110.6,0-2.5-1-2.7-3-2.7Z"/>
  <path class="cls-5" d="M371.5,695.5c-2.4.6-3.3,1.9-3.6,4.2-1.4,9.1-3.3,18.1-6.5,26.7-12.6,33.6-33.3,60.8-63.8,80.2-19.5,12.4-40.7,20.6-63.8,23.2-9.6,1.1-9.5.9-9.6,10.4,0,2.7.9,3.1,3.4,2.9,35.8-3.1,67.6-16.1,94.8-39.3,32.7-27.9,52.1-63.5,59-106,.3-1.8.8-3.8,0-5.9-3.4,1.2-6.6,2.5-9.9,3.4Z"/>
  <path class="cls-11" d="M49.5,700.2c2.3-1.3,4.7-2.6,7.2-3.5,2.5-1,3-2.5,2.8-5-1.7-16.8-.6-33.4,3.7-49.6,11-42.6,36-74.7,74.1-96.2,7-4,8.8-8.1,7.9-15.1-.3-2.1-.5-2.9-2.7-1.8-3,1.5-6.3,2.6-9.2,4.3-54.7,32-84.1,79.4-87.4,142.7h0c-.4,7.6.6,15.1.8,22.5,0,2.2.8,2.8,2.8,1.7Z"/>
  <path class="cls-4" d="M184.3,555c4.8,8.7,12,15.7,17.5,24,11.1,16.8,9.6,35.8-4.2,50.5-2.8,2.9-6,5.5-9,8.2,6.9-1.1,12.9-4.5,18.8-7.9,11.5-6.6,17.9-16.3,17.7-30.1-.1-9.8-4-18.2-8.5-26.5-6.1-11.2-13.5-21.7-18.6-33.5-3.3-7.6-6.1-15.5-6.3-23.9-.3-10.7,2.5-20.5,9.4-28.9-2.4-.3-4.1,1-6,2.1-3.5,2-5.7,5.5-9,7.7-1,.7-2,2-3.3.3-10.5,19.6-8.9,39,1.5,58Z"/>
  <path class="cls-2" d="M115.5,788.5c1.2,3,2.7,6,4.5,8.9h0c1.6.1,2.7-.8,3.9-1.6,4.5-3,9-6,13.5-9,11-7.5,22-15.2,33.1-22.7,14.9-10,28.4-21.5,39.5-35.7,1.9-2.5,3.7-5.1,4.3-8.4-16.4,17.7-34.3,33.1-56.6,43,15.9-15.3,32.9-29.4,47-46.5-.6,0-1.1,0-1.5.2-9.4,5.5-18.8,10.9-28.1,16.4-16.6,9.8-33.3,19.6-50.3,28.7-4.9,2.7-9.8,5.7-15.2,7.3.4,1.5.8,3,1.1,4.5,1.3,5.1,2.7,10.2,4.7,15Z"/>
  <path class="cls-3" d="M1019.8,618.3h0c9.2,0,16.5-7.2,16.7-16.4.1-9.2-7.5-16.9-16.7-16.9-9,0-16.4,7.5-16.4,16.7,0,9.2,7.3,16.6,16.4,16.6Z"/>
  <path class="cls-15" d="M240.2,542.1c.1-4.7-2.9-8-5-11.8-14.6,2.8-26.6-.9-35.1-14,.5,5,.5,9.9,3.2,14.3.6-.2,1-.7,1.8,0,8.7,8,19.6,11,30.6,13.8h0c1.6-.7,2.6-2.4,4.5-2.2Z"/>
  <path class="cls-17" d="M227.8,513.4c3.6,1.2,6.4-.3,8.6-3,2.4-3,2.1-6.2.4-9.5-4.2-8.1-15.7-10.5-23.9-4.8,5.1,1.4,9.6,2.6,8.8,9.6-.4,3.6,2.4,6.4,6.1,7.7Z"/>
  <path class="cls-16" d="M355.5,594.6c-.2,1.9.9,2.4,2.5,2.7,9.8,1.8,17.3,7,22.5,15.4,1,1.6,2,3.4,4.2,2.2,2.5-1.3.8-3.3,0-4.7-5.7-10.3-14.8-15.7-25.9-17.5h0c-1.7,0-3.2-.3-3.3,1.7Z"/>
</svg>