<?xml version="1.0" encoding="UTF-8"?>
<svg id="katman_1" data-name="katman 1" xmlns="http://www.w3.org/2000/svg" xmlns:xlink="http://www.w3.org/1999/xlink" version="1.1" viewBox="0 0 1350 1350">
  <defs>
    <style>
      .cls-1 {
        fill: url(#Adsız_degrade_8);
      }

      .cls-1, .cls-2, .cls-3, .cls-4, .cls-5, .cls-6, .cls-7, .cls-8, .cls-9, .cls-10, .cls-11, .cls-12, .cls-13, .cls-14, .cls-15 {
        stroke-width: 0px;
      }

      .cls-2 {
        fill: url(#Adsız_degrade_8-15);
      }

      .cls-3 {
        fill: url(#Adsız_degrade_8-13);
      }

      .cls-4 {
        fill: url(#Adsız_degrade_8-14);
      }

      .cls-5 {
        fill: url(#Adsız_degrade_8-12);
      }

      .cls-6 {
        fill: url(#Adsız_degrade_8-10);
      }

      .cls-7 {
        fill: url(#Adsız_degrade_8-11);
      }

      .cls-8 {
        fill: url(#Adsız_degrade_8-6);
      }

      .cls-9 {
        fill: url(#Adsız_degrade_8-7);
      }

      .cls-10 {
        fill: url(#Adsız_degrade_8-2);
      }

      .cls-11 {
        fill: url(#Adsız_degrade_8-9);
      }

      .cls-12 {
        fill: url(#Adsız_degrade_8-3);
      }

      .cls-13 {
        fill: url(#Adsız_degrade_8-8);
      }

      .cls-14 {
        fill: url(#Adsız_degrade_8-5);
      }

      .cls-15 {
        fill: url(#Adsız_degrade_8-4);
      }
    </style>
    <linearGradient id="Adsız_degrade_8" data-name="Adsız degrade 8" x1="1299.9" y1="1556.8" x2="-190.7" y2="66.1" gradientUnits="userSpaceOnUse">
      <stop offset="0" stop-color="#a754cf"/>
      <stop offset=".5" stop-color="#547ccf"/>
      <stop offset="1" stop-color="#54b9cf"/>
    </linearGradient>
    <linearGradient id="Adsız_degrade_8-2" data-name="Adsız degrade 8" x1="1370.2" y1="1486.5" x2="-120.4" y2="-4.1" xlink:href="#Adsız_degrade_8"/>
    <linearGradient id="Adsız_degrade_8-3" data-name="Adsız degrade 8" x1="1430.9" y1="1425.9" x2="-59.8" y2="-64.8" xlink:href="#Adsız_degrade_8"/>
    <linearGradient id="Adsız_degrade_8-4" data-name="Adsız degrade 8" x1="1462.8" y1="1393.9" x2="-27.8" y2="-96.7" xlink:href="#Adsız_degrade_8"/>
    <linearGradient id="Adsız_degrade_8-5" data-name="Adsız degrade 8" x1="1522.7" y1="1334" x2="32.1" y2="-156.6" xlink:href="#Adsız_degrade_8"/>
    <linearGradient id="Adsız_degrade_8-6" data-name="Adsız degrade 8" x1="1561.5" y1="1295.2" x2="70.9" y2="-195.5" xlink:href="#Adsız_degrade_8"/>
    <linearGradient id="Adsız_degrade_8-7" data-name="Adsız degrade 8" x1="1632.4" y1="1224.3" x2="141.7" y2="-266.3" xlink:href="#Adsız_degrade_8"/>
    <linearGradient id="Adsız_degrade_8-8" data-name="Adsız degrade 8" x1="1679.5" y1="1177.2" x2="188.9" y2="-313.5" xlink:href="#Adsız_degrade_8"/>
    <linearGradient id="Adsız_degrade_8-9" data-name="Adsız degrade 8" x1="1189.7" y1="1667" x2="-300.9" y2="176.4" xlink:href="#Adsız_degrade_8"/>
    <linearGradient id="Adsız_degrade_8-10" data-name="Adsız degrade 8" x1="1064.6" y1="1792.1" x2="-426.1" y2="301.5" xlink:href="#Adsız_degrade_8"/>
    <linearGradient id="Adsız_degrade_8-11" data-name="Adsız degrade 8" x1="1086.3" y1="1770.5" x2="-404.4" y2="279.8" xlink:href="#Adsız_degrade_8"/>
    <linearGradient id="Adsız_degrade_8-12" data-name="Adsız degrade 8" x1="1092" y1="1764.7" x2="-398.7" y2="274.1" xlink:href="#Adsız_degrade_8"/>
    <linearGradient id="Adsız_degrade_8-13" data-name="Adsız degrade 8" x1="1099.1" y1="1757.6" x2="-391.5" y2="267" xlink:href="#Adsız_degrade_8"/>
    <linearGradient id="Adsız_degrade_8-14" data-name="Adsız degrade 8" x1="1123.6" y1="1733.1" x2="-367" y2="242.5" xlink:href="#Adsız_degrade_8"/>
    <linearGradient id="Adsız_degrade_8-15" data-name="Adsız degrade 8" x1="1151.7" y1="1705" x2="-338.9" y2="214.3" xlink:href="#Adsız_degrade_8"/>
  </defs>
  <path class="cls-1" d="M518.9,653.7c-7.3-4.8-19.6-7.2-37-7.2h-40.8c-2,0-3.7,1.6-3.7,3.7v165.4c0,2,1.6,3.7,3.7,3.7h40.8c17.4,0,29.8-2.4,37-7.2,7.3-4.8,11.9-12.7,13.8-23.7,1.9-11,2.9-29.5,2.9-55.5s-1-44.5-2.9-55.5-6.5-19-13.8-23.7ZM505.5,776c-1,7.6-3.1,12.4-6.3,14.4-3.2,2-9.2,3-18.1,3h0s-11.4,0-11.4,0c-2,0-3.7-1.6-3.7-3.7v-113.7c0-2,1.7-3.7,3.7-3.7h11.4c8.9,0,14.9,1,18.1,3,3.2,2,5.3,6.9,6.3,14.6s1.5,21.8,1.5,42.9-.5,35.5-1.5,43.1Z"/>
  <path class="cls-10" d="M652.2,721.1h-39.3c-1.9,0-3.5,1.6-3.5,3.5v18.7h0c0,1.9,1.6,3.5,3.5,3.5h11.7c1.9,0,3.5,1.6,3.5,3.5v41.7c0,1.7-1.3,3.2-3,3.5-4.2.5-8.1.8-11.8.8-8.2,0-14.1-1.5-17.6-4.5-3.5-3-5.9-8.7-7-17.1-1.2-8.4-1.8-22.3-1.8-41.7s.9-35.5,2.6-43.8c1.8-8.3,4.9-13.5,9.5-15.6s12.9-3.1,25-3.1,7.8.3,13.9,1c4.7.5,9.1,1.1,13.3,1.7,2.1.3,3.9-1.3,3.9-3.4v-17.4c0-1.6-1-3-2.6-3.4-4.8-1.2-10.4-2.2-16.8-3-7.5-.9-14.5-1.4-20.8-1.4-16.1,0-28,2.4-35.9,7.2s-13.3,13.3-16.3,25.5c-3,12.2-4.5,30.8-4.5,55.8s1.4,43.5,4.3,55.8c2.9,12.2,8.1,20.7,15.7,25.5,7.6,4.8,19.2,7.2,34.8,7.2s14.8-.5,22.7-1.4c6.7-.8,12.5-1.8,17.4-3,1.5-.4,2.6-1.8,2.6-3.4v-89c0-1.9-1.6-3.5-3.5-3.5Z"/>
  <path class="cls-12" d="M766,646.6h-90.7c-1.9,0-3.5,1.6-3.5,3.5v19.7c0,1.9,1.6,3.5,3.5,3.5h27.7c1.9,0,3.5,1.6,3.5,3.5v139.2h0c0,1.9,1.6,3.5,3.5,3.5h21.7c1.9,0,3.5-1.6,3.5-3.5v-139.2c0-1.9,1.6-3.5,3.5-3.5h27.4c1.9,0,3.5-1.6,3.5-3.5v-19.7c0-1.9-1.6-3.5-3.5-3.5Z"/>
  <path class="cls-15" d="M860.4,792.7h-40.8c-1.9,0-3.4-1.5-3.4-3.4v-139.3c0-1.9-1.5-3.4-3.4-3.4h-21.7c-1.9,0-3.4,1.5-3.4,3.4v165.9h0c0,1.9,1.5,3.4,3.4,3.4h69.5c1.9,0,3.4-1.5,3.4-3.4v-19.7c0-1.9-1.5-3.4-3.4-3.4Z"/>
  <path class="cls-14" d="M914.5,672.4h43c1.9,0,3.4-1.5,3.4-3.4v-19.1c0-1.9-1.5-3.4-3.4-3.4h-71.6c-1.9,0-3.4,1.5-3.4,3.4v166h0c0,1.9,1.5,3.4,3.4,3.4h21.9c1.9,0,3.4-1.5,3.4-3.4v-63.5c0-1.9,1.5-3.4,3.4-3.4h37.4c1.9,0,3.4-1.5,3.4-3.4v-19.1c0-1.9-1.5-3.4-3.4-3.4h-37.4c-1.9,0-3.4-1.5-3.4-3.4v-44c0-1.9,1.5-3.4,3.4-3.4Z"/>
  <path class="cls-8" d="M1039.2,649.9c-.4-2-2.2-3.4-4.2-3.4h-34.5c-2,0-3.8,1.4-4.2,3.4l-36.7,164.1c-.6,2.7,1.4,5.3,4.2,5.3h20c2.1,0,3.8-1.5,4.2-3.5l6.6-32.3c.4-2,2.2-3.5,4.2-3.5h37.2c2,0,3.8,1.4,4.2,3.4l6.8,32.3h0c.4,2,2.2,3.4,4.2,3.4h20.5c2.8,0,4.8-2.6,4.2-5.3l-36.7-164.1ZM1028.6,754.5h-22.8c-2.7,0-4.8-2.5-4.2-5.2l15-74.4h1.5l14.8,74.4c.5,2.7-1.5,5.2-4.2,5.2Z"/>
  <path class="cls-9" d="M1167.6,794.1c-5.9.9-12.2,1.3-18.9,1.3s-16.2-1.3-20-3.8-6.2-7.8-7.3-15.8c-1.1-8-1.6-22.4-1.6-43s.5-34.9,1.6-42.9c1.1-8,3.5-13.3,7.3-15.8,3.8-2.5,10.4-3.8,20-3.8s11.3.5,18.4,1.4c2.2.3,4.2-1.4,4.2-3.6v-17c0-1.7-1.1-3.1-2.7-3.5-2.6-.8-5.8-1.4-9.6-2-5.4-.8-10.6-1.1-15.8-1.1-15.4,0-26.7,2.5-33.9,7.5s-12,13.6-14.4,25.6c-2.4,12-3.6,30.1-3.6,55.2s1.2,43.7,3.5,55.6c2.3,12,7.1,20.4,14.3,25.4,7.2,4.9,18.6,7.4,34.2,7.4s10-.4,15.4-1.1h0c4.2-.6,7.7-1.3,10.6-2.1,1.6-.4,2.5-1.9,2.5-3.5v-16.9c0-2.2-1.9-3.9-4.2-3.6Z"/>
  <path class="cls-13" d="M1273,646.6h-75.4c-1.9,0-3.5,1.6-3.5,3.5v165.8c0,1.9,1.6,3.5,3.5,3.5h75.4c1.9,0,3.5-1.6,3.5-3.5v-18.9c0-1.9-1.6-3.5-3.5-3.5h-46.8c-1.9,0-3.5-1.6-3.5-3.5v-41.5c0-1.9,1.6-3.5,3.5-3.5h39.5c1.9,0,3.5-1.6,3.5-3.5v-18.9c0-1.9-1.6-3.5-3.5-3.5h-39.5c-1.9,0-3.5-1.6-3.5-3.5v-39.7c0-1.9,1.6-3.5,3.5-3.5h46.8c1.9,0,3.5-1.6,3.5-3.5v-18.9c0-1.9-1.6-3.5-3.5-3.5Z"/>
  <path class="cls-11" d="M355.6,702.9l.4-.2c-.3-.7-.6-1.4-1-2.1,1.4-11.7,1.3-12.8.4-23.9-2.6-28.4-13.9-53.6-32.8-73.7-24.4-25.9-56.6-38.4-88.7-38.4-37.4,0-74.6,17-98.6,49.6h0c-14.7-3.7-19.3,19.4-4.2,21.6,7.8,1.1,14.2-6.3,12.2-13.8,35.2-13.9,75-14.8,111.1-2.5-29.5,9.4-55.6,26.8-75.7,49.7-10-3.8-18.9,8.2-12.9,16.7-6.6,9.8-12.2,20.4-16.7,31.5-9.3-3.2-19.4,2.9-20.9,12.7-1.6,11.2,9.2,20.5,19.9,17.6,4.4,8.8,9.6,17.2,15.4,25-5,8.9,4.2,19.7,13.8,16.3,18.4,19.1,41.2,33.9,66.9,42.7-16.5,6.3-34.2,9.9-52.5,10.4-2.7-8.6-16-7.9-17.3,1.4-1.2,8.5,9.5,13.4,15.3,7.5l89.7,30.3.9-6.2h0c3-20.8,4.5-31.1,19.8-34.3,27.6-.2,51.3,1.8,47.3-37.4-.5-4.4-1-4.7,1.9-7.9,8.2-9.1,5.6-12.6,4-14.8-.6-.7,0,0,.7.7.5.6,1.1,1.1,1.4,1,9.5-5,8.5-11.1,5.2-17.2-4.5-8.5-5.8-6.5-2.3-7.9,7.7-3.2,32.1,2.1,19.5-19l-22-35.5ZM331.5,627.2c10.8,18,17.1,40.1,17,60.9-4.1-7.1-8.6-13.8-13.6-20.2,2.7-5.3.6-12-4.4-14.9l1-25.8ZM329.4,673.2c6.7,8.6,12.6,18,17.4,27.9-12.1,5.4-24.7,9.2-37.4,11.4,7.3-11.7,13-24.6,16.8-38.3,1.1-.2,2.2-.5,3.2-.9ZM345.4,709.9c-3.6,20.2-10.9,38.9-21.1,55.5-1.1-.1-2.2,0-3.2.2-8.9-8.7-18.5-16.4-28.9-22.8l-.9-6.8c3-3.2,5.8-6.4,8.5-9.8.6.1,1.2.2,1.8.2,3.9,0,7.4-2.6,8.5-6.3,12-2,23.8-5.4,35.2-10.1ZM323.4,620.2c1,10.5.9,20.8-.4,31.3-.8.1-1.5.3-2.2.6-12.3-12.2-26.5-22.5-42.2-30.5h0c14.5-2.6,29.5-3.1,44.8-1.4ZM145.9,613c45.6-54.1,128.9-54.5,174.8-.7-14.6-1.3-29-.7-42.9,1.6-1.6-3.7-5.1-6.5-9.4-7.1-4.9-.7-9.5,1.6-12,5.5-35.5-12-75.4-11.8-110.5.7ZM257.3,626.6c4.2,5.1,12.3,5.8,17.3,1.5,14.9,7.5,28.5,17.3,40.3,28.8-3.2,5.3-1.3,12.5,3.9,15.6-3.6,12.9-9,25-15.9,36-4.3-.6-8.3,1.9-9.7,5.9-3.8.3-7.7.4-11.5.4-34.2,0-68.2-10.9-96.4-32,.9-2.9.5-6.1-.9-8.6,19.5-22.2,44.7-38.8,72.9-47.7ZM172,690.3c.9.2,1.8.3,2.7.3,2.2,0,4.3-.6,6.1-1.8h0c32.7,24.4,72.8,35.8,112.6,33.1-2.4,3-4.9,5.8-7.5,8.6-.9-.4-1.9-.7-3-.9-3.5-.5-6.9.7-9.3,3-36-16.7-77.5-20.5-116.9-9.3-.4-.5-.8-1-1.2-1.5,4.3-11.2,9.9-21.8,16.5-31.5ZM175.1,767.1c-2.1-.3-4.1,0-5.9.7-5.5-7.4-10.3-15.4-14.5-23.6,3.6-3.4,5.6-8.7,4.9-13.7,37.3-10.4,76.6-6.7,110.8,9.1-.2,1.7,0,3.3.6,4.8-24.1,19.2-54.4,30.4-86.7,30.6-1.3-4-4.8-7.2-9.2-7.8ZM183.2,784.3c.4-.6.7-1.2.9-1.8,34.2-.1,66.3-12,91.8-32.4,1.7,1,3.6,1.5,5.5,1.5s5-.8,7-2.4c9.6,6,18.6,13.1,26.9,21.2-1.2,2.5-1.1,5.7.2,8-14.6,19.3-33.5,35.1-55,46.1-3.5-2.8-8.8-2.4-11.9.7-25.2-8.3-47.2-22.2-65.4-41ZM273,871.3l-66.7-22.5c14.7-1.7,29-5.3,42.5-10.7,1.7,1.5,3.8,2.3,6,2.3s5.5-1.2,7.2-3.5h0s21.2,3.3,21.2,3.3c-6.2,6.2-8,16.2-10.2,31.1ZM325.4,831.8c-3.2.3-6.7.4-10.4.5-9.6.4-15.8,1-22.2,1s-14.2-.7-26.4-3.2h0c21.5-11.5,40.4-27.6,55.1-47l5-.4c4.7,5.6,9,11.6,12.9,17.8,1.8,19.3,1.5,29.8-13.9,31.4ZM373.6,747.4c-2.3,1.4-11.6.2-18.4,3.1-12.4,5.2-4.4,13-1.5,18.5,5.2,9.7-14,6.7-6.6,16.5l-4.5,6.2c-3.4-5-7-9.8-10.9-14.5h0c.9-2.6.5-5.5-1-7.7,10.4-17,18-36,21.9-56.6,3,4.7,22.1,33.9,21,34.6Z"/>
  <path class="cls-6" d="M68.5,787c-.5,0-.9,0-1.4,0-9.2,0-10.9,14.5-.9,16h0c10.4,1.5,12.7-14.3,2.3-15.9Z"/>
  <path class="cls-7" d="M35.1,710.2c-.5,0-.9,0-1.4,0-9.2,0-10.9,14.5-.9,16h0c10.4,1.5,12.7-14.3,2.3-15.9Z"/>
  <path class="cls-5" d="M133.6,789.5c-.9-.1-1.7-.2-2.6-.2-17.2,0-20.3,27.1-1.7,29.8,19.5,2.8,23.8-26.8,4.3-29.6Z"/>
  <path class="cls-3" d="M81.3,726.5c-.7,0-1.4-.2-2-.2-13.5,0-15.9,21.3-1.4,23.4h0c15.2,2.2,18.6-21,3.4-23.2Z"/>
  <path class="cls-4" d="M70.5,689.1h0c10.4,1.5,12.7-14.3,2.3-15.9-.5,0-.9,0-1.4,0-9.2,0-10.9,14.5-.9,16Z"/>
  <path class="cls-2" d="M126.2,662.5c-.9-.1-1.7-.2-2.6-.2-17.2,0-20.3,27.1-1.7,29.8,19.5,2.8,23.8-26.8,4.3-29.6Z"/>
</svg>