<?xml version="1.0" encoding="UTF-8"?>
<svg id="katman_1" data-name="katman 1" xmlns="http://www.w3.org/2000/svg" xmlns:xlink="http://www.w3.org/1999/xlink" version="1.1" viewBox="0 0 1350 1350">
  <defs>
    <style>
      .cls-1 {
        fill: url(#Adsız_degrade_8);
      }

      .cls-1, .cls-2, .cls-3, .cls-4, .cls-5, .cls-6, .cls-7, .cls-8, .cls-9, .cls-10, .cls-11, .cls-12, .cls-13, .cls-14 {
        stroke-width: 0px;
      }

      .cls-2 {
        fill: url(#Adsız_degrade_8-13);
      }

      .cls-3 {
        fill: url(#Adsız_degrade_8-14);
      }

      .cls-4 {
        fill: url(#Adsız_degrade_8-12);
      }

      .cls-5 {
        fill: url(#Adsız_degrade_8-10);
      }

      .cls-6 {
        fill: url(#Adsız_degrade_8-11);
      }

      .cls-7 {
        fill: url(#Adsız_degrade_8-6);
      }

      .cls-8 {
        fill: url(#Adsız_degrade_8-7);
      }

      .cls-9 {
        fill: url(#Adsız_degrade_8-2);
      }

      .cls-10 {
        fill: url(#Adsız_degrade_8-9);
      }

      .cls-11 {
        fill: url(#Adsız_degrade_8-3);
      }

      .cls-12 {
        fill: url(#Adsız_degrade_8-8);
      }

      .cls-13 {
        fill: url(#Adsız_degrade_8-5);
      }

      .cls-14 {
        fill: url(#Adsız_degrade_8-4);
      }
    </style>
    <linearGradient id="Adsız_degrade_8" data-name="Adsız degrade 8" x1="1165.1" y1="1768.8" x2="-325.6" y2="278.1" gradientUnits="userSpaceOnUse">
      <stop offset="0" stop-color="#a754cf"/>
      <stop offset=".5" stop-color="#547ccf"/>
      <stop offset="1" stop-color="#54b9cf"/>
    </linearGradient>
    <linearGradient id="Adsız_degrade_8-2" data-name="Adsız degrade 8" x1="362.8" y1="851.9" x2="282.9" y2="772" xlink:href="#Adsız_degrade_8"/>
    <linearGradient id="Adsız_degrade_8-3" data-name="Adsız degrade 8" x1="1568" y1="1365.8" x2="77.4" y2="-124.8" xlink:href="#Adsız_degrade_8"/>
    <linearGradient id="Adsız_degrade_8-4" data-name="Adsız degrade 8" x1="1623" y1="1310.8" x2="132.4" y2="-179.8" xlink:href="#Adsız_degrade_8"/>
    <linearGradient id="Adsız_degrade_8-5" data-name="Adsız degrade 8" x1="1638.5" y1="1295.3" x2="147.9" y2="-195.3" xlink:href="#Adsız_degrade_8"/>
    <linearGradient id="Adsız_degrade_8-6" data-name="Adsız degrade 8" x1="1711.8" y1="1222" x2="221.2" y2="-268.6" xlink:href="#Adsız_degrade_8"/>
    <linearGradient id="Adsız_degrade_8-7" data-name="Adsız degrade 8" x1="1483.3" y1="1450.5" x2="-7.3" y2="-40.1" xlink:href="#Adsız_degrade_8"/>
    <linearGradient id="Adsız_degrade_8-8" data-name="Adsız degrade 8" x1="1542.5" y1="1391.3" x2="51.9" y2="-99.3" xlink:href="#Adsız_degrade_8"/>
    <linearGradient id="Adsız_degrade_8-9" data-name="Adsız degrade 8" x1="1435" y1="1498.8" x2="-55.6" y2="8.2" xlink:href="#Adsız_degrade_8"/>
    <linearGradient id="Adsız_degrade_8-10" data-name="Adsız degrade 8" x1="1213.8" y1="1720" x2="-276.8" y2="229.4" xlink:href="#Adsız_degrade_8"/>
    <linearGradient id="Adsız_degrade_8-11" data-name="Adsız degrade 8" x1="1303.5" y1="1630.3" x2="-187.1" y2="139.7" xlink:href="#Adsız_degrade_8"/>
    <linearGradient id="Adsız_degrade_8-12" data-name="Adsız degrade 8" x1="1382.4" y1="1551.4" x2="-108.2" y2="60.8" xlink:href="#Adsız_degrade_8"/>
    <linearGradient id="Adsız_degrade_8-13" data-name="Adsız degrade 8" x1="1609.6" y1="1324.2" x2="119" y2="-166.4" xlink:href="#Adsız_degrade_8"/>
    <linearGradient id="Adsız_degrade_8-14" data-name="Adsız degrade 8" x1="1679.6" y1="1254.2" x2="189" y2="-236.4" xlink:href="#Adsız_degrade_8"/>
  </defs>
  <path class="cls-1" d="M245.3,772l17.3,16.5c-19.7,21.5-48,32.5-78.6,30.1-25.2-2-47.4-12.8-63.4-30.2l-31.5,18.2c22.1,26.8,54.6,44.6,92,47.6,41.8,3.4,80.6-12.5,107.4-40.9l17.3,16.5,17-17.8-60.5-57.8-17,17.8Z"/>
  <polygon class="cls-9" points="322.8 811.9 322.9 812 322.8 811.9 322.8 811.9"/>
  <rect class="cls-11" x="915.1" y="687.3" width="33" height="84"/>
  <path class="cls-14" d="M1027.2,747.4c-9.1,0-14.2-5.2-14.2-14.9v-116.2h-33v118.1c0,25.1,15.2,38.9,40.8,38.9s11.4-.8,17.1-2.7l-1.5-25.3c-1.9,1-5.7,2.1-9.3,2.1Z"/>
  <rect class="cls-13" x="1056.1" y="687.3" width="33" height="84"/>
  <path class="cls-7" d="M1265.8,657c-17.1,0-31.8,6.9-40.8,18.4-8-12.3-21.5-18.4-37.3-18.4s-27.2,5-35.6,14.7v-13.4h-31v113h33v-56.5c0-20.1,10.2-29.5,24.7-29.5s21.3,8.4,21.3,26.6v59.5h33v-56.5c0-20.1,10.2-29.5,24.8-29.5s21.2,8.4,21.2,26.6v59.5h33v-64.5h0c0-34.3-19.4-49.8-46.3-49.8Z"/>
  <path class="cls-8" d="M750.1,657.3c-18.3,0-36.7,4.8-49.3,13.6l11.9,22.8c8.3-6.5,20.8-10.4,32.9-10.4,17.8,0,26.3,8.1,26.3,22.1h-26.3c-34.8,0-49,14.2-49,33.6s15.9,34,42.7,34,28.7-5.4,34.8-15.7v14h31v-64.1h0c0-34-20.2-49.9-55-49.9ZM772.1,735.8h0c-3.8,10.3-13.2,15.3-24.1,15.3s-18.4-5.5-18.4-13.6,4.8-13.2,20.1-13.2h22.4v11.5Z"/>
  <path class="cls-12" d="M887.3,743.3c-3.8,2.7-8.5,4.2-13.4,4.2-8.9,0-13.8-5.2-13.8-14.9v-44.3h27v-29h-27v-24h-33v97.7c0,26.8,15.3,40.5,42.4,40.5s19.8-2.3,26.6-7.1l-8.8-23.1h0Z"/>
  <path class="cls-10" d="M672.3,743.3c-3.8,2.7-8.5,4.2-13.4,4.2-8.9,0-13.8-5.2-13.8-14.9v-44.3h27v-29h-27v-24h-33v97.7c0,26.8,15.3,40.5,42.4,40.5s19.8-2.3,26.6-7.1l-8.7-23.1h0Z"/>
  <polygon class="cls-5" points="110.1 750.7 110.1 664.4 193.4 616.6 268 659.9 304.6 638.6 192.9 573.9 72.1 643 72.1 750.5 91.3 761.3 110.1 750.7"/>
  <path class="cls-6" d="M388.5,656.3c-36,0-62.8,24.5-62.8,58.4s26.2,58.8,66.6,58.8,37.5-6.3,48.2-18.4l-20.7-21.8h0c-7.8,6.7-15.1,9.8-26.2,9.8s-21.3-4.4-25.8-13.6l81-15.5c-.2-37-27.6-57.8-60.3-57.8ZM364.6,709.3c1.3-16.1,10.5-24.7,24.1-24.7s19.3,6.3,22,15.7l-46.1,9Z"/>
  <polygon class="cls-4" points="551.9 658.3 523.3 727.3 496.2 658.3 455.5 658.3 502 771.3 542.9 771.3 589.6 658.3 589.6 658.3 551.9 658.3"/>
  <path class="cls-2" d="M932.4,628.8c-12.2,0-20.3,8-20.3,18.2h0c0,10.3,8.2,18.2,20.3,18.2s20.3-8,20.3-18.8-8.2-17.6-20.3-17.6Z"/>
  <path class="cls-3" d="M1072.4,628.8c-12.2,0-20.3,8-20.3,18.2h0c0,10.3,8.2,18.2,20.3,18.2s20.3-8,20.3-18.8-8.2-17.6-20.3-17.6Z"/>
</svg>