<?xml version="1.0" encoding="UTF-8"?>
<svg id="katman_1" data-name="katman 1" xmlns="http://www.w3.org/2000/svg" xmlns:xlink="http://www.w3.org/1999/xlink" version="1.1" viewBox="0 0 1350 1350">
  <defs>
    <style>
      .cls-1 {
        fill: #6872cf;
      }

      .cls-1, .cls-2, .cls-3, .cls-4, .cls-5, .cls-6, .cls-7, .cls-8, .cls-9, .cls-10, .cls-11, .cls-12, .cls-13, .cls-14, .cls-15, .cls-16, .cls-17, .cls-18, .cls-19, .cls-20, .cls-21, .cls-22, .cls-23, .cls-24, .cls-25, .cls-26, .cls-27, .cls-28, .cls-29, .cls-30, .cls-31, .cls-32, .cls-33, .cls-34, .cls-35, .cls-36, .cls-37, .cls-38, .cls-39, .cls-40, .cls-41, .cls-42, .cls-43, .cls-44, .cls-45, .cls-46, .cls-47, .cls-48, .cls-49, .cls-50, .cls-51, .cls-52, .cls-53, .cls-54, .cls-55, .cls-56, .cls-57, .cls-58, .cls-59, .cls-60, .cls-61, .cls-62, .cls-63, .cls-64, .cls-65, .cls-66, .cls-67, .cls-68, .cls-69, .cls-70, .cls-71, .cls-72, .cls-73, .cls-74, .cls-75, .cls-76, .cls-77, .cls-78, .cls-79, .cls-80 {
        stroke-width: 0px;
      }

      .cls-2 {
        fill: #597acf;
      }

      .cls-3 {
        fill: #8963cf;
      }

      .cls-4 {
        fill: #6b71cf;
      }

      .cls-5 {
        fill: #706ecf;
      }

      .cls-6 {
        fill: #5486cf;
      }

      .cls-7 {
        fill: #726dcf;
      }

      .cls-8 {
        fill: #5492cf;
      }

      .cls-9 {
        fill: #587acf;
      }

      .cls-10 {
        fill: #7c68cf;
      }

      .cls-81 {
        clip-path: url(#clippath);
      }

      .cls-11 {
        fill: #5489cf;
      }

      .cls-12 {
        fill: none;
      }

      .cls-13 {
        fill: #5484cf;
      }

      .cls-14 {
        fill: #5f77cf;
      }

      .cls-15 {
        fill: #5480cf;
      }

      .cls-16 {
        fill: #796acf;
      }

      .cls-17 {
        fill: #5c78cf;
      }

      .cls-18 {
        fill: #8366cf;
      }

      .cls-19 {
        fill: #6d70cf;
      }

      .cls-20 {
        fill: #6a71cf;
      }

      .cls-21 {
        fill: #736dcf;
      }

      .cls-22 {
        fill: #6773cf;
      }

      .cls-23 {
        fill: #8167cf;
      }

      .cls-24 {
        fill: #8067cf;
      }

      .cls-25 {
        fill: #548bcf;
      }

      .cls-26 {
        fill: #7b69cf;
      }

      .cls-27 {
        fill: #567bcf;
      }

      .cls-28 {
        fill: #716ecf;
      }

      .cls-29 {
        fill: #7f68cf;
      }

      .cls-30 {
        fill: #5491cf;
      }

      .cls-31 {
        fill: #547ccf;
      }

      .cls-32 {
        fill: #5481cf;
      }

      .cls-33 {
        fill: #8565cf;
      }

      .cls-82 {
        clip-path: url(#clippath-1);
      }

      .cls-83 {
        clip-path: url(#clippath-4);
      }

      .cls-84 {
        clip-path: url(#clippath-3);
      }

      .cls-85 {
        clip-path: url(#clippath-2);
      }

      .cls-86 {
        clip-path: url(#clippath-7);
      }

      .cls-87 {
        clip-path: url(#clippath-8);
      }

      .cls-88 {
        clip-path: url(#clippath-6);
      }

      .cls-89 {
        clip-path: url(#clippath-5);
      }

      .cls-90 {
        clip-path: url(#clippath-9);
      }

      .cls-34 {
        fill: #5b79cf;
      }

      .cls-35 {
        fill: #5495cf;
      }

      .cls-36 {
        fill: #547ecf;
      }

      .cls-37 {
        fill: #548dcf;
      }

      .cls-38 {
        fill: #6375cf;
      }

      .cls-91 {
        clip-path: url(#clippath-12);
      }

      .cls-92 {
        clip-path: url(#clippath-10);
      }

      .cls-93 {
        clip-path: url(#clippath-11);
      }

      .cls-39 {
        fill: #547fcf;
      }

      .cls-40 {
        fill: #6176cf;
      }

      .cls-41 {
        fill: #8863cf;
      }

      .cls-42 {
        fill: #548acf;
      }

      .cls-43 {
        fill: #6972cf;
      }

      .cls-44 {
        fill: #6275cf;
      }

      .cls-45 {
        fill: #786acf;
      }

      .cls-46 {
        fill: #8764cf;
      }

      .cls-47 {
        fill: #8465cf;
      }

      .cls-48 {
        fill: #7d68cf;
      }

      .cls-49 {
        fill: #6f6fcf;
      }

      .cls-50 {
        fill: #5494cf;
      }

      .cls-51 {
        fill: #6474cf;
      }

      .cls-52 {
        fill: #5e77cf;
      }

      .cls-53 {
        fill: #548ccf;
      }

      .cls-54 {
        fill: #5490cf;
      }

      .cls-55 {
        fill: #5488cf;
      }

      .cls-56 {
        fill: #8266cf;
      }

      .cls-57 {
        fill: #756ccf;
      }

      .cls-58 {
        fill: #5483cf;
      }

      .cls-59 {
        fill: #5493cf;
      }

      .cls-60 {
        fill: #548fcf;
      }

      .cls-61 {
        fill: #548ecf;
      }

      .cls-62 {
        fill: #7a69cf;
      }

      .cls-63 {
        fill: #5a79cf;
      }

      .cls-64 {
        fill: #8a62cf;
      }

      .cls-65 {
        fill: #6e6fcf;
      }

      .cls-66 {
        fill: #6c70cf;
      }

      .cls-67 {
        fill: #766bcf;
      }

      .cls-68 {
        fill: #577bcf;
      }

      .cls-69 {
        fill: #6673cf;
      }

      .cls-70 {
        fill: #547dcf;
      }

      .cls-71 {
        fill: #5d78cf;
      }

      .cls-72 {
        fill: #557ccf;
      }

      .cls-73 {
        fill: #5482cf;
      }

      .cls-74 {
        fill: #746ccf;
      }

      .cls-75 {
        fill: #8664cf;
      }

      .cls-76 {
        fill: #6076cf;
      }

      .cls-77 {
        fill: #6574cf;
      }

      .cls-78 {
        fill: #5485cf;
      }

      .cls-79 {
        fill: #776bcf;
      }

      .cls-80 {
        fill: #5487cf;
      }
    </style>
    <clipPath id="clippath">
      <path class="cls-12" d="M1119.7,807.1c6.1.3,12.3.5,18.4,0,8.3-.5,12.6-4.3,14.1-12.5.4-2.4.4-4.8.4-7.1-.2-7.8-.6-15.5-.6-23.3v-46.7c0-10.8-.2-21.6.3-32.4.3-6.5.4-13,.2-19.6-.3-9.1-4.5-14-13.2-15.7-2.3-.4-4.7-.7-7.1-.8-10.4-.3-20.8-.9-31.2-1.4-13.4-.7-26.8-1.4-40.2-2.3-12.6-.8-25.3-1.6-37.9-2.2-15-.8-30.1-1.6-45.1-2.2-15.4-.6-30.8-1.1-46.3-1.5-18.4-.5-36.9-1-55.3-1.5-12.3-.3-24.6-.2-36.9-.7-14.9-.6-29.9-.5-44.8-.7-40.4-.4-80.9-.6-121.3-.5-34.2,0-68.3-.2-102.4.8-13.8.4-27.6.3-41.4.7-22.8.5-45.7.9-68.5,1.7-6.6.2-13.3.4-19.9.6-15.4.5-30.8.9-46.3,1.7-8.3.4-16.6.6-24.8,1.1-4.5.3-9,.5-13.5.7-15.4.8-30.7,2.5-46.1,2.1-.9,0-1.8,0-2.6.2-6.1,1.8-12.4,1.4-18.7,1.8-13.8.9-27.6,1.3-41.4,1.8-2.8,0-5.5.4-8.2.8-8.4,1.4-12.7,6.3-13.2,14.8-.2,3-.1,6-.1,9,.2,13.8.5,27.6.7,41.4.3,21.7-.2,43.4-.7,65.1,0,5-.7,10,0,15,1,6.7,4.3,10.7,10.8,11.8,2.6.4,5.2.9,7.9.7,9.1-.6,18.3-.6,27.4-1.2,9.4-.6,18.8-.9,28.2-1.5,14.2-.9,28.3-1.6,42.5-2.3,9.5-.5,19-1.1,28.5-1.4,15.4-.6,30.8-1.2,46.3-1.5,18.5-.3,37.1,0,55.7,0,91.8,0,183.6,0,275.4,0h111.5c19.1,0,38.1-.5,57.2.5,3.5.2,7-.3,10.5-.4,16.9-.3,33.9,0,50.8.5,9.8.3,19.6.5,29.3,1,12.3.6,24.5,1.3,36.8,2,8.1.5,16.3,1,24.4,1.4,16.9.8,33.8,1.7,50.7,2.4h-.3ZM319.4,684.8c-.4,7.1-5.9,12.8-13,13.3-7.8.5-15.5.9-23.3,1.4-2.8.2-2.9.2-2.9,3v14.7c0,1.9,0,2.6,1,2.8h2c9.1-.4,18.3-1,27.4-1.4h1.9c.7,0,.4,0,.6,0,.5.2.8.6.8,1.3,0,4.2.5,8.5-.7,12.7-1.6,5.6-6,8.8-12,9.1-5.8.2-11.5.5-17.3.9-3,.2-3.1.2-3.1,3.4v33.9q0,3.2-3.3,3.4c-3.8.2-7.5.7-11.3.6-1.3,0-2.4-.2-3.5-.4-4.6-1.1-7.4-4.4-8.5-9.8-.3-1.7-.5-3.5-.5-5.2v-71.6c0-3.2.4-6.2,1.3-9.3,1.5-4.9,4.6-8.2,9.3-10.2,2.8-1.2,5.8-1.7,8.8-1.9,11-.6,22-1.1,33.1-1.7,3.4-.2,6.8-.5,10.1-.6h1.9c.9.2,1,.8,1,2.9s.1,5.8,0,8.7h.2ZM408.9,775.9c-3.7,1.4-7.4,2.2-11.2,2.3-2.3,0-4.6-.2-6.9-.6-5.1-1-8.6-4.5-10.7-9.2-2.3-5.3-4.4-10.7-6.6-16-1.1-2.7-2.2-5.3-3.7-7.8-2.8-4.9-7.6-5.2-12.4-5.5h-.5c-.1,0-.2,0-.3.2,0,0-.1.2-.2.3h0v.4h0v35.5c0,3.6,0,3.9-2.1,3.9h-1.8c-2.3,0-4.5.4-6.7.4h-2.3c-9.4-1-12.8-7.8-13.3-14.2-.1-1.1,0-2.3,0-3.4v-82c0-4.1,0-4.2,3.7-5.2,3-.9,6.1-1.7,9.1-2.3,5.8-1.3,11.7-2.1,17.7-2.3h.5c3.4,0,6.7-.4,10.1-.4s4,0,6.1.3c12.9,1.7,23.6,9.4,26.2,22.7,2.1,11,0,21.2-7,30.1-2.3,2.9-5.3,5-9.1,6.8,3.8,2.5,6.1,5.6,7.7,9.2,2.6,6,5.2,11.9,7.8,17.9,2.3,5.3,4.7,10.5,7.4,15.6,1.1,2.1,1,2.5-1.2,3.3h-.3ZM492.8,679.3c-.8,2.8-2,5.1-3.6,6.9-2.4,2.7-5.8,4.2-10.2,4.4-7.9.4-15.8.5-23.7.8-1.4,0-2.8,0-4.1,0-1.3,0-2,0-2.4.5s-.4,1-.5,2.3c-.3,4.5-.6,9-.7,13.5,0,2.6.4,3,2.7,2.8,6.8-.7,13.5-.3,20.3-.6,3.8-.2,7.5-.3,11.3-.5,2,0,2.7.6,2.6,2.5-.1,2.5-.2,5,0,7.5.2,3.6-.8,6.9-3,9.2-2.2,2.4-5.5,3.9-9.7,4.1-6,.3-12,.5-18,.7h-3.8c-.8,0-1.5,0-1.9.4s-.6,1-.5,1.9c.1,2.5,0,5,.4,7.5,1.1,7.2,5.3,9.4,11,9.6,10.8.4,21.6,0,32.1-3,.6-.2,1.2-.3,2.3-.6,0,4.8.2,9.2,0,13.5-.2,3.4-1.5,6.2-3.7,8.3-1.3,1.3-2.9,2.3-4.9,3.1-2.6,1.1-5.2,1.8-8,2-6.9.5-13.8,1-20.7.8-3.9,0-7.7-.7-11.5-1.8-11.4-3.4-17.9-11.5-21.1-22.6-1.7-5.8-2.3-11.8-2.3-17.8,0-8.9-.2-17.8.1-26.7.2-8.1.5-16.3,2-24.3.9-4.5,2.5-8,4.9-10.6,3.1-3.3,7.6-5,13.6-5.2,12.8-.4,25.6-.7,38.4-1,3.6,0,7.3-.3,10.9-.5,1.8,0,2.5.6,2.4,2.4-.2,3.5.3,7-.7,10.5h0ZM579,742.1c-.3,4.8-1.4,9.4-3.5,13.8-3.9,8.1-10.3,13.5-18.7,16.5-10.7,3.8-21.6,4.3-32.6,1.6-5.3-1.3-10-3.8-13.5-8.4-.3-.3-.5-.7-.7-1-1.6-2.4-2.7-5.1-3-7.9-.6-4.8-.4-9.7-.2-14.5,1.3-.5,1.8.5,2.4,1,6.2,5.1,13.5,7.4,21.4,8.3,5.2.6,10.3.5,15.3-.9,5.5-1.6,8.1-6.7,6.4-12.2-.2-.7-.5-1.3-.9-1.9-1.1-1.6-2.7-2.6-4.6-3.4-4-1.8-8.4-2.6-12.6-3.6-5.9-1.3-11.7-2.7-17.1-5.7-3.8-2.1-6.6-4.7-8.7-7.8s-3.4-6.8-4-11.1c-2.7-19.3,10.4-37,30-41,9.1-1.8,18.2-1.8,27,1.5,5,1.8,9.2,4.7,12,9.2,1.4,2.3,2.6,4.7,2.7,7.4,0,4.6,0,9.2,0,14.8-5-4.7-10.1-7.4-16-8.8-6.8-1.7-13.7-2-20.5-.5-4.2.9-7.9,2.6-9,7.4-.5,2.3-.4,4.2.5,5.7.7,1.2,1.8,2.1,3.5,3,4,2.1,8.5,3.1,12.9,4,4.4,1,8.8,2,13,3.7,6.4,2.6,10.9,6,13.8,10.3,3.8,5.5,5.1,12.3,4.5,20.4h.2ZM677.7,723.6h0v46.3c0,1.2-.5,1.9-1.8,1.9-3.9,0-7.8.2-11.7,0-5.2-.5-9.7-4.2-11.7-9.1-.5-1.1-.8-2.3-1-3.5-.5-3.1-.6-6.2-.5-9.4v-18.8c0-1.2,0-1.8-.3-2.2-.3-.5-1-.5-2.5-.5h-24.8q-3.3,0-3.3,3.4v35.8c0,12,0,1.8,0,2.6,0,1.4-.5,2.2-1.9,2.2-4.4,0-8.8.6-13.1-.5-4.4-1.1-7.5-3.7-9.3-7.4-.6-1.2-1.1-2.6-1.4-4-.5-1.9-.6-3.9-.6-6v-85.5c0-12.6,0-1.5,0-2.3,0-1.5.5-2.4,2.2-2.3,4.1,0,8.3-.3,12.4,0,3.7.3,6.9,2.1,9,4.9,1.6,2.2,2.6,5,2.6,8.1,0,7.4,0,14.8,0,22.2s0,3.5.3,4.1c.5.8,1.6.6,4.7.6,7.7,0,15.3,0,23-.2,3,0,3.1,0,3.1-3.2v-35c0-1.5.7-2,2.1-2,4.1,0,8.3,0,12.4,0,4,.2,7.7,2.7,9.9,6.1.7,1.2,1.3,2.4,1.6,3.8.5,1.9.7,3.9.7,6v44ZM794.2,675.4v1.5c-.8,7.2-6,12-13.5,12s-15.3,0-23-.2c-2.5,0-2.6,0-2.6,2.4v15c0,3.1,0,3.2,3.1,3.2,8.8,0,17.6,0,26.4.2h2.6c.9,0,1.5.5,1.6,1.3v.2h0v6.3c0,2.1-.2,4.1-.7,6.2-1.3,4.9-5.9,8.7-11,8.5-6.1-.3-12.3-.2-18.5-.2s-2.9,0-2.9,2.4v33.3c0,11,0,0,0,0v2.7c0,1.3-.7,1.8-1.9,1.8-4.6,0-9.3,0-13.9-.3-5.4-.5-9.5-4.5-10.5-9.8-.4-2-.6-4-.6-6v-71.5c0-2.8.3-5.5,1-8.2,2-7.6,7.5-11.8,16.2-12,7.5-.2,15.1,0,22.2,0,8.1.2,15.7.4,23.4.6,2.7,0,2.7,0,2.8,2.7v7.9h-.2ZM884.6,772.9c-7.8,2.5-15.5,3.2-22.9-1-3.2-1.8-5.2-4.7-6.7-7.9-.2-.5-.4-.9-.6-1.4-2.5-6.3-5-12.6-7.6-18.8-.3-.7-.6-1.4-.9-2-.3-.7-.7-1.3-1-2-2-3.8-5.2-5.7-9.3-6.3-1.3-.2-2.7-.3-4.1-.4-.9,1.2-.5,2.5-.5,3.7v32c0,5.2.4,4.5-4.7,4.5s-5,0-7.5-.3c-3.7-.6-6.7-2-9-4-2.9-2.6-4.7-6.4-5.1-11.2,0-1.2,0-2.5,0-3.8v-81.7c0-4.1,0-4.2,3.8-5,10.4-2.2,21-3.6,31.7-2.7,5,.4,10,.3,14.9,1.6,9.9,2.7,17.9,9.5,21.6,18.8,1.9,4.9,2.7,10.5,1.9,16.6s-2.7,11.7-6.5,16.6c-2.5,3.2-5.5,5.8-10,7.5,3.5,2.7,5.6,5.9,7.3,9.3.8,1.5,1.4,3.1,2.1,4.7,3.5,8.2,6.6,16.5,10.4,24.6,1,2.1,2.1,4.3,3.3,6.3,0,0,0,.3.2.4.4.9.2,1.6-.9,2h0ZM982.8,732c0,7.8-1.2,15.5-4.3,22.8-.3.8-.7,1.5-1,2.2-5.3,10.9-13.9,17.9-26.1,20.5-12.2,2.6-24,1.3-34.7-5.7-9.7-6.4-15.2-15.8-18-26.9-1.2-4.6-1.7-9.4-1.7-14.2v-60.2c0-1.5,0-2.4.3-2.9.4-.6,1.3-.6,3.2-.6s3.8,0,5.7,0c10.5-.2,15.1,6,16.5,14.5.5,3,.7,6,.7,9v40.3c0,4.2.3,8.3,1.6,12.3,2.9,9.5,14.9,14.4,23.6,9.5,2.2-1.2,3.8-3.1,4.9-5.3.4-.7.7-1.5,1-2.3,1.7-4.8,2-9.8,2-14.8v-58c0-.8.2-1.5.5-2,.5-.8,1.4-1.3,2.8-1.2,2.4,0,4.8.2,7.2.2,9.6,0,14.2,5.6,15.4,13.8.4,2.8.6,5.7.6,8.6v40.3h-.2ZM1028.3,687.4v90.6c0,1.4-.6,2.1-2,1.9-4.1-.6-8.3-.3-12.4-.7-5.2-.5-9.6-4.9-11.1-10.9-.6-2.3-.9-4.7-.9-7.1v-88.5c0-1.3.7-1.9,2.3-1.8,4.5.3,9,.3,13.5.8,5.2.6,9.9,6.3,10.5,12.3v3.4h.1ZM1068,764.7v-62.5c0-2.7,0-2.6-2.6-3-3.5-.5-7-.4-10.5-.6-4.1-.2-8.3-.5-12.4-.7-1.2,0-1.9-.4-1.9-1.7,0-3.9-.4-7.8.4-11.6,1.4-6.4,6.6-10.8,13.1-10.7,7.6,0,15.3.6,22.9,1,6.1.3,12.3.8,18.4,1.2,8,.5,16,.9,24,1.4,2.9.2,2.9.3,2.9,3v6.8c0,8.1-6.6,14.5-14.8,14.3h-3.1c-2,0-4.1-.3-6.1-.4h-1.9c-2.1,0-2.1.4-2.1,3.1v77.1c0,1.2-.4,1.9-1.5,2h-.5c-4.4,0-8.8-.2-13.1-1-6-1.1-10.4-6-11-12.2-.2-1.7-.2-3.5-.2-5.3v-.2Z"/>
    </clipPath>
    <clipPath id="clippath-1">
      <path class="cls-12" d="M321.5,861c.3-8.3-.6-16.5-2-24.7-2.1-12.3-8.2-15.2-17.6-14.7-9.4.6-18.8,1-28.2,1.3-17.3.6-34.6,1.9-51.9,3-6.3.4-10.6-2.4-12.5-8.4-1-3.2-1-6.4-.9-9.7.2-6.4,1-12.8.7-19.2-.6-10.8-.7-21.6-.5-32.4,0-2.6,0-5.3-.7-7.8-1.2-4.1-3.7-6.3-8-6.9-3.1-.4-6.3,0-9.4.3-15.2,1.9-30.4,3.9-45.6,5.7-15.8,1.9-31.6,3.6-47.5,5.6-3.1.4-6.2.2-9.2,1.4,0,.8.5,1.2,1,1.7,15.2,16.1,29.8,32.6,45.8,47.9,1.1,1,2.1,2.1,3.1,3.2,5.7,6.6,6.5,12.6,2.6,20.5-.5,1-1,2-1.6,3-12.4,19.5-23,40-34.3,60.2-.4.7-1.1,1.4-1,2.7,2.1.3,4.1,0,6.1-.3,6.6-.6,13.2-1.2,19.9-1.8,12.6-1.1,25.2-2.2,37.9-3.4,12.7-1.1,25.5-2.3,38.2-3.5,12.6-1.1,25.2-2.3,37.9-3.5,12.2-1.1,24.5-2.2,36.7-3.3,10.1-.9,20.2-1.9,30.3-2.9,2.4-.2,4.7-.9,6.9-1.6,3-1,3.9-2.6,3.7-5.7-.1-2.2-.3-4.5-.2-6.8h.3Z"/>
    </clipPath>
    <clipPath id="clippath-2">
      <path class="cls-12" d="M1288.5,838.6h0Z"/>
    </clipPath>
    <clipPath id="clippath-3">
      <path class="cls-12" d="M1248.1,749.3c-18.7-2.2-37.3-4.6-55.9-7.3-4.1-.6-8.3-.9-12.4-.3-4.8.7-9,2.5-10.4,7.8-.9,3.4-1.2,6.9-1,10.4.2,4.5.5,9,.6,13.5.3,13-.6,26.1.2,39.1,0,2.1-.2,4.2-.7,6.3-1.1,3.9-3.6,6.2-7.5,7.1-3.3.8-6.7.6-10.1.3-7.9-.7-15.8-1.4-23.6-1.8-13.9-.8-27.8-1.6-41.7-2.1-5.7-.2-11.4-1.5-17.2-.5-5.1,1-7.9,3.8-8.3,9,0,1.9-.2,3.8-.4,5.6-.6,5.9-1.3,11.7-1.8,17.6-.4,4.3,0,8.5,1.7,12.6,1.1,2.9,2.9,4.9,5.6,6.3,1.9,1,4,1.4,6.1,1.9,3.2.9,6.5.8,9.7,1.1,13.1,1.5,26.2,2.8,39.3,4.2,11.7,1.2,23.5,2.2,35.2,3.3,13.1,1.2,26.2,2.3,39.3,3.5,9.7.8,19.5,1.7,29.2,2.5,13.2,1.2,26.5,2.4,39.7,3.5,3.2.3,6.4,1,9.7.7.3-.9-.3-1.5-.7-2.1-11.2-19.9-21.9-40-33.8-59.5-1.4-2.4-2.7-4.8-3.6-7.4-1.5-5-1.1-9.6,1.7-14.1,1.4-2.1,3-4,4.8-5.8,11.6-11.1,22.3-23.1,33.2-34.9,4.6-5,9.1-10,14-15.3-1.2-.3-1.8-.5-2.4-.6-12.8-1.6-25.6-3.2-38.5-4.7h0Z"/>
    </clipPath>
    <clipPath id="clippath-4">
      <path class="cls-12" d="M393.8,578.9h0Z"/>
    </clipPath>
    <clipPath id="clippath-5">
      <path class="cls-12" d="M614.5,907.8c-1.8,0-2.5.9-2.4,2.6,0,2.3.6,3,2.7,3h23.3c2.5,0,3-.5,3-2.8s-.5-2.7-2.9-2.8h-3.4c-1.6,0-2.2-.6-2.2-2.2,0-7.2-.3-14.3-.4-21.4,0-.8,0-1.4,1-1.8,5.7-2.2,13.7.4,17,5.6,1.7,2.7,2.9,5.6,3.9,8.5,1,3.1,2.2,6.2,3,9.3,1.7,6.1,5.7,8.9,11.9,8.8h3.4c1.5-.2,3-.3,4.4-.8,1.7-.5,2-2,2-3.7s-.8-2.5-2.5-2.6c-2.8-.2-4.5-1.9-5.9-4.2-2.2-3.5-3.7-7.4-5.6-11.1-2.9-5.6-5.9-11.2-12.8-13.9,4.6-1.8,8.3-3.3,11.3-6.1,6-5.4,7.5-12.2,5.8-19.9-1.5-7-6.5-10.4-13-12.1-3.3-.9-6.6-1.4-10-1.6-9.9-.5-19.8-.2-29.7-.3h-1.5c-1.5,0-2.2.9-2.2,2.4,0,2.5.6,3.2,3.3,3.2s3.5-.3,3.9,3.7c0,1.1,0,2.2.2,3.4.2,16.9.2,33.9,0,50.8,0,1.7.4,3.7-.6,5.1-1,1.4-3,.5-4.6.6l-.3.3ZM632.1,869.9c0-6.6,0-13.3.3-19.9,0-2.8.2-2.8,3-3.1,4.2-.5,8.3-.2,12.2,1.2,5.7,2.1,8.5,6.9,8.4,13.7,0,5.8-3,9.7-8.8,11.7-3.2,1.1-6.6,1.5-10,1.5-6.1,0-5.2.8-5.2-5.1h0Z"/>
    </clipPath>
    <clipPath id="clippath-6">
      <path class="cls-12" d="M710.6,907.9h-.4c-1.7,0-2.5.8-2.5,2.5s.6,3.1,2.6,3.1h21.5c2.4,0,3-.7,3-2.8s-.5-2.7-2.9-2.8h-1.1c-2,.3-2.6-.7-2.6-2.6,0-3.8,0-7.5-.4-11.3-.3-3.9.5-7.1,3.5-9.8,1.8-1.6,3.1-3.6,4.7-5.4.5-.6.8-1.6,2.3-1.3,5.3,9.6,10.9,19.3,15.9,29.2,2.9,5.7,7,8.2,13.2,8,2,0,4,0,6-.7,2-.5,2.3-2.1,2.2-3.8,0-1.6-.6-2.5-2.3-2.7-2.4-.3-3.9-2-5.4-3.8-3.4-4.2-6.3-8.8-9.2-13.3-4.5-6.9-9-13.9-13.5-21,7.1-7.5,14.2-14.8,21.2-22.2,1.7-1.8,3.1-3.5,6-3.1,1.8.3,2.3-1.1,2.3-2.7s-.6-2.9-2.5-2.9h-17.7c-2.6,0-3.3,1.1-2.8,3.6.3,1.5,1,2.2,2.6,2,.7,0,1.5-.3,2,.9-8.4,10.7-17.9,20.7-27.3,30.7-.3,0-.6-.3-.8-.4v-9.7c0-6.3.3-12.5.4-18.8,0-3.1.5-3,3-2.8h.8c2.2,0,2.9-.7,2.9-2.5s-.6-3.1-3-3.1h-20.7c-6.9,0-1,0-1.5,0-1.2,0-1.7.8-1.9,2-.3,2.7.5,3.5,3.2,3.6h1.1q2.9,0,3.1,2.8c0,1.2.2,2.5.2,3.8.2,17.4.2,34.9,0,52.3,0,4.4-.2,4.4-4.8,4.7l-.3.3Z"/>
    </clipPath>
    <clipPath id="clippath-7">
      <path class="cls-12" d="M532.5,847c0-2.7,0-2.7,2.7-2.8h1.1c1.8,0,2.4-1,2.3-2.7,0-2.2-.5-2.9-2.4-3h-20c-1.8,0-2.5,1.1-2.3,2.8.2,1.5.2,2.9,2.5,2.9s3.2.2,3.2,3.4v22.6h.2v20.3c0,4,.5,8,1.5,11.9,1.4,5.2,4.5,8.9,9.9,10.4,9.8,2.7,19.6,2.5,29.2-1.2,5.8-2.3,9.7-6.5,11.6-12.5,1.2-3.7,1.9-7.5,2.1-11.4.7-13.3,0-26.6.5-39.9,0-3.4,0-3.4,3.4-3.6,2.5-.2,3-.5,2.9-2.8,0-2.5-.4-2.8-3.2-2.9h-17.3c-5.8,0-1.3,0-1.9,0-1.2,0-1.7.8-1.8,2-.3,2.7.4,3.6,3.3,3.6s3.6-.3,3.6,3.8c0,11.9.2,23.8.2,35.8s0,8-1,12c-.7,2.8-1.6,5.6-3.8,7.6-5.2,4.6-16.7,4.3-21.7-.5-1.4-1.3-2.4-2.9-3-4.7-1-2.9-1.5-5.8-1.7-8.8-.5-9.3-.2-18.6-.2-27.8s0-9.5.2-14.3v-.3Z"/>
    </clipPath>
    <clipPath id="clippath-8">
      <path class="cls-12" d="M826.3,845.6c9.7,0,19.3.4,28.7,3.3,3,.9,3.3.8,4.2-2.2.3-1,.5-2,.5-3,.3-4-.6-5-4.5-5.2h-47.5c-2.3,0-2.9.7-2.9,2.5s.6,3,3,3.1h1.5c1.4,0,2.1.5,2,2v1.5c.6,16.9.4,33.9.2,50.8,0,2.5-.2,5-.2,7.5s-.5,1.9-1.8,1.8h-1.9c-2.4.2-2.9.6-2.9,2.5s.5,3.1,3,3.1h27.1c6.9,0,13.8,0,20.7,0,4.8,0,6.2-2.1,5.4-6.8,0-.7-.4-1.4-.6-2.2-.4-1.3-1.1-1.9-2.5-1.4-9.8,3.3-20,3.3-30.1,3.3s-3.6,0-3.6-3.5c0-7.5,0-15,0-22.6s0-2.9,2.9-2.9h22.6c3.7,0,4.2-.6,3.8-4.1-.2-2.6-.5-2.8-3.3-2.9h-23.7c-1.4,0-2.4-.2-2.4-2,0-6.9.2-13.8.2-20.7s.6-2,2-2l.2.2Z"/>
    </clipPath>
    <clipPath id="clippath-9">
      <path class="cls-12" d="M955.2,838.5h-18.1c-2.2,0-2.7.7-2.7,2.7s.5,2.7,2.8,2.9c.7,0,1.5-.2,2.1.4-.6,5.6-10.5,31.6-14,36.3-5.9-11.9-11-23.9-15.5-36.1.7-.7,1.4-.5,2-.6,2.5-.2,3.2-.8,3.1-2.7,0-2.2-.7-3-3.2-3h-18.5c-.8,0-1.5,0-2.2.2-1.6.4-1.6,1.8-1.5,3,0,1.1.2,2.6,1.8,2.4,2.9-.5,3.9,1.4,5,3.5,7.2,13.5,14,27.2,20.9,40.8.6,1.1.9,2.3.9,3.6,0,4.1,0,8.3-.3,12.4,0,3.3-.2,3.3-3.4,3.4h-3c-1.8,0-2.3,1.1-2.2,2.8,0,2.1.6,2.8,2.5,2.8h24.9c2.4,0,3-.7,3-2.8s-.5-2.8-2.9-2.8h-3.4c-2,.2-2.6-.7-2.6-2.6,0-4.6-.2-9.3-.4-13.9,0-1.4.3-2.7.9-4,6.5-13.3,13-26.6,19.5-39.8,1-2,1.9-3.7,4.7-3.4,1.9.2,2-1.4,2-2.9s-.3-2.7-2.3-2.7h.1Z"/>
    </clipPath>
    <clipPath id="clippath-10">
      <path class="cls-12" d="M480.4,838.5c-11.8,0-23.6,0-35.4,0-6.6,0-13.3-.3-19.9-1.5-5.1-.9-5.3-.8-6,4.4v.4c-.3,3.4.7,4.7,4.2,4.6,5.9,0,11.8-.3,17.7-.6,5-.2,4.5-.7,4.6,4.2.5,17.3.4,34.6,0,51.9,0,1.7.3,3.8-.6,5.1-1.1,1.7-3.5.4-5.3.7h-.4c-2.1.2-2.6.8-2.5,2.9,0,2.1.6,2.7,2.6,2.7h24.9c2.1,0,2.7-.7,2.7-2.7s-.5-2.8-2.9-2.9h-2.3c-2.2,0-3.3-1.1-3.5-3.2v-.8c-.5-15.7-.3-31.3-.3-47s0-7.3.6-10.9c.4,0,.8-.3,1.1-.3,7.5,0,15,.6,22.2,3.2,2,.7,2.8,0,3.3-1.6.2-.5.4-.9.5-1.4,1.5-5.7.4-7.5-5.5-7.4l.2.2Z"/>
    </clipPath>
    <clipPath id="clippath-11">
      <path class="cls-12" d="M843.5,712.1c2.8-.3,5.2-1.9,6.7-4.3,3.2-5.2,3.1-10.4.3-15.7-.8-1.6-2.1-2.6-3.6-3.3-.5-.2-1.1-.4-1.6-.6-2.3-.6-4.7-.7-7.1-.7s-3.2,0-4.9.2c-1.6,0-2.4.9-2.4,2.6v19.1c0,1.2.4,1.8,1.2,2.2.3,0,.6.2.9.2,3.5.5,7,.7,10.5.2h0Z"/>
    </clipPath>
    <clipPath id="clippath-12">
      <path class="cls-12" d="M375.3,712.8c2.2-3.2,2.5-6.8,2.2-10.4-.5-6.1-4.2-9.6-10.4-9.4h-.8c-2.3,0-4.7.4-7,.6h-.4c-2.1,0-2.7,1.2-2.7,3.2.1,3,0,6,0,9v9.4c0,1.7.4,2.6,2.3,2.5h.4c2.7,0,5.3,0,8,0h.2c3.4-.2,6.1-1.9,8.1-4.7h0Z"/>
    </clipPath>
  </defs>
  <g class="cls-81">
    <g>
      <polygon class="cls-45" points="1122.2 783.2 1122.5 783 1122.5 783.2 1122.2 783.2"/>
      <polygon class="cls-79" points="1106.6 783.2 1122.5 767.3 1122.5 783 1122.2 783.2 1106.6 783.2"/>
      <polygon class="cls-67" points="1091 783.2 1122.5 751.7 1122.5 767.3 1106.6 783.2 1091 783.2"/>
      <polygon class="cls-57" points="1075.3 783.2 1122.5 736 1122.5 751.7 1091 783.2 1075.3 783.2"/>
      <polygon class="cls-74" points="1072.4 783.2 1066 776.8 1122.5 720.4 1122.5 736 1075.3 783.2 1072.4 783.2"/>
      <polygon class="cls-21" points="1066 776.8 1058.2 769 1122.5 704.7 1122.5 720.4 1066 776.8"/>
      <polygon class="cls-7" points="1058.2 769 1050.4 761.2 1122.5 689.1 1122.5 704.7 1058.2 769"/>
      <polygon class="cls-28" points="1050.4 761.2 1042.6 753.4 1121.7 674.2 1122.5 674.9 1122.5 689.1 1050.4 761.2"/>
      <polygon class="cls-5" points="1042.6 753.4 1040.2 751 1040.2 740.1 1106.5 673.8 1121.3 673.8 1121.7 674.2 1042.6 753.4"/>
      <polygon class="cls-49" points="1040.2 724.5 1090.8 673.8 1106.5 673.8 1040.2 740.1 1040.2 724.5"/>
      <polygon class="cls-65" points="1040.2 708.8 1075.2 673.8 1090.8 673.8 1040.2 724.5 1040.2 708.8"/>
      <polygon class="cls-19" points="1040.2 693.2 1059.5 673.8 1075.2 673.8 1040.2 708.8 1040.2 693.2"/>
      <polygon class="cls-66" points="1040.2 677.5 1043.9 673.8 1059.5 673.8 1040.2 693.2 1040.2 677.5"/>
      <polygon class="cls-4" points="1043.9 673.8 1040.2 677.5 1040.2 673.8 1043.9 673.8"/>
      <polygon class="cls-28" points="1015.8 780.1 1028.4 767.6 1028.4 780.1 1015.8 780.1"/>
      <polygon class="cls-5" points="1007.2 780.1 1003.7 776.6 1028.4 751.9 1028.4 767.6 1015.8 780.1 1007.2 780.1"/>
      <polygon class="cls-49" points="1003.7 776.6 1001.9 774.9 1001.9 762.7 1028.4 736.3 1028.4 751.9 1003.7 776.6"/>
      <polygon class="cls-65" points="1001.9 747.1 1028.4 720.6 1028.4 736.3 1001.9 762.7 1001.9 747.1"/>
      <polygon class="cls-19" points="1001.9 731.4 1028.4 705 1028.4 720.6 1001.9 747.1 1001.9 731.4"/>
      <polygon class="cls-66" points="1001.9 715.8 1028.4 689.3 1028.4 705 1001.9 731.4 1001.9 715.8"/>
      <polygon class="cls-4" points="1001.9 700.1 1027.8 674.3 1028.4 674.8 1028.4 689.3 1001.9 715.8 1001.9 700.1"/>
      <polygon class="cls-20" points="1001.9 684.5 1015.7 670.8 1024.3 670.8 1027.8 674.3 1001.9 700.1 1001.9 684.5"/>
      <polygon class="cls-43" points="1015.7 670.8 1001.9 684.5 1001.9 670.8 1015.7 670.8"/>
      <polygon class="cls-65" points="968.9 780.1 982.9 766.1 982.9 780.1 968.9 780.1"/>
      <polygon class="cls-19" points="953.3 780.1 982.9 750.4 982.9 766.1 968.9 780.1 953.3 780.1"/>
      <polygon class="cls-66" points="937.6 780.1 982.9 734.8 982.9 750.4 953.3 780.1 937.6 780.1"/>
      <polygon class="cls-4" points="922 780.1 982.9 719.1 982.9 734.8 937.6 780.1 922 780.1"/>
      <polygon class="cls-20" points="918.8 780.1 912.6 773.8 982.9 703.5 982.9 719.1 922 780.1 918.8 780.1"/>
      <polygon class="cls-43" points="912.6 773.8 904.8 766 982.9 687.8 982.9 703.5 912.6 773.8"/>
      <polygon class="cls-1" points="904.8 766 897.1 758.3 897.1 758.1 982.6 672.5 982.9 672.9 982.9 687.8 904.8 766"/>
      <polygon class="cls-22" points="897.1 742.4 972.5 667 977 667 982.6 672.5 897.1 758.1 897.1 742.4"/>
      <polygon class="cls-69" points="897.1 726.8 956.9 667 972.5 667 897.1 742.4 897.1 726.8"/>
      <polygon class="cls-77" points="897.1 711.2 941.2 667 956.9 667 897.1 726.8 897.1 711.2"/>
      <polygon class="cls-51" points="897.1 695.5 925.6 667 941.2 667 897.1 711.2 897.1 695.5"/>
      <polygon class="cls-38" points="897.1 679.9 909.9 667 925.6 667 897.1 695.5 897.1 679.9"/>
      <polygon class="cls-44" points="909.9 667 897.1 679.9 897.1 667 909.9 667"/>
      <polygon class="cls-1" points="879 776.1 885.9 769.3 885.9 776.1 879 776.1"/>
      <polygon class="cls-22" points="863.4 776.1 885.9 753.6 885.9 769.3 879 776.1 863.4 776.1"/>
      <polygon class="cls-69" points="847.7 776.1 885.9 738 885.9 753.6 863.4 776.1 847.7 776.1"/>
      <polygon class="cls-77" points="832.1 776.1 885.9 722.3 885.9 738 847.7 776.1 832.1 776.1"/>
      <polygon class="cls-51" points="816.4 776.1 885.9 706.7 885.9 722.3 832.1 776.1 816.4 776.1"/>
      <polygon class="cls-38" points="813.8 776.1 807.3 769.6 885.9 691 885.9 706.7 816.4 776.1 813.8 776.1"/>
      <polygon class="cls-44" points="807.3 769.6 804.5 766.9 804.5 756.7 880.7 680.6 885.9 685.7 885.9 691 807.3 769.6"/>
      <polygon class="cls-40" points="804.5 741.1 872.9 672.7 880.7 680.6 804.5 756.7 804.5 741.1"/>
      <polygon class="cls-76" points="804.5 725.4 865.1 664.9 872.9 672.7 804.5 741.1 804.5 725.4"/>
      <polygon class="cls-14" points="804.5 709.8 850.7 663.6 863.8 663.6 865.1 664.9 804.5 725.4 804.5 709.8"/>
      <polygon class="cls-52" points="804.5 694.2 835.1 663.6 850.7 663.6 804.5 709.8 804.5 694.2"/>
      <polygon class="cls-71" points="804.5 678.5 819.4 663.6 835.1 663.6 804.5 694.2 804.5 678.5"/>
      <polygon class="cls-17" points="819.4 663.6 804.5 678.5 804.5 663.6 819.4 663.6"/>
      <polygon class="cls-44" points="789.1 772.1 794.2 767 794.2 772.1 789.1 772.1"/>
      <polygon class="cls-40" points="773.5 772.1 794.2 751.4 794.2 767 789.1 772.1 773.5 772.1"/>
      <polygon class="cls-76" points="757.8 772.1 794.2 735.8 794.2 751.4 773.5 772.1 757.8 772.1"/>
      <polygon class="cls-14" points="742.2 772.1 794.2 720.1 794.2 735.8 757.8 772.1 742.2 772.1"/>
      <polygon class="cls-52" points="732.4 772.1 729.5 769.2 794.2 704.5 794.2 720.1 742.2 772.1 732.4 772.1"/>
      <polygon class="cls-71" points="729.5 769.2 728.6 768.4 728.6 754.4 794.2 688.8 794.2 704.5 729.5 769.2"/>
      <polygon class="cls-17" points="728.6 738.8 794.2 673.2 794.2 688.8 728.6 754.4 728.6 738.8"/>
      <polygon class="cls-34" points="728.6 723.1 787.7 664 794.2 664 794.2 673.2 728.6 738.8 728.6 723.1"/>
      <polygon class="cls-63" points="728.6 707.5 772.1 664 787.7 664 728.6 723.1 728.6 707.5"/>
      <polygon class="cls-2" points="728.6 691.8 756.5 664 772.1 664 728.6 707.5 728.6 691.8"/>
      <polygon class="cls-9" points="728.6 676.2 740.8 664 756.5 664 728.6 691.8 728.6 676.2"/>
      <polygon class="cls-68" points="740.8 664 728.6 676.2 728.6 664 740.8 664"/>
      <polygon class="cls-63" points="663.3 772.8 677.8 758.4 677.8 772.8 663.3 772.8"/>
      <polygon class="cls-2" points="647.6 772.8 677.8 742.7 677.8 758.4 663.3 772.8 647.6 772.8"/>
      <polygon class="cls-9" points="632 772.8 677.8 727.1 677.8 742.7 647.6 772.8 632 772.8"/>
      <polygon class="cls-68" points="616.4 772.8 677.8 711.4 677.8 727.1 632 772.8 616.4 772.8"/>
      <polygon class="cls-27" points="600.7 772.8 677.8 695.8 677.8 711.4 616.4 772.8 600.7 772.8"/>
      <polygon class="cls-72" points="599.7 772.8 593.8 766.9 593.8 764.1 677.8 680.1 677.8 695.8 600.7 772.8 599.7 772.8"/>
      <polygon class="cls-31" points="593.8 748.5 675.8 666.4 677.8 668.4 677.8 680.1 593.8 764.1 593.8 748.5"/>
      <polygon class="cls-31" points="593.8 728.1 658 663.9 673.2 663.9 675.8 666.4 593.8 748.5 593.8 728.1"/>
      <polygon class="cls-70" points="593.8 707.8 637.7 663.9 658 663.9 593.8 728.1 593.8 707.8"/>
      <polygon class="cls-36" points="593.8 687.4 617.3 663.9 637.7 663.9 593.8 707.8 593.8 687.4"/>
      <polygon class="cls-39" points="593.8 667.1 597 663.9 617.3 663.9 593.8 687.4 593.8 667.1"/>
      <polygon class="cls-15" points="597 663.9 593.8 667.1 593.8 663.9 597 663.9"/>
      <polygon class="cls-31" points="565.6 776.7 579.6 762.7 579.6 776.7 565.6 776.7"/>
      <polygon class="cls-31" points="545.2 776.7 579.6 742.3 579.6 762.7 565.6 776.7 545.2 776.7"/>
      <polygon class="cls-70" points="524.8 776.7 579.6 722 579.6 742.3 545.2 776.7 524.8 776.7"/>
      <polygon class="cls-36" points="517.9 776.7 511.2 770 579.6 701.6 579.6 722 524.8 776.7 517.9 776.7"/>
      <polygon class="cls-39" points="511.2 770 501.8 760.6 501.8 759.1 579.6 681.2 579.6 701.6 511.2 770"/>
      <polygon class="cls-15" points="501.8 738.7 571.9 668.6 579.6 676.3 579.6 681.2 501.8 759.1 501.8 738.7"/>
      <polygon class="cls-32" points="501.8 718.4 557.9 662.2 565.5 662.2 571.9 668.6 501.8 738.7 501.8 718.4"/>
      <polygon class="cls-73" points="501.8 698 537.5 662.2 557.9 662.2 501.8 718.4 501.8 698"/>
      <polygon class="cls-58" points="501.8 677.6 517.2 662.2 537.5 662.2 501.8 698 501.8 677.6"/>
      <polygon class="cls-13" points="517.2 662.2 501.8 677.6 501.8 662.2 517.2 662.2"/>
      <polygon class="cls-39" points="483.6 777.2 493.7 767.1 493.7 777.2 483.6 777.2"/>
      <polygon class="cls-15" points="463.2 777.2 493.7 746.8 493.7 767.1 483.6 777.2 463.2 777.2"/>
      <polygon class="cls-32" points="442.9 777.2 493.7 726.4 493.7 746.8 463.2 777.2 442.9 777.2"/>
      <polygon class="cls-73" points="435.7 777.2 429.1 770.7 493.7 706.1 493.7 726.4 442.9 777.2 435.7 777.2"/>
      <polygon class="cls-58" points="429.1 770.7 420.9 762.5 420.9 758.5 493.7 685.7 493.7 706.1 429.1 770.7"/>
      <polygon class="cls-13" points="420.9 738.1 492.7 666.3 493.7 666.3 493.7 685.7 420.9 758.5 420.9 738.1"/>
      <polygon class="cls-78" points="420.9 717.8 472.4 666.3 492.7 666.3 420.9 738.1 420.9 717.8"/>
      <polygon class="cls-6" points="420.9 697.4 452 666.3 472.4 666.3 420.9 717.8 420.9 697.4"/>
      <polygon class="cls-80" points="420.9 677.1 431.7 666.3 452 666.3 420.9 697.4 420.9 677.1"/>
      <polygon class="cls-55" points="431.7 666.3 420.9 677.1 420.9 666.3 431.7 666.3"/>
      <polygon class="cls-58" points="399.6 779.8 411.2 768.2 411.2 779.8 399.6 779.8"/>
      <polygon class="cls-13" points="379.3 779.8 411.2 747.8 411.2 768.2 399.6 779.8 379.3 779.8"/>
      <polygon class="cls-78" points="358.9 779.8 411.2 727.5 411.2 747.8 379.3 779.8 358.9 779.8"/>
      <polygon class="cls-6" points="338.6 779.8 411.2 707.1 411.2 727.5 358.9 779.8 338.6 779.8"/>
      <polygon class="cls-80" points="332.1 779.8 329.8 777.5 329.8 768.2 411 687 411.2 687.2 411.2 707.1 338.6 779.8 332.1 779.8"/>
      <polygon class="cls-55" points="329.8 747.8 400.8 676.8 411 687 329.8 768.2 329.8 747.8"/>
      <polygon class="cls-11" points="329.8 727.4 387.5 669.7 393.8 669.7 400.8 676.8 329.8 747.8 329.8 727.4"/>
      <polygon class="cls-42" points="329.8 707.1 367.2 669.7 387.5 669.7 329.8 727.4 329.8 707.1"/>
      <polygon class="cls-25" points="329.8 686.7 346.8 669.7 367.2 669.7 329.8 707.1 329.8 686.7"/>
      <polygon class="cls-53" points="346.8 669.7 329.8 686.7 329.8 669.7 346.8 669.7"/>
      <polygon class="cls-80" points="314 784 319.6 778.4 319.6 784 314 784"/>
      <polygon class="cls-55" points="293.7 784 319.6 758.1 319.6 778.4 314 784 293.7 784"/>
      <polygon class="cls-11" points="273.3 784 319.6 737.7 319.6 758.1 293.7 784 273.3 784"/>
      <polygon class="cls-42" points="257.1 784 255 781.9 319.6 717.3 319.6 737.7 273.3 784 257.1 784"/>
      <polygon class="cls-25" points="255 781.9 253.9 780.8 253.9 762.6 319.6 697 319.6 717.3 255 781.9"/>
      <polygon class="cls-53" points="253.9 742.3 319.6 676.6 319.6 697 253.9 762.6 253.9 742.3"/>
      <polygon class="cls-37" points="253.9 721.9 302.7 673.2 319.6 673.2 319.6 676.6 253.9 742.3 253.9 721.9"/>
      <polygon class="cls-61" points="253.9 701.6 282.3 673.2 302.7 673.2 253.9 721.9 253.9 701.6"/>
      <polygon class="cls-60" points="253.9 681.2 261.9 673.2 282.3 673.2 253.9 701.6 253.9 681.2"/>
      <polygon class="cls-54" points="261.9 673.2 253.9 681.2 253.9 673.2 261.9 673.2"/>
      <polygon class="cls-26" points="1144.4 808 1152.7 799.6 1152.7 808 1144.4 808"/>
      <polygon class="cls-62" points="1128.7 808 1152.7 784 1152.7 799.6 1144.4 808 1128.7 808"/>
      <polygon class="cls-16" points="1113.1 808 1152.7 768.4 1152.7 784 1128.7 808 1113.1 808"/>
      <polygon class="cls-45" points="1097.5 808 1152.7 752.7 1152.7 768.4 1113.1 808 1097.5 808"/>
      <polygon class="cls-79" points="1081.8 808 1152.7 737.1 1152.7 752.7 1097.5 808 1081.8 808"/>
      <polygon class="cls-67" points="1066.2 808 1152.7 721.4 1152.7 737.1 1081.8 808 1066.2 808"/>
      <polygon class="cls-57" points="1050.5 808 1152.7 705.8 1152.7 721.4 1066.2 808 1050.5 808"/>
      <polygon class="cls-74" points="1034.9 808 1152.7 690.1 1152.7 705.8 1050.5 808 1034.9 808"/>
      <polygon class="cls-21" points="1019.2 808 1152.7 674.5 1152.7 690.1 1034.9 808 1019.2 808"/>
      <polygon class="cls-7" points="1003.6 808 1152.7 658.8 1152.7 674.5 1019.2 808 1003.6 808"/>
      <polygon class="cls-28" points="988 808 1147.5 648.4 1152.7 653.6 1152.7 658.8 1003.6 808 988 808"/>
      <polygon class="cls-5" points="972.3 808 1139.7 640.6 1147.5 648.4 988 808 972.3 808"/>
      <polygon class="cls-49" points="956.7 808 1128.7 635.9 1135 635.9 1139.7 640.6 972.3 808 956.7 808"/>
      <polygon class="cls-65" points="941 808 1113.1 635.9 1128.7 635.9 956.7 808 941 808"/>
      <polygon class="cls-19" points="925.4 808 1097.4 635.9 1113.1 635.9 941 808 925.4 808"/>
      <polygon class="cls-66" points="909.7 808 1081.8 635.9 1097.4 635.9 925.4 808 909.7 808"/>
      <polygon class="cls-4" points="894.1 808 1066.2 635.9 1081.8 635.9 909.7 808 894.1 808"/>
      <polygon class="cls-20" points="878.4 808 1050.5 635.9 1066.2 635.9 894.1 808 878.4 808"/>
      <polygon class="cls-43" points="862.8 808 1034.9 635.9 1050.5 635.9 878.4 808 862.8 808"/>
      <polygon class="cls-1" points="847.2 808 1019.2 635.9 1034.9 635.9 862.8 808 847.2 808"/>
      <polygon class="cls-22" points="831.5 808 1003.6 635.9 1019.2 635.9 847.2 808 831.5 808"/>
      <polygon class="cls-69" points="815.9 808 987.9 635.9 1003.6 635.9 831.5 808 815.9 808"/>
      <polygon class="cls-77" points="800.2 808 972.3 635.9 987.9 635.9 815.9 808 800.2 808"/>
      <polygon class="cls-51" points="784.6 808 956.7 635.9 972.3 635.9 800.2 808 784.6 808"/>
      <polygon class="cls-38" points="768.9 808 941 635.9 956.7 635.9 784.6 808 768.9 808"/>
      <polygon class="cls-44" points="753.3 808 925.4 635.9 941 635.9 768.9 808 753.3 808"/>
      <polygon class="cls-40" points="737.7 808 909.7 635.9 925.4 635.9 753.3 808 737.7 808"/>
      <polygon class="cls-76" points="722 808 894.1 635.9 909.7 635.9 737.7 808 722 808"/>
      <polygon class="cls-14" points="706.4 808 878.4 635.9 894.1 635.9 722 808 706.4 808"/>
      <polygon class="cls-52" points="690.7 808 862.8 635.9 878.4 635.9 706.4 808 690.7 808"/>
      <polygon class="cls-71" points="675.1 808 847.1 635.9 862.8 635.9 690.7 808 675.1 808"/>
      <polygon class="cls-17" points="659.4 808 831.5 635.9 847.1 635.9 675.1 808 659.4 808"/>
      <polygon class="cls-34" points="643.8 808 815.9 635.9 831.5 635.9 659.4 808 643.8 808"/>
      <polygon class="cls-63" points="628.1 808 800.2 635.9 815.9 635.9 643.8 808 628.1 808"/>
      <polygon class="cls-2" points="612.5 808 784.6 635.9 800.2 635.9 628.1 808 612.5 808"/>
      <polygon class="cls-9" points="596.9 808 768.9 635.9 784.6 635.9 612.5 808 596.9 808"/>
      <polygon class="cls-68" points="581.2 808 753.3 635.9 768.9 635.9 596.9 808 581.2 808"/>
      <polygon class="cls-27" points="565.6 808 737.6 635.9 753.3 635.9 581.2 808 565.6 808"/>
      <polygon class="cls-72" points="549.9 808 722 635.9 737.6 635.9 565.6 808 549.9 808"/>
      <polygon class="cls-31" points="534.3 808 706.4 635.9 722 635.9 549.9 808 534.3 808"/>
      <polygon class="cls-31" points="513.9 808 686 635.9 706.4 635.9 534.3 808 513.9 808"/>
      <polygon class="cls-70" points="493.6 808 665.6 635.9 686 635.9 513.9 808 493.6 808"/>
      <polygon class="cls-36" points="473.2 808 645.3 635.9 665.6 635.9 493.6 808 473.2 808"/>
      <polygon class="cls-39" points="452.9 808 624.9 635.9 645.3 635.9 473.2 808 452.9 808"/>
      <polygon class="cls-15" points="432.5 808 604.6 635.9 624.9 635.9 452.9 808 432.5 808"/>
      <polygon class="cls-32" points="412.1 808 584.2 635.9 604.6 635.9 432.5 808 412.1 808"/>
      <polygon class="cls-73" points="391.8 808 563.9 635.9 584.2 635.9 412.1 808 391.8 808"/>
      <polygon class="cls-58" points="371.4 808 543.5 635.9 563.9 635.9 391.8 808 371.4 808"/>
      <polygon class="cls-13" points="351.1 808 523.1 635.9 543.5 635.9 371.4 808 351.1 808"/>
      <polygon class="cls-78" points="330.7 808 502.8 635.9 523.1 635.9 351.1 808 330.7 808"/>
      <polygon class="cls-6" points="310.4 808 482.4 635.9 502.8 635.9 330.7 808 310.4 808"/>
      <polygon class="cls-80" points="290 808 462.1 635.9 482.4 635.9 310.4 808 290 808"/>
      <polygon class="cls-55" points="269.6 808 441.7 635.9 462.1 635.9 290 808 269.6 808"/>
      <polygon class="cls-11" points="249.3 808 421.4 635.9 441.7 635.9 269.6 808 249.3 808"/>
      <polygon class="cls-42" points="229.4 808 229.1 807.8 401 635.9 421.4 635.9 249.3 808 229.4 808"/>
      <polygon class="cls-25" points="229.1 807.8 225.1 803.7 225.1 791.4 380.6 635.9 401 635.9 229.1 807.8"/>
      <polygon class="cls-53" points="225.1 771.1 360.3 635.9 380.6 635.9 225.1 791.4 225.1 771.1"/>
      <polygon class="cls-37" points="225.1 750.7 339.9 635.9 360.3 635.9 225.1 771.1 225.1 750.7"/>
      <polygon class="cls-61" points="225.1 730.4 319.6 635.9 339.9 635.9 225.1 750.7 225.1 730.4"/>
      <polygon class="cls-60" points="225.1 710 299.2 635.9 319.6 635.9 225.1 730.4 225.1 710"/>
      <polygon class="cls-54" points="225.1 689.7 278.9 635.9 299.2 635.9 225.1 710 225.1 689.7"/>
      <polygon class="cls-30" points="225.1 669.3 258.5 635.9 278.9 635.9 225.1 689.7 225.1 669.3"/>
      <polygon class="cls-8" points="225.1 648.9 238.2 635.9 258.5 635.9 225.1 669.3 225.1 648.9"/>
      <polygon class="cls-59" points="238.2 635.9 225.1 648.9 225.1 635.9 238.2 635.9"/>
    </g>
  </g>
  <g class="cls-82">
    <g>
      <polygon class="cls-73" points="305.7 894 321.8 877.9 321.8 894 305.7 894"/>
      <polygon class="cls-58" points="285.4 894 321.8 857.6 321.8 877.9 305.7 894 285.4 894"/>
      <polygon class="cls-13" points="265 894 321.8 837.2 321.8 857.6 285.4 894 265 894"/>
      <polygon class="cls-78" points="244.7 894 317.4 821.3 321.8 825.7 321.8 837.2 265 894 244.7 894"/>
      <polygon class="cls-6" points="224.3 894 307.3 811.1 317.4 821.3 244.7 894 224.3 894"/>
      <polygon class="cls-80" points="204 894 297.1 800.9 307.3 811.1 224.3 894 204 894"/>
      <polygon class="cls-55" points="183.6 894 286.9 790.7 297.1 800.9 204 894 183.6 894"/>
      <polygon class="cls-11" points="163.3 894 276.7 780.6 286.9 790.7 183.6 894 163.3 894"/>
      <polygon class="cls-42" points="142.9 894 266.5 770.4 276.7 780.6 163.3 894 142.9 894"/>
      <polygon class="cls-25" points="122.5 894 256.4 760.2 266.5 770.4 142.9 894 122.5 894"/>
      <polygon class="cls-53" points="102.2 894 246.2 750 256.4 760.2 122.5 894 102.2 894"/>
      <polygon class="cls-37" points="101.5 894 91.6 884.2 234.6 741.2 237.4 741.2 246.2 750 102.2 894 101.5 894"/>
      <polygon class="cls-61" points="91.6 884.2 88.4 880.9 88.4 867.1 214.3 741.2 234.6 741.2 91.6 884.2"/>
      <polygon class="cls-60" points="88.4 846.8 193.9 741.2 214.3 741.2 88.4 867.1 88.4 846.8"/>
      <polygon class="cls-54" points="88.4 826.4 173.6 741.2 193.9 741.2 88.4 846.8 88.4 826.4"/>
      <polygon class="cls-30" points="88.4 806.1 153.2 741.2 173.6 741.2 88.4 826.4 88.4 806.1"/>
      <polygon class="cls-8" points="88.4 785.7 132.9 741.2 153.2 741.2 88.4 806.1 88.4 785.7"/>
      <polygon class="cls-59" points="88.4 765.4 112.5 741.2 132.9 741.2 88.4 785.7 88.4 765.4"/>
      <polygon class="cls-50" points="88.4 745 92.2 741.2 112.5 741.2 88.4 765.4 88.4 745"/>
      <polygon class="cls-35" points="92.2 741.2 88.4 745 88.4 741.2 92.2 741.2"/>
    </g>
  </g>
  <g class="cls-85">
    <polygon class="cls-72" points="1288.4 838.6 1288.4 838.6 1288.4 838.6 1288.4 838.6"/>
  </g>
  <g class="cls-84">
    <g>
      <polygon class="cls-64" points="1277.3 894.1 1289 882.3 1289 894.1 1277.3 894.1"/>
      <polygon class="cls-3" points="1261.7 894.1 1289 866.7 1289 882.3 1277.3 894.1 1261.7 894.1"/>
      <polygon class="cls-41" points="1246 894.1 1289 851.1 1289 866.7 1261.7 894.1 1246 894.1"/>
      <polygon class="cls-46" points="1230.4 894.1 1289 835.4 1289 851.1 1246 894.1 1230.4 894.1"/>
      <polygon class="cls-75" points="1214.7 894.1 1289 819.8 1289 835.4 1230.4 894.1 1214.7 894.1"/>
      <polygon class="cls-33" points="1199.1 894.1 1289 804.1 1289 819.8 1214.7 894.1 1199.1 894.1"/>
      <polygon class="cls-47" points="1183.5 894.1 1289 788.5 1289 804.1 1199.1 894.1 1183.5 894.1"/>
      <polygon class="cls-18" points="1167.8 894.1 1289 772.8 1289 788.5 1183.5 894.1 1167.8 894.1"/>
      <polygon class="cls-56" points="1152.2 894.1 1289 757.2 1289 772.8 1167.8 894.1 1152.2 894.1"/>
      <polygon class="cls-23" points="1136.5 894.1 1284 746.6 1289 751.7 1289 757.2 1152.2 894.1 1136.5 894.1"/>
      <polygon class="cls-24" points="1120.9 894.1 1273.8 741.1 1278.5 741.1 1284 746.6 1136.5 894.1 1120.9 894.1"/>
      <polygon class="cls-29" points="1105.2 894.1 1258.2 741.1 1273.8 741.1 1120.9 894.1 1105.2 894.1"/>
      <polygon class="cls-48" points="1089.6 894.1 1242.5 741.1 1258.2 741.1 1105.2 894.1 1089.6 894.1"/>
      <polygon class="cls-10" points="1082 894.1 1078 890 1226.9 741.1 1242.5 741.1 1089.6 894.1 1082 894.1"/>
      <polygon class="cls-26" points="1078 890 1070.2 882.2 1211.2 741.1 1226.9 741.1 1078 890"/>
      <polygon class="cls-62" points="1070.2 882.2 1062.3 874.4 1195.6 741.1 1211.2 741.1 1070.2 882.2"/>
      <polygon class="cls-16" points="1062.3 874.4 1057.5 869.6 1057.5 863.6 1179.9 741.1 1195.6 741.1 1062.3 874.4"/>
      <polygon class="cls-45" points="1057.5 847.9 1164.3 741.1 1179.9 741.1 1057.5 863.6 1057.5 847.9"/>
      <polygon class="cls-79" points="1057.5 832.3 1148.6 741.1 1164.3 741.1 1057.5 847.9 1057.5 832.3"/>
      <polygon class="cls-67" points="1057.5 816.6 1133 741.1 1148.6 741.1 1057.5 832.3 1057.5 816.6"/>
      <polygon class="cls-57" points="1057.5 801 1117.4 741.1 1133 741.1 1057.5 816.6 1057.5 801"/>
      <polygon class="cls-74" points="1057.5 785.4 1101.7 741.1 1117.4 741.1 1057.5 801 1057.5 785.4"/>
      <polygon class="cls-21" points="1057.5 769.7 1086.1 741.1 1101.7 741.1 1057.5 785.4 1057.5 769.7"/>
      <polygon class="cls-7" points="1057.5 754.1 1070.4 741.1 1086.1 741.1 1057.5 769.7 1057.5 754.1"/>
      <polygon class="cls-28" points="1070.4 741.1 1057.5 754.1 1057.5 741.1 1070.4 741.1"/>
    </g>
  </g>
  <g class="cls-83">
    <polygon class="cls-72" points="393.8 578.9 393.8 578.9 393.8 578.9 393.8 578.9"/>
  </g>
  <g class="cls-89">
    <g>
      <polygon class="cls-76" points="654.2 875.8 656.2 873.8 656.2 875.8 654.2 875.8"/>
      <polygon class="cls-14" points="638.6 875.8 656.2 858.2 656.2 873.8 654.2 875.8 638.6 875.8"/>
      <polygon class="cls-52" points="631.1 867.6 652.3 846.4 656.2 850.2 656.2 858.2 638.6 875.8 631.1 875.8 631.1 867.6"/>
      <polygon class="cls-71" points="631.1 851.9 636.7 846.3 652.3 846.3 652.3 846.4 631.1 867.6 631.1 851.9"/>
      <polygon class="cls-17" points="636.7 846.3 631.1 851.9 631.1 846.3 636.7 846.3"/>
      <polygon class="cls-51" points="677.8 914.8 678.7 913.8 678.7 914.8 677.8 914.8"/>
      <polygon class="cls-38" points="662.1 914.8 678.7 898.2 678.7 913.8 677.8 914.8 662.1 914.8"/>
      <polygon class="cls-44" points="646.5 914.8 678.7 882.6 678.7 898.2 662.1 914.8 646.5 914.8"/>
      <polygon class="cls-40" points="630.9 914.8 678.7 866.9 678.7 882.6 646.5 914.8 630.9 914.8"/>
      <polygon class="cls-76" points="615.2 914.8 677.3 852.7 678.7 854.1 678.7 866.9 630.9 914.8 615.2 914.8"/>
      <polygon class="cls-14" points="612 902.3 669.5 844.9 677.3 852.7 615.2 914.8 612 914.8 612 902.3"/>
      <polygon class="cls-52" points="612 886.7 660.4 838.3 662.9 838.3 669.5 844.9 612 902.3 612 886.7"/>
      <polygon class="cls-71" points="612 871.1 644.7 838.3 660.4 838.3 612 886.7 612 871.1"/>
      <polygon class="cls-17" points="612 855.4 629.1 838.3 644.7 838.3 612 871.1 612 855.4"/>
      <polygon class="cls-34" points="612 839.8 613.4 838.3 629.1 838.3 612 855.4 612 839.8"/>
      <polygon class="cls-63" points="613.4 838.3 612 839.8 612 838.3 613.4 838.3"/>
    </g>
  </g>
  <g class="cls-88">
    <g>
      <polygon class="cls-20" points="771.5 914.9 775.4 911 775.4 914.9 771.5 914.9"/>
      <polygon class="cls-43" points="755.8 914.9 775.4 895.3 775.4 911 771.5 914.9 755.8 914.9"/>
      <polygon class="cls-1" points="740.2 914.9 775.4 879.7 775.4 895.3 755.8 914.9 740.2 914.9"/>
      <polygon class="cls-22" points="724.6 914.9 775.4 864.1 775.4 879.7 740.2 914.9 724.6 914.9"/>
      <polygon class="cls-69" points="708.9 914.9 775.4 848.4 775.4 864.1 724.6 914.9 708.9 914.9"/>
      <polygon class="cls-77" points="707.5 900.7 769.7 838.5 775.4 838.5 775.4 848.4 708.9 914.9 707.5 914.9 707.5 900.7"/>
      <polygon class="cls-51" points="707.5 885.1 754 838.5 769.7 838.5 707.5 900.7 707.5 885.1"/>
      <polygon class="cls-38" points="707.5 869.4 738.4 838.5 754 838.5 707.5 885.1 707.5 869.4"/>
      <polygon class="cls-44" points="707.5 853.8 722.7 838.5 738.4 838.5 707.5 869.4 707.5 853.8"/>
      <polygon class="cls-40" points="722.7 838.5 707.5 853.8 707.5 838.5 722.7 838.5"/>
    </g>
  </g>
  <g class="cls-86">
    <g>
      <polygon class="cls-71" points="567.4 915.6 580.9 902.2 580.9 915.6 567.4 915.6"/>
      <polygon class="cls-17" points="551.8 915.6 580.9 886.5 580.9 902.2 567.4 915.6 551.8 915.6"/>
      <polygon class="cls-34" points="536.1 915.6 580.9 870.9 580.9 886.5 551.8 915.6 536.1 915.6"/>
      <polygon class="cls-63" points="527.2 915.6 523.8 912.3 580.9 855.3 580.9 870.9 536.1 915.6 527.2 915.6"/>
      <polygon class="cls-2" points="523.8 912.3 516 904.5 580.9 839.6 580.9 855.3 523.8 912.3"/>
      <polygon class="cls-9" points="516 904.5 513.8 902.3 513.8 891 566.4 838.5 580.9 838.5 580.9 839.6 516 904.5"/>
      <polygon class="cls-68" points="513.8 875.4 550.7 838.5 566.4 838.5 513.8 891 513.8 875.4"/>
      <polygon class="cls-27" points="513.8 859.7 535.1 838.5 550.7 838.5 513.8 875.4 513.8 859.7"/>
      <polygon class="cls-72" points="513.8 844.1 519.4 838.5 535.1 838.5 513.8 859.7 513.8 844.1"/>
      <polygon class="cls-31" points="519.4 838.5 513.8 844.1 513.8 838.5 519.4 838.5"/>
    </g>
  </g>
  <g class="cls-87">
    <g>
      <polygon class="cls-49" points="851.1 913.5 861.9 902.7 861.9 913.5 851.1 913.5"/>
      <polygon class="cls-65" points="835.5 913.5 861.9 887.1 861.9 902.7 851.1 913.5 835.5 913.5"/>
      <polygon class="cls-19" points="819.8 913.5 861.9 871.4 861.9 887.1 835.5 913.5 819.8 913.5"/>
      <polygon class="cls-66" points="804.9 912.8 861.9 855.8 861.9 871.4 819.8 913.5 804.9 913.5 804.9 912.8"/>
      <polygon class="cls-4" points="804.9 897.2 861.9 840.2 861.9 855.8 804.9 912.8 804.9 897.2"/>
      <polygon class="cls-20" points="804.9 881.6 848 838.5 861.5 838.5 861.9 838.9 861.9 840.2 804.9 897.2 804.9 881.6"/>
      <polygon class="cls-43" points="804.9 865.9 832.3 838.5 848 838.5 804.9 881.6 804.9 865.9"/>
      <polygon class="cls-1" points="804.9 850.3 816.7 838.5 832.3 838.5 804.9 865.9 804.9 850.3"/>
      <polygon class="cls-22" points="816.7 838.5 804.9 850.3 804.9 838.5 816.7 838.5"/>
    </g>
  </g>
  <g class="cls-90">
    <g>
      <polygon class="cls-57" points="945 913.5 957.6 900.9 957.6 913.5 945 913.5"/>
      <polygon class="cls-74" points="929.4 913.5 957.6 885.3 957.6 900.9 945 913.5 929.4 913.5"/>
      <polygon class="cls-21" points="913.7 913.5 957.6 869.6 957.6 885.3 929.4 913.5 913.7 913.5"/>
      <polygon class="cls-7" points="907.1 913.5 902.6 909 957.6 854 957.6 869.6 913.7 913.5 907.1 913.5"/>
      <polygon class="cls-28" points="902.6 909 894.8 901.1 957.4 838.5 957.6 838.5 957.6 854 902.6 909"/>
      <polygon class="cls-5" points="894.8 901.1 889.6 895.9 889.6 890.7 941.8 838.5 957.4 838.5 894.8 901.1"/>
      <polygon class="cls-49" points="889.6 875.1 926.1 838.5 941.8 838.5 889.6 890.7 889.6 875.1"/>
      <polygon class="cls-65" points="889.6 859.4 910.5 838.5 926.1 838.5 889.6 875.1 889.6 859.4"/>
      <polygon class="cls-19" points="889.6 843.8 894.9 838.5 910.5 838.5 889.6 859.4 889.6 843.8"/>
      <polygon class="cls-66" points="894.9 838.5 889.6 843.8 889.6 838.5 894.9 838.5"/>
    </g>
  </g>
  <g class="cls-92">
    <g>
      <polygon class="cls-68" points="475.7 913.5 487.3 901.9 487.3 913.5 475.7 913.5"/>
      <polygon class="cls-27" points="460.1 913.5 487.3 886.2 487.3 901.9 475.7 913.5 460.1 913.5"/>
      <polygon class="cls-72" points="444.4 913.5 487.3 870.6 487.3 886.2 460.1 913.5 444.4 913.5"/>
      <polygon class="cls-31" points="434.7 913.5 431.7 910.5 487.3 854.9 487.3 870.6 444.4 913.5 434.7 913.5"/>
      <polygon class="cls-31" points="431.7 910.5 421.6 900.3 485.8 836.1 486.8 836.1 487.3 836.7 487.3 854.9 431.7 910.5"/>
      <polygon class="cls-70" points="421.6 900.3 418.8 897.6 418.8 882.7 465.4 836.1 485.8 836.1 421.6 900.3"/>
      <polygon class="cls-36" points="418.8 862.4 445.1 836.1 465.4 836.1 418.8 882.7 418.8 862.4"/>
      <polygon class="cls-39" points="418.8 842 424.7 836.1 445.1 836.1 418.8 862.4 418.8 842"/>
      <polygon class="cls-15" points="424.7 836.1 418.8 842 418.8 836.1 424.7 836.1"/>
    </g>
  </g>
  <g class="cls-93">
    <g>
      <polygon class="cls-44" points="848.7 712.5 853.4 707.9 853.4 712.5 848.7 712.5"/>
      <polygon class="cls-40" points="833.1 712.5 853.4 692.2 853.4 707.9 848.7 712.5 833.1 712.5"/>
      <polygon class="cls-76" points="830.9 699.1 842.5 687.5 849.4 687.5 853.4 691.5 853.4 692.2 833.1 712.5 830.9 712.5 830.9 699.1"/>
      <polygon class="cls-14" points="842.5 687.5 830.9 699.1 830.9 687.5 842.5 687.5"/>
    </g>
  </g>
  <g class="cls-91">
    <g>
      <polygon class="cls-55" points="359.9 717.8 377.8 699.9 377.8 717.8 359.9 717.8"/>
      <polygon class="cls-11" points="356.1 701.1 364.5 692.8 376.4 692.8 377.8 694.2 377.8 699.9 359.9 717.8 356.1 717.8 356.1 701.1"/>
      <polygon class="cls-42" points="364.5 692.8 356.1 701.1 356.1 692.8 364.5 692.8"/>
    </g>
  </g>
</svg>