<svg xmlns="http://www.w3.org/2000/svg" width="191" height="114" viewBox="0 0 191 114" fill="none">
<defs>
    <linearGradient id="mainGradient" x1="0%" y1="0%" x2="100%" y2="0%">
      <stop offset="0%" stop-color="#a754cf"/>
      <stop offset="50%" stop-color="#547ccf"/>
      <stop offset="100%" stop-color="#54b9cf"/>
    </linearGradient>
  </defs>
<path d="M29.981 100.272V112.346H0V1.58172H15.0328V100.272H29.981Z" fill="url(#mainGradient)"/>
<path d="M122.624 45.2829V14.8067C122.624 13.7043 122.147 12.7696 121.192 12.0027C120.177 11.1879 118.984 10.7805 117.612 10.7805C116.239 10.7805 115.075 11.1879 114.121 12.0027C113.106 12.7696 112.599 13.7043 112.599 14.8067V99.1933C112.599 100.296 113.106 101.23 114.121 101.997C115.075 102.764 116.239 103.148 117.612 103.148C118.984 103.148 120.177 102.764 121.192 101.997C122.147 101.23 122.624 100.296 122.624 99.1933V62.9654H117.88V50.8908H137.925V97.7554C137.925 102.213 135.926 106.043 131.928 109.255C127.99 112.418 123.216 114 117.612 114C112.007 114 107.288 112.418 103.295 109.255C99.3564 106.043 97.3872 102.209 97.3872 97.7554V16.2446C97.3872 11.787 99.3564 7.95655 103.295 4.74517C107.293 1.58172 112.067 0 117.612 0C123.156 0 127.99 1.58172 131.928 4.74517C135.926 7.95655 137.925 11.787 137.925 16.2446V45.2829H122.624Z" fill="url(#mainGradient)"/>
<path d="M170.686 0C176.295 0 181.064 1.58172 185.003 4.74517C189.001 7.95655 191 11.787 191 16.2446V97.7554C191 102.213 189.001 106.043 185.003 109.255C181.064 112.418 176.29 114 170.686 114C165.082 114 160.363 112.418 156.369 109.255C152.431 106.043 150.462 102.209 150.462 97.7554V16.2446C150.462 11.787 152.431 7.95655 156.369 4.74517C160.368 1.58172 165.141 0 170.686 0ZM165.674 99.1933C165.674 100.296 166.181 101.23 167.195 101.997C168.15 102.764 169.314 103.148 170.686 103.148C172.059 103.148 173.252 102.764 174.267 101.997C175.221 101.23 175.699 100.296 175.699 99.1933V14.8067C175.699 13.7043 175.221 12.7696 174.267 12.0027C173.252 11.1879 172.059 10.7805 170.686 10.7805C169.314 10.7805 168.15 11.1879 167.195 12.0027C166.181 12.7696 165.674 13.7043 165.674 14.8067V99.1933Z" fill="url(#mainGradient)"/>
<path d="M72.4983 1.58172H57.5501L42.5174 112.35H57.5501L61.1305 89.4193L64.9795 49.5088L68.9179 89.4193L72.4983 112.35H87.5311L72.4983 1.58172Z" fill="url(#mainGradient)"/>
</svg>