<?xml version="1.0" encoding="UTF-8"?>
<svg id="katman_1" data-name="katman 1" xmlns="http://www.w3.org/2000/svg" xmlns:xlink="http://www.w3.org/1999/xlink" version="1.1" viewBox="0 0 1350 1350">
  <defs>
    <style>
      .cls-1 {
        fill: url(#Adsız_degrade_8);
      }

      .cls-1, .cls-2, .cls-3, .cls-4, .cls-5, .cls-6, .cls-7, .cls-8, .cls-9, .cls-10, .cls-11, .cls-12, .cls-13, .cls-14, .cls-15, .cls-16 {
        stroke-width: 0px;
      }

      .cls-2 {
        fill: url(#Adsız_degrade_8-15);
      }

      .cls-3 {
        fill: url(#Adsız_degrade_8-16);
      }

      .cls-4 {
        fill: url(#Adsız_degrade_8-13);
      }

      .cls-5 {
        fill: url(#Adsız_degrade_8-14);
      }

      .cls-6 {
        fill: url(#Adsız_degrade_8-12);
      }

      .cls-7 {
        fill: url(#Adsız_degrade_8-10);
      }

      .cls-8 {
        fill: url(#Adsız_degrade_8-11);
      }

      .cls-9 {
        fill: url(#Adsız_degrade_8-6);
      }

      .cls-10 {
        fill: url(#Adsız_degrade_8-7);
      }

      .cls-11 {
        fill: url(#Adsız_degrade_8-2);
      }

      .cls-12 {
        fill: url(#Adsız_degrade_8-9);
      }

      .cls-13 {
        fill: url(#Adsız_degrade_8-3);
      }

      .cls-14 {
        fill: url(#Adsız_degrade_8-8);
      }

      .cls-15 {
        fill: url(#Adsız_degrade_8-5);
      }

      .cls-16 {
        fill: url(#Adsız_degrade_8-4);
      }
    </style>
    <linearGradient id="Adsız_degrade_8" data-name="Adsız degrade 8" x1="1061.8" y1="1765.6" x2="-428.8" y2="275" gradientUnits="userSpaceOnUse">
      <stop offset="0" stop-color="#a754cf"/>
      <stop offset=".5" stop-color="#547ccf"/>
      <stop offset="1" stop-color="#54b9cf"/>
    </linearGradient>
    <linearGradient id="Adsız_degrade_8-2" data-name="Adsız degrade 8" x1="1144.4" y1="1683" x2="-346.2" y2="192.4" xlink:href="#Adsız_degrade_8"/>
    <linearGradient id="Adsız_degrade_8-3" data-name="Adsız degrade 8" x1="1221.6" y1="1605.8" x2="-269.1" y2="115.2" xlink:href="#Adsız_degrade_8"/>
    <linearGradient id="Adsız_degrade_8-4" data-name="Adsız degrade 8" x1="1302.4" y1="1525" x2="-188.3" y2="34.4" xlink:href="#Adsız_degrade_8"/>
    <linearGradient id="Adsız_degrade_8-5" data-name="Adsız degrade 8" x1="1405.3" y1="1422.1" x2="-85.4" y2="-68.5" xlink:href="#Adsız_degrade_8"/>
    <linearGradient id="Adsız_degrade_8-6" data-name="Adsız degrade 8" x1="1490.7" y1="1336.7" x2="0" y2="-153.9" xlink:href="#Adsız_degrade_8"/>
    <linearGradient id="Adsız_degrade_8-7" data-name="Adsız degrade 8" x1="1588.2" y1="1239.2" x2="97.6" y2="-251.4" xlink:href="#Adsız_degrade_8"/>
    <linearGradient id="Adsız_degrade_8-8" data-name="Adsız degrade 8" x1="1680" y1="1147.4" x2="189.4" y2="-343.3" xlink:href="#Adsız_degrade_8"/>
    <linearGradient id="Adsız_degrade_8-9" data-name="Adsız degrade 8" x1="1209.3" y1="1618.1" x2="-281.3" y2="127.4" xlink:href="#Adsız_degrade_8"/>
    <linearGradient id="Adsız_degrade_8-10" data-name="Adsız degrade 8" x1="1246.3" y1="1581.1" x2="-244.3" y2="90.5" xlink:href="#Adsız_degrade_8"/>
    <linearGradient id="Adsız_degrade_8-11" data-name="Adsız degrade 8" x1="1283.8" y1="1543.6" x2="-206.9" y2="53" xlink:href="#Adsız_degrade_8"/>
    <linearGradient id="Adsız_degrade_8-12" data-name="Adsız degrade 8" x1="1313" y1="1514.4" x2="-177.7" y2="23.8" xlink:href="#Adsız_degrade_8"/>
    <linearGradient id="Adsız_degrade_8-13" data-name="Adsız degrade 8" x1="1341.5" y1="1485.9" x2="-149.2" y2="-4.7" xlink:href="#Adsız_degrade_8"/>
    <linearGradient id="Adsız_degrade_8-14" data-name="Adsız degrade 8" x1="1379.7" y1="1447.7" x2="-110.9" y2="-42.9" xlink:href="#Adsız_degrade_8"/>
    <linearGradient id="Adsız_degrade_8-15" data-name="Adsız degrade 8" x1="1499.6" y1="1327.8" x2="9" y2="-162.8" xlink:href="#Adsız_degrade_8"/>
    <linearGradient id="Adsız_degrade_8-16" data-name="Adsız degrade 8" x1="1517.9" y1="1309.5" x2="27.3" y2="-181.2" xlink:href="#Adsız_degrade_8"/>
  </defs>
  <polygon class="cls-1" points="59.8 771.4 31.5 728.6 23.4 728.6 23.4 798.6 32 798.6 32 743.9 59.8 785.3 87.5 743.9 87.5 798.6 96.1 798.6 96.1 728.6 88.2 728.6 59.8 771.4"/>
  <rect class="cls-11" x="220.5" y="728.2" width="8.8" height="70.6"/>
  <path class="cls-13" d="M415.8,748.1c0-12.2-8.2-19.5-21.9-19.5h-40.1v69.9h8.7v-30.6h27.1l17.5,30.6h9.6l-17.5-30.8c10.2-1.8,16.6-9.9,16.6-19.7ZM362.5,759.8v-23.1h31.3c8.4,0,13,4.3,13,11.7s-4.5,11.4-13.4,11.4h-30.9Z"/>
  <path class="cls-16" d="M554.4,728.6l-34.3,69.9h9.3l9.2-18.8h38.7l9.5,18.8h9.5l-34.7-69.9h-7.2ZM542.7,771.6l15.3-31,15.4,31h-30.8Z"/>
  <polygon class="cls-15" points="774.5 798.6 783 798.6 783 728.6 775.1 728.6 746.7 771.4 718.4 728.6 710.4 728.6 710.4 798.6 718.9 798.6 718.9 743.9 746.7 785.3 774.5 743.9 774.5 798.6"/>
  <path class="cls-9" d="M931.1,728.6l-34.3,69.9h9.3l9.2-18.8h38.7l9.5,18.8h9.5l-34.7-69.9h-7.2ZM919.4,771.6l15.3-31,15.4,31h-30.8Z"/>
  <path class="cls-10" d="M1149.1,748.1c0-12.2-8.2-19.5-21.9-19.5h-40.1v69.9h8.7v-30.6h27.1l17.5,30.6h9.6l-17.5-30.8c10.2-1.8,16.6-9.9,16.6-19.7ZM1095.7,759.8v-23.1h31.3c8.4,0,13,4.3,13,11.7s-4.6,11.4-13.4,11.4h-30.9Z"/>
  <polygon class="cls-14" points="1277.4 765.2 1305.4 765.2 1305.4 757.2 1277.4 757.2 1277.4 736.7 1323.7 736.7 1323.7 728.6 1268.7 728.6 1268.7 728.6 1268.7 798.6 1326.6 798.6 1326.6 790.5 1277.4 790.5 1277.4 765.2"/>
  <polygon class="cls-12" points="513.2 907.8 492.3 907.8 492.3 893.8 487.9 893.8 487.8 893.8 487.8 929.2 492.3 929.2 492.3 911.9 513.2 911.9 513.2 929.2 517.6 929.2 517.6 893.8 513.2 893.8 513.2 907.8"/>
  <path class="cls-7" d="M576.7,893c-10.6,0-18.3,7.8-18.3,18.6s7.8,18.5,18.3,18.5,18.4-7.8,18.4-18.5-7.8-18.6-18.4-18.6ZM576.7,926c-7.9,0-13.8-6-13.8-14.4s5.8-14.5,13.8-14.5,13.8,6,13.8,14.5-5.9,14.4-13.8,14.4Z"/>
  <polygon class="cls-8" points="627 897.8 642 897.8 642 897.8 642 897.8 642 929.2 646.4 929.2 646.4 897.8 661.3 897.8 661.3 893.8 627 893.8 627 897.8"/>
  <polygon class="cls-6" points="700.5 912.3 714.7 912.3 714.7 908.2 700.5 908.2 700.5 897.9 724 897.9 724 893.8 696.1 893.8 696.1 893.8 696.1 929.2 725.4 929.2 725.4 925.1 700.5 925.1 700.5 912.3"/>
  <polygon class="cls-4" points="769.2 893.8 764.8 893.8 764.8 929.2 792.4 929.2 792.4 925.1 769.2 925.1 769.2 893.8"/>
  <path class="cls-5" d="M849.7,908.2c-6.5-.7-11.6-.2-14.6-2.5-1.1-.9-1.7-1.8-1.7-3.2,0-3,3.6-5.5,9.2-5.5s9.9,1.8,14.3,5.3l2.6-3.7c-5.1-3.8-11-5.8-17-5.8s-13.7,4.3-13.7,9.8,1.8,5.7,5.1,7.3c3.8,1.7,8.5,1.8,14.6,2.2,5.5.5,8.3,3.1,8.3,6.3s-4.3,7.4-11,7.4-10.8-2-15.8-6h0l-2.6,3.8c5.5,4.3,11.5,6.2,18.5,6.2,10,0,15.7-5.3,15.7-11.4s-4.3-9.7-11.7-10.5Z"/>
  <path class="cls-2" d="M673.5,514.4h0s-53.6-65.7-128.7-20.7c0,0,128.7,45.7,128.7,144.7,0-99,128.7-144.7,128.7-144.7-75.1-45-128.7,20.7-128.7,20.7Z"/>
  <polygon class="cls-3" points="707.4 476.4 673.5 419.9 639.6 476.4 673.5 498.8 707.4 476.4"/>
</svg>