<?xml version="1.0" encoding="UTF-8"?>
<svg id="katman_1" data-name="katman 1" xmlns="http://www.w3.org/2000/svg" xmlns:xlink="http://www.w3.org/1999/xlink" version="1.1" viewBox="0 0 1350 1350">
  <defs>
    <style>
      .cls-1 {
        fill: url(#Adsız_degrade_8);
      }

      .cls-1, .cls-2, .cls-3, .cls-4, .cls-5, .cls-6, .cls-7, .cls-8, .cls-9, .cls-10, .cls-11, .cls-12, .cls-13, .cls-14, .cls-15, .cls-16, .cls-17, .cls-18, .cls-19, .cls-20, .cls-21, .cls-22, .cls-23, .cls-24, .cls-25 {
        stroke-width: 0px;
      }

      .cls-2 {
        fill: url(#Adsız_degrade_8-21);
      }

      .cls-3 {
        fill: url(#Adsız_degrade_8-22);
      }

      .cls-4 {
        fill: url(#Adsız_degrade_8-20);
      }

      .cls-5 {
        fill: url(#Adsız_degrade_8-18);
      }

      .cls-6 {
        fill: url(#Adsız_degrade_8-17);
      }

      .cls-7 {
        fill: url(#Adsız_degrade_8-15);
      }

      .cls-8 {
        fill: url(#Adsız_degrade_8-16);
      }

      .cls-9 {
        fill: url(#Adsız_degrade_8-13);
      }

      .cls-10 {
        fill: url(#Adsız_degrade_8-14);
      }

      .cls-11 {
        fill: url(#Adsız_degrade_8-19);
      }

      .cls-12 {
        fill: url(#Adsız_degrade_8-12);
      }

      .cls-13 {
        fill: url(#Adsız_degrade_8-10);
      }

      .cls-14 {
        fill: url(#Adsız_degrade_8-11);
      }

      .cls-15 {
        fill: url(#Adsız_degrade_8-23);
      }

      .cls-16 {
        fill: url(#Adsız_degrade_8-25);
      }

      .cls-17 {
        fill: url(#Adsız_degrade_8-24);
      }

      .cls-18 {
        fill: url(#Adsız_degrade_8-6);
      }

      .cls-19 {
        fill: url(#Adsız_degrade_8-7);
      }

      .cls-20 {
        fill: url(#Adsız_degrade_8-2);
      }

      .cls-21 {
        fill: url(#Adsız_degrade_8-9);
      }

      .cls-22 {
        fill: url(#Adsız_degrade_8-3);
      }

      .cls-23 {
        fill: url(#Adsız_degrade_8-8);
      }

      .cls-24 {
        fill: url(#Adsız_degrade_8-5);
      }

      .cls-25 {
        fill: url(#Adsız_degrade_8-4);
      }
    </style>
    <linearGradient id="Adsız_degrade_8" data-name="Adsız degrade 8" x1="1225.2" y1="1611.9" x2="-265.4" y2="121.3" gradientUnits="userSpaceOnUse">
      <stop offset="0" stop-color="#a754cf"/>
      <stop offset=".5" stop-color="#547ccf"/>
      <stop offset="1" stop-color="#54b9cf"/>
    </linearGradient>
    <linearGradient id="Adsız_degrade_8-2" data-name="Adsız degrade 8" x1="1224.3" y1="1612.8" x2="-266.3" y2="122.2" xlink:href="#Adsız_degrade_8"/>
    <linearGradient id="Adsız_degrade_8-3" data-name="Adsız degrade 8" x1="102.6" y1="514.5" x2="62.3" y2="474.3" xlink:href="#Adsız_degrade_8"/>
    <linearGradient id="Adsız_degrade_8-4" data-name="Adsız degrade 8" x1="1295.8" y1="1540.4" x2="-194.8" y2="49.7" xlink:href="#Adsız_degrade_8"/>
    <linearGradient id="Adsız_degrade_8-5" data-name="Adsız degrade 8" x1="1725.6" y1="1111.5" x2="235" y2="-379.1" xlink:href="#Adsız_degrade_8"/>
    <linearGradient id="Adsız_degrade_8-6" data-name="Adsız degrade 8" x1="1510.9" y1="1326.3" x2="20.2" y2="-164.4" xlink:href="#Adsız_degrade_8"/>
    <linearGradient id="Adsız_degrade_8-7" data-name="Adsız degrade 8" x1="1694.1" y1="1143" x2="203.5" y2="-347.6" xlink:href="#Adsız_degrade_8"/>
    <linearGradient id="Adsız_degrade_8-8" data-name="Adsız degrade 8" x1="1327" y1="1510.1" x2="-163.6" y2="19.5" xlink:href="#Adsız_degrade_8"/>
    <linearGradient id="Adsız_degrade_8-9" data-name="Adsız degrade 8" x1="1346.1" y1="1491.1" x2="-144.6" y2=".4" xlink:href="#Adsız_degrade_8"/>
    <linearGradient id="Adsız_degrade_8-10" data-name="Adsız degrade 8" x1="1376.7" y1="1460.5" x2="-113.9" y2="-30.2" xlink:href="#Adsız_degrade_8"/>
    <linearGradient id="Adsız_degrade_8-11" data-name="Adsız degrade 8" x1="1659.2" y1="1177.9" x2="168.6" y2="-312.7" xlink:href="#Adsız_degrade_8"/>
    <linearGradient id="Adsız_degrade_8-12" data-name="Adsız degrade 8" x1="1577.8" y1="1259.4" x2="87.1" y2="-231.3" xlink:href="#Adsız_degrade_8"/>
    <linearGradient id="Adsız_degrade_8-13" data-name="Adsız degrade 8" x1="1623.3" y1="1213.8" x2="132.7" y2="-276.8" xlink:href="#Adsız_degrade_8"/>
    <linearGradient id="Adsız_degrade_8-14" data-name="Adsız degrade 8" x1="1505.8" y1="1331.4" x2="15.1" y2="-159.2" xlink:href="#Adsız_degrade_8"/>
    <linearGradient id="Adsız_degrade_8-15" data-name="Adsız degrade 8" x1="1064.8" y1="1772.3" x2="-425.8" y2="281.7" xlink:href="#Adsız_degrade_8"/>
    <linearGradient id="Adsız_degrade_8-16" data-name="Adsız degrade 8" x1="1039.5" y1="1797.7" x2="-451.1" y2="307" xlink:href="#Adsız_degrade_8"/>
    <linearGradient id="Adsız_degrade_8-17" data-name="Adsız degrade 8" x1="1220.7" y1="1616.4" x2="-269.9" y2="125.8" xlink:href="#Adsız_degrade_8"/>
    <linearGradient id="Adsız_degrade_8-18" data-name="Adsız degrade 8" x1="1205.6" y1="1631.6" x2="-285.1" y2="140.9" xlink:href="#Adsız_degrade_8"/>
    <linearGradient id="Adsız_degrade_8-19" data-name="Adsız degrade 8" x1="1122.5" y1="1714.7" x2="-368.2" y2="224" xlink:href="#Adsız_degrade_8"/>
    <linearGradient id="Adsız_degrade_8-20" data-name="Adsız degrade 8" x1="1528.2" y1="1308.9" x2="37.6" y2="-181.7" xlink:href="#Adsız_degrade_8"/>
    <linearGradient id="Adsız_degrade_8-21" data-name="Adsız degrade 8" x1="1585.5" y1="1251.7" x2="94.8" y2="-238.9" xlink:href="#Adsız_degrade_8"/>
    <linearGradient id="Adsız_degrade_8-22" data-name="Adsız degrade 8" x1="1611.6" y1="1225.6" x2="120.9" y2="-265.1" xlink:href="#Adsız_degrade_8"/>
    <linearGradient id="Adsız_degrade_8-23" data-name="Adsız degrade 8" x1="1291.2" y1="1546" x2="-199.5" y2="55.3" xlink:href="#Adsız_degrade_8"/>
    <linearGradient id="Adsız_degrade_8-24" data-name="Adsız degrade 8" x1="1395.1" y1="1442.1" x2="-95.6" y2="-48.6" xlink:href="#Adsız_degrade_8"/>
    <linearGradient id="Adsız_degrade_8-25" data-name="Adsız degrade 8" x1="1453.8" y1="1383.4" x2="-36.9" y2="-107.2" xlink:href="#Adsız_degrade_8"/>
  </defs>
  <path class="cls-1" d="M365.4,754.9h0c-5.1.9-8.6,2.7-8.6,4.7,0,3,7.8,5.5,17.4,5.5s15.2-1.8,17-4.2c-2.5,1.8-7.8,3-13.9,3s-15.6-2.4-15.6-5.5,1.4-2.5,3.7-3.5Z"/>
  <path class="cls-20" d="M350.2,747.1h0c-15.2,2.7-25.5,7.9-25.5,13.9,0,8.9,23.1,16.1,51.6,16.1s44.8-5.2,50.2-12.4c-7.6,5.2-23.2,8.8-41.2,8.8s-46-7.2-46-16.1,4.1-7.6,10.8-10.4Z"/>
  <polygon class="cls-22" points="82.4 494.4 82.4 494.4 82.4 494.4 82.4 494.4"/>
  <path class="cls-25" d="M81.5,607.7h0c0,0,0,0,0,0h18.5c32.2,0,54.1-1.5,65.9-4.2,16.1-3.9,28.6-11.5,37.9-22.7,2-2.5,3.8-5.2,5.4-8,0,1.1,0,2.1,0,3.2,0,44.9,15.9,83.2,47.7,114.9,22.7,22.7,49.2,37.1,79.3,43.6,0,.1,0,.3,0,.4-29.7,3.3-54.7,11.7-69.9,23,24.7-9.7,59.8-15.7,98.7-15.7s5.7,0,8.6,0c-.2,1-.4,2-.6,3-.2,1-.4,1.9-.5,2.8-12.1,1-21.7,4-24.5,7.8,4.6-3.1,13.6-5.4,24.2-5.8-1.1,10.5,3.7,10.5,3.7,10.5,0,0,.8-4.2,1.9-10.5,15.5.5,27.5,5,27.5,10.5s-2.7,5-7.1,6.8c10-1.8,16.8-5.2,16.8-9.1,0-5.9-15.3-10.7-34-10.7s-1.8,0-2.7,0c.2-1.7.6-3.5,1-5.3,33.2,1.3,62.8,6.9,84.5,15.4-13.7-10.1-35.3-17.9-61-21.8,33.3-5.4,62.4-20.5,87.2-45.4,19.1-19.2,32.4-40.8,40-64.9v101.7h25.9v-233.7h45.7c17.8,0,30.5,1.5,38.1,4.6,7.6,3,13.8,8.2,18.5,15.3,4.7,7.1,7,15,7,23.7s-2.3,17-7,24.2c-4.6,7.2-11.1,12.5-19.4,15.7s-21.1,4.9-38.4,4.9l-37.4-.2,103.7,145.5h28.9l-89.1-120.3c21.7-.1,34.7-2.9,47.1-8.4,12.3-5.4,21.7-13.5,28.4-24.2,6.7-10.7,10-23.1,10-37.2s-4.9-31.2-14.5-42.8c-9.6-11.6-22.1-19.1-37.5-22.6-10.2-2.4-29.7-3.5-58.5-3.5h-51.6v54.5c-7.6-24.2-20.9-45.9-40.1-64.8-31.8-31.5-71.4-47.3-118.6-47.3s-56.2,7.2-81.3,21.8c-25,14.5-44.8,34.5-59.3,60.1-6,10.6-10.8,21.7-14.3,33-1.8-11.8-6.2-21.9-13.2-30.3-9.4-11.3-21.5-18.8-36.3-22.5-10.3-2.6-30.2-3.9-59.9-3.9h-51.6v258.9h25.9v-120.3ZM252,525c12.2-21.6,29.4-38.7,51.2-51.5,21.9-12.7,45-19.1,69.5-19.1s48.3,6.4,70.5,19.1c22.1,12.7,39.4,29.7,51.5,50.9,12.2,21.2,18.3,44.9,18.3,71.1s-6.1,50.3-18.3,71.9c-12.2,21.5-29.2,38.5-51,50.9-15.1,8.7-31.2,14.2-48.1,16.8-4.8-.6-9.8-1.1-14.9-1.4,2.9-15.9,6-33.8,6.1-37.6,17.4-10.4,33.1-20.8,33.1-20.8l-38.5-29.1c3.7,1,7.1,1.5,9.9,1.3,22.5-1.3,26.2-10.7,36.1-8.2,7,9.7,39.2,11.1,43.9-2.5-13.9,1.8-30.2-14-47.2-29.8-16.8-15.6-34.3-31.1-50.9-29.9-33.4,2.5-33-11.9-21.5-36.7,7.3-15.9,1.4-26.8-7.3-32.3,6.3-1.7,8.5-6.5,11.3-11.8-8.1,5.6-21,7.2-25.5,7.6-.5,0-1,0-1.4.1h-.1c-12.4,1.8-16.7,24-16.7,24l-32.7,45.9s28.3-33.2,39.1-40.6c5.7,0,13.5,0,16.2-6,0,0,8.7-1.5-6.7,40.6-10.4,28.3,11.6,55,34,69.2l10.7,8.7,9.5,47.5-15.3,9.8s-11,2.9-14.2,6.1c-3.3,3.2-1,18.9-1,18.9,2-6.1,0-11.8,21.7-24.1,2.8-1.6,5.7-3.3,8.6-5-1.3,6.9-4.1,22-6.6,34.4-3.4-.1-6.9-.3-10.4-.3-7.2,0-14.3.3-21.2.9-1.3-.3-2.6-.5-3.9-.8.4-3.3.5-7.4.3-12.1,1.4-11.1,5.9-25.8,20.1-30.6-12.7,2.7-18.4,13-20.8,22.5-3.1-24.2-15.8-56.3-52.7-63.5,42,17.8,39.8,53.1,39.8,53.1,0,0-22.4-37.1-20.2-33,9.6,18.2,10.9,30.3,10.9,30.3l-14.2-1.5s26,7,32.5,33.6c-22.9-6-43.3-17.9-61.3-35.8-27.2-27.1-40.7-60.2-40.7-99.4s6.2-50.5,18.5-72h0ZM378.7,650.7l30.7,25.2-23,14.8h0c-1.5-9.4-5.5-28.2-7.7-40ZM81.5,494.4h0s45.7,0,45.7,0c17.5,0,30.1,1.5,37.8,4.6,7.6,3,13.9,8.2,18.6,15.4,4.7,7.2,7,15.1,7,23.8s-2.3,17-7,24.2c-4.7,7.2-11.1,12.4-19.3,15.6-8.2,3.2-21.2,4.8-39,4.8l-43.8-.5v-87.9h0,0Z"/>
  <path class="cls-24" d="M1289.2,621c-17.6,0-30.8,6.5-41,19.5h0c-8,10.3-12.1,21.9-12.1,35s4.7,26.4,14.3,37.5c9.5,11,22.7,16.5,39.5,16.5s14.4-1.1,20.4-3.4c6-2.3,11.4-5.7,16.3-10.1,4.8-4.4,9.1-10.2,12.7-17.5l-11.2-5.9c-4.1,6.7-7.9,11.7-11.3,14.7-3.5,3-7.7,5.4-12.7,7.2-5,1.8-10,2.8-15.3,2.8-10.9,0-20.1-3.8-27.5-11.5-7.4-7.7-11.2-17.5-11.5-29.5h92.9c-.1-14.2-3.9-25.9-11.4-35.3-10.5-13.4-24.6-20-42.2-20ZM1251.1,664.8c2.8-9.5,6.8-16.6,12.1-21.4h0c7.3-6.5,16-9.8,26.1-9.8s12,1.3,17.6,3.9c5.6,2.6,10.1,6,13.5,10.3,3.3,4.3,6,9.9,7.8,17h-77Z"/>
  <path class="cls-18" d="M838.2,689h0c0-13.6.7-23,2-28.1,2-7.8,6.2-14.5,12.5-19.8,6.4-5.3,13.6-8,21.6-8s12.8,1.7,17.1,5.1c4.4,3.5,7.3,8.6,8.8,15.5,1,3.9,1.5,11.9,1.5,23.8v49.3h13.3v-53.2c0-14.1-1.4-24.4-4.3-31-2.9-6.7-7.3-12-13.2-15.9-6-3.9-12.8-5.8-20.5-5.8s-14.6,1.8-21.1,5.3c-6.5,3.5-12.3,8.8-17.7,15.9v-18.5h-13.3v103.7h13.3v-38.2Z"/>
  <path class="cls-19" d="M1214.4,692h0c0-17.9.8-29.8,2.4-35.7,2.2-7.6,5.3-13.3,9.5-16.9,4.1-3.6,8.3-5.5,12.8-5.5s4.2.7,7,1.8l6.9-11.2c-4.1-2.4-8.1-3.5-11.7-3.5s-9.5,1.5-14,4.4c-4.5,3-8.8,7.4-12.8,13.3v-15.1h-13.6v103.3h13.6v-34.9Z"/>
  <path class="cls-23" d="M426.6,640.9c13.5,34.6,63-2.7,63-2.7l-20.8,8.6c-20.7,8.6-42.2-5.9-42.2-5.9Z"/>
  <path class="cls-21" d="M325,482.6h0c2.9-1.9,5.9-3.7,9-5.3,2.2-1.1,4.7-1.8,7.5-2.7,0,2.4,0,4.4,0,6.3,1.2-1.9,2.4-1.1,3.6.2.4-2,.5-3.7,1-5.2.3-.7,1.4-1.5,1.9-1.5,3.3.4,6.6.6,9.7,1.6,5.3,1.9,10.3,4.4,15.5,6.5,3.9,1.5,7.8,2.7,11.8,4.1-5.1-2.8-10.4-5-15-8.2-6.2-4.4-12.9-7.2-20.4-8.3-1.3-.2-2.6-1.4-3.6-2.5-.6-.7-1.5-1.1-2.2-1.1s-.9.2-1.1.8c-.9,3-3.7,3.4-5.9,4.6-3.6,1.9-7.5,3.4-10.5,6-6.5,5.8-12.2,12.6-20.4,16.5,1.8-.6,3.6-1.2,5.1-2.2,4.7-3.1,9.2-6.5,13.8-9.6Z"/>
  <path class="cls-13" d="M400.4,512h0c4.8.3,9.4,3.2,14.4,1,1.6-.7,3.2-.6,4.8,1.3,2.2,2.9,5.1,5.3,7.9,7.8,5.3,4.9,5.5,5.2,1.6,11.4-.5.8-1.1,1.5-1.7,2.3-2.2,2.9-4.4,5.8-6.5,8.6.1.2.2.3.3.4.9-.4,1.7-.8,2.9-1.4-.2,1.1-.4,1.9-.7,3.6,2.1-1.8,3.5-3.1,5-4.3,3.3-3,6.3-6.1,9.8-8.8,1.1-.8,3.6-1,4.9-.4,6.2,3.3,12.1,6.9,18.2,10.3.7.4,1.7.1,2.5.4,1.1.4,2.1,1.1,3.2,1.6,0,1,.2,2,.2,3.2.7-.3,1.3-.5,1.8-.7.6,3,1.1,6,1.7,8.8.2,0,.5,0,.7-.1.1-1,.3-2,.5-3.6,1,3,1.8,5.4,2.6,7.8.2,0,.5-.2.7-.2,0-.7,0-1.2,0-1.8,1.9,7,8.3,10.6,12.1,16.2.4.5,1,.9,1.8,1.5,0-.8,0-1.2,0-1.5-4.1-11.2-8-22.5-12.7-33.6-2.7-6.7-7-12-14.9-14.1-3.9-1-7.3-4-10.8-6.1,3.1-7.3,9.3-9.2,14.8-12-3,.2-6.2,1.4-8.9.9-3.8-.7-6.6.2-9.2,2.6-2.5,2.3-5.4,2.4-8,.4-1.9-1.6-3.9-3.4-4.9-5.6-1.2-2.6-2.8-4-5.2-4s-.8,0-1.2,0c-4.2.7-8.2,1.6-12.3,2.4-6.8,1.4-13.6,2.7-20.4,4,0,.2,0,.4,0,.7,1.8.4,3.4,1,5.1,1.2Z"/>
  <path class="cls-14" d="M1185.8,706.5h0c3.3-7.2,5-17.9,5-32.2v-50.7h-13.6v48.3c0,12.9-.7,21.3-2,25.4-2,5.8-5.6,10.5-10.7,14-5.2,3.6-11.5,5.4-18.8,5.4s-13.8-1.8-19.2-5.5c-5.3-3.7-9-8.6-10.9-15-1.3-4.5-1.9-12.5-1.9-24.3v-48.3h-13.3v49.8c0,14.7,1.7,25.7,5,33,3.3,7.3,8.3,13,15,17,6.8,4.1,15.2,6.1,25.2,6.1s18.4-2,25.1-6.1c6.7-4.1,11.6-9.8,15-17Z"/>
  <path class="cls-12" d="M1019.9,642.6h0c-5.2-7.2-11.2-12.5-18.1-16.2-6.9-3.6-14.5-5.4-23-5.4-14.7,0-27.2,5.3-37.7,15.8s-15.7,23.3-15.7,38.2,5.2,28,15.5,38.6c10.3,10.6,22.8,15.9,37.4,15.9s15.8-1.7,22.8-5.1c6.9-3.4,13.2-8.5,18.7-15.3v17.7h13.1v-103.3h-13.1v19ZM1015.6,696.9h0c-3.6,6.3-8.6,11.2-15.1,14.9-6.5,3.7-13.4,5.5-20.7,5.5s-14-1.8-20.3-5.6c-6.3-3.6-11.3-8.8-15-15.5-3.7-6.6-5.6-13.5-5.6-20.8s1.9-14.3,5.6-20.9c3.7-6.6,8.7-11.7,14.9-15.3,6.2-3.7,13.1-5.5,20.5-5.5,11.5,0,21.2,4,29.1,12,7.8,8.1,11.8,18,11.8,30s-1.8,14.9-5.2,21.1Z"/>
  <polygon class="cls-9" points="1059 726.9 1072.3 726.9 1072.3 635.1 1093.3 635.1 1093.3 623.6 1072.3 623.6 1072.3 585.3 1059 585.3 1059 623.6 1040.9 623.6 1040.9 635.1 1059 635.1 1059 726.9"/>
  <path class="cls-10" d="M758,728.8v-233.7h57.8v-25.3h-160.4c11,4.5,20.5,11.5,28.1,20.7,1.3,1.5,2.5,3,3.6,4.6h44.6v233.7h26.4Z"/>
  <path class="cls-7" d="M197.5,877.3h0c-3.4,2.7-13.2,10.7-17.6,10.7s-2.8-.7-2.8-2.5c0-5.1,8.1-14.1,11.7-17.4,1.8-1.6,4.9-4.2,4.7-7-.4-5.9-1.7-6.3-2.6-6.3-2.8,0-14,10.8-16.4,13l-11.3,10.1c-5.3,4.8-11.6,8.1-13.7,8.1s-.9-1.1-.9-1.7c0-4.8,2.7-7.3,6.3-9.8,4.4-3.2,5.1-4.2,8.7-8.2,1.3-1,4.3-4.2,4.6-6,.5-3.4-5.4-2.4-7-2.4s-3.4.2-5,1.2c-7.3,4.8-15.8,16.2-15.8,27.2s3.1,11.3,8.7,11.3,13.9-10.3,18.4-14.1l.2.2c-1.1,3-2.4,6.2-2.4,9.6s2.5,7.5,6.7,7.5c8.4,0,20.5-13.1,26.3-18.7l-.7-4.9Z"/>
  <path class="cls-8" d="M113.7,853.4h0c12.7-14.5,17.6-19,19-19s.7,1.1-.2,2.2c-5.5,6.2-15.3,18.6-15.3,27.1s.6,3.4,2.6,3.4,8-4.6,9.9-5.9c1.6-1.1,6.4-4.6,6.4-6.6s-1.1-1.5-2-1.6c3.6-6.5,13-19.8,13-27.1s-1.8-7.4-5.7-7.4c-6,0-22.8,17-26.9,21.9l-33.2,39.4c-4.8.9-9.9,1-14.7,2.2-1.7.5-2.5,1.8-3.5,3.2-1.7,2.3-7.1,8.7-7.1,11.3s1.9,2.4,3.5,2.4c3.1,0,6.3-1.8,9-2.7l2.5-1.1c10.3-.3,20.4,1,30.4,3.2,22.3,4.7,21.9,4.5,29.2-2.8l6-6c-17.1-4.1-26.9-6-45.8-9.7l22.8-26.1Z"/>
  <path class="cls-6" d="M484.3,820.4h0c-23,0-47.6,6-53,12.4-2.3,2.8-5.8,10.1-5.8,13.8s2.4,2.7,4.1,2.7c3.3,0,7.4-.8,10.6-1.1l8.9-.9c.6,0,2.2-.3,2.2-1.3,0-1.7-2.3-1.2-9.5-1.9v-.2c7.8-3.1,16.2-4.6,24.5-5.9l-16.9,24.4c-10.6.3-16.5,5.8-17.5,11.7-.5,2.3,3.7,3.8,5.5,4.2l-10.6,17.4c-1.1,1.8-1.9,3.4-1.9,5.6s1.2,2.4,2.6,2.4c3.1,0,9.8-4.2,8.4-8.2l9.8-14.2,42.2,15.6c3.1,1.1,11.2,5.1,14.1,5.1s3.4-8.5,1.3-12.5c-.6-.9-.1-3.9-19.7-10.1l-30.8-9.8v-.2c41-7.6,46.7-7.5,56.1-15,4.6-3.7,8.2-12.4,8.2-18.2,0-14.6-22.2-15.6-32.7-15.6ZM488.8,852.3h0l-28.4,7.4,8.4-12.9c2-3.2,4.1-5.8,4-9.8l21.1-1.5c2.5-.2,14.8-.1,14.8,3.4,0,5.6-15.3,12.1-19.9,13.3Z"/>
  <path class="cls-5" d="M379.6,780.7h0c-13.2,3.3-36.5-.9-40.5-2.6l-.5.5c-6.2,7.8,33.6,9.5,26.7,9.5s-24.1,2.3-25.8,9.8c-1.8,7.5,26,6,28.4,8.4,2.5,2.4-28.8,3.1-28.8,5.3s26.8,0,26.8,3-28.5,3.5-31.7,6.7c-3.3,3.2,20,4,23.1,7.2,3.2,3.1-6.9,3.4-8.7,5.2-1.9,1.8,17.5-3.9,17.5-5.8s-22.9-6.2-16.4-6.2,30.9-6.3,32.1-9.1c1.2-2.8-8.8-2-7.4-3.5,1.5-1.5,6.7-1.9,6.7-5.1,0-5.3-28.8-3.3-31.4-8.6-2.6-5.2,42.9-2.8,45.6-5.4,2.6-2.7-15.6-1.6-17.8-3.7-2.1-2.2,35.9-1.9,39.1-5.1,3.3-3.2-23.8-3.8-37-.5Z"/>
  <path class="cls-11" d="M357.1,897.6h0s-.2-.2-.2-.2l16.9-25.1c1.6-2.4,4.7-7.1,4.7-10s-1.2-6-3.1-5.7c-2.2.3-9.5,8.2-21.2,19-4.8,4.5-10.2,9.3-16.3,10,.1-2.4.8-4.7,2.2-6.6,3.8-3,16.6-14.8,16.6-19.1s-3.2-5.2-4.9-5.2c-2.8,0-18.3,11.4-21.6,23.5-3.9,3.2-10.4,9.5-14.9,9.5s-3.5-1.4-3.5-3.2c0-4.6,5.6-10.1,8.9-13,2.6-2.2,4.8-3.9,4.8-7.4-.2-2-1-3.9-2.7-6-1.1-1.4-7.4,0-18.1,1.5.5-1,.8-2,.8-3.2s-.9-1.9-2-1.9c-2.7,0-14.4,8.2-14.4,16.4s.7,3.3,3.1,3.5c-2.2,3.1-4.6,5.9-7.5,8.3v.2c-3.8,2.7-8,5.3-10.5,5.3s-2.8-.7-2.8-2.5c0-5.1,8.1-14.1,11.7-17.4,1.8-1.6,4.9-4.2,4.7-7-.5-5.9-1.7-6.3-2.6-6.3-2.8,0-14,10.8-16.4,13l-11.3,10.1c-5.4,4.8-11.6,8.1-13.7,8.1s-.9-1.1-.9-1.7c0-4.8,2.7-7.3,6.3-9.8,4.4-3.2,5.1-4.2,8.7-8.2,1.2-1,4.3-4.2,4.6-6,.5-3.4-5.4-2.4-7-2.4s-3.4.2-5,1.2c-5.6,3.7-12,11.4-14.6,19.8-3.6,3.1-9.2,8.1-13.1,8.1s-4.2-2.5-4.1-5.3v-4.8c.1,0,8-7.9,8-7.9,4.9,1,10.6-8.2,10.1-10.6-.1-.6-.2-1.8-1.5-1.8-2.4,0-4.8,2.3-6.5,3.9l-10.1,9.2.3-10.4c.1-1.8.5-5.9-2.3-5.9s-20,14.5-20,16.8.5,1.4,1.2,1.5c.8.1,2.5-1,10.9-5.4v13.7c.1,0-5.9,5.3-5.9,5.3-2.9.8-4.1,1.6-6.1,3.9-1,1.2-4,5.1-4,6.7s.8,1.6,1.8,1.6c2.3,0,5.9-3.4,7.5-4.9l6.6-6.4c0,4.3-1.4,13.7,5.2,13.7s14.7-8.8,20.5-14.6c0,.3,0,.7,0,1,0,4.9,3.1,11.3,8.7,11.3s13.9-10.3,18.3-14.1l.2.2c-1.1,3-2.4,6.2-2.4,9.6s2.5,7.5,6.7,7.5c8.4,0,20.5-13.1,26.3-18.7l-.2-1.2c2.3-2.2,4.5-4.5,6.5-7.6l11.9-2.6.2.2c-4.6,5.5-10.5,11.5-10.5,19.3s3,8.8,7.8,8.8,16.1-9.4,21.7-15.1c.8,7.8,5.8,12.2,8.9,12.4,1.4.1,9.7-6,19-13.9l.2.2-15.3,25.8c-.9,1.5-3.1,5-3.1,6.8s1,7.5,3.4,7.5,5-4.5,6.2-5.7l34.3-37.7-.9-4.2-25.3,22.5Z"/>
  <path class="cls-4" d="M1100.8,820h-.4c-14.8.6-34.4,14.1-31.7,32.6-12.1,6.4-23.4,11.6-25.1,29.6-1,10.3,7.6,17.9,17.9,17.9s17.1-5.8,24.3-10.1c1.9,1.9,7.1,8.3,9.9,8.3s10.6-10.7,10.6-13.9-.9-2-1.8-2-2.1.9-3.3.9-3-1-3.5-3.1c4.7-4.2,12.8-9.5,12.8-16.4s-1.2-6-2.2-8.8l-18.2,14.5c-2.8-4.3-4.8-9-5.6-14.1l17-9.9c5.3-3.2,10.2-8.1,10.2-14.9h0c0-5.7-5.3-10.5-10.9-10.5ZM1060.5,883h0s-.5,0-.5,0c-1.7,0-5,0-4.9-2,.2-5.5,10.8-15.7,16.1-17.9l6.4,14.5c-5.2,2.8-10.9,5.5-17.1,5.5ZM1083,845.2c2.2-8,4.4-17.2,16.8-19.5.9-.1,1.9.3,1.9,1.4,0,6.8-13.4,14.9-18.7,18.1Z"/>
  <path class="cls-2" d="M1224.5,873.6c0-5.6-5.4-11.6-16.9-14.4-31.8-7.4-30.3-8.2-30.3-9.8.1-2.6,12.8-13.2,42.2-14.2l.2.2c-6.2,4.2-8.3,7.7-8.3,8,0,1.1.7,1.7,1.8,1.7s2.1-.7,2.8-1.1c4.4-3.2,5.4-3.8,10.3-5.6,6.7-2.6,9.6-4.6,9.6-13s-.3-3.2-3-3.8c-4.8-1-9.6-1.6-14.4-1.6-25,0-45.6,10.8-49.1,16.6-1.8,3.1-3.7,11.4-3.7,15.2,0,6.8,5.9,8.7,11.6,9.6,5.5.9,37,5.5,37,11.3s-11.2,13.6-51.8,12.1v-.2c.7-.7,1.3-1.2,1.9-1.7.8-.5,1.9-1,1.9-2.2s-.3-.8-.9-.8c-1.7,0-8.4,2.2-9.8,3.3-1.8,1.7-5.8,7.7-5.8,10.1,0,6.6,13.9,6.6,18.3,6.6,16.4,0,56.2-3.7,56.2-26.3h0Z"/>
  <path class="cls-3" d="M1341.4,879c-4.9,3.3-11.4,9.1-16.2,9.1h0c-1.8,0-3.5-.8-3.5-2.7,0-5.3,9.9-13.3,9.9-17s-1.2-3.8-3.3-4.7c1-.3,4-1.5,4-2.8s-2.2-5.6-7.4-5.5c-11.4.3-35.1,11.2-41,23.3-10.3,8.8-12.8,10.3-22,9.7,12.8-11.3,18.5-19.1,18.5-25.4s-1.7-5.4-4.8-5.4c-6.2,0-17.7,7.5-22.6,11.1l-.2-.2c2.3-5.1,5.8-9.3,9.7-13.4,1.8-1.9,7.8-7.4,7.8-9.9s-3.6-2.7-5.2-2.7c-4.3,0-6.4,3.3-9.1,6.3l-30.2,32.5.5,5.3,18-17.2.2.2c-7.4,12.5-13.1,21.9-18.3,29.3-4.7,6.6-7.2,12.3-7.1,18,0,2,.7,5.1,3.3,5.1s4.2-3.1,5.1-4.8l10.7-21c1.5.3,3,.7,4.6.7s3.5-.3,5.2-.7c2.7,1.4,5,2.3,8.1,2.3,10.3,0,19.2-5.8,26.7-12.5,1.1,5.6,6.9,12,9.8,12s9.9-5.9,12.1-7.6l10.5-8.4.2.2c-1.5,3.1-4.2,9.1-4.2,12.8s1.7,6,5.5,6c5.6,0,20.9-12.2,25.8-17.8l-.9-4.2ZM1255.4,886.4h0c-3.1-1-6.3-1.4-9.6-1.1,3.1-4.1,6.3-8,10.5-11,1.5-1,6.9-4.6,8.8-4.6s1.2.8,1.2,1.6c0,2-1.6,4-2.8,5.6l-8.1,9.6ZM1293.1,889.8h0c-.1,0-.3,0-.4,0-1.4,0-1.8-1.8-1.9-2.3,0-5.6,3.3-12.5,30.4-20.8l.2.2c-22.6,22.8-26.1,22.5-28.4,22.9Z"/>
  <path class="cls-15" d="M717.1,850.7h0s-7.1-.6-7.1-.6c1.1-1.6,4.4-5.4,4.4-7.4s-2.2-2.2-3.6-2.2c-6.6,0-9.1,5.3-12.5,10-12.2.5-13.1,2.3-19.3,12.3l-1.2,2c6-.9,3.9-.5,10.8-.5-4.2,7.2-10.5,13-17.3,18.2v.4c-2.9,2.4-6.2,4.5-8.8,4.5s-3.5-1.4-3.5-3.2c0-4.6,5.6-10.1,8.9-13,2.6-2.2,4.8-3.9,4.8-7.4-.2-2-1-3.9-2.7-6-1.1-1.4-7.4,0-18.1,1.5.5-1,.8-2,.8-3.2s-.9-1.9-2-1.9c-2.7,0-14.4,8.2-14.4,16.4s.7,3.3,3.1,3.5c-.7,1-1.5,2-2.2,2.9-3.1,2.6-6.2,6-10.7,5.2,2.2-4.4,4.4-8.4,4.4-13.5s-.7-5.8-4.1-6.7c1.2-.7,2.6-1.4,2.6-3.1,0-3.1-3.8-4.2-6.3-4.1-7,.3-15.2,3.4-21.3,8.4-5.4,4.2-9.3,8.9-10.2,15.5v-.4c0,0-6.9,5.2-6.9,5.2-5.6,4.2-10,7.6-17.3,6.4,7.3-4.4,14.8-11.4,14.8-20.7s-1.7-8.9-2.2-13.2c-.3-3.2-1-4.2-4.5-4.2s-6.3,3.7-6.5,7.4l-24.7,22.7c-.6.6-1.7,1.6-2.3,2.7-4.3,2.9-9,5.2-13.3,5.2s-7.4-1.5-7.1-5.8l.2-2.5c21.9-7.2,27.5-15.6,27.5-21.2s-4.6-5.5-8.2-5.5c-14.8-.1-31.3,15.2-30.9,30.1.2,7.5,4.1,14.9,12.4,14.9s17-5.6,23.9-11.8c2.6,7.3,10.4,11.2,17.6,11.6,8.7.4,20.3-8.9,27.4-15.8.9,9.5,6.1,14.9,11.7,14.9s12.8-3.7,17.5-8.5c4.6,0,8.2-.9,11.4-2.8h0s0,0,0,0c2.4-1.5,4.7-3.5,6.8-6.2,2.4-2.2,4.7-4.6,6.8-7.8l11.8-2.6.2.2c-4.6,5.5-10.5,11.5-10.5,19.3s3,8.8,7.8,8.8,18.2-11.3,23.2-16.7l.2.2c-1.5,3.3-3,7.6-3,11.4s2.7,7.6,7.2,7.6c9.7,0,22-12.2,28.7-18.3l-.6-5c-11.8,8.4-16,11.8-19.6,11.8s-3.4-1.5-3.4-4c0-6.8,6.5-16.2,10.4-21.2,12.5.8,13.4-3.4,18.8-14.2ZM538,861.6c.8-.2,1.4.5,1.4,1.3.1,1.9-6.7,9.8-16.8,13.2,3.1-7.5,9.7-13,15.4-14.5ZM561.7,887.7h0c-2-2.8-4.4-6.1-8.2-6.6v-.6c-.1,0,15.8-14.9,15.8-14.9.7,3.9,1.1,7,1.5,9.3-.3,6.6-2.2,8.5-9,12.8ZM613.6,886h0c-2.6,2.4-5,4.6-8.8,4.6s-5-1-5-4.3,2.2-8,4.7-10.5c3.4-3.3,8.8-6,12.7-8.3.5.2-4.9,7.4-4.9,13.3s.6,3.4,1.4,5.2Z"/>
  <path class="cls-17" d="M839,861h0s0,0,0,0h0s12.3-15.2,12.3-15.2c8.5-10.5,9.3-12.7,9.3-16.3s-.5-2.6-1.9-2.6c-2.4,0-7.2,6.4-8.5,8.2l-20.6,25.9-17.5,2,12.9-13.7c4.6-4.9,11.4-11.7,11.4-18.8s-2.8-11.2-12.3-11.2-24.2,2.7-33.6,5.8c-6.5,2-25.5,8.3-29.6,13-2,2.7-3.9,9.2-3.9,12.5s.8,5.2,3.4,5.2,3.2-.9,4.6-1.6c7.9-4,7.1-4.1,15.6-7.1,1.4-.5,2.8-1.1,2.8-2.7s-.8-1.4-1.6-1.7c18.7-7.8,33-12,39.1-12s4,.5,4,2.5-3.3,6.3-4.8,7.9c-10,11.4-18.2,20.3-22.6,24.5-17.3,3.3-17.4,4.1-18.7,4.1s-1.8-.8-2.6-.8c-3.1,0-6.4,6-6.4,8.7,0,3.9,3.6,5.4,11.6,4.7-1.6,3.1-9.7,10.9-9.7,14.1s3.1,4.9,5.6,4.9,5.2-4.6,6.6-6.5l11.8-13.9,21-2.7c-4.2,8-6,13.2-6.6,16.6-.6,3.4.1,5,2,5.7,1.5.5,3.8-.7,6.1-1.9,2.2-1.2,4.5-2.3,6.3-1.9-.5-2.2-1.2-4.8-1.2-6.8,0-3.4,4.2-8.8,5.9-11.7,4.7-.3,8.2,0,11.6.8,3.6-5.9,8.3-11,13.7-15.3-4.7-2.8-10.2-2.7-15.5-2.8Z"/>
  <path class="cls-16" d="M1007.6,827.6h0c-3.7,0-14.5,10.6-24.5,23-6,7.3-10.4,17.1-11.9,26.8-6.1,4.8-15.2,12.6-23.1,12.6s-7.4-1.5-7.1-5.8l.2-2.5c21.9-7.2,27.5-15.6,27.5-21.2s-4.6-5.5-8.2-5.5c-12.5,0-26.3,10.9-29.9,23.3-11.8,8.4-15.9,11.8-19.5,11.8s-3.4-1.5-3.4-4c0-6.8,6.5-16.2,10.4-21.2,12.5.8,13.5-3.4,18.8-14.2l-7.1-.6c1.1-1.6,4.5-5.4,4.5-7.4s-2.2-2.2-3.7-2.2c-6.6,0-9.1,5.3-12.5,10-12.2.5-13.1,2.3-19.3,12.3l-1.3,2c6-.9,3.9-.5,10.8-.5-2.8,4.7-6.5,8.9-10.6,12.7l-.2-.8c-3.5,2.6-6.7,7-11.7,6,2.2-4.4,4.5-8.4,4.5-13.5s-.7-5.8-4.1-6.7c1.3-.7,2.6-1.4,2.6-3.1,0-3.1-3.8-4.2-6.3-4.1-7,.3-15.2,3.4-21.3,8.4-6.4,4.9-10.6,10.6-10.4,19.1.5,10.4,5.9,16.3,11.8,16.3s12.8-3.7,17.5-8.5c7,0,11.7-2,16.1-6.5l1.8-1.4.2.2c-1.5,3.3-3,7.6-3,11.4s2.7,7.6,7.2,7.6c9,0,20.2-10.5,27.1-16.9,0,.1,0,.2,0,.4.2,7.5,4.1,14.9,12.4,14.9s21.3-8.7,28.5-16.3c0,.3,0,.5,0,.8,0,6.7,1.8,14.8,10.1,14.8s20.5-11.5,26.8-18l-1.6-3.4c-4.6,4.1-13.3,11.4-19.6,11.4s-4.7-2.3-5.7-4.9c-.6-2.7-.2-5.9.8-7.9,24.7-23.9,27.7-34,28.5-44.8.1-1.5-.3-4.2-2.3-4.2ZM957.4,861.6c.8-.2,1.4.5,1.4,1.3.1,1.9-6.7,9.8-16.8,13.2,3.1-7.5,9.7-13,15.4-14.5ZM873.1,886h0c-2.6,2.4-5,4.6-8.8,4.6s-5-1-5-4.3,2.2-8,4.7-10.5c3.4-3.3,8.8-6,12.7-8.3.5.2-4.9,7.4-4.9,13.3s.6,3.4,1.4,5.2ZM983.9,866h0s0,0,0,0c0,0,0,0,0,0l-.2-.2c5.4-11.7,11.8-22,17.4-24.7-2,6.5-9.1,17.4-17.2,24.9Z"/>
</svg>