<?xml version="1.0" standalone="no"?>
<!DOCTYPE svg PUBLIC "-//W3C//DTD SVG 20010904//EN"
 "http://www.w3.org/TR/2001/REC-SVG-20010904/DTD/svg10.dtd">
<svg version="1.0" xmlns="http://www.w3.org/2000/svg"
 width="1600.000000pt" height="1600.000000pt" viewBox="0 0 1600.000000 1600.000000"
 preserveAspectRatio="xMidYMid meet">

 <defs>
    <linearGradient id="mainGradient" x1="0%" y1="0%" x2="100%" y2="0%">
      <stop offset="0%" stop-color="#a754cf"/>
      <stop offset="50%" stop-color="#547ccf"/>
      <stop offset="100%" stop-color="#54b9cf"/>
    </linearGradient>
  </defs>

<g transform="translate(0.000000,1600.000000) scale(0.100000,-0.100000)"
fill="url(#mainGradient)" stroke="none">
<path d="M7521 15870 c-38 -18 -64 -20 -235 -20 -174 0 -194 -2 -221 -20 -25
-16 -47 -20 -126 -20 -81 0 -100 -3 -122 -20 -21 -17 -40 -20 -122 -20 -82 0
-101 -3 -122 -20 -20 -16 -41 -20 -93 -20 -45 0 -71 -5 -79 -14 -7 -8 -41 -15
-91 -18 -55 -3 -85 -10 -98 -21 -12 -11 -36 -17 -69 -17 -37 0 -54 -5 -68 -20
-14 -16 -31 -20 -79 -20 -49 0 -65 -4 -79 -20 -13 -16 -29 -20 -75 -20 -45 0
-61 -4 -75 -20 -12 -14 -29 -20 -60 -20 -30 0 -47 -6 -60 -20 -12 -14 -29 -20
-61 -20 -30 0 -46 -5 -50 -15 -4 -10 -19 -15 -49 -15 -31 0 -49 -6 -62 -20
-13 -14 -31 -20 -61 -20 -33 0 -46 -5 -54 -20 -7 -13 -21 -20 -38 -20 -15 0
-35 -9 -45 -20 -12 -14 -29 -20 -59 -20 -32 0 -46 -5 -56 -20 -9 -15 -23 -20
-56 -20 -26 0 -48 -6 -56 -15 -7 -8 -22 -15 -35 -15 -12 0 -30 -9 -40 -20 -10
-11 -28 -20 -39 -20 -12 0 -34 -9 -51 -20 -16 -11 -37 -20 -46 -20 -9 0 -22
-7 -29 -15 -7 -8 -30 -18 -51 -21 -21 -4 -46 -15 -55 -25 -9 -11 -25 -19 -34
-19 -10 0 -23 -7 -30 -15 -7 -8 -25 -15 -40 -15 -15 0 -35 -9 -45 -20 -10 -11
-28 -20 -40 -20 -12 0 -30 -9 -40 -20 -10 -11 -28 -20 -40 -20 -12 0 -30 -9
-40 -20 -10 -11 -28 -20 -39 -20 -12 0 -37 -16 -56 -35 -19 -19 -42 -35 -52
-35 -10 0 -27 -9 -38 -20 -11 -11 -31 -20 -45 -20 -14 0 -29 -8 -35 -20 -7
-12 -21 -20 -38 -20 -19 0 -37 -12 -62 -40 -21 -24 -44 -40 -58 -40 -12 0 -31
-9 -42 -20 -11 -11 -29 -20 -40 -20 -11 0 -35 -16 -53 -35 -17 -19 -41 -35
-52 -35 -12 0 -39 -18 -60 -40 -21 -22 -49 -40 -60 -40 -12 0 -36 -16 -55 -35
-19 -19 -43 -35 -55 -35 -12 0 -45 -25 -80 -60 -33 -33 -68 -60 -78 -60 -10 0
-46 -25 -80 -55 -33 -30 -65 -55 -70 -55 -11 0 -50 -32 -125 -101 -29 -27 -60
-49 -69 -49 -9 0 -62 -45 -118 -100 -64 -63 -109 -100 -122 -100 -13 0 -24 -8
-28 -21 -4 -11 -20 -28 -36 -38 -43 -26 -506 -485 -513 -509 -4 -11 -20 -25
-36 -32 -21 -9 -30 -19 -30 -35 0 -15 -33 -54 -100 -120 -55 -55 -100 -107
-100 -116 0 -10 -34 -53 -76 -96 -42 -43 -86 -96 -98 -118 -12 -22 -39 -58
-59 -79 -20 -21 -37 -45 -37 -54 0 -10 -21 -39 -47 -67 -25 -27 -51 -63 -58
-80 -8 -16 -27 -43 -45 -60 -17 -16 -42 -50 -57 -75 -14 -25 -34 -53 -44 -63
-11 -10 -19 -27 -19 -38 0 -11 -16 -35 -35 -53 -19 -19 -35 -42 -35 -53 0 -12
-7 -26 -15 -33 -8 -7 -28 -36 -45 -65 -17 -29 -37 -58 -45 -65 -8 -7 -15 -22
-15 -34 0 -12 -9 -29 -20 -39 -11 -9 -20 -26 -20 -37 0 -11 -9 -29 -20 -40
-11 -11 -20 -28 -20 -38 0 -10 -16 -33 -35 -52 -19 -19 -35 -44 -35 -55 0 -12
-9 -30 -20 -40 -11 -10 -20 -28 -20 -39 0 -12 -9 -29 -20 -39 -11 -9 -20 -27
-20 -40 0 -12 -9 -30 -20 -40 -11 -9 -20 -26 -20 -38 0 -12 -7 -27 -15 -33 -8
-6 -17 -22 -20 -35 -2 -13 -11 -31 -18 -40 -8 -9 -17 -32 -21 -52 -4 -21 -13
-42 -21 -49 -7 -6 -17 -24 -20 -40 -3 -16 -13 -34 -21 -41 -8 -6 -14 -24 -14
-39 0 -15 -9 -35 -20 -45 -11 -10 -20 -28 -20 -40 0 -12 -9 -30 -20 -40 -14
-13 -20 -31 -20 -59 0 -29 -6 -47 -20 -59 -11 -9 -20 -28 -20 -41 0 -13 -7
-26 -15 -30 -10 -4 -15 -20 -15 -51 0 -34 -5 -48 -20 -57 -15 -10 -20 -24 -20
-60 0 -37 -4 -50 -20 -58 -12 -6 -20 -21 -20 -36 0 -14 -9 -37 -20 -51 -14
-18 -20 -41 -20 -79 0 -43 -4 -55 -20 -64 -15 -8 -20 -21 -20 -54 0 -30 -6
-48 -20 -61 -14 -13 -20 -31 -20 -63 0 -27 -6 -52 -16 -63 -8 -9 -18 -42 -21
-73 -3 -31 -12 -61 -19 -67 -9 -8 -14 -34 -14 -75 0 -53 -3 -65 -20 -74 -17
-9 -20 -21 -20 -74 0 -50 -4 -67 -20 -81 -17 -15 -20 -31 -20 -100 0 -69 -3
-85 -20 -100 -17 -16 -20 -31 -20 -114 0 -79 -4 -101 -20 -126 -16 -24 -20
-47 -20 -119 0 -71 -4 -93 -18 -109 -14 -16 -18 -46 -22 -206 -3 -122 -9 -194
-17 -208 -20 -34 -18 -1168 2 -1203 11 -19 14 -66 15 -190 0 -146 2 -171 20
-205 16 -31 20 -59 20 -131 0 -76 3 -96 20 -117 17 -21 20 -40 20 -120 0 -81
3 -96 20 -112 17 -15 20 -31 20 -97 0 -65 4 -85 20 -105 14 -18 20 -41 20 -77
0 -39 5 -56 20 -69 16 -13 20 -29 20 -81 0 -42 5 -67 14 -75 7 -6 16 -38 20
-70 4 -33 13 -65 21 -71 9 -7 15 -30 15 -54 0 -24 8 -53 20 -71 11 -16 20 -44
20 -61 0 -17 9 -43 20 -57 13 -17 20 -40 20 -70 0 -29 7 -53 20 -70 11 -14 20
-34 20 -45 0 -10 9 -27 20 -37 14 -13 20 -31 20 -59 0 -29 6 -47 20 -59 14
-11 20 -29 20 -56 0 -22 6 -44 15 -51 8 -7 15 -22 15 -34 0 -11 9 -36 20 -54
11 -18 20 -46 20 -62 0 -19 7 -33 20 -40 11 -6 20 -21 20 -34 0 -13 9 -31 20
-41 14 -13 20 -31 20 -60 0 -29 6 -47 20 -60 11 -10 20 -22 20 -27 0 -6 9 -21
20 -35 11 -14 20 -38 20 -53 0 -16 7 -30 15 -34 8 -3 15 -14 15 -24 0 -11 9
-31 20 -45 11 -14 20 -34 20 -45 0 -10 9 -27 20 -37 11 -10 20 -28 20 -41 0
-13 9 -28 20 -34 13 -7 20 -21 20 -40 0 -19 7 -33 20 -40 11 -6 20 -21 20 -34
0 -13 16 -41 35 -62 19 -21 35 -46 35 -56 0 -10 9 -26 20 -35 11 -10 20 -28
20 -40 0 -13 9 -28 20 -35 12 -8 20 -24 20 -40 0 -17 8 -31 20 -38 11 -6 20
-19 20 -28 0 -20 23 -53 58 -85 12 -11 22 -29 22 -40 0 -11 18 -39 40 -63 22
-24 40 -53 40 -64 0 -11 6 -23 14 -26 8 -3 18 -18 21 -34 3 -15 31 -53 61 -85
29 -32 54 -65 54 -75 0 -9 25 -43 55 -75 30 -31 55 -65 55 -74 0 -9 18 -35 40
-56 22 -21 40 -46 40 -55 0 -9 36 -54 80 -99 44 -46 80 -88 80 -93 0 -16 35
-57 135 -160 52 -53 95 -104 95 -114 0 -24 627 -644 651 -644 11 0 59 -39 112
-92 91 -92 110 -107 156 -128 13 -6 58 -44 99 -85 42 -41 84 -75 95 -75 10 0
36 -18 58 -40 22 -22 48 -40 58 -40 10 0 44 -25 75 -55 32 -31 65 -55 77 -55
11 0 38 -18 60 -40 22 -22 49 -40 60 -40 11 0 35 -16 53 -35 19 -19 43 -35 54
-35 12 0 39 -18 61 -40 22 -22 49 -40 61 -40 11 0 35 -16 53 -35 17 -19 41
-35 53 -35 11 0 29 -9 39 -20 10 -11 28 -20 40 -20 12 0 30 -9 40 -20 10 -11
28 -20 40 -20 13 0 28 -7 35 -16 8 -8 34 -27 59 -41 25 -15 54 -35 64 -45 10
-10 29 -18 43 -18 13 0 27 -7 30 -15 4 -8 19 -15 35 -15 18 0 32 -7 39 -20 7
-13 21 -20 40 -20 19 0 33 -7 40 -20 7 -13 21 -20 40 -20 19 0 33 -7 40 -20 6
-12 21 -20 35 -20 14 0 34 -9 45 -20 11 -11 31 -20 44 -20 13 0 26 -7 30 -15
3 -8 16 -15 29 -15 14 0 36 -9 50 -20 14 -12 40 -20 61 -20 25 0 40 -6 48 -20
8 -12 24 -20 40 -20 17 0 31 -8 38 -20 8 -15 21 -20 54 -20 30 0 48 -6 61 -20
10 -11 30 -20 45 -20 16 0 30 -7 34 -15 4 -10 19 -15 49 -15 31 0 49 -6 62
-20 13 -14 31 -20 61 -20 33 0 47 -5 56 -20 8 -13 24 -20 43 -20 16 0 44 -9
60 -20 18 -12 47 -20 71 -20 28 0 47 -6 59 -20 13 -14 31 -20 60 -20 24 0 48
-6 54 -14 6 -7 34 -16 61 -18 28 -3 58 -12 68 -22 12 -10 36 -16 69 -16 37 0
54 -5 68 -20 14 -16 31 -20 77 -20 45 0 66 -5 85 -20 21 -16 41 -20 102 -20
65 0 78 -3 89 -20 10 -17 23 -20 77 -20 46 0 76 -6 102 -20 30 -16 57 -20 129
-20 69 0 95 -4 104 -15 10 -12 36 -15 114 -15 84 0 106 -3 131 -20 27 -18 47
-20 215 -20 168 0 188 -2 215 -20 29 -19 48 -20 553 -20 503 0 524 1 562 20
35 18 59 20 219 20 163 0 184 2 213 20 27 16 51 20 129 20 74 0 100 4 109 15
10 11 35 15 110 15 80 0 102 3 121 19 17 13 45 20 101 22 54 3 82 9 95 22 14
12 37 17 84 17 47 0 72 5 94 20 22 15 47 20 97 20 57 0 69 3 78 20 8 16 21 20
58 20 36 0 50 5 60 20 10 17 23 20 77 20 49 0 67 4 71 15 4 10 20 15 50 15 32
0 49 6 61 20 13 14 30 20 60 20 31 0 48 6 60 20 12 14 30 20 58 20 28 0 46 6
58 20 12 14 29 20 60 20 30 0 47 6 60 20 11 14 29 20 56 20 22 0 44 6 51 15 7
8 23 15 36 15 13 0 31 8 41 19 10 10 35 21 57 24 21 3 46 13 56 22 9 8 28 15
42 15 14 0 33 9 43 20 10 11 28 20 40 20 12 0 30 9 40 20 10 11 29 20 42 20
13 0 26 7 29 15 4 8 18 15 33 15 14 0 40 9 56 20 17 11 42 20 58 20 15 0 35 9
44 20 10 11 25 20 34 20 9 0 28 9 42 20 14 11 34 20 44 20 10 0 34 15 53 34
19 18 49 36 67 40 17 4 34 14 37 22 3 8 16 14 29 14 13 0 32 9 42 20 10 11 28
20 40 20 12 0 30 9 40 20 10 11 27 20 37 20 10 0 35 16 55 35 20 19 44 35 55
35 10 0 27 9 38 20 11 11 29 20 40 20 10 0 27 8 37 17 10 10 40 29 66 43 27
14 53 33 58 43 5 9 20 17 32 17 12 0 38 15 57 33 19 19 55 45 80 60 25 14 61
42 80 62 18 19 43 35 53 35 11 0 39 18 63 40 24 22 50 40 57 40 8 0 41 25 74
55 34 30 69 55 78 55 9 0 67 48 128 106 62 58 124 111 139 117 14 7 81 65 148
129 66 64 143 132 171 151 71 48 339 315 339 338 0 12 13 24 35 33 22 10 35
22 35 34 0 10 49 66 111 128 61 60 117 123 125 141 7 17 45 65 84 105 38 40
70 81 70 92 0 10 24 42 54 70 29 28 65 71 79 96 14 25 42 61 62 80 19 18 35
43 35 55 0 11 18 39 40 60 22 21 40 46 40 55 0 9 16 34 36 56 20 21 48 60 61
87 14 26 29 47 34 47 5 0 15 15 23 33 7 19 28 49 45 69 17 20 31 44 31 55 0
11 9 28 20 38 11 10 20 24 20 31 0 7 16 33 35 58 19 26 35 53 35 61 0 8 9 23
20 32 11 10 20 27 20 39 0 11 9 29 20 39 11 10 20 24 20 30 0 7 9 24 20 38 11
14 20 33 20 42 0 9 9 28 20 42 11 14 20 36 20 49 0 13 5 24 11 24 5 0 16 15
24 34 8 19 19 37 25 41 5 3 10 19 10 34 0 15 9 36 20 46 11 10 20 29 20 41 0
13 9 29 20 36 12 8 20 24 20 40 0 17 8 31 20 38 13 7 20 21 20 40 0 19 7 33
20 40 14 7 20 21 20 44 0 19 7 39 15 46 8 7 18 30 22 52 3 22 12 42 19 45 8 3
14 16 14 29 0 13 9 33 20 44 13 13 20 33 20 58 0 26 7 45 20 57 11 10 20 30
20 44 0 14 9 40 20 56 11 17 20 41 20 55 0 14 9 39 20 55 11 17 20 41 20 53 0
13 9 35 20 49 12 16 20 41 20 64 0 21 9 57 21 79 13 25 19 49 15 64 -4 15 1
32 14 49 12 15 20 40 20 65 0 26 6 45 20 57 15 14 20 31 20 74 0 39 6 65 20
86 13 20 20 47 20 82 0 42 4 54 20 63 18 9 20 21 20 93 0 70 3 85 20 100 16
13 20 29 20 77 0 41 6 72 20 97 16 30 20 57 20 135 0 73 3 99 14 105 11 6 15
41 18 154 2 123 6 150 21 166 15 17 17 42 17 186 0 143 3 173 20 217 19 48 20
74 20 458 0 383 -1 410 -20 460 -17 44 -20 76 -20 212 0 141 -2 165 -20 197
-17 32 -20 57 -20 169 0 105 -3 134 -15 144 -11 9 -15 35 -15 109 0 78 -4 102
-20 129 -14 23 -20 50 -20 96 0 50 -4 67 -20 81 -16 15 -20 31 -20 90 0 57 -4
78 -20 98 -13 16 -20 40 -20 69 0 26 -8 55 -20 73 -14 20 -20 47 -20 83 0 39
-6 61 -20 79 -13 16 -20 41 -20 67 0 29 -6 47 -20 59 -16 14 -19 25 -15 50 5
24 1 39 -14 59 -14 18 -21 41 -21 71 0 29 -7 53 -20 70 -11 14 -20 36 -20 49
0 12 -9 37 -20 53 -11 17 -20 43 -20 58 0 16 -9 40 -20 54 -11 14 -20 41 -20
59 0 23 -6 37 -20 44 -15 8 -20 21 -20 54 0 30 -6 48 -20 61 -11 10 -20 28
-20 40 0 13 -7 28 -15 35 -8 7 -15 23 -15 35 0 12 -9 34 -20 48 -11 14 -20 39
-20 56 0 19 -8 38 -20 48 -11 10 -20 27 -20 39 0 11 -9 29 -20 39 -11 10 -20
28 -20 40 0 12 -9 30 -20 40 -11 10 -20 28 -20 39 0 12 -9 29 -20 39 -11 9
-20 28 -20 41 0 13 -7 29 -15 36 -8 7 -15 21 -15 31 0 11 -9 27 -20 36 -11 10
-20 27 -20 39 0 11 -9 29 -20 39 -11 10 -20 29 -20 41 0 13 -9 29 -20 36 -12
8 -20 24 -20 40 0 17 -8 31 -20 38 -12 7 -20 21 -20 38 0 16 -8 32 -20 40 -11
7 -20 19 -20 26 0 8 -16 35 -35 60 -19 26 -35 55 -35 66 0 11 -9 25 -20 32
-11 7 -20 22 -20 34 0 11 -18 40 -40 65 -22 24 -40 51 -40 60 0 9 -16 34 -35
55 -19 21 -35 44 -35 51 0 7 -18 33 -40 57 -22 24 -40 52 -40 63 0 10 -18 35
-40 56 -22 20 -40 46 -40 57 0 11 -24 45 -55 76 -30 31 -55 64 -55 74 0 10
-25 42 -56 72 -31 29 -62 67 -69 83 -7 17 -44 65 -84 108 -39 42 -71 83 -71
92 0 8 -50 64 -112 126 -62 61 -117 121 -123 133 -6 11 -20 25 -31 31 -12 6
-49 44 -82 85 -100 122 -152 175 -242 245 -47 36 -145 124 -217 196 -73 71
-140 129 -150 129 -10 0 -63 43 -117 95 -55 52 -107 95 -117 95 -9 0 -44 27
-77 60 -34 33 -66 60 -73 60 -14 0 -98 66 -117 92 -7 10 -23 18 -36 18 -12 0
-37 16 -56 35 -19 19 -43 35 -53 35 -9 0 -36 17 -60 38 -23 22 -63 51 -89 66
-25 15 -52 33 -58 41 -7 8 -19 15 -28 15 -8 0 -34 16 -58 35 -23 19 -51 35
-62 35 -10 0 -27 9 -37 20 -10 11 -27 20 -37 20 -10 0 -35 16 -55 35 -20 20
-48 38 -62 42 -14 3 -34 14 -44 24 -10 11 -28 19 -41 19 -13 0 -26 7 -30 15
-3 8 -17 15 -31 15 -14 0 -33 9 -42 20 -10 11 -27 20 -39 20 -12 0 -41 18 -64
40 -23 22 -51 40 -61 40 -11 0 -36 9 -56 20 -21 11 -47 20 -59 20 -12 0 -27 7
-34 15 -7 8 -21 15 -31 15 -11 0 -28 9 -39 20 -11 11 -31 20 -45 20 -14 0 -30
9 -37 20 -7 11 -24 20 -38 20 -14 0 -33 9 -43 20 -9 11 -26 20 -37 20 -11 0
-37 9 -57 20 -21 11 -47 20 -59 20 -12 0 -27 7 -34 15 -7 8 -22 15 -35 15 -12
0 -30 9 -40 20 -13 14 -31 20 -60 20 -29 0 -47 6 -60 20 -10 11 -27 20 -37 20
-11 0 -31 9 -45 20 -16 12 -41 20 -64 20 -21 0 -53 9 -71 20 -18 11 -43 20
-54 20 -12 0 -27 6 -33 14 -6 7 -34 16 -61 18 -28 3 -58 12 -68 22 -10 9 -34
16 -54 16 -22 0 -41 7 -53 20 -14 16 -31 20 -75 20 -44 0 -61 4 -75 20 -14 16
-31 20 -80 20 -49 0 -66 4 -80 20 -14 15 -31 20 -72 20 -40 0 -62 6 -80 20
-20 16 -41 20 -98 20 -52 0 -76 4 -85 15 -9 10 -32 15 -74 15 -44 0 -69 6 -91
20 -25 16 -47 20 -125 20 -79 0 -99 4 -120 20 -21 16 -41 20 -128 20 -88 0
-108 3 -129 20 -24 18 -41 20 -215 20 -161 0 -194 3 -221 18 -29 15 -77 17
-512 20 -462 2 -482 1 -524 -18z m1184 -1680 c26 -17 47 -20 159 -20 109 0
132 -3 149 -17 14 -13 41 -19 101 -21 46 -3 87 -9 96 -17 9 -7 52 -15 102 -17
63 -3 93 -9 106 -21 11 -10 35 -17 61 -17 28 0 52 -7 68 -20 19 -15 41 -20 82
-20 40 0 63 -6 81 -20 15 -12 41 -20 63 -20 23 0 49 -8 64 -20 16 -12 41 -20
65 -20 25 0 50 -8 66 -20 16 -13 38 -20 58 -18 20 1 41 -5 52 -15 10 -10 35
-17 55 -17 25 0 43 -7 54 -20 12 -14 30 -20 59 -20 28 0 46 -6 59 -20 10 -11
28 -20 40 -20 12 0 30 -9 40 -20 11 -13 31 -20 52 -20 20 0 46 -9 60 -20 14
-11 36 -20 48 -20 13 0 25 -7 29 -15 3 -9 18 -15 36 -15 19 0 34 -7 42 -20 8
-12 24 -20 40 -20 17 0 31 -8 38 -20 7 -13 21 -20 40 -20 19 0 33 -7 40 -20 7
-12 21 -20 38 -20 16 0 32 -8 40 -20 7 -12 23 -20 41 -20 16 0 31 -6 35 -15 3
-8 16 -15 29 -15 13 0 32 -9 42 -20 10 -11 26 -20 35 -20 9 0 36 -18 61 -40
24 -22 53 -40 65 -40 11 0 29 -9 39 -20 10 -11 28 -20 41 -20 13 0 27 -6 31
-14 4 -8 31 -26 58 -40 28 -15 55 -32 60 -39 10 -11 34 -27 80 -51 12 -6 36
-26 55 -43 19 -18 43 -33 52 -33 10 0 35 -18 57 -40 22 -22 49 -40 60 -40 13
0 49 -27 89 -67 37 -36 81 -72 98 -79 18 -7 74 -54 125 -104 52 -49 101 -90
111 -90 23 0 578 -550 578 -573 0 -9 42 -60 94 -113 52 -53 97 -106 100 -118
3 -13 39 -58 81 -100 41 -43 75 -87 75 -97 0 -11 16 -33 35 -50 20 -18 35 -40
35 -53 0 -12 16 -38 36 -57 19 -18 41 -48 48 -64 7 -17 27 -44 43 -60 16 -17
32 -42 36 -56 4 -14 20 -38 36 -55 17 -16 31 -36 31 -45 0 -9 9 -27 19 -41 11
-13 23 -37 26 -51 4 -15 11 -27 15 -27 5 0 16 -13 24 -30 9 -16 23 -43 31 -59
9 -16 22 -32 30 -35 8 -3 15 -18 15 -33 0 -17 8 -33 20 -41 12 -7 20 -23 20
-40 0 -16 8 -32 20 -40 11 -7 20 -23 20 -36 0 -13 7 -29 15 -36 8 -7 15 -21
15 -31 0 -11 9 -28 20 -39 11 -11 20 -31 20 -45 0 -14 8 -29 20 -35 12 -7 20
-21 20 -38 0 -15 9 -40 20 -57 11 -16 20 -37 20 -46 0 -9 9 -28 20 -42 11 -14
20 -36 20 -49 0 -13 9 -31 20 -41 11 -9 20 -27 20 -40 0 -13 5 -28 11 -34 6
-6 15 -33 20 -59 5 -26 16 -55 24 -64 8 -9 15 -32 15 -52 0 -21 8 -44 20 -58
11 -13 20 -37 20 -55 0 -19 8 -39 20 -50 16 -14 20 -31 20 -75 0 -44 4 -61 20
-75 14 -13 20 -31 20 -60 0 -29 6 -47 20 -60 16 -14 20 -31 20 -79 0 -49 4
-65 20 -79 15 -12 20 -29 20 -65 0 -26 6 -56 14 -67 7 -11 15 -57 18 -104 4
-64 9 -86 21 -93 14 -7 17 -25 17 -92 0 -68 4 -88 20 -109 18 -22 20 -40 20
-159 0 -116 3 -137 20 -163 19 -29 20 -48 20 -630 0 -580 -1 -601 -20 -625
-17 -22 -20 -41 -20 -163 0 -124 -2 -142 -20 -164 -16 -21 -20 -41 -20 -101 0
-58 -4 -80 -17 -95 -13 -14 -19 -41 -22 -103 -2 -55 -8 -87 -17 -95 -9 -7 -14
-31 -14 -65 0 -42 -5 -58 -20 -71 -16 -14 -20 -30 -20 -74 0 -40 -5 -63 -19
-80 -10 -13 -20 -47 -23 -77 -3 -29 -12 -60 -22 -70 -10 -12 -16 -36 -16 -63
0 -33 -5 -47 -20 -57 -14 -8 -20 -23 -20 -48 0 -21 -8 -47 -20 -61 -11 -15
-20 -41 -20 -60 0 -20 -9 -46 -20 -60 -12 -15 -20 -41 -20 -63 0 -24 -5 -40
-15 -44 -9 -3 -15 -18 -15 -36 0 -19 -7 -34 -20 -42 -11 -7 -20 -24 -20 -38 0
-14 -9 -38 -20 -55 -11 -16 -20 -37 -20 -46 0 -9 -9 -28 -20 -42 -11 -14 -20
-36 -20 -50 0 -13 -9 -32 -20 -42 -11 -10 -20 -28 -20 -39 0 -12 -9 -29 -20
-39 -11 -9 -20 -28 -20 -41 0 -13 -7 -26 -15 -30 -8 -3 -15 -17 -15 -31 0 -14
-9 -33 -20 -42 -11 -10 -20 -27 -20 -39 0 -11 -9 -29 -20 -39 -11 -10 -20 -29
-20 -41 0 -13 -9 -29 -20 -36 -11 -7 -20 -19 -20 -27 0 -8 -6 -22 -14 -30 -8
-9 -26 -41 -42 -71 -15 -30 -34 -59 -41 -65 -7 -5 -15 -21 -18 -34 -2 -13 -13
-34 -23 -45 -10 -12 -27 -38 -38 -59 -10 -22 -26 -44 -34 -50 -8 -7 -24 -30
-35 -51 -11 -22 -37 -57 -57 -79 -20 -22 -39 -50 -43 -64 -3 -13 -21 -39 -40
-56 -19 -18 -35 -40 -35 -51 0 -10 -34 -54 -75 -98 -41 -44 -75 -86 -75 -95 0
-8 -27 -42 -59 -76 -108 -113 -130 -138 -136 -157 -7 -23 -549 -562 -575 -572
-10 -4 -29 -21 -41 -37 -13 -17 -30 -31 -39 -31 -8 0 -51 -36 -95 -80 -48 -48
-88 -80 -100 -80 -12 0 -44 -24 -75 -55 -31 -32 -63 -55 -75 -55 -12 0 -39
-18 -60 -40 -21 -22 -46 -40 -54 -40 -15 0 -110 -74 -124 -97 -4 -7 -18 -13
-30 -13 -14 0 -39 -17 -62 -40 -22 -22 -49 -40 -60 -40 -12 0 -30 -9 -40 -20
-10 -11 -28 -20 -39 -20 -12 0 -29 -9 -39 -20 -9 -11 -25 -20 -35 -20 -10 0
-35 -16 -56 -35 -21 -19 -49 -35 -62 -35 -13 0 -28 -9 -34 -20 -7 -13 -21 -20
-40 -20 -19 0 -33 -7 -40 -20 -6 -12 -21 -20 -35 -20 -14 0 -34 -9 -45 -20
-11 -11 -28 -20 -39 -20 -10 0 -24 -7 -31 -15 -7 -8 -18 -15 -25 -15 -7 0 -15
7 -19 15 -4 10 -19 15 -49 15 -31 0 -49 6 -62 20 -10 11 -26 20 -37 20 -10 0
-26 9 -35 20 -10 11 -25 20 -35 20 -9 0 -23 6 -31 14 -8 8 -29 21 -48 29 -19
8 -45 24 -58 36 -13 11 -29 21 -36 21 -6 0 -31 20 -54 45 -23 25 -50 45 -59
45 -9 0 -41 25 -71 55 -30 30 -62 55 -72 55 -10 0 -53 33 -96 74 -42 41 -88
78 -101 81 -31 8 -640 609 -658 650 -7 17 -45 63 -84 104 -38 40 -70 81 -70
91 0 9 -25 41 -55 71 -31 31 -55 63 -55 74 0 12 -18 39 -40 60 -22 22 -40 49
-40 60 0 12 -9 30 -20 40 -11 10 -20 28 -20 40 0 12 -15 34 -35 51 -21 17 -35
38 -35 52 0 12 -9 30 -20 39 -11 10 -20 27 -20 39 0 11 -9 29 -20 39 -11 10
-20 28 -20 41 0 13 -6 27 -13 31 -30 19 -67 76 -67 105 0 16 -9 41 -20 55 -11
14 -20 34 -20 44 0 11 -9 28 -20 39 -11 11 -20 28 -20 39 0 10 -7 24 -15 31
-8 7 -15 29 -15 50 0 24 -7 43 -20 55 -11 10 -20 28 -20 40 0 12 -9 30 -20 40
-14 13 -20 31 -20 59 0 29 -6 47 -20 59 -14 12 -20 29 -20 59 0 32 -5 46 -20
56 -15 9 -20 23 -20 57 0 25 -6 56 -14 68 -7 12 -16 51 -20 86 -3 36 -12 72
-20 80 -7 9 -16 44 -18 78 -3 38 -11 69 -20 80 -12 13 -17 44 -20 114 -2 75
-7 101 -20 116 -15 16 -18 39 -18 129 0 92 -3 114 -20 139 -19 29 -20 48 -20
470 0 417 1 442 20 484 17 36 20 65 20 171 0 114 2 129 20 145 18 16 20 31 20
130 0 99 2 114 20 130 16 14 20 31 20 78 0 41 5 66 16 78 10 12 18 45 21 98 4
50 11 85 19 92 9 7 14 32 14 64 0 37 6 60 20 78 12 15 20 40 20 65 0 26 6 45
20 57 14 13 20 31 20 59 0 29 6 47 20 59 11 9 20 29 20 46 0 15 9 40 20 54 11
14 20 39 20 55 0 17 4 33 9 36 14 9 61 111 61 133 0 11 9 32 20 46 11 14 20
32 20 41 0 21 48 109 65 119 8 4 15 21 15 37 0 19 7 33 20 40 11 6 20 20 20
31 0 12 9 32 20 46 11 14 20 33 20 42 0 9 16 32 35 51 19 19 35 43 35 53 0 9
9 26 20 37 11 11 20 28 20 38 0 10 18 38 40 63 22 24 40 50 40 58 0 8 18 33
40 57 22 24 40 52 40 61 0 10 25 43 55 73 30 30 55 62 55 71 0 8 76 93 169
187 93 94 171 177 174 184 7 20 -12 48 -32 48 -10 0 -26 -9 -36 -20 -13 -14
-31 -20 -60 -20 -29 0 -47 -6 -60 -20 -13 -14 -31 -20 -60 -20 -22 0 -47 -6
-53 -12 -7 -7 -48 -15 -92 -19 -54 -4 -85 -11 -98 -22 -14 -13 -38 -17 -98
-17 -60 0 -90 -5 -119 -20 -32 -17 -59 -20 -155 -20 -98 0 -119 -3 -145 -20
-28 -19 -47 -20 -323 -20 -273 0 -295 1 -329 20 -31 16 -57 20 -142 20 -85 0
-108 3 -124 18 -14 13 -41 18 -105 21 -49 2 -95 9 -107 17 -11 7 -50 16 -87
20 -37 4 -73 13 -79 20 -6 8 -21 14 -33 14 -11 0 -34 9 -51 20 -16 11 -43 20
-60 20 -16 0 -43 9 -60 20 -16 11 -42 20 -56 20 -14 0 -34 9 -44 20 -10 11
-29 20 -42 20 -12 0 -32 9 -43 20 -11 11 -28 20 -39 20 -10 0 -24 7 -31 15 -7
8 -20 15 -29 15 -10 0 -32 11 -51 25 -19 14 -37 25 -41 25 -4 0 -31 16 -60 35
-30 19 -59 35 -65 35 -6 0 -19 9 -29 20 -10 11 -26 20 -37 20 -10 0 -44 25
-75 55 -32 30 -66 55 -76 55 -10 0 -61 42 -113 93 -53 50 -106 96 -119 100
-12 4 -28 21 -35 37 -7 17 -24 33 -41 39 -16 5 -33 20 -38 33 -9 25 -226 238
-242 238 -19 0 -8 -26 26 -63 19 -21 35 -46 35 -56 0 -9 25 -44 55 -76 30 -32
55 -66 55 -76 0 -11 18 -35 40 -55 23 -21 40 -45 40 -58 0 -12 16 -37 35 -56
19 -19 35 -43 35 -53 0 -11 18 -39 40 -63 22 -24 40 -52 40 -63 0 -10 6 -24
14 -30 8 -7 17 -24 21 -38 3 -15 15 -38 26 -51 10 -14 19 -30 19 -37 0 -7 7
-18 15 -25 8 -7 15 -22 15 -34 0 -11 18 -41 40 -65 22 -25 40 -54 40 -65 0
-12 15 -45 34 -73 19 -29 37 -67 41 -85 4 -18 13 -43 21 -55 8 -12 14 -31 14
-41 0 -10 9 -27 20 -37 11 -10 20 -28 20 -40 0 -12 9 -30 20 -40 13 -12 20
-31 20 -57 0 -26 6 -44 20 -55 11 -10 20 -29 20 -43 0 -14 9 -33 20 -43 14
-11 20 -29 20 -55 0 -26 7 -45 20 -57 14 -13 20 -31 20 -60 0 -28 5 -45 14
-48 8 -3 17 -27 21 -56 4 -27 13 -55 21 -62 9 -7 14 -31 14 -64 0 -37 6 -60
20 -78 12 -15 20 -40 20 -65 0 -26 6 -45 20 -57 16 -14 20 -31 20 -77 0 -45 5
-66 20 -85 14 -19 20 -41 20 -79 0 -35 7 -67 20 -91 15 -29 20 -57 20 -117 0
-61 4 -84 17 -98 13 -15 18 -43 21 -121 3 -65 9 -107 17 -117 10 -11 14 -74
18 -240 3 -180 7 -234 21 -269 15 -39 16 -74 12 -290 -3 -135 -5 -268 -4 -296
7 -193 2 -357 -15 -439 -13 -69 -17 -142 -17 -335 -1 -200 -3 -250 -15 -265
-11 -15 -15 -50 -15 -140 0 -95 -4 -127 -17 -151 -12 -21 -19 -64 -23 -146 -4
-92 -9 -121 -22 -136 -14 -15 -18 -37 -18 -95 0 -60 -4 -80 -20 -101 -16 -20
-20 -40 -20 -105 0 -66 -3 -82 -20 -97 -15 -14 -20 -31 -20 -72 0 -40 -6 -62
-20 -80 -15 -19 -20 -41 -20 -81 0 -36 -5 -61 -15 -72 -9 -10 -18 -44 -20 -81
-4 -42 -10 -66 -20 -72 -10 -5 -15 -23 -15 -52 0 -34 -5 -48 -20 -57 -15 -10
-20 -24 -20 -56 0 -30 -6 -47 -20 -59 -14 -12 -20 -30 -20 -59 0 -28 -6 -46
-20 -59 -13 -12 -20 -31 -20 -55 0 -24 -7 -43 -20 -55 -11 -10 -20 -29 -20
-42 0 -12 -9 -32 -20 -43 -13 -13 -20 -33 -20 -59 0 -25 -5 -41 -15 -45 -8 -3
-15 -17 -15 -31 0 -14 -9 -34 -20 -45 -11 -11 -20 -29 -20 -40 0 -11 -9 -28
-20 -37 -11 -10 -20 -27 -20 -39 0 -11 -9 -31 -20 -44 -11 -13 -20 -31 -20
-40 0 -9 -9 -25 -20 -35 -11 -10 -20 -28 -20 -39 0 -12 -9 -29 -20 -39 -11 -9
-20 -27 -20 -40 0 -12 -9 -30 -20 -40 -11 -9 -20 -28 -20 -41 0 -13 -7 -26
-15 -30 -8 -3 -15 -15 -15 -26 0 -11 -18 -40 -40 -64 -22 -24 -40 -52 -40 -63
0 -10 -18 -37 -40 -58 -22 -21 -40 -47 -40 -57 0 -10 -25 -44 -55 -75 -30 -31
-55 -64 -55 -73 0 -8 -36 -51 -80 -95 -51 -51 -80 -87 -80 -101 0 -15 -12 -29
-35 -43 -19 -11 -35 -26 -35 -33 0 -13 -144 -165 -195 -206 -15 -12 -40 -22
-55 -22 -14 0 -35 -7 -46 -15 -25 -19 -58 -19 -74 0 -7 8 -25 15 -41 15 -16 0
-37 8 -47 18 -32 30 -81 62 -96 62 -8 0 -21 6 -28 14 -8 7 -25 17 -38 21 -14
4 -33 16 -43 26 -10 11 -29 19 -43 19 -13 0 -27 7 -30 15 -4 8 -17 15 -30 15
-14 0 -39 16 -63 40 -23 24 -49 40 -63 40 -15 0 -35 15 -57 40 -24 29 -42 40
-61 40 -16 0 -30 7 -34 15 -3 8 -16 20 -28 26 -45 20 -70 37 -107 73 -20 20
-46 36 -57 36 -11 0 -44 25 -74 55 -30 30 -63 55 -75 55 -11 0 -53 32 -95 74
-42 40 -88 77 -102 82 -15 5 -94 75 -176 155 -83 81 -161 149 -175 153 -15 3
-27 15 -31 31 -4 14 -39 57 -79 95 -84 80 -77 73 -229 228 -65 66 -118 127
-118 135 0 13 -111 143 -137 160 -7 4 -13 18 -13 29 0 13 -24 45 -60 80 -34
34 -60 68 -60 79 0 11 -20 40 -45 63 -25 24 -52 59 -59 78 -8 19 -22 40 -30
48 -9 7 -16 22 -16 34 0 12 -18 39 -40 61 -22 21 -40 47 -40 58 0 10 -18 36
-40 58 -24 24 -40 49 -40 63 0 13 -7 26 -15 30 -8 3 -15 16 -15 29 0 13 -9 32
-20 42 -11 10 -20 27 -20 37 0 10 -18 38 -40 62 -22 24 -40 53 -40 64 0 12 -9
26 -20 32 -13 7 -20 21 -20 38 0 15 -9 35 -20 45 -11 9 -20 27 -20 39 0 13 -9
29 -20 36 -14 8 -20 23 -20 46 0 19 -4 37 -9 40 -14 9 -61 112 -61 135 0 11
-9 29 -20 38 -11 10 -20 27 -20 39 0 11 -9 29 -20 39 -14 13 -20 31 -20 61 0
33 -5 46 -20 54 -14 7 -20 21 -20 43 0 18 -9 46 -20 62 -11 17 -20 38 -20 48
0 11 -9 30 -20 44 -13 17 -18 33 -14 50 5 17 0 34 -15 53 -12 16 -21 44 -21
63 0 21 -8 41 -20 52 -14 13 -20 31 -20 64 0 29 -7 57 -20 76 -12 18 -20 47
-20 71 0 28 -6 47 -20 59 -16 14 -20 31 -20 79 0 44 -6 69 -20 91 -15 22 -20
47 -20 98 0 48 -6 78 -20 104 -14 27 -20 57 -20 104 0 47 -4 70 -15 79 -12 10
-15 38 -15 135 0 107 -2 125 -20 148 -18 23 -20 40 -20 195 0 143 -3 178 -20
227 -18 52 -20 84 -20 299 0 216 2 248 20 299 17 48 20 82 20 228 0 150 2 175
17 192 15 16 19 42 21 152 3 101 7 137 18 146 9 8 14 32 14 73 0 42 6 74 20
101 14 27 20 59 20 105 0 48 5 73 20 95 15 22 20 47 20 97 0 57 3 69 20 78 16
8 20 21 20 58 0 35 5 52 20 65 16 13 20 29 20 77 0 49 3 61 20 70 15 8 20 21
20 55 0 30 5 47 16 53 11 6 17 25 18 56 1 33 7 52 19 61 9 7 17 21 17 31 0 10
9 33 20 49 11 17 20 44 20 61 0 18 8 38 20 49 14 13 20 31 20 61 0 33 5 46 20
54 12 7 20 21 20 38 0 16 8 32 20 40 12 7 20 23 20 41 0 16 6 34 14 40 8 7 18
25 21 41 3 16 13 34 21 41 8 6 14 26 14 44 0 20 9 42 25 59 14 15 25 33 25 40
0 8 7 19 15 26 8 7 15 25 15 40 0 15 9 35 20 45 11 10 20 25 20 34 0 9 18 36
40 60 22 25 40 54 40 65 0 12 9 29 20 39 11 9 20 28 20 42 0 14 5 25 10 25 6
0 16 12 22 28 7 15 27 46 45 69 18 23 33 50 33 61 0 10 18 35 40 56 25 23 40
46 40 61 0 13 6 28 13 32 8 4 27 30 43 58 16 27 43 63 61 78 18 16 33 39 33
51 0 13 22 43 56 76 30 30 62 70 70 89 8 18 52 72 99 118 47 46 85 92 85 102
0 10 122 139 273 289 405 404 456 453 490 467 18 7 64 45 103 84 40 39 79 71
89 71 9 0 42 23 72 50 31 28 70 57 87 64 17 7 45 27 61 44 17 17 39 32 50 32
12 0 39 18 60 40 21 22 48 40 60 40 12 0 39 18 60 40 21 22 49 40 60 40 12 0
36 16 55 35 19 19 44 35 55 35 12 0 30 9 40 20 10 11 28 20 40 20 12 0 30 9
40 20 10 11 28 20 39 20 12 0 29 9 39 20 9 11 26 20 37 20 11 0 28 8 39 18 40
37 66 52 91 52 14 0 52 18 85 40 33 22 71 40 86 40 14 0 34 9 44 20 10 11 28
20 40 20 13 0 28 7 35 15 7 8 21 15 31 15 11 0 28 9 39 20 14 14 33 20 65 20
34 0 47 5 55 20 7 13 21 20 40 20 19 0 33 7 40 20 8 15 21 20 54 20 30 0 48 6
61 20 10 11 29 20 43 20 14 0 30 7 36 14 6 9 36 17 70 20 32 3 66 12 76 21 9
8 35 15 58 15 30 0 47 6 59 20 12 14 30 20 59 20 28 0 46 6 59 20 14 16 31 20
79 20 49 0 65 4 79 20 13 16 29 20 79 20 52 0 65 3 76 20 11 17 23 20 96 20
62 0 87 4 96 15 9 11 33 15 90 15 62 0 82 4 103 20 22 18 40 20 159 20 116 0
137 3 163 20 29 19 48 20 670 20 622 0 641 -1 670 -20z"/>
<path d="M7736 14074 c-12 -32 -5 -106 15 -167 23 -68 21 -125 -6 -177 -11
-21 -15 -61 -15 -145 0 -102 -3 -120 -20 -142 -14 -18 -20 -41 -20 -75 0 -35
-6 -58 -20 -75 -12 -15 -20 -41 -20 -63 0 -21 -7 -43 -15 -50 -8 -7 -15 -23
-15 -35 0 -12 -9 -34 -20 -48 -11 -14 -20 -39 -20 -56 0 -16 -8 -38 -19 -48
-10 -10 -21 -35 -24 -56 -4 -23 -21 -56 -42 -82 -19 -24 -35 -52 -35 -62 0
-10 -9 -26 -20 -36 -11 -9 -20 -26 -20 -38 0 -12 -7 -27 -15 -33 -9 -6 -18
-24 -21 -39 -2 -16 -20 -42 -39 -59 -20 -17 -35 -39 -35 -52 0 -12 -17 -39
-40 -61 -22 -21 -40 -47 -40 -57 0 -10 -39 -58 -86 -106 -47 -48 -92 -100 -99
-117 -8 -16 -30 -48 -49 -69 -20 -22 -36 -47 -36 -56 0 -9 -9 -25 -20 -35 -11
-10 -20 -29 -20 -42 0 -13 -7 -26 -15 -29 -8 -4 -15 -17 -15 -30 0 -13 -9 -32
-20 -41 -14 -12 -20 -30 -20 -59 0 -28 -6 -46 -20 -59 -13 -12 -20 -31 -20
-57 0 -26 -6 -44 -20 -55 -19 -17 -20 -30 -20 -253 0 -218 2 -237 20 -265 11
-16 20 -46 20 -65 0 -19 9 -48 20 -65 11 -16 20 -39 20 -50 0 -11 9 -28 20
-38 11 -9 20 -28 20 -41 0 -13 7 -26 15 -30 8 -3 15 -15 15 -27 0 -12 18 -43
40 -69 22 -26 40 -54 40 -62 0 -19 127 -140 171 -162 20 -9 54 -35 75 -56 21
-22 48 -39 60 -40 11 0 29 -9 39 -20 10 -11 29 -20 42 -20 14 0 36 -9 50 -20
15 -12 41 -20 62 -20 20 0 50 -9 66 -20 22 -14 47 -20 91 -20 46 0 63 -4 68
-15 5 -13 42 -15 251 -15 209 0 246 2 251 15 4 11 21 15 55 15 38 0 52 4 61
20 10 15 24 20 60 20 37 0 50 4 58 20 7 13 21 20 40 20 19 0 33 7 40 20 6 11
17 20 26 20 18 0 67 34 105 73 15 16 47 41 71 57 56 36 138 116 138 134 0 9 9
23 19 33 11 10 22 30 26 44 4 15 22 42 41 60 19 18 34 43 34 54 0 12 9 30 20
40 11 10 20 31 20 47 0 17 9 41 20 55 15 19 20 41 20 81 0 32 6 62 14 71 19
22 37 320 26 431 -5 47 -9 126 -9 176 -1 69 -5 95 -16 104 -11 9 -15 32 -15
80 0 52 -4 73 -20 93 -13 17 -20 40 -20 70 0 29 -7 53 -20 70 -13 16 -20 40
-20 70 0 31 -6 49 -20 62 -11 10 -20 29 -20 41 0 13 -9 38 -20 56 -11 18 -20
42 -20 54 0 11 -9 29 -20 39 -14 13 -20 31 -20 62 0 30 -5 45 -15 49 -8 4 -15
17 -15 30 0 13 -9 32 -20 41 -11 10 -20 28 -20 40 0 13 -9 31 -20 40 -11 10
-20 27 -20 39 0 11 -9 29 -20 39 -11 10 -20 28 -20 39 0 12 -9 29 -20 39 -11
9 -20 28 -20 42 0 14 -8 29 -20 35 -11 6 -20 17 -20 26 0 17 -38 75 -57 87 -7
4 -13 17 -13 28 0 11 -17 38 -38 62 -21 23 -50 62 -64 87 -14 25 -42 60 -62
78 -20 18 -36 42 -36 53 0 13 -36 57 -95 115 -52 52 -95 97 -95 99 0 29 -204
245 -231 245 -16 0 -172 137 -192 168 -11 17 -24 15 -31 -4z"/>
<path d="M3895 12260 c-3 -5 -30 -26 -60 -46 -71 -46 -215 -189 -238 -234 -10
-19 -36 -55 -57 -78 -22 -24 -40 -52 -40 -63 0 -10 -9 -23 -20 -29 -16 -8 -20
-21 -20 -58 0 -36 -5 -50 -20 -60 -15 -9 -20 -23 -20 -57 0 -26 -9 -61 -20
-82 -13 -24 -20 -57 -20 -89 0 -36 6 -59 20 -77 14 -18 20 -40 20 -76 0 -39 5
-55 20 -68 11 -10 20 -27 20 -39 0 -11 9 -29 20 -39 11 -10 20 -28 20 -39 0
-13 23 -44 55 -76 30 -30 55 -62 55 -71 0 -26 52 -79 76 -79 13 0 46 -24 82
-60 34 -33 69 -60 80 -60 10 0 27 -9 37 -20 10 -11 27 -20 37 -20 11 0 32 -9
46 -20 18 -15 34 -19 53 -15 20 5 33 1 48 -14 20 -20 33 -21 185 -21 136 0
165 3 170 15 3 8 14 15 24 15 11 0 31 9 45 20 14 11 34 20 45 20 10 0 27 9 37
20 10 11 27 20 37 20 28 0 268 238 268 265 0 14 16 37 40 59 26 23 40 45 40
61 0 14 8 29 20 35 15 8 20 21 20 54 0 30 6 48 20 61 16 14 20 31 20 75 0 44
-4 61 -20 75 -11 10 -20 29 -20 41 0 13 -9 29 -20 36 -11 7 -20 18 -20 25 0
23 -45 83 -67 89 -12 3 -31 3 -43 -1 -17 -5 -20 -12 -15 -28 4 -12 10 -42 12
-67 3 -25 11 -52 18 -60 9 -10 15 -46 16 -97 2 -65 -1 -84 -14 -98 -9 -9 -17
-32 -17 -51 0 -22 -7 -40 -20 -51 -11 -10 -20 -27 -20 -38 0 -28 -168 -195
-196 -195 -12 0 -29 -9 -39 -20 -10 -11 -28 -20 -40 -20 -12 0 -30 -9 -40 -20
-16 -18 -29 -19 -173 -16 -130 3 -157 6 -167 20 -8 11 -27 16 -58 16 -36 0
-49 4 -57 20 -6 11 -21 20 -34 20 -13 0 -30 8 -39 18 -9 10 -37 28 -62 41 -62
31 -255 222 -255 253 0 13 -9 29 -20 36 -11 7 -20 23 -20 36 0 13 -7 29 -15
36 -21 18 -22 298 -1 306 8 3 17 26 21 53 5 39 16 57 57 101 28 30 54 65 58
79 4 18 14 27 32 29 14 2 34 12 44 23 9 10 25 19 34 19 9 0 27 9 40 20 13 11
34 20 48 20 14 0 34 8 44 17 12 10 42 18 79 21 51 4 66 1 89 -17 45 -33 90
-23 90 20 0 21 -72 86 -116 105 -17 7 -36 20 -44 28 -7 9 -22 16 -35 16 -12 0
-30 9 -40 20 -19 21 -89 28 -100 10z"/>
<path d="M12143 12121 c-27 -22 -29 -37 -8 -45 11 -4 15 -22 15 -70 l0 -64
-64 -66 c-41 -43 -71 -66 -86 -66 -13 0 -37 -15 -57 -37 -20 -20 -55 -48 -80
-61 -25 -13 -59 -39 -76 -58 -18 -19 -42 -34 -54 -34 -14 0 -43 -21 -77 -56
-56 -57 -79 -74 -128 -94 -14 -6 -29 -17 -31 -24 -3 -8 -17 -16 -32 -20 -25
-6 -77 -47 -118 -93 -12 -13 -26 -23 -33 -23 -7 0 -33 -16 -58 -35 -26 -19
-54 -35 -65 -35 -10 0 -26 -9 -36 -20 -28 -31 -72 -26 -110 14 -52 56 -85 53
-85 -7 0 -36 6 -49 35 -77 19 -19 44 -52 55 -75 11 -22 37 -58 59 -80 22 -22
40 -49 41 -60 0 -10 20 -38 44 -60 24 -23 45 -47 48 -55 3 -10 11 -11 34 -3
37 12 46 55 15 75 -16 10 -21 23 -21 56 0 42 4 48 85 128 47 47 104 95 128
107 23 13 60 40 81 60 21 20 46 37 57 37 11 0 34 16 52 35 17 19 35 35 38 35
16 0 139 -137 139 -154 0 -11 25 -44 55 -73 30 -30 55 -62 55 -71 0 -10 18
-37 40 -60 22 -22 40 -49 40 -59 0 -10 25 -43 55 -73 33 -33 55 -64 55 -77 0
-13 9 -28 20 -35 11 -7 20 -17 20 -22 0 -16 -95 -96 -115 -96 -11 0 -36 -18
-55 -40 -22 -25 -44 -40 -59 -40 -14 0 -37 -14 -57 -35 -18 -19 -42 -35 -53
-35 -11 0 -38 -18 -60 -40 -33 -34 -46 -40 -81 -40 -35 0 -47 6 -80 40 -41 43
-50 46 -81 29 -23 -12 -19 -38 12 -78 11 -13 19 -30 19 -38 0 -7 16 -28 35
-46 19 -17 35 -40 35 -49 0 -9 23 -43 51 -75 28 -32 57 -71 64 -88 19 -43 59
-77 87 -73 19 2 24 10 26 41 2 24 -2 45 -11 55 -35 40 -31 59 24 117 28 30 56
55 60 55 15 0 79 48 132 99 28 28 61 51 72 51 11 0 45 25 75 55 31 31 64 55
76 55 11 0 36 16 55 36 18 19 57 48 84 64 28 16 63 42 79 59 17 17 39 31 51
31 11 0 39 18 60 40 21 22 48 40 59 40 10 0 37 18 58 40 25 25 49 40 64 40 14
0 27 7 30 15 8 20 107 21 123 1 12 -15 68 -26 89 -19 16 7 15 28 -3 43 -8 7
-15 21 -15 31 0 11 -27 46 -60 78 -33 32 -60 67 -60 78 0 10 -18 37 -40 58
-22 21 -40 47 -40 57 0 27 -58 80 -83 76 -18 -2 -23 -11 -25 -47 -3 -34 2 -48
20 -68 22 -24 22 -25 4 -38 -10 -8 -24 -25 -30 -37 -6 -13 -23 -29 -36 -35
-14 -7 -59 -47 -100 -88 -43 -43 -83 -75 -95 -75 -11 0 -34 -15 -50 -33 -71
-77 -166 -103 -173 -47 -2 14 -20 43 -41 65 -20 22 -44 53 -52 69 -7 16 -32
47 -54 69 -37 38 -59 70 -84 125 -6 12 -15 22 -21 22 -5 0 -23 24 -40 53 -16
29 -45 68 -65 87 -20 19 -35 44 -35 56 0 13 -7 27 -17 32 -22 13 -9 42 19 42
15 0 50 26 97 70 41 39 85 73 99 77 13 3 35 17 48 30 27 27 83 53 113 53 10 0
21 7 25 15 4 11 20 15 58 15 45 -1 57 -5 82 -30 35 -36 39 -36 70 -9 l25 21
-40 50 c-21 27 -39 54 -39 60 0 6 -25 35 -55 66 -30 31 -55 65 -55 76 0 12
-18 37 -40 56 -22 19 -40 39 -40 43 0 11 -51 77 -59 77 -3 -1 -16 -9 -28 -19z"/>
<path d="M2838 10755 c-17 -14 -28 -34 -28 -49 0 -15 -8 -30 -20 -36 -13 -7
-20 -21 -20 -40 0 -19 -7 -33 -20 -40 -13 -7 -20 -21 -20 -41 0 -17 -9 -42
-20 -56 -11 -14 -20 -35 -20 -45 0 -11 -9 -31 -20 -45 -11 -14 -20 -36 -20
-48 0 -13 -7 -25 -15 -29 -23 -9 -18 -29 13 -47 27 -15 30 -15 51 2 12 10 26
31 30 46 7 28 9 28 92 31 75 2 87 0 104 -18 10 -11 28 -20 40 -20 13 0 28 -6
34 -14 6 -7 30 -16 52 -19 22 -3 48 -12 58 -21 10 -9 27 -16 38 -16 11 0 28
-9 38 -20 10 -11 31 -20 46 -20 18 0 32 -7 39 -20 7 -12 21 -20 38 -20 16 0
32 -8 40 -20 8 -14 23 -20 46 -20 18 0 39 -7 46 -15 7 -8 18 -15 24 -15 6 0
28 -9 49 -20 20 -11 48 -20 62 -20 14 0 30 -9 37 -20 8 -12 24 -20 39 -20 14
0 34 -9 44 -20 10 -11 28 -20 39 -20 12 0 29 -9 39 -20 9 -11 29 -20 43 -20
15 0 42 -10 62 -22 43 -27 122 -102 122 -118 0 -6 -9 -24 -21 -39 -30 -40 -22
-75 17 -79 26 -3 35 3 57 36 15 21 27 48 27 61 0 13 9 34 20 48 11 14 20 34
20 43 0 10 7 23 15 30 8 7 15 23 15 36 0 13 9 32 20 41 11 10 20 28 20 41 0
13 9 35 20 49 11 14 20 33 20 42 0 10 5 22 11 28 9 9 8 18 -5 37 -9 15 -20 26
-25 26 -4 0 -31 -23 -58 -51 -49 -50 -53 -51 -112 -53 -48 -2 -64 1 -77 16
-10 10 -27 18 -38 18 -12 0 -34 9 -51 20 -16 11 -40 20 -51 20 -12 0 -33 9
-47 20 -14 11 -37 20 -51 20 -15 0 -30 8 -36 20 -6 12 -21 20 -35 20 -14 0
-34 9 -45 20 -11 11 -27 20 -37 20 -20 0 -120 46 -128 60 -3 6 -23 10 -44 10
-25 0 -44 7 -56 20 -10 11 -28 20 -40 20 -12 0 -30 9 -40 20 -10 11 -28 20
-39 20 -12 0 -29 9 -39 20 -9 11 -28 20 -42 20 -14 0 -28 7 -31 15 -4 8 -17
15 -30 15 -13 0 -32 9 -41 20 -10 11 -28 20 -40 20 -14 0 -44 19 -74 48 -50
47 -50 47 -44 97 4 34 2 56 -7 67 -12 16 -15 15 -40 -7z"/>
<path d="M12787 10100 c-98 -4 -121 -8 -131 -22 -9 -13 -27 -18 -59 -18 -36 0
-49 -4 -57 -20 -7 -13 -21 -20 -40 -20 -16 0 -33 -7 -38 -16 -8 -15 -35 -33
-78 -53 -38 -17 -194 -182 -194 -205 0 -12 -15 -34 -35 -50 -28 -24 -35 -36
-35 -66 0 -21 -8 -48 -19 -61 -10 -13 -20 -47 -23 -77 -3 -29 -12 -60 -22 -70
-24 -27 -22 -118 4 -157 14 -21 20 -47 20 -87 0 -45 5 -63 20 -78 12 -12 20
-33 20 -54 0 -26 9 -45 35 -73 19 -21 35 -46 35 -55 0 -18 173 -198 190 -198
6 0 33 -16 60 -35 27 -19 57 -35 65 -35 8 0 23 -9 32 -20 13 -15 30 -20 69
-20 37 0 59 -6 78 -21 24 -19 37 -20 160 -17 110 2 137 6 153 21 12 11 36 17
63 17 26 0 51 7 61 16 10 9 36 18 58 21 22 3 48 14 57 24 9 11 27 19 38 19 12
0 29 8 38 18 9 9 39 33 68 52 63 42 66 45 141 142 32 43 59 86 59 96 0 9 10
26 21 36 17 14 20 25 16 52 -5 27 -1 39 14 52 18 15 19 31 19 201 0 151 -3
187 -15 201 -9 10 -17 41 -19 70 -2 30 -10 59 -18 65 -18 14 -58 72 -58 84 0
19 -222 230 -264 252 -23 11 -52 27 -66 35 -14 7 -38 14 -54 14 -16 0 -34 7
-41 17 -9 12 -26 16 -61 15 -27 -1 -71 1 -99 6 -27 4 -103 5 -168 2z m307
-215 c12 -9 42 -15 72 -15 36 0 59 -6 77 -20 14 -11 32 -20 41 -20 8 0 20 -9
26 -20 6 -11 17 -20 25 -20 19 0 85 -59 85 -76 0 -8 9 -22 20 -31 11 -10 20
-28 20 -40 0 -13 9 -31 20 -40 14 -12 20 -30 20 -59 0 -28 6 -46 20 -59 15
-14 20 -31 20 -70 0 -37 -6 -60 -20 -78 -12 -15 -20 -40 -20 -65 0 -26 -6 -45
-20 -57 -11 -10 -20 -26 -20 -36 0 -23 -203 -229 -226 -229 -8 0 -35 -16 -58
-35 -32 -26 -53 -35 -80 -35 -24 0 -42 -7 -53 -20 -13 -14 -30 -20 -60 -20
-31 0 -48 -6 -60 -20 -16 -19 -30 -20 -194 -20 -163 0 -177 1 -194 20 -10 11
-28 20 -39 20 -12 0 -29 9 -39 20 -9 11 -26 20 -38 20 -28 0 -149 118 -149
146 0 11 -9 29 -20 39 -14 13 -20 31 -20 61 0 33 -5 46 -20 54 -17 9 -20 21
-20 84 0 58 4 79 20 99 11 14 20 40 20 60 0 27 9 45 40 79 22 23 40 52 40 62
0 20 132 156 151 156 13 0 72 41 82 58 4 6 26 12 48 12 27 0 45 6 56 20 10 11
29 20 43 20 14 0 33 9 43 20 14 17 29 20 102 20 67 0 87 3 91 15 8 21 141 21
168 0z"/>
<path d="M2373 9674 c-20 -31 -23 -49 -23 -138 0 -91 -2 -105 -20 -121 -18
-17 -20 -29 -18 -104 l3 -86 30 0 c28 0 30 2 33 45 2 32 11 52 30 72 l27 27
151 1 c136 0 154 -2 177 -20 22 -17 40 -20 145 -20 94 0 122 -3 132 -15 10
-11 36 -15 111 -15 87 0 101 -3 116 -20 15 -17 30 -20 100 -20 48 0 85 -4 89
-11 8 -14 -45 -69 -68 -69 -10 0 -38 -16 -64 -35 -25 -19 -51 -35 -58 -35 -7
0 -21 -9 -31 -20 -10 -11 -28 -20 -40 -20 -11 0 -38 -18 -60 -40 -22 -22 -49
-40 -60 -40 -12 0 -30 -9 -40 -20 -10 -11 -28 -20 -39 -20 -12 0 -37 -16 -56
-35 -19 -19 -42 -35 -52 -35 -10 0 -27 -9 -38 -20 -11 -11 -26 -20 -32 -20 -7
0 -40 -18 -73 -40 -33 -22 -65 -40 -72 -40 -7 0 -17 -9 -23 -20 -7 -13 -21
-20 -39 -20 -16 0 -31 -7 -35 -15 -3 -8 -16 -15 -29 -15 -14 0 -39 -16 -62
-40 -22 -22 -49 -40 -60 -40 -12 0 -30 -9 -40 -20 -10 -11 -28 -20 -40 -20
-12 0 -30 -9 -40 -20 -10 -11 -27 -20 -39 -20 -11 0 -33 -12 -48 -27 -23 -21
-28 -36 -28 -72 0 -28 -6 -51 -17 -64 -14 -15 -18 -38 -19 -101 0 -89 8 -116
34 -116 26 0 42 20 42 51 0 18 9 35 26 48 25 19 40 21 200 21 162 0 175 -1
191 -20 15 -17 30 -20 115 -20 86 0 100 -3 115 -20 16 -18 30 -20 134 -20 102
0 119 -2 139 -20 19 -17 37 -20 112 -20 75 0 94 -3 115 -20 18 -14 41 -20 73
-20 33 0 50 -5 54 -15 3 -8 16 -15 29 -15 29 0 47 -18 47 -46 0 -12 6 -27 14
-34 8 -6 16 -23 18 -38 5 -41 30 -37 56 7 18 33 22 55 22 124 0 71 3 87 20
102 17 16 20 31 20 112 0 91 -1 94 -26 105 -23 11 -28 10 -41 -7 -8 -12 -12
-31 -9 -47 4 -20 -2 -35 -22 -57 l-26 -31 -197 0 c-163 0 -199 3 -209 15 -10
12 -37 15 -120 15 -92 0 -111 3 -133 20 -22 18 -40 20 -160 20 -118 0 -137 2
-159 19 -15 12 -44 21 -74 23 -35 2 -49 7 -49 18 0 10 12 16 32 18 20 2 37 11
43 23 6 10 21 19 33 19 13 0 38 15 57 35 19 19 44 35 55 35 12 0 39 18 60 40
22 22 49 40 60 40 12 0 29 8 38 18 9 10 37 28 61 40 24 12 49 29 56 37 7 8 23
15 35 15 12 0 28 7 35 15 7 8 36 28 65 45 29 17 58 37 65 45 7 8 22 15 34 15
12 0 29 9 39 20 9 11 26 20 38 20 11 0 35 16 53 35 22 23 43 35 59 35 16 0 31
8 37 20 6 12 21 20 36 20 15 0 39 14 61 35 20 20 48 38 61 42 14 3 33 14 43
24 11 11 27 19 38 19 10 0 24 6 30 14 7 8 23 17 36 20 13 3 45 25 70 48 43 39
46 45 43 87 l-3 46 -46 3 c-31 2 -53 10 -64 23 -15 16 -32 19 -105 19 -72 0
-92 3 -113 20 -22 17 -40 20 -145 20 -102 0 -123 3 -138 18 -14 13 -41 18
-128 22 -84 4 -117 9 -136 23 -20 14 -46 17 -136 17 -87 0 -114 3 -124 15 -9
11 -34 15 -97 15 l-84 0 -49 49 c-41 41 -49 55 -52 92 -3 41 -5 44 -33 46 -25
2 -34 -3 -52 -33z"/>
<path d="M13546 8102 c-3 -5 29 -42 69 -82 41 -41 75 -82 75 -91 0 -9 9 -28
20 -42 25 -32 27 -124 4 -188 -8 -24 -18 -69 -22 -99 l-7 -55 -200 0 c-172 0
-205 2 -232 18 -28 15 -64 17 -313 17 -261 0 -283 1 -317 20 -25 13 -57 20
-96 20 -45 0 -69 6 -103 26 l-44 26 0 63 c0 53 -3 65 -19 70 -41 13 -51 -3
-51 -83 0 -56 -5 -87 -20 -118 -18 -37 -20 -58 -18 -200 l3 -159 33 -3 c29 -3
32 -1 32 22 0 17 16 42 49 76 l49 50 191 0 c172 0 195 -2 228 -20 34 -18 57
-20 258 -20 194 0 224 -2 245 -17 20 -15 54 -19 175 -23 l150 -5 3 -45 c2 -30
-3 -58 -18 -87 -18 -36 -21 -58 -19 -132 l3 -90 -46 -45 c-25 -25 -55 -46 -66
-46 -24 0 -82 -57 -82 -80 0 -41 52 -52 93 -20 21 17 40 20 129 20 68 0 108 4
116 12 9 9 12 88 12 293 0 261 1 284 20 320 18 35 20 59 20 225 0 148 3 190
15 206 10 13 14 45 15 102 0 78 -2 86 -27 113 -25 26 -34 29 -89 29 -46 0 -63
4 -68 15 -4 11 -22 15 -75 15 -38 0 -72 -4 -75 -8z"/>
<path d="M3387 7642 c-17 -36 2 -56 55 -60 30 -2 52 -10 63 -23 10 -10 28 -19
39 -19 27 0 76 -55 76 -85 0 -13 6 -25 14 -28 8 -3 15 -27 18 -61 3 -32 12
-63 21 -74 12 -13 17 -37 17 -84 0 -51 4 -70 20 -88 16 -19 20 -37 20 -101 0
-75 -1 -78 -32 -104 -29 -24 -38 -27 -84 -21 -42 5 -56 2 -77 -14 -21 -17 -40
-20 -120 -20 -81 0 -96 -3 -112 -20 -15 -17 -31 -20 -100 -20 -96 0 -95 -1
-95 100 0 48 -4 71 -15 80 -11 9 -15 34 -15 99 0 83 2 89 28 114 15 15 35 27
43 27 22 0 39 21 39 47 0 22 -2 23 -100 23 -87 0 -105 -3 -130 -21 -24 -18
-38 -21 -77 -16 -60 7 -76 -2 -71 -39 2 -23 9 -30 33 -34 36 -6 75 -38 75 -61
0 -9 9 -28 20 -42 14 -17 20 -40 20 -75 0 -35 6 -57 20 -75 17 -22 20 -38 18
-94 l-3 -68 -46 -3 c-31 -2 -53 -10 -64 -23 -16 -16 -32 -19 -112 -19 -77 0
-99 -3 -121 -20 -20 -14 -46 -20 -98 -21 -39 -1 -76 1 -82 5 -7 4 -12 22 -12
39 0 18 -9 46 -20 62 -14 21 -20 47 -20 89 0 43 -5 65 -17 79 -14 15 -19 41
-21 126 -4 135 10 171 99 252 61 55 62 79 1 79 -26 0 -45 -7 -57 -20 -13 -14
-31 -20 -60 -20 -29 0 -47 -6 -60 -20 -12 -13 -31 -20 -56 -20 -45 0 -56 -12
-35 -42 11 -15 16 -45 16 -94 0 -58 4 -74 20 -89 16 -14 20 -31 20 -77 0 -45
5 -66 20 -85 17 -21 20 -41 20 -116 0 -72 4 -94 18 -110 13 -14 18 -41 20
-111 3 -57 9 -97 17 -106 8 -9 15 -49 18 -98 3 -46 9 -88 15 -94 6 -6 22 -8
36 -4 23 6 26 12 26 49 0 33 7 49 31 75 18 19 40 32 55 32 13 0 27 7 30 15 5
12 24 15 88 15 64 0 87 4 111 20 23 15 47 20 102 20 62 0 75 3 85 20 11 18 24
20 111 20 85 0 99 3 114 20 15 17 30 20 97 20 65 0 83 4 101 20 19 17 37 19
208 22 l187 2 35 -34 c20 -19 35 -44 35 -56 0 -28 14 -38 46 -30 22 6 24 11
24 70 0 50 -4 67 -20 81 -17 15 -20 31 -20 100 0 64 -3 84 -15 89 -11 4 -15
22 -15 70 0 51 -4 69 -19 83 -16 15 -20 35 -23 124 -2 85 -7 111 -20 126 -14
16 -18 38 -18 110 0 75 -3 95 -20 116 -13 17 -20 40 -20 70 0 24 -6 49 -13 55
-7 7 -77 12 -166 14 -153 3 -154 3 -164 -20z"/>
<path d="M12196 6725 c-3 -9 -6 -24 -6 -33 0 -10 -9 -23 -20 -30 -11 -7 -20
-23 -20 -36 0 -13 -7 -29 -15 -36 -9 -7 -15 -29 -15 -51 0 -26 -7 -46 -20 -59
-11 -11 -20 -31 -20 -45 0 -14 -8 -29 -20 -35 -15 -8 -20 -21 -20 -54 0 -30
-6 -48 -20 -61 -14 -13 -20 -31 -20 -59 0 -29 -6 -47 -20 -59 -11 -9 -20 -26
-20 -37 0 -11 -9 -29 -20 -40 -13 -13 -20 -33 -20 -59 0 -22 -6 -44 -15 -51
-8 -7 -15 -20 -15 -30 0 -9 -9 -29 -20 -43 -12 -14 -20 -40 -20 -61 0 -24 -7
-42 -20 -53 -11 -10 -20 -27 -20 -39 0 -29 124 -154 152 -154 12 0 39 -18 60
-40 43 -44 72 -51 88 -21 14 27 15 25 -35 81 -25 28 -45 57 -45 64 0 8 -7 19
-15 26 -12 10 -15 37 -15 125 0 97 3 116 20 138 13 16 20 40 20 66 0 28 7 48
20 61 11 11 20 31 20 44 0 13 7 26 15 30 8 3 15 17 15 30 0 14 9 33 19 43 11
10 21 29 23 43 3 23 7 25 64 28 45 2 64 -1 74 -13 7 -8 25 -15 41 -15 16 0 38
-9 49 -20 13 -13 33 -20 60 -20 28 0 45 -6 57 -20 10 -11 29 -20 43 -20 14 0
39 -9 55 -20 17 -11 42 -20 56 -20 32 0 79 -48 79 -80 0 -13 -7 -31 -16 -41
-9 -10 -18 -36 -21 -59 -3 -23 -12 -44 -19 -47 -8 -3 -14 -16 -14 -29 0 -13
-9 -32 -20 -41 -11 -10 -20 -28 -20 -40 0 -16 -14 -32 -47 -53 -39 -25 -56
-30 -91 -27 -31 3 -45 1 -49 -9 -7 -20 37 -64 65 -64 12 0 30 -9 39 -20 12
-14 30 -20 59 -20 28 0 46 -6 59 -20 10 -11 29 -20 42 -20 13 0 37 -10 53 -22
24 -17 32 -19 45 -8 17 14 20 46 4 55 -20 13 -69 88 -69 107 0 11 9 31 20 45
11 14 20 38 20 52 0 15 8 31 20 39 15 9 20 23 20 56 0 30 6 48 19 60 11 10 21
30 23 45 3 23 8 26 46 29 30 2 54 -3 78 -17 19 -12 45 -21 58 -21 13 0 31 -9
41 -20 11 -13 31 -20 52 -20 20 0 46 -9 60 -20 14 -11 35 -20 45 -20 11 0 31
-9 45 -20 14 -11 36 -20 49 -20 12 0 25 -3 27 -7 10 -19 -11 -154 -27 -171 -9
-10 -16 -30 -16 -44 0 -14 -9 -33 -20 -43 -11 -10 -20 -27 -20 -37 0 -11 -9
-31 -20 -45 -11 -14 -20 -32 -20 -39 0 -8 -9 -23 -20 -34 -11 -11 -20 -28 -20
-39 0 -10 -23 -39 -52 -65 -51 -46 -52 -46 -124 -46 -62 0 -75 -3 -84 -19 -18
-35 -2 -51 50 -51 32 0 55 -6 73 -20 18 -14 40 -20 76 -20 40 0 52 -4 61 -20
12 -22 49 -27 68 -8 7 7 12 30 12 53 0 29 5 44 20 53 13 8 20 23 20 42 0 18 6
33 15 36 9 4 17 26 21 55 4 27 13 54 20 60 8 6 14 28 14 49 0 24 7 43 20 55
11 10 20 28 20 40 0 12 9 30 20 40 14 13 20 31 20 61 0 33 5 46 20 54 12 7 20
21 20 37 0 15 7 34 16 44 9 10 18 36 21 58 3 22 14 48 24 57 11 9 19 28 19 40
0 13 9 38 20 56 38 63 18 144 -29 118 -12 -6 -21 -15 -21 -20 0 -6 -16 -28
-35 -49 -36 -39 -37 -39 -93 -34 -31 3 -64 12 -73 19 -8 8 -26 14 -38 14 -13
0 -34 9 -48 20 -14 11 -40 20 -58 20 -19 0 -39 8 -50 20 -10 11 -30 20 -44 20
-14 0 -39 9 -56 20 -16 11 -43 20 -59 20 -16 0 -37 7 -46 15 -10 9 -35 19 -56
22 -22 3 -43 12 -47 20 -4 7 -19 13 -33 13 -14 0 -37 9 -51 20 -14 11 -40 20
-58 20 -19 0 -39 8 -50 20 -10 11 -29 20 -42 20 -12 0 -32 9 -43 20 -11 11
-31 20 -45 20 -14 0 -28 7 -31 15 -4 9 -26 17 -54 21 -27 4 -51 13 -54 20 -3
8 -16 14 -29 14 -13 0 -38 13 -55 28 -30 27 -31 32 -34 113 l-3 84 -31 3 c-22
2 -33 -2 -38 -13z"/>
<path d="M3915 6404 c-14 -21 -15 -31 -6 -51 18 -40 14 -112 -9 -140 -11 -14
-20 -35 -20 -46 0 -13 -29 -49 -75 -94 -41 -40 -75 -77 -75 -82 0 -6 -16 -25
-35 -42 -19 -18 -35 -38 -35 -44 0 -7 -11 -24 -25 -39 -14 -15 -25 -33 -25
-40 0 -8 -6 -19 -14 -25 -8 -7 -17 -24 -21 -39 -4 -15 -13 -34 -20 -42 -7 -8
-15 -28 -17 -45 -2 -25 -8 -30 -34 -33 -19 -2 -36 3 -44 12 -7 9 -21 16 -31
16 -11 0 -28 9 -39 20 -18 18 -33 20 -150 20 -119 0 -134 -2 -163 -22 -18 -13
-36 -29 -40 -35 -4 -7 -18 -13 -30 -13 -31 0 -87 -55 -87 -86 0 -13 -7 -27
-15 -30 -8 -4 -15 -17 -15 -30 0 -13 -9 -33 -20 -44 -17 -17 -20 -33 -20 -99
0 -58 4 -82 15 -91 9 -7 15 -29 15 -51 0 -26 7 -46 20 -59 11 -11 20 -31 20
-45 0 -14 9 -30 20 -37 12 -8 20 -24 20 -40 0 -17 8 -31 20 -38 12 -7 20 -21
20 -38 0 -16 8 -32 20 -40 11 -7 20 -23 20 -36 0 -12 9 -31 20 -41 11 -10 20
-26 20 -36 0 -10 4 -21 10 -24 5 -3 22 -31 36 -61 14 -30 34 -59 45 -64 10 -6
19 -21 19 -33 0 -34 62 -91 89 -82 24 7 28 37 6 55 -8 7 -15 28 -15 46 0 27 9
43 43 75 23 23 56 47 72 55 17 8 53 28 80 44 28 16 55 29 62 29 16 1 93 53 93
63 0 4 11 8 25 8 14 0 33 9 42 20 10 11 28 20 40 20 13 0 31 9 40 20 10 11 27
20 39 20 11 0 29 9 39 20 10 11 28 20 39 20 12 0 29 9 39 20 9 11 27 20 40 20
12 0 30 9 40 20 9 11 27 20 39 20 13 0 39 16 58 35 19 19 44 35 55 35 12 0 30
9 40 20 10 11 28 20 39 20 12 0 29 9 39 20 9 11 28 20 42 20 14 0 42 9 62 20
21 11 43 20 50 20 7 0 39 -27 71 -60 l59 -60 27 25 c26 24 30 55 6 55 -5 0
-10 11 -10 25 0 14 -9 33 -20 42 -11 10 -20 28 -20 41 0 13 -15 39 -35 59 -19
20 -40 53 -45 74 -6 21 -15 41 -20 44 -5 3 -14 23 -20 43 -5 20 -27 56 -48 80
-32 36 -44 43 -68 40 -23 -2 -30 -9 -32 -30 -2 -19 3 -30 17 -38 16 -8 21 -21
21 -53 0 -38 -6 -48 -48 -90 -26 -26 -57 -47 -68 -47 -11 0 -38 -18 -59 -40
-22 -22 -49 -40 -60 -40 -12 0 -30 -9 -40 -20 -10 -11 -28 -20 -41 -20 -13 0
-27 -7 -32 -16 -5 -8 -21 -17 -37 -19 -16 -1 -34 -10 -40 -19 -7 -9 -24 -16
-38 -16 -16 0 -31 -8 -37 -20 -6 -11 -21 -20 -34 -20 -13 0 -31 -9 -41 -20
-10 -11 -29 -20 -42 -20 -13 0 -37 -14 -56 -35 -18 -20 -47 -38 -66 -41 -18
-4 -35 -13 -38 -20 -3 -8 -16 -14 -29 -14 -13 0 -32 -9 -41 -20 -10 -11 -27
-20 -39 -20 -11 0 -29 -9 -39 -20 -10 -11 -28 -20 -40 -20 -12 0 -30 -9 -40
-20 -10 -11 -28 -20 -39 -20 -12 0 -29 -9 -39 -20 -26 -31 -49 -24 -98 28 -32
33 -48 58 -52 86 -3 21 -13 46 -22 56 -12 13 -15 42 -15 137 0 107 2 122 20
138 11 10 20 29 20 41 0 17 7 25 28 30 15 4 43 22 62 41 l34 33 132 0 c105 0
134 -3 144 -15 7 -8 18 -15 24 -15 21 0 154 -140 176 -185 12 -25 27 -44 34
-42 21 7 19 95 -3 131 -29 47 -29 145 -1 171 13 12 20 31 20 55 0 29 8 44 40
76 22 21 40 47 40 56 0 9 52 70 115 135 71 73 115 125 115 138 0 11 9 28 20
38 17 15 20 29 20 112 0 83 -3 97 -20 112 -11 10 -20 25 -20 35 0 17 -85 108
-100 108 -4 0 -15 -12 -25 -26z"/>
<path d="M11603 5378 c-33 -35 -64 -72 -67 -83 -3 -11 -37 -56 -76 -100 -38
-44 -70 -86 -70 -93 0 -7 -26 -39 -58 -70 -32 -31 -70 -77 -85 -102 -14 -25
-49 -67 -77 -95 -27 -27 -50 -58 -50 -70 0 -11 -27 -47 -60 -80 -33 -33 -60
-67 -60 -76 0 -8 18 -33 40 -55 22 -21 40 -47 40 -58 0 -10 18 -38 40 -62 22
-24 40 -50 40 -58 0 -16 42 -66 55 -66 10 0 44 43 45 56 0 7 -7 14 -15 18 -12
4 -15 30 -15 144 0 126 2 141 20 157 11 10 20 27 20 37 0 11 16 39 35 62 19
24 35 48 35 55 0 6 18 30 40 52 22 22 40 49 40 59 0 24 95 120 118 120 10 0
53 -36 97 -80 48 -48 88 -80 100 -80 12 0 44 -24 75 -55 31 -31 63 -55 75 -55
12 0 50 -30 95 -75 45 -45 83 -75 95 -75 12 0 46 -25 80 -60 33 -33 67 -60 76
-60 24 0 275 -238 303 -287 5 -10 1 -25 -14 -45 -29 -40 -24 -82 11 -86 21 -2
37 8 73 45 25 26 46 56 46 67 0 10 36 54 80 97 58 57 80 86 80 104 0 14 4 25
10 25 15 0 32 39 25 60 -8 25 -51 27 -77 3 -27 -24 -126 -25 -150 -1 -10 10
-27 18 -37 18 -11 0 -47 27 -81 60 -34 33 -71 60 -81 60 -11 0 -53 33 -96 75
-42 42 -84 75 -95 75 -11 0 -44 25 -74 55 -30 30 -63 55 -74 55 -10 0 -55 36
-100 80 -46 45 -90 80 -101 80 -11 0 -44 25 -74 55 -29 30 -62 55 -72 55 -25
0 -43 19 -43 45 0 11 -9 28 -20 38 -25 21 -25 28 -1 59 17 21 25 63 22 106 -2
25 -28 10 -88 -50z"/>
<path d="M4761 5036 l-23 -24 36 -48 c62 -81 63 -78 -168 -307 -284 -281 -352
-344 -378 -352 -13 -4 -74 -58 -136 -119 -61 -61 -131 -121 -154 -134 -23 -12
-49 -29 -58 -37 -9 -8 -35 -15 -58 -15 -35 0 -48 6 -75 34 l-32 34 -30 -23
-30 -24 121 -123 c67 -68 133 -141 147 -163 71 -112 138 -148 145 -79 2 19 -3
36 -12 44 -11 9 -16 30 -16 73 l0 61 238 233 c130 128 262 250 292 270 30 20
115 95 187 165 73 71 147 135 165 144 18 8 41 20 50 26 14 10 24 9 50 -6 18
-10 43 -28 55 -38 30 -27 67 -20 71 13 2 21 -12 41 -71 102 -41 41 -84 92 -97
113 -22 37 -178 204 -191 204 -3 0 -16 -11 -28 -24z"/>
</g>
</svg>
